<svg width="38" height="38" viewBox="0 0 38 38" fill="none" xmlns="http://www.w3.org/2000/svg">
<g clip-path="url(#clip0_42_4095)">
<g clip-path="url(#clip1_42_4095)">
<g clip-path="url(#clip2_42_4095)">
<path d="M1.47032 0.9631C1.50355 0.9631 1.53049 0.936172 1.53049 0.90294C1.53049 0.869707 1.50355 0.842773 1.47032 0.842773C1.43708 0.842773 1.41016 0.869707 1.41016 0.90294C1.41016 0.936172 1.43708 0.9631 1.47032 0.9631Z" fill="#FFD200"/>
<path d="M4.17882 0.9631C4.21205 0.9631 4.23902 0.936172 4.23902 0.90294C4.23902 0.869707 4.21205 0.842773 4.17882 0.842773C4.14559 0.842773 4.11865 0.869707 4.11865 0.90294C4.11865 0.936172 4.14559 0.9631 4.17882 0.9631Z" fill="#FFD200"/>
<path d="M6.88781 0.9631C6.92103 0.9631 6.948 0.936172 6.948 0.90294C6.948 0.869707 6.92103 0.842773 6.88781 0.842773C6.85457 0.842773 6.82764 0.869707 6.82764 0.90294C6.82764 0.936172 6.85457 0.9631 6.88781 0.9631Z" fill="#FFD200"/>
<path d="M9.59682 0.9631C9.63007 0.9631 9.65701 0.936172 9.65701 0.90294C9.65701 0.869707 9.63007 0.842773 9.59682 0.842773C9.56357 0.842773 9.53662 0.869707 9.53662 0.90294C9.53662 0.936172 9.56357 0.9631 9.59682 0.9631Z" fill="#FFD200"/>
<path d="M12.3057 0.9631C12.339 0.9631 12.3659 0.936172 12.3659 0.90294C12.3659 0.869707 12.339 0.842773 12.3057 0.842773C12.2725 0.842773 12.2456 0.869707 12.2456 0.90294C12.2456 0.936172 12.2725 0.9631 12.3057 0.9631Z" fill="#FFD200"/>
<path d="M15.0133 0.9631C15.0466 0.9631 15.0734 0.936172 15.0734 0.90294C15.0734 0.869707 15.0466 0.842773 15.0133 0.842773C14.9801 0.842773 14.9531 0.869707 14.9531 0.90294C14.9531 0.936172 14.9801 0.9631 15.0133 0.9631Z" fill="#FFD200"/>
<path d="M17.7222 0.9631C17.7555 0.9631 17.7824 0.936172 17.7824 0.90294C17.7824 0.869707 17.7555 0.842773 17.7222 0.842773C17.6891 0.842773 17.6621 0.869707 17.6621 0.90294C17.6621 0.936172 17.6891 0.9631 17.7222 0.9631Z" fill="#FFD200"/>
<path d="M20.4313 0.9631C20.4645 0.9631 20.4914 0.936172 20.4914 0.90294C20.4914 0.869707 20.4645 0.842773 20.4313 0.842773C20.398 0.842773 20.3711 0.869707 20.3711 0.90294C20.3711 0.936172 20.398 0.9631 20.4313 0.9631Z" fill="#FFD200"/>
<path d="M23.1413 0.9631C23.1744 0.9631 23.2014 0.936172 23.2014 0.90294C23.2014 0.869707 23.1744 0.842773 23.1413 0.842773C23.108 0.842773 23.0811 0.869707 23.0811 0.90294C23.0811 0.936172 23.108 0.9631 23.1413 0.9631Z" fill="#FFD200"/>
<path d="M25.8501 0.9631C25.8834 0.9631 25.9103 0.936172 25.9103 0.90294C25.9103 0.869707 25.8834 0.842773 25.8501 0.842773C25.8169 0.842773 25.79 0.869707 25.79 0.90294C25.79 0.936172 25.8169 0.9631 25.8501 0.9631Z" fill="#FFD200"/>
<path d="M28.5591 0.9631C28.5924 0.9631 28.6193 0.936172 28.6193 0.90294C28.6193 0.869707 28.5924 0.842773 28.5591 0.842773C28.526 0.842773 28.499 0.869707 28.499 0.90294C28.499 0.936172 28.526 0.9631 28.5591 0.9631Z" fill="#FFD200"/>
<path d="M31.2682 0.9631C31.3015 0.9631 31.3284 0.936172 31.3284 0.90294C31.3284 0.869707 31.3015 0.842773 31.2682 0.842773C31.235 0.842773 31.208 0.869707 31.208 0.90294C31.208 0.936172 31.235 0.9631 31.2682 0.9631Z" fill="#FFD200"/>
<path d="M33.9767 0.9631C34.01 0.9631 34.0368 0.936172 34.0368 0.90294C34.0368 0.869707 34.01 0.842773 33.9767 0.842773C33.9435 0.842773 33.9165 0.869707 33.9165 0.90294C33.9165 0.936172 33.9435 0.9631 33.9767 0.9631Z" fill="#FFD200"/>
<path d="M36.6847 0.9631C36.718 0.9631 36.7449 0.936172 36.7449 0.90294C36.7449 0.869707 36.718 0.842773 36.6847 0.842773C36.6515 0.842773 36.6245 0.869707 36.6245 0.90294C36.6245 0.936172 36.6515 0.9631 36.6847 0.9631Z" fill="#FFD200"/>
<path d="M1.47032 3.67112C1.48222 3.67112 1.49383 3.66761 1.50373 3.66099C1.51362 3.65439 1.52135 3.64497 1.5259 3.63398C1.53045 3.62299 1.53166 3.61088 1.52934 3.5992C1.52701 3.58753 1.52127 3.5768 1.51286 3.56839C1.50444 3.55997 1.4937 3.55426 1.48204 3.55193C1.47036 3.54961 1.45829 3.55082 1.44729 3.55537C1.4363 3.55993 1.42689 3.56762 1.42028 3.57751C1.41367 3.5874 1.41016 3.59905 1.41016 3.61096C1.41016 3.62692 1.41646 3.64221 1.42775 3.65349C1.43903 3.66478 1.45436 3.67112 1.47032 3.67112Z" fill="#FFD200"/>
<path d="M4.17842 3.67062C4.19033 3.6707 4.20203 3.66725 4.21197 3.66068C4.22192 3.65412 4.22968 3.64473 4.23429 3.63374C4.2389 3.62276 4.24016 3.61062 4.23788 3.59893C4.2356 3.58723 4.22991 3.57648 4.2215 3.56803C4.21311 3.55958 4.20236 3.55383 4.19068 3.55147C4.179 3.54912 4.16689 3.5503 4.15587 3.55484C4.14485 3.55938 4.13545 3.56707 4.12882 3.57698C4.12219 3.58688 4.11865 3.59854 4.11865 3.61046C4.11865 3.62635 4.12493 3.64158 4.13613 3.65285C4.14733 3.66412 4.16252 3.67053 4.17842 3.67062Z" fill="#FFD200"/>
<path d="M6.88743 3.67062C6.89935 3.6707 6.91105 3.66725 6.92099 3.66068C6.93094 3.65412 6.9387 3.64473 6.94331 3.63374C6.94792 3.62276 6.94918 3.61062 6.9469 3.59893C6.94462 3.58723 6.93893 3.57648 6.93052 3.56803C6.92213 3.55958 6.91138 3.55383 6.89971 3.55147C6.88802 3.54912 6.87591 3.5503 6.86489 3.55484C6.85387 3.55938 6.84447 3.56707 6.83784 3.57698C6.83121 3.58688 6.82764 3.59854 6.82764 3.61046C6.82764 3.62635 6.83395 3.64158 6.84515 3.65285C6.85636 3.66412 6.87154 3.67053 6.88743 3.67062Z" fill="#FFD200"/>
<path d="M9.59682 3.67063C9.60873 3.67063 9.62039 3.66711 9.63024 3.66051C9.64017 3.65389 9.64786 3.64449 9.65243 3.63349C9.65701 3.6225 9.65813 3.61038 9.6558 3.59871C9.65356 3.58704 9.64777 3.5763 9.63939 3.56789C9.63102 3.55948 9.62022 3.55377 9.60856 3.55145C9.5969 3.54912 9.58481 3.55033 9.57376 3.55488C9.56279 3.55943 9.55346 3.56712 9.54681 3.57702C9.54016 3.58692 9.53662 3.59857 9.53662 3.61047C9.53662 3.62642 9.54301 3.64171 9.55424 3.653C9.56555 3.66429 9.58084 3.67063 9.59682 3.67063Z" fill="#FFD200"/>
<path d="M12.3057 3.67063C12.3176 3.67063 12.3293 3.66711 12.3391 3.66051C12.3491 3.65389 12.3568 3.64449 12.3613 3.63349C12.3659 3.6225 12.367 3.61038 12.3648 3.59871C12.3625 3.58704 12.3567 3.5763 12.3483 3.56789C12.3398 3.55948 12.3291 3.55377 12.3175 3.55145C12.3058 3.54912 12.2937 3.55033 12.2827 3.55488C12.2717 3.55943 12.2623 3.56712 12.2557 3.57702C12.2491 3.58692 12.2456 3.59857 12.2456 3.61047C12.2456 3.62642 12.2519 3.64171 12.2632 3.653C12.2745 3.66429 12.2897 3.67063 12.3057 3.67063Z" fill="#FFD200"/>
<path d="M15.0133 3.67063C15.0252 3.67063 15.0368 3.66711 15.0467 3.66051C15.0567 3.65389 15.0644 3.64449 15.0689 3.63349C15.0734 3.6225 15.0746 3.61038 15.0723 3.59871C15.07 3.58704 15.0643 3.5763 15.0558 3.56789C15.0474 3.55948 15.0367 3.55377 15.0251 3.55145C15.0134 3.54912 15.0012 3.55033 14.9903 3.55488C14.9793 3.55943 14.9699 3.56712 14.9632 3.57702C14.9567 3.58692 14.9531 3.59857 14.9531 3.61047C14.9531 3.62642 14.9595 3.64171 14.9707 3.653C14.9821 3.66429 14.9973 3.67063 15.0133 3.67063Z" fill="#FFD200"/>
<path d="M17.7222 3.67063C17.7341 3.67063 17.7458 3.66711 17.7557 3.66051C17.7656 3.65389 17.7733 3.64449 17.7778 3.63349C17.7824 3.6225 17.7836 3.61038 17.7813 3.59871C17.779 3.58704 17.7732 3.5763 17.7648 3.56789C17.7564 3.55948 17.7457 3.55377 17.734 3.55145C17.7223 3.54912 17.7102 3.55033 17.6992 3.55488C17.6883 3.55943 17.6789 3.56712 17.6722 3.57702C17.6657 3.58692 17.6621 3.59857 17.6621 3.61047C17.6621 3.62642 17.6684 3.64171 17.6797 3.653C17.691 3.66429 17.7063 3.67063 17.7222 3.67063Z" fill="#FFD200"/>
<path d="M20.4313 3.67063C20.4431 3.67063 20.4548 3.66711 20.4647 3.66051C20.4746 3.65389 20.4823 3.64449 20.4868 3.63349C20.4914 3.6225 20.4926 3.61038 20.4903 3.59871C20.4879 3.58704 20.4822 3.5763 20.4738 3.56789C20.4654 3.55948 20.4547 3.55377 20.443 3.55145C20.4314 3.54912 20.4192 3.55033 20.4082 3.55488C20.3973 3.55943 20.3878 3.56712 20.3812 3.57702C20.3746 3.58692 20.3711 3.59857 20.3711 3.61047C20.3711 3.62642 20.3774 3.64171 20.3887 3.653C20.4 3.66429 20.4153 3.67063 20.4313 3.67063Z" fill="#FFD200"/>
<path d="M23.1413 3.67063C23.1531 3.67063 23.1647 3.66711 23.1746 3.66051C23.1845 3.65389 23.1922 3.64449 23.1968 3.63349C23.2014 3.6225 23.2026 3.61038 23.2002 3.59871C23.1979 3.58704 23.1921 3.5763 23.1837 3.56789C23.1754 3.55948 23.1647 3.55377 23.153 3.55145C23.1413 3.54912 23.1292 3.55033 23.1182 3.55488C23.1072 3.55943 23.0978 3.56712 23.0912 3.57702C23.0846 3.58692 23.0811 3.59857 23.0811 3.61047C23.0811 3.62642 23.0874 3.64171 23.0987 3.653C23.11 3.66429 23.1253 3.67063 23.1413 3.67063Z" fill="#FFD200"/>
<path d="M25.8516 3.67063C25.8635 3.67063 25.8752 3.66711 25.8851 3.66051C25.895 3.65389 25.9027 3.64449 25.9072 3.63349C25.9118 3.6225 25.913 3.61038 25.9107 3.59871C25.9084 3.58704 25.9026 3.5763 25.8942 3.56789C25.8857 3.55948 25.8751 3.55377 25.8634 3.55145C25.8517 3.54912 25.8396 3.55033 25.8286 3.55488C25.8176 3.55943 25.8082 3.56712 25.8016 3.57702C25.795 3.58692 25.7915 3.59857 25.7915 3.61047C25.7915 3.62642 25.7978 3.64171 25.8091 3.653C25.8203 3.66429 25.8357 3.67063 25.8516 3.67063Z" fill="#FFD200"/>
<path d="M28.5591 3.67063C28.5711 3.67063 28.5827 3.66711 28.5926 3.66051C28.6025 3.65389 28.6102 3.64449 28.6148 3.63349C28.6193 3.6225 28.6205 3.61038 28.6182 3.59871C28.6159 3.58704 28.6101 3.5763 28.6017 3.56789C28.5933 3.55948 28.5825 3.55377 28.5709 3.55145C28.5592 3.54912 28.5471 3.55033 28.5362 3.55488C28.5252 3.55943 28.5158 3.56712 28.5091 3.57702C28.5025 3.58692 28.499 3.59857 28.499 3.61047C28.499 3.62642 28.5053 3.64171 28.5166 3.653C28.5279 3.66429 28.5432 3.67063 28.5591 3.67063Z" fill="#FFD200"/>
<path d="M31.2682 3.67063C31.2801 3.67063 31.2917 3.66711 31.3016 3.66051C31.3115 3.65389 31.3192 3.64449 31.3238 3.63349C31.3283 3.6225 31.3295 3.61038 31.3272 3.59871C31.3249 3.58704 31.3192 3.5763 31.3108 3.56789C31.3023 3.55948 31.2916 3.55377 31.2799 3.55145C31.2683 3.54912 31.2562 3.55033 31.2451 3.55488C31.2342 3.55943 31.2248 3.56712 31.2182 3.57702C31.2115 3.58692 31.208 3.59857 31.208 3.61047C31.208 3.62642 31.2143 3.64171 31.2256 3.653C31.2369 3.66429 31.2522 3.67063 31.2682 3.67063Z" fill="#FFD200"/>
<path d="M33.9767 3.67063C33.9886 3.67063 34.0002 3.66711 34.0101 3.66051C34.02 3.65389 34.0277 3.64449 34.0322 3.63349C34.0368 3.6225 34.038 3.61038 34.0357 3.59871C34.0334 3.58704 34.0277 3.5763 34.0192 3.56789C34.0108 3.55948 34.0001 3.55377 33.9884 3.55145C33.9767 3.54912 33.9646 3.55033 33.9536 3.55488C33.9426 3.55943 33.9333 3.56712 33.9266 3.57702C33.92 3.58692 33.9165 3.59857 33.9165 3.61047C33.9165 3.62642 33.9228 3.64171 33.9341 3.653C33.9454 3.66429 33.9607 3.67063 33.9767 3.67063Z" fill="#FFD200"/>
<path d="M36.6844 3.67062C36.6963 3.6707 36.7079 3.66725 36.7179 3.66068C36.7278 3.65412 36.7356 3.64473 36.7402 3.63374C36.7448 3.62276 36.7461 3.61062 36.7438 3.59893C36.7415 3.58723 36.7357 3.57648 36.7274 3.56803C36.719 3.55958 36.7083 3.55383 36.6966 3.55147C36.6849 3.54912 36.6728 3.5503 36.6618 3.55484C36.6508 3.55938 36.6414 3.56707 36.6347 3.57698C36.6281 3.58688 36.6245 3.59854 36.6245 3.61046C36.6245 3.62635 36.6308 3.64158 36.642 3.65285C36.6533 3.66412 36.6685 3.67053 36.6844 3.67062Z" fill="#FFD200"/>
<path d="M1.47007 6.48359C1.50277 6.48359 1.53474 6.47387 1.56194 6.45569C1.58913 6.43752 1.61033 6.41171 1.62284 6.38149C1.63536 6.35127 1.63865 6.31804 1.63226 6.28595C1.62588 6.25388 1.61012 6.22437 1.58699 6.20125C1.56386 6.17813 1.53441 6.1624 1.50233 6.15602C1.47025 6.14964 1.43698 6.15288 1.40676 6.16541C1.37654 6.17792 1.35072 6.19915 1.33255 6.22634C1.31438 6.25354 1.30469 6.28551 1.30469 6.31822C1.30469 6.36208 1.32212 6.40413 1.35314 6.43514C1.38415 6.46616 1.4262 6.48359 1.47007 6.48359Z" fill="#FFD200"/>
<path d="M4.17864 6.48359C4.21137 6.48366 4.24338 6.474 4.27063 6.45587C4.29787 6.43774 4.31914 6.41195 4.33171 6.38174C4.34429 6.35153 4.34762 6.31828 4.34128 6.28617C4.33494 6.25407 4.31923 6.22456 4.29612 6.20139C4.27301 6.17822 4.24351 6.16246 4.21142 6.15604C4.17933 6.14964 4.14609 6.15286 4.11586 6.16536C4.08561 6.17787 4.05976 6.1991 4.04157 6.2263C4.02338 6.2535 4.01367 6.28548 4.01367 6.31821C4.01367 6.362 4.03104 6.40399 4.06197 6.43499C4.0929 6.46599 4.13485 6.48349 4.17864 6.48359Z" fill="#FFD200"/>
<path d="M6.88763 6.48359C6.92035 6.48366 6.95237 6.474 6.97961 6.45587C7.00685 6.43774 7.02812 6.41195 7.0407 6.38174C7.05327 6.35153 7.05661 6.31828 7.05027 6.28617C7.04393 6.25407 7.02819 6.22456 7.00507 6.20139C6.98196 6.17822 6.9525 6.16246 6.9204 6.15604C6.88832 6.14964 6.85508 6.15286 6.82483 6.16536C6.7946 6.17787 6.76874 6.1991 6.75055 6.2263C6.73236 6.2535 6.72266 6.28548 6.72266 6.31821C6.72266 6.362 6.74002 6.40399 6.77095 6.43499C6.80189 6.46599 6.84383 6.48349 6.88763 6.48359Z" fill="#FFD200"/>
<path d="M9.59757 6.48359C9.6303 6.48366 9.66234 6.474 9.68955 6.45587C9.71684 6.43774 9.73808 6.41195 9.75069 6.38174C9.76322 6.35153 9.76659 6.31828 9.76028 6.28617C9.75389 6.25407 9.73817 6.22456 9.71503 6.20139C9.69197 6.17822 9.66252 6.16246 9.63039 6.15604C9.59826 6.14964 9.56501 6.15286 9.53478 6.16536C9.50456 6.17787 9.47874 6.1991 9.46051 6.2263C9.44238 6.2535 9.43262 6.28548 9.43262 6.31821C9.43262 6.362 9.44998 6.40399 9.48089 6.43499C9.5119 6.46599 9.55379 6.48349 9.59757 6.48359Z" fill="#FFD200"/>
<path d="M12.3066 6.48359C12.3393 6.48366 12.3713 6.474 12.3985 6.45587C12.4258 6.43774 12.4471 6.41195 12.4597 6.38174C12.4722 6.35153 12.4756 6.31828 12.4692 6.28617C12.4629 6.25407 12.4472 6.22456 12.424 6.20139C12.4009 6.17822 12.3714 6.16246 12.3394 6.15604C12.3072 6.14964 12.274 6.15286 12.2438 6.16536C12.2135 6.17787 12.1876 6.1991 12.1695 6.2263C12.1513 6.2535 12.1416 6.28548 12.1416 6.31821C12.1416 6.362 12.159 6.40399 12.1899 6.43499C12.2208 6.46599 12.2628 6.48349 12.3066 6.48359Z" fill="#FFD200"/>
<path d="M15.0145 6.48359C15.0472 6.48359 15.0792 6.47387 15.1064 6.45569C15.1336 6.43752 15.1548 6.41171 15.1673 6.38149C15.1798 6.35127 15.1831 6.31804 15.1768 6.28595C15.1704 6.25388 15.1546 6.22437 15.1314 6.20125C15.1084 6.17813 15.0788 6.1624 15.0468 6.15602C15.0148 6.14964 14.9815 6.15288 14.9513 6.16541C14.9211 6.17792 14.8952 6.19915 14.877 6.22634C14.8589 6.25354 14.8491 6.28551 14.8491 6.31822C14.8491 6.36208 14.8666 6.40413 14.8976 6.43514C14.9287 6.46616 14.9707 6.48359 15.0145 6.48359Z" fill="#FFD200"/>
<path d="M17.7235 6.48359C17.7562 6.48359 17.7882 6.47387 17.8154 6.45569C17.8426 6.43752 17.8637 6.41171 17.8763 6.38149C17.8888 6.35127 17.8921 6.31804 17.8857 6.28595C17.8793 6.25388 17.8636 6.22437 17.8404 6.20125C17.8173 6.17813 17.7878 6.1624 17.7558 6.15602C17.7237 6.14964 17.6904 6.15288 17.6603 6.16541C17.63 6.17792 17.6041 6.19915 17.586 6.22634C17.5678 6.25354 17.5581 6.28551 17.5581 6.31822C17.5581 6.36208 17.5756 6.40413 17.6066 6.43514C17.6376 6.46616 17.6796 6.48359 17.7235 6.48359Z" fill="#FFD200"/>
<path d="M20.4325 6.48359C20.4652 6.48359 20.4972 6.47387 20.5244 6.45569C20.5516 6.43752 20.5727 6.41171 20.5853 6.38149C20.5978 6.35127 20.6011 6.31804 20.5947 6.28595C20.5884 6.25388 20.5726 6.22437 20.5494 6.20125C20.5263 6.17813 20.4968 6.1624 20.4648 6.15602C20.4326 6.14964 20.3994 6.15288 20.3692 6.16541C20.3389 6.17792 20.3131 6.19915 20.295 6.22634C20.2768 6.25354 20.2671 6.28551 20.2671 6.31822C20.2671 6.36208 20.2845 6.40413 20.3155 6.43514C20.3466 6.46616 20.3886 6.48359 20.4325 6.48359Z" fill="#FFD200"/>
<path d="M23.1415 6.48359C23.1741 6.48359 23.2061 6.47387 23.2333 6.45569C23.2605 6.43752 23.2817 6.41171 23.2942 6.38149C23.3067 6.35127 23.31 6.31804 23.3037 6.28595C23.2973 6.25388 23.2815 6.22437 23.2583 6.20125C23.2353 6.17813 23.2058 6.1624 23.1737 6.15602C23.1416 6.14964 23.1083 6.15288 23.0781 6.16541C23.0479 6.17792 23.0221 6.19915 23.0039 6.22634C22.9857 6.25354 22.9761 6.28551 22.9761 6.31822C22.9761 6.36208 22.9934 6.40413 23.0245 6.43514C23.0555 6.46616 23.0976 6.48359 23.1415 6.48359Z" fill="#FFD200"/>
<path d="M25.8514 6.48359C25.8842 6.48359 25.9161 6.47387 25.9433 6.45569C25.9705 6.43752 25.9917 6.41171 26.0042 6.38149C26.0167 6.35127 26.02 6.31804 26.0136 6.28595C26.0072 6.25388 25.9915 6.22437 25.9684 6.20125C25.9452 6.17813 25.9158 6.1624 25.8836 6.15602C25.8516 6.14964 25.8183 6.15288 25.7881 6.16541C25.7579 6.17792 25.7321 6.19915 25.7139 6.22634C25.6957 6.25354 25.686 6.28551 25.686 6.31822C25.686 6.36208 25.7035 6.40413 25.7345 6.43514C25.7655 6.46616 25.8076 6.48359 25.8514 6.48359Z" fill="#FFD200"/>
<path d="M28.5589 6.48359C28.5916 6.48359 28.6235 6.47387 28.6507 6.45569C28.678 6.43752 28.6992 6.41171 28.7116 6.38149C28.7242 6.35127 28.7274 6.31804 28.7211 6.28595C28.7147 6.25388 28.6989 6.22437 28.6758 6.20125C28.6527 6.17813 28.6232 6.1624 28.5912 6.15602C28.5591 6.14964 28.5258 6.15288 28.4955 6.16541C28.4654 6.17792 28.4396 6.19915 28.4214 6.22634C28.4032 6.25354 28.3936 6.28551 28.3936 6.31822C28.3936 6.36208 28.4109 6.40413 28.442 6.43514C28.473 6.46616 28.5151 6.48359 28.5589 6.48359Z" fill="#FFD200"/>
<path d="M31.2679 6.48359C31.3006 6.48359 31.3326 6.47387 31.3597 6.45569C31.3869 6.43752 31.4082 6.41171 31.4207 6.38149C31.4332 6.35127 31.4365 6.31804 31.4301 6.28595C31.4237 6.25388 31.4079 6.22437 31.3849 6.20125C31.3617 6.17813 31.3323 6.1624 31.3001 6.15602C31.2681 6.14964 31.2349 6.15288 31.2046 6.16541C31.1744 6.17792 31.1486 6.19915 31.1303 6.22634C31.1122 6.25354 31.1025 6.28551 31.1025 6.31822C31.1025 6.36208 31.1199 6.40413 31.1509 6.43514C31.1819 6.46616 31.2241 6.48359 31.2679 6.48359Z" fill="#FFD200"/>
<path d="M33.9754 6.48359C34.0081 6.48359 34.0401 6.47387 34.0673 6.45569C34.0945 6.43752 34.1157 6.41171 34.1282 6.38149C34.1407 6.35127 34.1439 6.31804 34.1375 6.28595C34.1312 6.25388 34.1154 6.22437 34.0924 6.20125C34.0692 6.17813 34.0398 6.1624 34.0077 6.15602C33.9756 6.14964 33.9424 6.15288 33.9121 6.16541C33.8819 6.17792 33.8561 6.19915 33.8379 6.22634C33.8197 6.25354 33.8101 6.28551 33.8101 6.31822C33.8101 6.36208 33.8274 6.40413 33.8584 6.43514C33.8894 6.46616 33.9316 6.48359 33.9754 6.48359Z" fill="#FFD200"/>
<path d="M36.684 6.48359C36.7167 6.48366 36.7488 6.474 36.776 6.45587C36.8033 6.43774 36.8245 6.41195 36.8371 6.38174C36.8496 6.35153 36.853 6.31828 36.8466 6.28617C36.8403 6.25407 36.8246 6.22456 36.8015 6.20139C36.7784 6.17822 36.7489 6.16246 36.7168 6.15604C36.6847 6.14964 36.6514 6.15286 36.6212 6.16536C36.591 6.17787 36.5651 6.1991 36.5469 6.2263C36.5287 6.2535 36.519 6.28548 36.519 6.31821C36.519 6.362 36.5364 6.40399 36.5673 6.43499C36.5982 6.46599 36.6402 6.48349 36.684 6.48359Z" fill="#FFD200"/>
<path d="M1.47128 9.30434C1.62071 9.30434 1.74183 9.18326 1.74183 9.03376C1.74183 8.88435 1.62071 8.76318 1.47128 8.76318C1.32183 8.76318 1.20068 8.88435 1.20068 9.03376C1.20068 9.18326 1.32183 9.30434 1.47128 9.30434Z" fill="#FFD200"/>
<path d="M4.18022 9.30434C4.32965 9.30434 4.45081 9.18326 4.45081 9.03376C4.45081 8.88435 4.32965 8.76318 4.18022 8.76318C4.03078 8.76318 3.90967 8.88435 3.90967 9.03376C3.90967 9.18326 4.03078 9.30434 4.18022 9.30434Z" fill="#FFD200"/>
<path d="M6.88774 9.30434C7.03717 9.30434 7.15833 9.18326 7.15833 9.03376C7.15833 8.88435 7.03717 8.76318 6.88774 8.76318C6.7383 8.76318 6.61719 8.88435 6.61719 9.03376C6.61719 9.18326 6.7383 9.30434 6.88774 9.30434Z" fill="#FFD200"/>
<path d="M9.59675 9.30434C9.74616 9.30434 9.86733 9.18326 9.86733 9.03376C9.86733 8.88435 9.74616 8.76318 9.59675 8.76318C9.44725 8.76318 9.32617 8.88435 9.32617 9.03376C9.32617 9.18326 9.44725 9.30434 9.59675 9.30434Z" fill="#FFD200"/>
<path d="M12.3057 9.30434C12.4551 9.30434 12.5763 9.18326 12.5763 9.03376C12.5763 8.88435 12.4551 8.76318 12.3057 8.76318C12.1562 8.76318 12.0352 8.88435 12.0352 9.03376C12.0352 9.18326 12.1562 9.30434 12.3057 9.30434Z" fill="#FFD200"/>
<path d="M15.0142 9.30434C15.1636 9.30434 15.2848 9.18326 15.2848 9.03376C15.2848 8.88435 15.1636 8.76318 15.0142 8.76318C14.8647 8.76318 14.7437 8.88435 14.7437 9.03376C14.7437 9.18326 14.8647 9.30434 15.0142 9.30434Z" fill="#FFD200"/>
<path d="M17.7232 9.30434C17.8726 9.30434 17.9938 9.18326 17.9938 9.03376C17.9938 8.88435 17.8726 8.76318 17.7232 8.76318C17.5738 8.76318 17.4526 8.88435 17.4526 9.03376C17.4526 9.18326 17.5738 9.30434 17.7232 9.30434Z" fill="#FFD200"/>
<path d="M20.4322 9.30434C20.5817 9.30434 20.7029 9.18326 20.7029 9.03376C20.7029 8.88435 20.5817 8.76318 20.4322 8.76318C20.2828 8.76318 20.1616 8.88435 20.1616 9.03376C20.1616 9.18326 20.2828 9.30434 20.4322 9.30434Z" fill="#FFD200"/>
<path d="M23.1412 9.30434C23.2906 9.30434 23.4118 9.18326 23.4118 9.03376C23.4118 8.88435 23.2906 8.76318 23.1412 8.76318C22.9918 8.76318 22.8706 8.88435 22.8706 9.03376C22.8706 9.18326 22.9918 9.30434 23.1412 9.30434Z" fill="#FFD200"/>
<path d="M25.8502 9.30434C25.9997 9.30434 26.1207 9.18326 26.1207 9.03376C26.1207 8.88435 25.9997 8.76318 25.8502 8.76318C25.7008 8.76318 25.5796 8.88435 25.5796 9.03376C25.5796 9.18326 25.7008 9.30434 25.8502 9.30434Z" fill="#FFD200"/>
<path d="M28.5577 9.30434C28.7072 9.30434 28.8283 9.18326 28.8283 9.03376C28.8283 8.88435 28.7072 8.76318 28.5577 8.76318C28.4083 8.76318 28.2871 8.88435 28.2871 9.03376C28.2871 9.18326 28.4083 9.30434 28.5577 9.30434Z" fill="#FFD200"/>
<path d="M31.2668 9.30434C31.4162 9.30434 31.5373 9.18326 31.5373 9.03376C31.5373 8.88435 31.4162 8.76318 31.2668 8.76318C31.1173 8.76318 30.9961 8.88435 30.9961 9.03376C30.9961 9.18326 31.1173 9.30434 31.2668 9.30434Z" fill="#FFD200"/>
<path d="M33.9757 9.30434C34.1251 9.30434 34.2462 9.18326 34.2462 9.03376C34.2462 8.88435 34.1251 8.76318 33.9757 8.76318C33.8262 8.76318 33.7051 8.88435 33.7051 9.03376C33.7051 9.18326 33.8262 9.30434 33.9757 9.30434Z" fill="#FFD200"/>
<path d="M36.6842 9.30434C36.8336 9.30434 36.9547 9.18326 36.9547 9.03376C36.9547 8.88435 36.8336 8.76318 36.6842 8.76318C36.5347 8.76318 36.4136 8.88435 36.4136 9.03376C36.4136 9.18326 36.5347 9.30434 36.6842 9.30434Z" fill="#FFD200"/>
<path d="M1.47062 12.1136C1.67794 12.1136 1.84602 11.9456 1.84602 11.7382C1.84602 11.5309 1.67794 11.3628 1.47062 11.3628C1.26329 11.3628 1.09521 11.5309 1.09521 11.7382C1.09521 11.9456 1.26329 12.1136 1.47062 12.1136Z" fill="#FFD200"/>
<path d="M4.17961 12.1136C4.38693 12.1136 4.55504 11.9456 4.55504 11.7382C4.55504 11.5309 4.38693 11.3628 4.17961 11.3628C3.97227 11.3628 3.8042 11.5309 3.8042 11.7382C3.8042 11.9456 3.97227 12.1136 4.17961 12.1136Z" fill="#FFD200"/>
<path d="M6.88712 12.1136C7.09445 12.1136 7.26252 11.9456 7.26252 11.7382C7.26252 11.5309 7.09445 11.3628 6.88712 11.3628C6.67979 11.3628 6.51172 11.5309 6.51172 11.7382C6.51172 11.9456 6.67979 12.1136 6.88712 12.1136Z" fill="#FFD200"/>
<path d="M9.59604 12.1136C9.8034 12.1136 9.97146 11.9456 9.97146 11.7382C9.97146 11.5309 9.8034 11.3628 9.59604 11.3628C9.38877 11.3628 9.2207 11.5309 9.2207 11.7382C9.2207 11.9456 9.38877 12.1136 9.59604 12.1136Z" fill="#FFD200"/>
<path d="M12.3051 12.1136C12.5124 12.1136 12.6804 11.9456 12.6804 11.7382C12.6804 11.5309 12.5124 11.3628 12.3051 11.3628C12.0978 11.3628 11.9297 11.5309 11.9297 11.7382C11.9297 11.9456 12.0978 12.1136 12.3051 12.1136Z" fill="#FFD200"/>
<path d="M15.014 12.1136C15.2214 12.1136 15.3894 11.9456 15.3894 11.7382C15.3894 11.5309 15.2214 11.3628 15.014 11.3628C14.8067 11.3628 14.6387 11.5309 14.6387 11.7382C14.6387 11.9456 14.8067 12.1136 15.014 12.1136Z" fill="#FFD200"/>
<path d="M17.723 12.1136C17.9304 12.1136 18.0984 11.9456 18.0984 11.7382C18.0984 11.5309 17.9304 11.3628 17.723 11.3628C17.5157 11.3628 17.3477 11.5309 17.3477 11.7382C17.3477 11.9456 17.5157 12.1136 17.723 12.1136Z" fill="#FFD200"/>
<path d="M20.4321 12.1136C20.6393 12.1136 20.8074 11.9456 20.8074 11.7382C20.8074 11.5309 20.6393 11.3628 20.4321 11.3628C20.2247 11.3628 20.0566 11.5309 20.0566 11.7382C20.0566 11.9456 20.2247 12.1136 20.4321 12.1136Z" fill="#FFD200"/>
<path d="M23.1405 12.1136C23.3478 12.1136 23.5159 11.9456 23.5159 11.7382C23.5159 11.5309 23.3478 11.3628 23.1405 11.3628C22.9332 11.3628 22.7651 11.5309 22.7651 11.7382C22.7651 11.9456 22.9332 12.1136 23.1405 12.1136Z" fill="#FFD200"/>
<path d="M25.8495 12.1136C26.0568 12.1136 26.2249 11.9456 26.2249 11.7382C26.2249 11.5309 26.0568 11.3628 25.8495 11.3628C25.6422 11.3628 25.4741 11.5309 25.4741 11.7382C25.4741 11.9456 25.6422 12.1136 25.8495 12.1136Z" fill="#FFD200"/>
<path d="M28.5571 12.1136C28.7643 12.1136 28.9324 11.9456 28.9324 11.7382C28.9324 11.5309 28.7643 11.3628 28.5571 11.3628C28.3497 11.3628 28.1816 11.5309 28.1816 11.7382C28.1816 11.9456 28.3497 12.1136 28.5571 12.1136Z" fill="#FFD200"/>
<path d="M31.2675 12.1136C31.4748 12.1136 31.6428 11.9456 31.6428 11.7382C31.6428 11.5309 31.4748 11.3628 31.2675 11.3628C31.0602 11.3628 30.8921 11.5309 30.8921 11.7382C30.8921 11.9456 31.0602 12.1136 31.2675 12.1136Z" fill="#FFD200"/>
<path d="M33.9765 12.1136C34.1839 12.1136 34.3519 11.9456 34.3519 11.7382C34.3519 11.5309 34.1839 11.3628 33.9765 11.3628C33.7691 11.3628 33.6011 11.5309 33.6011 11.7382C33.6011 11.9456 33.7691 12.1136 33.9765 12.1136Z" fill="#FFD200"/>
<path d="M36.6854 12.1136C36.8928 12.1136 37.0608 11.9456 37.0608 11.7382C37.0608 11.5309 36.8928 11.3628 36.6854 11.3628C36.4781 11.3628 36.3101 11.5309 36.3101 11.7382C36.3101 11.9456 36.4781 12.1136 36.6854 12.1136Z" fill="#FFD200"/>
<path d="M1.47086 14.929C1.73629 14.929 1.95147 14.7138 1.95147 14.4484C1.95147 14.183 1.73629 13.9678 1.47086 13.9678C1.20542 13.9678 0.990234 14.183 0.990234 14.4484C0.990234 14.7138 1.20542 14.929 1.47086 14.929Z" fill="#FFD200"/>
<path d="M4.17833 14.929C4.44377 14.929 4.65896 14.7138 4.65896 14.4484C4.65896 14.183 4.44377 13.9678 4.17833 13.9678C3.9129 13.9678 3.69775 14.183 3.69775 14.4484C3.69775 14.7138 3.9129 14.929 4.17833 14.929Z" fill="#FFD200"/>
<path d="M6.88732 14.929C7.15276 14.929 7.36794 14.7138 7.36794 14.4484C7.36794 14.183 7.15276 13.9678 6.88732 13.9678C6.62189 13.9678 6.40674 14.183 6.40674 14.4484C6.40674 14.7138 6.62189 14.929 6.88732 14.929Z" fill="#FFD200"/>
<path d="M9.59634 14.929C9.86182 14.929 10.0769 14.7138 10.0769 14.4484C10.0769 14.183 9.86182 13.9678 9.59634 13.9678C9.33094 13.9678 9.11572 14.183 9.11572 14.4484C9.11572 14.7138 9.33094 14.929 9.59634 14.929Z" fill="#FFD200"/>
<path d="M12.3048 14.929C12.5703 14.929 12.7854 14.7138 12.7854 14.4484C12.7854 14.183 12.5703 13.9678 12.3048 13.9678C12.0394 13.9678 11.8242 14.183 11.8242 14.4484C11.8242 14.7138 12.0394 14.929 12.3048 14.929Z" fill="#FFD200"/>
<path d="M15.0138 14.929C15.2793 14.929 15.4944 14.7138 15.4944 14.4484C15.4944 14.183 15.2793 13.9678 15.0138 13.9678C14.7484 13.9678 14.5332 14.183 14.5332 14.4484C14.5332 14.7138 14.7484 14.929 15.0138 14.929Z" fill="#FFD200"/>
<path d="M17.7228 14.929C17.9883 14.929 18.2034 14.7138 18.2034 14.4484C18.2034 14.183 17.9883 13.9678 17.7228 13.9678C17.4574 13.9678 17.2422 14.183 17.2422 14.4484C17.2422 14.7138 17.4574 14.929 17.7228 14.929Z" fill="#FFD200"/>
<path d="M20.4332 14.929C20.6987 14.929 20.9139 14.7138 20.9139 14.4484C20.9139 14.183 20.6987 13.9678 20.4332 13.9678C20.1679 13.9678 19.9526 14.183 19.9526 14.4484C19.9526 14.7138 20.1679 14.929 20.4332 14.929Z" fill="#FFD200"/>
<path d="M23.1408 14.929C23.4063 14.929 23.6214 14.7138 23.6214 14.4484C23.6214 14.183 23.4063 13.9678 23.1408 13.9678C22.8754 13.9678 22.6602 14.183 22.6602 14.4484C22.6602 14.7138 22.8754 14.929 23.1408 14.929Z" fill="#FFD200"/>
<path d="M25.8498 14.929C26.1151 14.929 26.3304 14.7138 26.3304 14.4484C26.3304 14.183 26.1151 13.9678 25.8498 13.9678C25.5843 13.9678 25.3691 14.183 25.3691 14.4484C25.3691 14.7138 25.5843 14.929 25.8498 14.929Z" fill="#FFD200"/>
<path d="M28.5582 14.929C28.8237 14.929 29.0389 14.7138 29.0389 14.4484C29.0389 14.183 28.8237 13.9678 28.5582 13.9678C28.2929 13.9678 28.0776 14.183 28.0776 14.4484C28.0776 14.7138 28.2929 14.929 28.5582 14.929Z" fill="#FFD200"/>
<path d="M31.2673 14.929C31.5327 14.929 31.7478 14.7138 31.7478 14.4484C31.7478 14.183 31.5327 13.9678 31.2673 13.9678C31.0018 13.9678 30.7866 14.183 30.7866 14.4484C30.7866 14.7138 31.0018 14.929 31.2673 14.929Z" fill="#FFD200"/>
<path d="M33.9767 14.929C34.2421 14.929 34.4572 14.7138 34.4572 14.4484C34.4572 14.183 34.2421 13.9678 33.9767 13.9678C33.7112 13.9678 33.4961 14.183 33.4961 14.4484C33.4961 14.7138 33.7112 14.929 33.9767 14.929Z" fill="#FFD200"/>
<path d="M36.6852 14.929C36.9507 14.929 37.1658 14.7138 37.1658 14.4484C37.1658 14.183 36.9507 13.9678 36.6852 13.9678C36.4198 13.9678 36.2046 14.183 36.2046 14.4484C36.2046 14.7138 36.4198 14.929 36.6852 14.929Z" fill="#FFD200"/>
<path d="M1.4706 17.7419C1.79413 17.7419 2.05639 17.4796 2.05639 17.1561C2.05639 16.8326 1.79413 16.5703 1.4706 16.5703C1.14706 16.5703 0.884766 16.8326 0.884766 17.1561C0.884766 17.4796 1.14706 17.7419 1.4706 17.7419Z" fill="#FFD200"/>
<path d="M4.17808 17.7419C4.50162 17.7419 4.76391 17.4796 4.76391 17.1561C4.76391 16.8326 4.50162 16.5703 4.17808 16.5703C3.85455 16.5703 3.59229 16.8326 3.59229 17.1561C3.59229 17.4796 3.85455 17.7419 4.17808 17.7419Z" fill="#FFD200"/>
<path d="M6.88853 17.7419C7.21207 17.7419 7.47436 17.4796 7.47436 17.1561C7.47436 16.8326 7.21207 16.5703 6.88853 16.5703C6.56499 16.5703 6.30273 16.8326 6.30273 17.1561C6.30273 17.4796 6.56499 17.7419 6.88853 17.7419Z" fill="#FFD200"/>
<path d="M9.59752 17.7419C9.92104 17.7419 10.1833 17.4796 10.1833 17.1561C10.1833 16.8326 9.92104 16.5703 9.59752 16.5703C9.27392 16.5703 9.01172 16.8326 9.01172 17.1561C9.01172 17.4796 9.27392 17.7419 9.59752 17.7419Z" fill="#FFD200"/>
<path d="M12.306 17.7419C12.6296 17.7419 12.8919 17.4796 12.8919 17.1561C12.8919 16.8326 12.6296 16.5703 12.306 16.5703C11.9825 16.5703 11.7202 16.8326 11.7202 17.1561C11.7202 17.4796 11.9825 17.7419 12.306 17.7419Z" fill="#FFD200"/>
<path d="M15.0155 17.7419C15.339 17.7419 15.6013 17.4796 15.6013 17.1561C15.6013 16.8326 15.339 16.5703 15.0155 16.5703C14.6919 16.5703 14.4297 16.8326 14.4297 17.1561C14.4297 17.4796 14.6919 17.7419 15.0155 17.7419Z" fill="#FFD200"/>
<path d="M17.7245 17.7419C18.048 17.7419 18.3103 17.4796 18.3103 17.1561C18.3103 16.8326 18.048 16.5703 17.7245 16.5703C17.4009 16.5703 17.1387 16.8326 17.1387 17.1561C17.1387 17.4796 17.4009 17.7419 17.7245 17.7419Z" fill="#FFD200"/>
<path d="M20.4315 17.7419C20.755 17.7419 21.0173 17.4796 21.0173 17.1561C21.0173 16.8326 20.755 16.5703 20.4315 16.5703C20.108 16.5703 19.8457 16.8326 19.8457 17.1561C19.8457 17.4796 20.108 17.7419 20.4315 17.7419Z" fill="#FFD200"/>
<path d="M23.1405 17.7419C23.4641 17.7419 23.7263 17.4796 23.7263 17.1561C23.7263 16.8326 23.4641 16.5703 23.1405 16.5703C22.817 16.5703 22.5547 16.8326 22.5547 17.1561C22.5547 17.4796 22.817 17.7419 23.1405 17.7419Z" fill="#FFD200"/>
<path d="M25.8496 17.7419C26.1731 17.7419 26.4353 17.4796 26.4353 17.1561C26.4353 16.8326 26.1731 16.5703 25.8496 16.5703C25.526 16.5703 25.2637 16.8326 25.2637 17.1561C25.2637 17.4796 25.526 17.7419 25.8496 17.7419Z" fill="#FFD200"/>
<path d="M28.5585 17.7419C28.8821 17.7419 29.1443 17.4796 29.1443 17.1561C29.1443 16.8326 28.8821 16.5703 28.5585 16.5703C28.2349 16.5703 27.9727 16.8326 27.9727 17.1561C27.9727 17.4796 28.2349 17.7419 28.5585 17.7419Z" fill="#FFD200"/>
<path d="M31.2675 17.7419C31.591 17.7419 31.8533 17.4796 31.8533 17.1561C31.8533 16.8326 31.591 16.5703 31.2675 16.5703C30.9439 16.5703 30.6816 16.8326 30.6816 17.1561C30.6816 17.4796 30.9439 17.7419 31.2675 17.7419Z" fill="#FFD200"/>
<path d="M33.9764 17.7419C34.2999 17.7419 34.5622 17.4796 34.5622 17.1561C34.5622 16.8326 34.2999 16.5703 33.9764 16.5703C33.6529 16.5703 33.3906 16.8326 33.3906 17.1561C33.3906 17.4796 33.6529 17.7419 33.9764 17.7419Z" fill="#FFD200"/>
<path d="M36.6839 17.7419C37.0075 17.7419 37.2698 17.4796 37.2698 17.1561C37.2698 16.8326 37.0075 16.5703 36.6839 16.5703C36.3603 16.5703 36.0981 16.8326 36.0981 17.1561C36.0981 17.4796 36.3603 17.7419 36.6839 17.7419Z" fill="#FFD200"/>
<path d="M1.46961 20.55C1.84706 20.55 2.15304 20.244 2.15304 19.8666C2.15304 19.4891 1.84706 19.1831 1.46961 19.1831C1.09215 19.1831 0.786133 19.4891 0.786133 19.8666C0.786133 20.244 1.09215 20.55 1.46961 20.55Z" fill="#FFD200"/>
<path d="M4.17855 20.55C4.55601 20.55 4.86202 20.244 4.86202 19.8666C4.86202 19.4891 4.55601 19.1831 4.17855 19.1831C3.80109 19.1831 3.49512 19.4891 3.49512 19.8666C3.49512 20.244 3.80109 20.55 4.17855 20.55Z" fill="#FFD200"/>
<path d="M6.88754 20.55C7.26499 20.55 7.571 20.244 7.571 19.8666C7.571 19.4891 7.26499 19.1831 6.88754 19.1831C6.51008 19.1831 6.2041 19.4891 6.2041 19.8666C6.2041 20.244 6.51008 20.55 6.88754 20.55Z" fill="#FFD200"/>
<path d="M9.59746 20.55C9.97495 20.55 10.2809 20.244 10.2809 19.8666C10.2809 19.4891 9.97495 19.1831 9.59746 19.1831C9.22005 19.1831 8.91406 19.4891 8.91406 19.8666C8.91406 20.244 9.22005 20.55 9.59746 20.55Z" fill="#FFD200"/>
<path d="M12.3064 20.55C12.6839 20.55 12.9899 20.244 12.9899 19.8666C12.9899 19.4891 12.6839 19.1831 12.3064 19.1831C11.929 19.1831 11.623 19.4891 11.623 19.8666C11.623 20.244 11.929 20.55 12.3064 20.55Z" fill="#FFD200"/>
<path d="M15.014 20.55C15.3915 20.55 15.6974 20.244 15.6974 19.8666C15.6974 19.4891 15.3915 19.1831 15.014 19.1831C14.6366 19.1831 14.3306 19.4891 14.3306 19.8666C14.3306 20.244 14.6366 20.55 15.014 20.55Z" fill="#FFD200"/>
<path d="M17.723 20.55C18.1004 20.55 18.4064 20.244 18.4064 19.8666C18.4064 19.4891 18.1004 19.1831 17.723 19.1831C17.3455 19.1831 17.0396 19.4891 17.0396 19.8666C17.0396 20.244 17.3455 20.55 17.723 20.55Z" fill="#FFD200"/>
<path d="M20.4319 20.55C20.8094 20.55 21.1154 20.244 21.1154 19.8666C21.1154 19.4891 20.8094 19.1831 20.4319 19.1831C20.0545 19.1831 19.7485 19.4891 19.7485 19.8666C19.7485 20.244 20.0545 20.55 20.4319 20.55Z" fill="#FFD200"/>
<path d="M23.141 20.55C23.5185 20.55 23.8244 20.244 23.8244 19.8666C23.8244 19.4891 23.5185 19.1831 23.141 19.1831C22.7635 19.1831 22.4575 19.4891 22.4575 19.8666C22.4575 20.244 22.7635 20.55 23.141 20.55Z" fill="#FFD200"/>
<path d="M25.85 20.55C26.2275 20.55 26.5335 20.244 26.5335 19.8666C26.5335 19.4891 26.2275 19.1831 25.85 19.1831C25.4726 19.1831 25.1665 19.4891 25.1665 19.8666C25.1665 20.244 25.4726 20.55 25.85 20.55Z" fill="#FFD200"/>
<path d="M28.559 20.55C28.9365 20.55 29.2424 20.244 29.2424 19.8666C29.2424 19.4891 28.9365 19.1831 28.559 19.1831C28.1815 19.1831 27.8755 19.4891 27.8755 19.8666C27.8755 20.244 28.1815 20.55 28.559 20.55Z" fill="#FFD200"/>
<path d="M31.2675 20.55C31.645 20.55 31.9509 20.244 31.9509 19.8666C31.9509 19.4891 31.645 19.1831 31.2675 19.1831C30.8901 19.1831 30.584 19.4891 30.584 19.8666C30.584 20.244 30.8901 20.55 31.2675 20.55Z" fill="#FFD200"/>
<path d="M33.9765 20.55C34.3539 20.55 34.6599 20.244 34.6599 19.8666C34.6599 19.4891 34.3539 19.1831 33.9765 19.1831C33.599 19.1831 33.293 19.4891 33.293 19.8666C33.293 20.244 33.599 20.55 33.9765 20.55Z" fill="#FFD200"/>
<path d="M36.6844 20.55C37.0619 20.55 37.3679 20.244 37.3679 19.8666C37.3679 19.4891 37.0619 19.1831 36.6844 19.1831C36.3069 19.1831 36.001 19.4891 36.001 19.8666C36.001 20.244 36.3069 20.55 36.6844 20.55Z" fill="#FFD200"/>
<path d="M1.47054 23.3674C1.91028 23.3674 2.26677 23.0109 2.26677 22.5712C2.26677 22.1314 1.91028 21.7749 1.47054 21.7749C1.0308 21.7749 0.674316 22.1314 0.674316 22.5712C0.674316 23.0109 1.0308 23.3674 1.47054 23.3674Z" fill="#FFD200"/>
<path d="M4.17952 23.3674C4.61927 23.3674 4.97574 23.0109 4.97574 22.5712C4.97574 22.1314 4.61927 21.7749 4.17952 21.7749C3.73978 21.7749 3.3833 22.1314 3.3833 22.5712C3.3833 23.0109 3.73978 23.3674 4.17952 23.3674Z" fill="#FFD200"/>
<path d="M6.88851 23.3674C7.32825 23.3674 7.68473 23.0109 7.68473 22.5712C7.68473 22.1314 7.32825 21.7749 6.88851 21.7749C6.44877 21.7749 6.09229 22.1314 6.09229 22.5712C6.09229 23.0109 6.44877 23.3674 6.88851 23.3674Z" fill="#FFD200"/>
<path d="M9.59608 23.3674C10.0358 23.3674 10.3923 23.0109 10.3923 22.5712C10.3923 22.1314 10.0358 21.7749 9.59608 21.7749C9.15631 21.7749 8.7998 22.1314 8.7998 22.5712C8.7998 23.0109 9.15631 23.3674 9.59608 23.3674Z" fill="#FFD200"/>
<path d="M12.3051 23.3674C12.7447 23.3674 13.1012 23.0109 13.1012 22.5712C13.1012 22.1314 12.7447 21.7749 12.3051 21.7749C11.8653 21.7749 11.5088 22.1314 11.5088 22.5712C11.5088 23.0109 11.8653 23.3674 12.3051 23.3674Z" fill="#FFD200"/>
<path d="M15.014 23.3674C15.4538 23.3674 15.8102 23.0109 15.8102 22.5712C15.8102 22.1314 15.4538 21.7749 15.014 21.7749C14.5743 21.7749 14.2178 22.1314 14.2178 22.5712C14.2178 23.0109 14.5743 23.3674 15.014 23.3674Z" fill="#FFD200"/>
<path d="M17.7225 23.3674C18.1622 23.3674 18.5187 23.0109 18.5187 22.5712C18.5187 22.1314 18.1622 21.7749 17.7225 21.7749C17.2828 21.7749 16.9263 22.1314 16.9263 22.5712C16.9263 23.0109 17.2828 23.3674 17.7225 23.3674Z" fill="#FFD200"/>
<path d="M20.4315 23.3674C20.8713 23.3674 21.2277 23.0109 21.2277 22.5712C21.2277 22.1314 20.8713 21.7749 20.4315 21.7749C19.9918 21.7749 19.6353 22.1314 19.6353 22.5712C19.6353 23.0109 19.9918 23.3674 20.4315 23.3674Z" fill="#FFD200"/>
<path d="M23.1405 23.3674C23.5802 23.3674 23.9367 23.0109 23.9367 22.5712C23.9367 22.1314 23.5802 21.7749 23.1405 21.7749C22.7007 21.7749 22.3442 22.1314 22.3442 22.5712C22.3442 23.0109 22.7007 23.3674 23.1405 23.3674Z" fill="#FFD200"/>
<path d="M25.8495 23.3674C26.2892 23.3674 26.6457 23.0109 26.6457 22.5712C26.6457 22.1314 26.2892 21.7749 25.8495 21.7749C25.4097 21.7749 25.0532 22.1314 25.0532 22.5712C25.0532 23.0109 25.4097 23.3674 25.8495 23.3674Z" fill="#FFD200"/>
<path d="M28.5584 23.3674C28.9982 23.3674 29.3546 23.0109 29.3546 22.5712C29.3546 22.1314 28.9982 21.7749 28.5584 21.7749C28.1186 21.7749 27.7622 22.1314 27.7622 22.5712C27.7622 23.0109 28.1186 23.3674 28.5584 23.3674Z" fill="#FFD200"/>
<path d="M31.2675 23.3674C31.7071 23.3674 32.0636 23.0109 32.0636 22.5712C32.0636 22.1314 31.7071 21.7749 31.2675 21.7749C30.8277 21.7749 30.4712 22.1314 30.4712 22.5712C30.4712 23.0109 30.8277 23.3674 31.2675 23.3674Z" fill="#FFD200"/>
<path d="M33.9764 23.3674C34.4162 23.3674 34.7726 23.0109 34.7726 22.5712C34.7726 22.1314 34.4162 21.7749 33.9764 21.7749C33.5367 21.7749 33.1802 22.1314 33.1802 22.5712C33.1802 23.0109 33.5367 23.3674 33.9764 23.3674Z" fill="#FFD200"/>
<path d="M36.6853 23.3674C37.1251 23.3674 37.4815 23.0109 37.4815 22.5712C37.4815 22.1314 37.1251 21.7749 36.6853 21.7749C36.2456 21.7749 35.8892 22.1314 35.8892 22.5712C35.8892 23.0109 36.2456 23.3674 36.6853 23.3674Z" fill="#FFD200"/>
<path d="M1.47101 26.1754C1.96467 26.1754 2.36487 25.7752 2.36487 25.2816C2.36487 24.7879 1.96467 24.3877 1.47101 24.3877C0.977346 24.3877 0.577148 24.7879 0.577148 25.2816C0.577148 25.7752 0.977346 26.1754 1.47101 26.1754Z" fill="#FFD200"/>
<path d="M4.17947 26.1754C4.67313 26.1754 5.07333 25.7752 5.07333 25.2816C5.07333 24.7879 4.67313 24.3877 4.17947 24.3877C3.6858 24.3877 3.28564 24.7879 3.28564 25.2816C3.28564 25.7752 3.6858 26.1754 4.17947 26.1754Z" fill="#FFD200"/>
<path d="M6.88752 26.1754C7.38118 26.1754 7.78138 25.7752 7.78138 25.2816C7.78138 24.7879 7.38118 24.3877 6.88752 24.3877C6.39385 24.3877 5.99365 24.7879 5.99365 25.2816C5.99365 25.7752 6.39385 26.1754 6.88752 26.1754Z" fill="#FFD200"/>
<path d="M9.59601 26.1754C10.0897 26.1754 10.4899 25.7752 10.4899 25.2816C10.4899 24.7879 10.0897 24.3877 9.59601 24.3877C9.10236 24.3877 8.70215 24.7879 8.70215 25.2816C8.70215 25.7752 9.10236 26.1754 9.59601 26.1754Z" fill="#FFD200"/>
<path d="M12.305 26.1754C12.7987 26.1754 13.1989 25.7752 13.1989 25.2816C13.1989 24.7879 12.7987 24.3877 12.305 24.3877C11.8113 24.3877 11.4111 24.7879 11.4111 25.2816C11.4111 25.7752 11.8113 26.1754 12.305 26.1754Z" fill="#FFD200"/>
<path d="M15.0145 26.1754C15.5081 26.1754 15.9082 25.7752 15.9082 25.2816C15.9082 24.7879 15.5081 24.3877 15.0145 24.3877C14.5207 24.3877 14.1206 24.7879 14.1206 25.2816C14.1206 25.7752 14.5207 26.1754 15.0145 26.1754Z" fill="#FFD200"/>
<path d="M17.723 26.1754C18.2166 26.1754 18.6168 25.7752 18.6168 25.2816C18.6168 24.7879 18.2166 24.3877 17.723 24.3877C17.2293 24.3877 16.8291 24.7879 16.8291 25.2816C16.8291 25.7752 17.2293 26.1754 17.723 26.1754Z" fill="#FFD200"/>
<path d="M20.432 26.1754C20.9257 26.1754 21.3258 25.7752 21.3258 25.2816C21.3258 24.7879 20.9257 24.3877 20.432 24.3877C19.9383 24.3877 19.5381 24.7879 19.5381 25.2816C19.5381 25.7752 19.9383 26.1754 20.432 26.1754Z" fill="#FFD200"/>
<path d="M23.1409 26.1754C23.6346 26.1754 24.0348 25.7752 24.0348 25.2816C24.0348 24.7879 23.6346 24.3877 23.1409 24.3877C22.6473 24.3877 22.2471 24.7879 22.2471 25.2816C22.2471 25.7752 22.6473 26.1754 23.1409 26.1754Z" fill="#FFD200"/>
<path d="M25.8494 26.1754C26.3431 26.1754 26.7433 25.7752 26.7433 25.2816C26.7433 24.7879 26.3431 24.3877 25.8494 24.3877C25.3558 24.3877 24.9556 24.7879 24.9556 25.2816C24.9556 25.7752 25.3558 26.1754 25.8494 26.1754Z" fill="#FFD200"/>
<path d="M28.5574 26.1754C29.0511 26.1754 29.4513 25.7752 29.4513 25.2816C29.4513 24.7879 29.0511 24.3877 28.5574 24.3877C28.0638 24.3877 27.6636 24.7879 27.6636 25.2816C27.6636 25.7752 28.0638 26.1754 28.5574 26.1754Z" fill="#FFD200"/>
<path d="M31.2679 26.1754C31.7615 26.1754 32.1618 25.7752 32.1618 25.2816C32.1618 24.7879 31.7615 24.3877 31.2679 24.3877C30.7742 24.3877 30.374 24.7879 30.374 25.2816C30.374 25.7752 30.7742 26.1754 31.2679 26.1754Z" fill="#FFD200"/>
<path d="M33.9763 26.1754C34.47 26.1754 34.8702 25.7752 34.8702 25.2816C34.8702 24.7879 34.47 24.3877 33.9763 24.3877C33.4826 24.3877 33.0825 24.7879 33.0825 25.2816C33.0825 25.7752 33.4826 26.1754 33.9763 26.1754Z" fill="#FFD200"/>
<path d="M36.6854 26.1754C37.179 26.1754 37.5792 25.7752 37.5792 25.2816C37.5792 24.7879 37.179 24.3877 36.6854 24.3877C36.1917 24.3877 35.7915 24.7879 35.7915 25.2816C35.7915 25.7752 36.1917 26.1754 36.6854 26.1754Z" fill="#FFD200"/>
<path d="M1.47052 29.0006C2.02646 29.0006 2.47713 28.55 2.47713 27.994C2.47713 27.438 2.02646 26.9873 1.47052 26.9873C0.914574 26.9873 0.463867 27.438 0.463867 27.994C0.463867 28.55 0.914574 29.0006 1.47052 29.0006Z" fill="#FFD200"/>
<path d="M4.17946 29.0006C4.73541 29.0006 5.18612 28.55 5.18612 27.994C5.18612 27.438 4.73541 26.9873 4.17946 26.9873C3.62351 26.9873 3.17285 27.438 3.17285 27.994C3.17285 28.55 3.62351 29.0006 4.17946 29.0006Z" fill="#FFD200"/>
<path d="M6.88846 29.0006C7.4444 29.0006 7.8951 28.55 7.8951 27.994C7.8951 27.438 7.4444 26.9873 6.88846 26.9873C6.33251 26.9873 5.88184 27.438 5.88184 27.994C5.88184 28.55 6.33251 29.0006 6.88846 29.0006Z" fill="#FFD200"/>
<path d="M9.59746 29.0006C10.1534 29.0006 10.6041 28.55 10.6041 27.994C10.6041 27.438 10.1534 26.9873 9.59746 26.9873C9.04145 26.9873 8.59082 27.438 8.59082 27.994C8.59082 28.55 9.04145 29.0006 9.59746 29.0006Z" fill="#FFD200"/>
<path d="M12.306 29.0006C12.8619 29.0006 13.3126 28.55 13.3126 27.994C13.3126 27.438 12.8619 26.9873 12.306 26.9873C11.75 26.9873 11.2993 27.438 11.2993 27.994C11.2993 28.55 11.75 29.0006 12.306 29.0006Z" fill="#FFD200"/>
<path d="M15.015 29.0006C15.5709 29.0006 16.0216 28.55 16.0216 27.994C16.0216 27.438 15.5709 26.9873 15.015 26.9873C14.4589 26.9873 14.0083 27.438 14.0083 27.994C14.0083 28.55 14.4589 29.0006 15.015 29.0006Z" fill="#FFD200"/>
<path d="M17.7239 29.0006C18.2799 29.0006 18.7305 28.55 18.7305 27.994C18.7305 27.438 18.2799 26.9873 17.7239 26.9873C17.168 26.9873 16.7173 27.438 16.7173 27.994C16.7173 28.55 17.168 29.0006 17.7239 29.0006Z" fill="#FFD200"/>
<path d="M20.4315 28.9982C20.9874 28.9982 21.4381 28.5474 21.4381 27.9915C21.4381 27.4356 20.9874 26.9849 20.4315 26.9849C19.8755 26.9849 19.4248 27.4356 19.4248 27.9915C19.4248 28.5474 19.8755 28.9982 20.4315 28.9982Z" fill="#FFD200"/>
<path d="M23.1404 28.9982C23.6964 28.9982 24.147 28.5474 24.147 27.9915C24.147 27.4356 23.6964 26.9849 23.1404 26.9849C22.5844 26.9849 22.1338 27.4356 22.1338 27.9915C22.1338 28.5474 22.5844 28.9982 23.1404 28.9982Z" fill="#FFD200"/>
<path d="M25.8494 28.9982C26.4054 28.9982 26.856 28.5474 26.856 27.9915C26.856 27.4356 26.4054 26.9849 25.8494 26.9849C25.2935 26.9849 24.8428 27.4356 24.8428 27.9915C24.8428 28.5474 25.2935 28.9982 25.8494 28.9982Z" fill="#FFD200"/>
<path d="M28.5584 28.9982C29.1143 28.9982 29.565 28.5474 29.565 27.9915C29.565 27.4356 29.1143 26.9849 28.5584 26.9849C28.0024 26.9849 27.5518 27.4356 27.5518 27.9915C27.5518 28.5474 28.0024 28.9982 28.5584 28.9982Z" fill="#FFD200"/>
<path d="M31.2674 28.9982C31.8233 28.9982 32.274 28.5474 32.274 27.9915C32.274 27.4356 31.8233 26.9849 31.2674 26.9849C30.7114 26.9849 30.2607 27.4356 30.2607 27.9915C30.2607 28.5474 30.7114 28.9982 31.2674 28.9982Z" fill="#FFD200"/>
<path d="M33.9764 29.0006C34.5323 29.0006 34.9829 28.55 34.9829 27.994C34.9829 27.438 34.5323 26.9873 33.9764 26.9873C33.4205 26.9873 32.9697 27.438 32.9697 27.994C32.9697 28.55 33.4205 29.0006 33.9764 29.0006Z" fill="#FFD200"/>
<path d="M36.6839 29.0006C37.2398 29.0006 37.6906 28.55 37.6906 27.994C37.6906 27.438 37.2398 26.9873 36.6839 26.9873C36.1279 26.9873 35.6772 27.438 35.6772 27.994C35.6772 28.55 36.1279 29.0006 36.6839 29.0006Z" fill="#FFD200"/>
<path d="M1.46952 31.8009C2.0794 31.8009 2.57378 31.3064 2.57378 30.6965C2.57378 30.0867 2.0794 29.5923 1.46952 29.5923C0.859656 29.5923 0.365234 30.0867 0.365234 30.6965C0.365234 31.3064 0.859656 31.8009 1.46952 31.8009Z" fill="#FFD200"/>
<path d="M4.17993 31.8009C4.7898 31.8009 5.28423 31.3064 5.28423 30.6965C5.28423 30.0867 4.7898 29.5923 4.17993 29.5923C3.57006 29.5923 3.07568 30.0867 3.07568 30.6965C3.07568 31.3064 3.57006 31.8009 4.17993 31.8009Z" fill="#FFD200"/>
<path d="M6.88843 31.8009C7.49831 31.8009 7.99272 31.3064 7.99272 30.6965C7.99272 30.0867 7.49831 29.5923 6.88843 29.5923C6.27857 29.5923 5.78418 30.0867 5.78418 30.6965C5.78418 31.3064 6.27857 31.8009 6.88843 31.8009Z" fill="#FFD200"/>
<path d="M9.59738 31.8009C10.2073 31.8009 10.7017 31.3064 10.7017 30.6965C10.7017 30.0867 10.2073 29.5923 9.59738 29.5923C8.98757 29.5923 8.49316 30.0867 8.49316 30.6965C8.49316 31.3064 8.98757 31.8009 9.59738 31.8009Z" fill="#FFD200"/>
<path d="M12.3065 31.8009C12.9163 31.8009 13.4107 31.3064 13.4107 30.6965C13.4107 30.0867 12.9163 29.5923 12.3065 29.5923C11.6966 29.5923 11.2021 30.0867 11.2021 30.6965C11.2021 31.3064 11.6966 31.8009 12.3065 31.8009Z" fill="#FFD200"/>
<path d="M15.0154 31.8009C15.6252 31.8009 16.1196 31.3064 16.1196 30.6965C16.1196 30.0867 15.6252 29.5923 15.0154 29.5923C14.4055 29.5923 13.9111 30.0867 13.9111 30.6965C13.9111 31.3064 14.4055 31.8009 15.0154 31.8009Z" fill="#FFD200"/>
<path d="M17.7229 31.8009C18.3327 31.8009 18.8271 31.3064 18.8271 30.6965C18.8271 30.0867 18.3327 29.5923 17.7229 29.5923C17.113 29.5923 16.6187 30.0867 16.6187 30.6965C16.6187 31.3064 17.113 31.8009 17.7229 31.8009Z" fill="#FFD200"/>
<path d="M20.4319 31.8009C21.0418 31.8009 21.5361 31.3064 21.5361 30.6965C21.5361 30.0867 21.0418 29.5923 20.4319 29.5923C19.822 29.5923 19.3276 30.0867 19.3276 30.6965C19.3276 31.3064 19.822 31.8009 20.4319 31.8009Z" fill="#FFD200"/>
<path d="M23.1409 31.8037C23.7507 31.8037 24.2451 31.3094 24.2451 30.6995C24.2451 30.0896 23.7507 29.5952 23.1409 29.5952C22.531 29.5952 22.0366 30.0896 22.0366 30.6995C22.0366 31.3094 22.531 31.8037 23.1409 31.8037Z" fill="#FFD200"/>
<path d="M25.8499 31.8037C26.4598 31.8037 26.9541 31.3094 26.9541 30.6995C26.9541 30.0896 26.4598 29.5952 25.8499 29.5952C25.24 29.5952 24.7456 30.0896 24.7456 30.6995C24.7456 31.3094 25.24 31.8037 25.8499 31.8037Z" fill="#FFD200"/>
<path d="M28.5589 31.8037C29.1687 31.8037 29.6632 31.3094 29.6632 30.6995C29.6632 30.0896 29.1687 29.5952 28.5589 29.5952C27.949 29.5952 27.4546 30.0896 27.4546 30.6995C27.4546 31.3094 27.949 31.8037 28.5589 31.8037Z" fill="#FFD200"/>
<path d="M31.2673 31.8037C31.8772 31.8037 32.3716 31.3094 32.3716 30.6995C32.3716 30.0896 31.8772 29.5952 31.2673 29.5952C30.6575 29.5952 30.1631 30.0896 30.1631 30.6995C30.1631 31.3094 30.6575 31.8037 31.2673 31.8037Z" fill="#FFD200"/>
<path d="M33.9764 31.8037C34.5862 31.8037 35.0806 31.3094 35.0806 30.6995C35.0806 30.0896 34.5862 29.5952 33.9764 29.5952C33.3665 29.5952 32.8721 30.0896 32.8721 30.6995C32.8721 31.3094 33.3665 31.8037 33.9764 31.8037Z" fill="#FFD200"/>
<path d="M36.6838 31.8009C37.2937 31.8009 37.7882 31.3064 37.7882 30.6965C37.7882 30.0867 37.2937 29.5923 36.6838 29.5923C36.074 29.5923 35.5796 30.0867 35.5796 30.6965C35.5796 31.3064 36.074 31.8009 36.6838 31.8009Z" fill="#FFD200"/>
<path d="M1.4707 34.6162C2.13867 34.6162 2.68016 34.0747 2.68016 33.4068C2.68016 32.7388 2.13867 32.1973 1.4707 32.1973C0.802727 32.1973 0.26123 32.7388 0.26123 33.4068C0.26123 34.0747 0.802727 34.6162 1.4707 34.6162Z" fill="#FFD200"/>
<path d="M4.17969 34.6162C4.84766 34.6162 5.38915 34.0747 5.38915 33.4068C5.38915 32.7388 4.84766 32.1973 4.17969 32.1973C3.51171 32.1973 2.97021 32.7388 2.97021 33.4068C2.97021 34.0747 3.51171 34.6162 4.17969 34.6162Z" fill="#FFD200"/>
<path d="M6.88867 34.6162C7.55664 34.6162 8.09814 34.0747 8.09814 33.4068C8.09814 32.7388 7.55664 32.1973 6.88867 32.1973C6.2207 32.1973 5.6792 32.7388 5.6792 33.4068C5.6792 34.0747 6.2207 34.6162 6.88867 34.6162Z" fill="#FFD200"/>
<path d="M9.59762 34.6162C10.2656 34.6162 10.8071 34.0747 10.8071 33.4068C10.8071 32.7388 10.2656 32.1973 9.59762 32.1973C8.92968 32.1973 8.38818 32.7388 8.38818 33.4068C8.38818 34.0747 8.92968 34.6162 9.59762 34.6162Z" fill="#FFD200"/>
<path d="M12.3051 34.6162C12.9731 34.6162 13.5146 34.0747 13.5146 33.4068C13.5146 32.7388 12.9731 32.1973 12.3051 32.1973C11.6372 32.1973 11.0957 32.7388 11.0957 33.4068C11.0957 34.0747 11.6372 34.6162 12.3051 34.6162Z" fill="#FFD200"/>
<path d="M15.0142 34.6162C15.6821 34.6162 16.2236 34.0747 16.2236 33.4068C16.2236 32.7388 15.6821 32.1973 15.0142 32.1973C14.3462 32.1973 13.8047 32.7388 13.8047 33.4068C13.8047 34.0747 14.3462 34.6162 15.0142 34.6162Z" fill="#FFD200"/>
<path d="M17.7227 34.6162C18.3906 34.6162 18.9321 34.0747 18.9321 33.4068C18.9321 32.7388 18.3906 32.1973 17.7227 32.1973C17.0547 32.1973 16.5132 32.7388 16.5132 33.4068C16.5132 34.0747 17.0547 34.6162 17.7227 34.6162Z" fill="#FFD200"/>
<path d="M20.4321 34.6162C21.1 34.6162 21.6415 34.0747 21.6415 33.4068C21.6415 32.7388 21.1 32.1973 20.4321 32.1973C19.7642 32.1973 19.2227 32.7388 19.2227 33.4068C19.2227 34.0747 19.7642 34.6162 20.4321 34.6162Z" fill="#FFD200"/>
<path d="M23.1407 34.6162C23.8086 34.6162 24.3501 34.0747 24.3501 33.4068C24.3501 32.7388 23.8086 32.1973 23.1407 32.1973C22.4727 32.1973 21.9312 32.7388 21.9312 33.4068C21.9312 34.0747 22.4727 34.6162 23.1407 34.6162Z" fill="#FFD200"/>
<path d="M25.8496 34.6162C26.5175 34.6162 27.059 34.0747 27.059 33.4068C27.059 32.7388 26.5175 32.1973 25.8496 32.1973C25.1816 32.1973 24.6401 32.7388 24.6401 33.4068C24.6401 34.0747 25.1816 34.6162 25.8496 34.6162Z" fill="#FFD200"/>
<path d="M28.5586 34.6162C29.2266 34.6162 29.7681 34.0747 29.7681 33.4068C29.7681 32.7388 29.2266 32.1973 28.5586 32.1973C27.8906 32.1973 27.3491 32.7388 27.3491 33.4068C27.3491 34.0747 27.8906 34.6162 28.5586 34.6162Z" fill="#FFD200"/>
<path d="M31.2675 34.6162C31.9355 34.6162 32.477 34.0747 32.477 33.4068C32.477 32.7388 31.9355 32.1973 31.2675 32.1973C30.5996 32.1973 30.0581 32.7388 30.0581 33.4068C30.0581 34.0747 30.5996 34.6162 31.2675 34.6162Z" fill="#FFD200"/>
<path d="M33.9751 34.6162C34.6431 34.6162 35.1846 34.0747 35.1846 33.4068C35.1846 32.7388 34.6431 32.1973 33.9751 32.1973C33.3071 32.1973 32.7656 32.7388 32.7656 33.4068C32.7656 34.0747 33.3071 34.6162 33.9751 34.6162Z" fill="#FFD200"/>
<path d="M36.684 34.6162C37.3521 34.6162 37.8936 34.0747 37.8936 33.4068C37.8936 32.7388 37.3521 32.1973 36.684 32.1973C36.0161 32.1973 35.4746 32.7388 35.4746 33.4068C35.4746 34.0747 36.0161 34.6162 36.684 34.6162Z" fill="#FFD200"/>
<path d="M1.47093 37.4345C2.19701 37.4345 2.78561 36.8459 2.78561 36.1199C2.78561 35.3938 2.19701 34.8052 1.47093 34.8052C0.744859 34.8052 0.15625 35.3938 0.15625 36.1199C0.15625 36.8459 0.744859 37.4345 1.47093 37.4345Z" fill="#FFD200"/>
<path d="M4.17988 37.4345C4.90596 37.4345 5.49457 36.8459 5.49457 36.1199C5.49457 35.3938 4.90596 34.8052 4.17988 34.8052C3.45381 34.8052 2.86523 35.3938 2.86523 36.1199C2.86523 36.8459 3.45381 37.4345 4.17988 37.4345Z" fill="#FFD200"/>
<path d="M6.8874 37.4345C7.61347 37.4345 8.20209 36.8459 8.20209 36.1199C8.20209 35.3938 7.61347 34.8052 6.8874 34.8052C6.16133 34.8052 5.57275 35.3938 5.57275 36.1199C5.57275 36.8459 6.16133 37.4345 6.8874 37.4345Z" fill="#FFD200"/>
<path d="M9.59636 37.4345C10.3224 37.4345 10.9111 36.8459 10.9111 36.1199C10.9111 35.3938 10.3224 34.8052 9.59636 34.8052C8.8703 34.8052 8.28174 35.3938 8.28174 36.1199C8.28174 36.8459 8.8703 37.4345 9.59636 37.4345Z" fill="#FFD200"/>
<path d="M12.3049 37.4345C13.031 37.4345 13.6196 36.8459 13.6196 36.1199C13.6196 35.3938 13.031 34.8052 12.3049 34.8052C11.5788 34.8052 10.9902 35.3938 10.9902 36.1199C10.9902 36.8459 11.5788 37.4345 12.3049 37.4345Z" fill="#FFD200"/>
<path d="M15.0139 37.4345C15.74 37.4345 16.3286 36.8459 16.3286 36.1199C16.3286 35.3938 15.74 34.8052 15.0139 34.8052C14.2879 34.8052 13.6992 35.3938 13.6992 36.1199C13.6992 36.8459 14.2879 37.4345 15.0139 37.4345Z" fill="#FFD200"/>
<path d="M17.7229 37.4345C18.449 37.4345 19.0376 36.8459 19.0376 36.1199C19.0376 35.3938 18.449 34.8052 17.7229 34.8052C16.9969 34.8052 16.4082 35.3938 16.4082 36.1199C16.4082 36.8459 16.9969 37.4345 17.7229 37.4345Z" fill="#FFD200"/>
<path d="M20.4319 37.4345C21.158 37.4345 21.7465 36.8459 21.7465 36.1199C21.7465 35.3938 21.158 34.8052 20.4319 34.8052C19.7058 34.8052 19.1172 35.3938 19.1172 36.1199C19.1172 36.8459 19.7058 37.4345 20.4319 37.4345Z" fill="#FFD200"/>
<path d="M23.1409 37.4345C23.8669 37.4345 24.4555 36.8459 24.4555 36.1199C24.4555 35.3938 23.8669 34.8052 23.1409 34.8052C22.4148 34.8052 21.8262 35.3938 21.8262 36.1199C21.8262 36.8459 22.4148 37.4345 23.1409 37.4345Z" fill="#FFD200"/>
<path d="M25.8499 37.4345C26.5759 37.4345 27.1646 36.8459 27.1646 36.1199C27.1646 35.3938 26.5759 34.8052 25.8499 34.8052C25.1238 34.8052 24.5352 35.3938 24.5352 36.1199C24.5352 36.8459 25.1238 37.4345 25.8499 37.4345Z" fill="#FFD200"/>
<path d="M28.5584 37.4345C29.2844 37.4345 29.873 36.8459 29.873 36.1199C29.873 35.3938 29.2844 34.8052 28.5584 34.8052C27.8323 34.8052 27.2437 35.3938 27.2437 36.1199C27.2437 36.8459 27.8323 37.4345 28.5584 37.4345Z" fill="#FFD200"/>
<path d="M31.2674 37.4345C31.9934 37.4345 32.582 36.8459 32.582 36.1199C32.582 35.3938 31.9934 34.8052 31.2674 34.8052C30.5413 34.8052 29.9526 35.3938 29.9526 36.1199C29.9526 36.8459 30.5413 37.4345 31.2674 37.4345Z" fill="#FFD200"/>
<path d="M33.9763 37.4345C34.7024 37.4345 35.291 36.8459 35.291 36.1199C35.291 35.3938 34.7024 34.8052 33.9763 34.8052C33.2503 34.8052 32.6616 35.3938 32.6616 36.1199C32.6616 36.8459 33.2503 37.4345 33.9763 37.4345Z" fill="#FFD200"/>
<path d="M36.6853 37.4345C37.4114 37.4345 38 36.8459 38 36.1199C38 35.3938 37.4114 34.8052 36.6853 34.8052C35.9593 34.8052 35.3706 35.3938 35.3706 36.1199C35.3706 36.8459 35.9593 37.4345 36.6853 37.4345Z" fill="#FFD200"/>
</g>
</g>
</g>
<defs>
<clipPath id="clip0_42_4095">
<rect width="38" height="38" fill="white"/>
</clipPath>
<clipPath id="clip1_42_4095">
<rect width="38" height="38" fill="white"/>
</clipPath>
<clipPath id="clip2_42_4095">
<rect width="38" height="38" fill="white"/>
</clipPath>
</defs>
</svg>
