<svg width="39" height="39" viewBox="0 0 39 39" fill="none" xmlns="http://www.w3.org/2000/svg">
<g clip-path="url(#clip0_42_4297)">
<g clip-path="url(#clip1_42_4297)">
<g clip-path="url(#clip2_42_4297)">
<path d="M32.7852 24.3798C32.5166 24.855 32.0879 25.2143 31.5791 25.3907C31.0702 25.567 30.516 25.5486 30.0195 25.3385C29.5231 25.1285 29.1184 24.7413 28.8807 24.2492C28.6431 23.757 28.5887 23.1933 28.7279 22.6632C28.867 22.1332 29.19 21.6728 29.6368 21.3679C30.0836 21.0631 30.6236 20.9345 31.1564 21.0062C31.6891 21.0779 32.1781 21.3448 32.5324 21.7574C32.8867 22.1701 33.082 22.7002 33.082 23.2489C33.0832 23.6461 32.9807 24.0364 32.7852 24.3798Z" fill="#FFD200"/>
<path d="M27.0323 20.9872C26.7636 21.4626 26.3347 21.822 25.8256 21.9983C25.3166 22.1746 24.7621 22.1559 24.2657 21.9456C23.7692 21.7352 23.3645 21.3477 23.1271 20.8552C22.8897 20.3627 22.8359 19.7988 22.9754 19.2687C23.1151 18.7386 23.4387 18.2784 23.8859 17.974C24.3333 17.6695 24.8736 17.5416 25.4065 17.614C25.9393 17.6864 26.4281 17.9543 26.7818 18.3677C27.1356 18.7809 27.3301 19.3116 27.329 19.8605C27.3297 20.2563 27.2273 20.6451 27.0323 20.9872Z" fill="#FFD200"/>
<path d="M21.2779 17.5941C21.0092 18.0695 20.5803 18.4289 20.0712 18.6052C19.5622 18.7816 19.0077 18.7628 18.5112 18.5524C18.0148 18.3422 17.6101 17.9546 17.3727 17.462C17.1353 16.9695 17.0814 16.4055 17.2211 15.8754C17.3607 15.3453 17.6844 14.8852 18.1317 14.5808C18.5791 14.2764 19.1195 14.1485 19.6522 14.221C20.1851 14.2935 20.6739 14.5614 21.0276 14.9747C21.3814 15.3882 21.5758 15.9188 21.5746 16.4677C21.5738 16.8632 21.4715 17.2516 21.2779 17.5941Z" fill="#FFD200"/>
<path d="M15.524 14.2015C15.2553 14.6768 14.8267 15.0361 14.3178 15.2125C13.809 15.3888 13.2547 15.3703 12.7583 15.1603C12.2619 14.9503 11.8571 14.5631 11.6195 14.0709C11.3818 13.5788 11.3275 13.0151 11.4666 12.485C11.6057 11.9549 11.9287 11.4946 12.3755 11.1897C12.8223 10.8849 13.3624 10.7563 13.8951 10.828C14.4279 10.8996 14.9169 11.1666 15.2712 11.5792C15.6255 11.9918 15.8208 12.5219 15.8207 13.0707C15.8207 13.4677 15.7183 13.8576 15.524 14.2015Z" fill="#FFD200"/>
<path d="M9.76995 10.8081C9.50122 11.2834 9.0724 11.6426 8.56344 11.8189C8.05448 11.9952 7.50014 11.9765 7.00372 11.7662C6.5073 11.5559 6.10272 11.1684 5.86537 10.676C5.62802 10.1835 5.57411 9.61975 5.7137 9.08973C5.85329 8.5597 6.17686 8.0996 6.62407 7.7952C7.07128 7.49081 7.61161 7.36289 8.14434 7.4353C8.67707 7.5077 9.16585 7.7755 9.51954 8.18875C9.87323 8.602 10.0677 9.1325 10.0667 9.68136C10.0659 10.077 9.96359 10.4654 9.76995 10.8081Z" fill="#FFD200"/>
<path d="M31.9747 11.6363C31.5954 11.86 31.1596 11.9638 30.7224 11.9346C30.2853 11.9054 29.8666 11.7444 29.519 11.4721C29.1714 11.1997 28.9108 10.8283 28.7699 10.4047C28.6291 9.98103 28.6145 9.52426 28.7277 9.09212C28.8411 8.65998 29.0775 8.27187 29.4068 7.97689C29.7361 7.6819 30.1438 7.49328 30.578 7.43488C31.0124 7.37649 31.4539 7.45093 31.8468 7.64881C32.2397 7.84668 32.5663 8.15911 32.7853 8.54656C32.9808 8.88987 33.0833 9.2802 33.082 9.67737C33.082 10.0744 32.9796 10.4644 32.7853 10.8083C32.591 11.1521 32.3114 11.4377 31.9747 11.6363Z" fill="#FFD200"/>
<path d="M26.2214 15.0295C25.8421 15.2532 25.4063 15.357 24.9692 15.3276C24.5321 15.2984 24.1133 15.1373 23.7658 14.865C23.4183 14.5926 23.1577 14.2212 23.017 13.7975C22.8762 13.3739 22.8615 12.9171 22.9749 12.485C23.0883 12.053 23.3246 11.6648 23.6539 11.3699C23.9832 11.0749 24.3909 10.8863 24.8251 10.8279C25.2594 10.7696 25.7009 10.844 26.0938 11.0418C26.4867 11.2397 26.8133 11.5521 27.0323 11.9395C27.2277 12.2812 27.3302 12.6699 27.329 13.0656C27.329 13.4633 27.2267 13.8542 27.0323 14.1988C26.838 14.5434 26.5584 14.8299 26.2214 15.0295Z" fill="#FFD200"/>
<path d="M20.4674 18.4219C20.0453 18.6708 19.5547 18.7706 19.0715 18.7058C18.5882 18.641 18.1394 18.4152 17.7947 18.0635C17.4498 17.7117 17.2283 17.2535 17.1642 16.7602C17.1002 16.2667 17.1973 15.7655 17.4406 15.3342C17.6838 14.9028 18.0596 14.5656 18.5097 14.3744C18.9597 14.1834 19.4589 14.1493 19.9299 14.2774C20.4008 14.4055 20.8173 14.6887 21.1146 15.083C21.412 15.4774 21.5737 15.9608 21.5746 16.4586C21.5754 16.8563 21.4733 17.2473 21.279 17.592C21.0845 17.9366 20.8046 18.2229 20.4674 18.4219Z" fill="#FFD200"/>
<path d="M14.7135 21.815C14.2913 22.064 13.8004 22.1637 13.317 22.0988C12.8336 22.0338 12.3847 21.8078 12.0399 21.4557C11.6952 21.1037 11.4738 20.6452 11.4101 20.1515C11.3464 19.6579 11.444 19.1566 11.6878 18.7253C11.9315 18.2941 12.3078 17.957 12.7582 17.7665C13.2087 17.5759 13.7081 17.5424 14.1791 17.6713C14.65 17.8002 15.0662 18.0841 15.363 18.4791C15.6598 18.8741 15.8207 19.3582 15.8207 19.8561C15.8206 20.2531 15.7183 20.6431 15.5239 20.9869C15.3296 21.3308 15.0501 21.6163 14.7135 21.815Z" fill="#FFD200"/>
<path d="M8.95914 25.2073C8.53711 25.456 8.0465 25.5556 7.56339 25.4907C7.08026 25.4258 6.63159 25.2 6.2869 24.8483C5.94221 24.4965 5.72075 24.0385 5.65683 23.5451C5.59291 23.0518 5.69012 22.5507 5.93338 22.1194C6.17663 21.6882 6.55236 21.351 7.00233 21.16C7.45229 20.969 7.95139 20.9349 8.42225 21.063C8.89311 21.1911 9.30943 21.4742 9.60674 21.8686C9.90405 22.2628 10.0657 22.7463 10.0667 23.244C10.0674 23.6417 9.96534 24.0327 9.77089 24.3774C9.57644 24.7221 9.29646 25.0083 8.95914 25.2073Z" fill="#FFD200"/>
<path d="M19.3598 5.15377C20.583 5.15377 21.5746 4.14106 21.5746 2.89182C21.5746 1.64259 20.583 0.629883 19.3598 0.629883C18.1366 0.629883 17.145 1.64259 17.145 2.89182C17.145 4.14106 18.1366 5.15377 19.3598 5.15377Z" fill="#FFD200"/>
<path d="M19.3598 11.9395C20.583 11.9395 21.5746 10.9267 21.5746 9.67747C21.5746 8.42823 20.583 7.41553 19.3598 7.41553C18.1366 7.41553 17.145 8.42823 17.145 9.67747C17.145 10.9267 18.1366 11.9395 19.3598 11.9395Z" fill="#FFD200"/>
<path d="M19.3598 18.7251C20.583 18.7251 21.5746 17.7124 21.5746 16.4631C21.5746 15.2139 20.583 14.2012 19.3598 14.2012C18.1366 14.2012 17.145 15.2139 17.145 16.4631C17.145 17.7124 18.1366 18.7251 19.3598 18.7251Z" fill="#FFD200"/>
<path d="M19.3598 25.5107C20.583 25.5107 21.5746 24.498 21.5746 23.2488C21.5746 21.9996 20.583 20.9868 19.3598 20.9868C18.1366 20.9868 17.145 21.9996 17.145 23.2488C17.145 24.498 18.1366 25.5107 19.3598 25.5107Z" fill="#FFD200"/>
<path d="M19.3598 32.2964C20.583 32.2964 21.5746 31.2837 21.5746 30.0344C21.5746 28.7852 20.583 27.7725 19.3598 27.7725C18.1366 27.7725 17.145 28.7852 17.145 30.0344C17.145 31.2837 18.1366 32.2964 19.3598 32.2964Z" fill="#FFD200"/>
<path d="M19.3598 38.6299C20.583 38.6299 21.5746 37.6172 21.5746 36.3679C21.5746 35.1187 20.583 34.106 19.3598 34.106C18.1366 34.106 17.145 35.1187 17.145 36.3679C17.145 37.6172 18.1366 38.6299 19.3598 38.6299Z" fill="#FFD200"/>
</g>
</g>
</g>
<defs>
<clipPath id="clip0_42_4297">
<rect width="38" height="38" fill="white" transform="translate(0.359863 0.629883)"/>
</clipPath>
<clipPath id="clip1_42_4297">
<rect width="38" height="38" fill="white" transform="translate(0.359863 0.629883)"/>
</clipPath>
<clipPath id="clip2_42_4297">
<rect width="27.4444" height="38" fill="white" transform="translate(5.6377 0.629883)"/>
</clipPath>
</defs>
</svg>
