<svg width="39" height="39" viewBox="0 0 39 39" fill="none" xmlns="http://www.w3.org/2000/svg">
<g clip-path="url(#clip0_42_4320)">
<g clip-path="url(#clip1_42_4320)">
<path d="M8.53174 33.739C9.46956 33.739 10.2299 32.9993 10.2299 32.0868C10.2299 31.1743 9.46956 30.4346 8.53174 30.4346C7.59381 30.4346 6.8335 31.1743 6.8335 32.0868C6.8335 32.9993 7.59381 33.739 8.53174 33.739Z" fill="#FFD200"/>
<path d="M8.22496 29.1507C8.3167 28.426 7.78726 27.7663 7.04249 27.677C6.29771 27.5878 5.61962 28.1029 5.5279 28.8275C5.43619 29.5521 5.9656 30.2119 6.71038 30.3011C7.45515 30.3903 8.13322 29.8752 8.22496 29.1507Z" fill="#FFD200"/>
<path d="M6.08892 26.5677C5.88731 26.5678 5.69023 26.5097 5.52258 26.4007C5.35492 26.2919 5.22423 26.137 5.14703 25.9558C5.06983 25.7746 5.04959 25.5752 5.08887 25.3829C5.12816 25.1905 5.2252 25.0137 5.36772 24.875C5.51025 24.7363 5.69185 24.6418 5.88958 24.6036C6.0873 24.5653 6.29223 24.5849 6.47849 24.6599C6.66476 24.7349 6.82396 24.862 6.93598 25.0251C7.04798 25.1882 7.10777 25.3799 7.10777 25.5761C7.10781 25.7063 7.08151 25.8352 7.03033 25.9555C6.97915 26.0759 6.9041 26.1851 6.80949 26.2773C6.71488 26.3693 6.60254 26.4424 6.47891 26.4922C6.35527 26.542 6.22274 26.5677 6.08892 26.5677Z" fill="#FFD200"/>
<path d="M6.25894 22.7492C6.12458 22.7492 5.99324 22.7104 5.88152 22.6378C5.7698 22.5651 5.68271 22.4619 5.6313 22.3412C5.57988 22.2203 5.56643 22.0875 5.59264 21.9592C5.61886 21.831 5.68357 21.7132 5.77857 21.6208C5.87359 21.5284 5.99464 21.4655 6.12642 21.44C6.2582 21.4144 6.39479 21.4275 6.51892 21.4776C6.64306 21.5276 6.74917 21.6123 6.82382 21.721C6.89846 21.8297 6.9383 21.9574 6.9383 22.0882C6.9383 22.2635 6.86673 22.4316 6.73933 22.5556C6.61192 22.6795 6.43912 22.7492 6.25894 22.7492Z" fill="#FFD200"/>
<path d="M7.37075 19.0956C7.55824 19.0956 7.71023 18.9477 7.71023 18.7653C7.71023 18.5829 7.55824 18.4351 7.37075 18.4351C7.18325 18.4351 7.03125 18.5829 7.03125 18.7653C7.03125 18.9477 7.18325 19.0956 7.37075 19.0956Z" fill="#FFD200"/>
<path d="M6.11374 10.6741C7.05163 10.6741 7.81193 9.93435 7.81193 9.02186C7.81193 8.10936 7.05163 7.36963 6.11374 7.36963C5.17585 7.36963 4.41553 8.10936 4.41553 9.02186C4.41553 9.93435 5.17585 10.6741 6.11374 10.6741Z" fill="#FFD200"/>
<path d="M10.6488 7.62281C10.769 6.90217 10.266 6.22312 9.52534 6.10615C8.78465 5.98917 8.08672 6.47855 7.96649 7.1992C7.84625 7.91985 8.34927 8.59887 9.08996 8.71585C9.83065 8.83282 10.5285 8.34346 10.6488 7.62281Z" fill="#FFD200"/>
<path d="M12.8067 7.63461C12.6051 7.63468 12.408 7.57658 12.2403 7.46767C12.0727 7.35875 11.942 7.2039 11.8648 7.02271C11.7876 6.84153 11.7674 6.64213 11.8067 6.44975C11.8459 6.25737 11.9429 6.08065 12.0855 5.94193C12.228 5.80321 12.4096 5.70874 12.6073 5.67045C12.8051 5.63215 13.01 5.65178 13.1962 5.72681C13.3825 5.80186 13.5417 5.92895 13.6537 6.09203C13.7658 6.25511 13.8256 6.44685 13.8256 6.64299C13.8256 6.90592 13.7182 7.15809 13.5271 7.34404C13.3361 7.53 13.077 7.63451 12.8067 7.63461Z" fill="#FFD200"/>
<path d="M16.3908 7.46304C16.2564 7.46304 16.1251 7.42427 16.0134 7.35165C15.9016 7.27902 15.8145 7.17579 15.7631 7.05501C15.7117 6.93424 15.6983 6.80135 15.7245 6.67313C15.7507 6.54492 15.8154 6.42715 15.9105 6.33471C16.0055 6.24226 16.1264 6.17932 16.2583 6.15381C16.39 6.12831 16.5266 6.1414 16.6508 6.19143C16.7749 6.24146 16.881 6.32617 16.9556 6.43487C17.0303 6.54357 17.0702 6.67135 17.0702 6.80207C17.0702 6.97738 16.9986 7.1455 16.8712 7.26946C16.7437 7.39341 16.571 7.46304 16.3908 7.46304Z" fill="#FFD200"/>
<path d="M19.8066 8.21601C19.7394 8.21601 19.6737 8.19663 19.6178 8.16029C19.562 8.12395 19.5184 8.07231 19.4926 8.01189C19.467 7.95147 19.4602 7.88499 19.4733 7.82084C19.4864 7.7567 19.5188 7.69778 19.5663 7.65154C19.6138 7.60529 19.6744 7.5738 19.7403 7.56104C19.8062 7.54828 19.8746 7.55483 19.9367 7.57985C19.9988 7.60488 20.0518 7.64726 20.0892 7.70164C20.1266 7.75602 20.1465 7.81995 20.1465 7.88535C20.1465 7.92879 20.1378 7.97181 20.1207 8.01195C20.1037 8.05208 20.0786 8.08855 20.047 8.11927C20.0155 8.14998 19.978 8.17434 19.9368 8.19094C19.8955 8.20754 19.8513 8.21606 19.8066 8.21601Z" fill="#FFD200"/>
<path d="M29.833 8.32155C30.7709 8.32155 31.5312 7.58182 31.5312 6.66931C31.5312 5.75682 30.7709 5.01709 29.833 5.01709C28.8951 5.01709 28.1348 5.75682 28.1348 6.66931C28.1348 7.58182 28.8951 8.32155 29.833 8.32155Z" fill="#FFD200"/>
<path d="M32.7902 10.1749C33.0192 9.47969 32.6256 8.73546 31.9109 8.51264C31.1964 8.28982 30.4314 8.67281 30.2024 9.36809C29.9734 10.0633 30.367 10.8075 31.0816 11.0303C31.7962 11.2532 32.5612 10.8702 32.7902 10.1749Z" fill="#FFD200"/>
<path d="M33.2827 13.2086C33.3027 12.6615 32.8631 12.2022 32.3007 12.1828C31.7384 12.1632 31.2663 12.5909 31.2463 13.138C31.2263 13.6852 31.6659 14.1445 32.2282 14.164C32.7905 14.1835 33.2627 13.7557 33.2827 13.2086Z" fill="#FFD200"/>
<path d="M32.106 17.3293C31.9716 17.3293 31.8403 17.2906 31.7284 17.218C31.6167 17.1454 31.5296 17.0423 31.4781 16.9215C31.4266 16.8007 31.4131 16.6678 31.4393 16.5396C31.4655 16.4113 31.5301 16.2935 31.6251 16.2011C31.7201 16.1086 31.8412 16.0456 31.973 16.0201C32.1047 15.9945 32.2414 16.0076 32.3655 16.0576C32.4897 16.1076 32.5958 16.1923 32.6705 16.301C32.7451 16.4098 32.785 16.5376 32.785 16.6683C32.785 16.8435 32.7135 17.0116 32.5862 17.1356C32.4588 17.2595 32.2861 17.3291 32.106 17.3293Z" fill="#FFD200"/>
<path d="M30.9957 20.3198C31.1832 20.3198 31.3352 20.1719 31.3352 19.9895C31.3352 19.8071 31.1832 19.6592 30.9957 19.6592C30.8082 19.6592 30.6562 19.8071 30.6562 19.9895C30.6562 20.1719 30.8082 20.3198 30.9957 20.3198Z" fill="#FFD200"/>
<path d="M32.248 31.3962C33.1859 31.3962 33.9462 30.6565 33.9462 29.744C33.9462 28.8315 33.1859 28.0918 32.248 28.0918C31.3101 28.0918 30.5498 28.8315 30.5498 29.744C30.5498 30.6565 31.3101 31.3962 32.248 31.3962Z" fill="#FFD200"/>
<path d="M29.1894 32.6907C29.9361 32.6189 30.4816 31.9717 30.4077 31.2451C30.3338 30.5186 29.6685 29.9879 28.9218 30.0597C28.1751 30.1316 27.6296 30.7789 27.7035 31.5055C27.7773 32.2319 28.4426 32.7626 29.1894 32.6907Z" fill="#FFD200"/>
<path d="M25.5589 33.1114C26.1216 33.1114 26.5778 32.6676 26.5778 32.1202C26.5778 31.5727 26.1216 31.1289 25.5589 31.1289C24.9962 31.1289 24.54 31.5727 24.54 32.1202C24.54 32.6676 24.9962 33.1114 25.5589 33.1114Z" fill="#FFD200"/>
<path d="M21.9714 32.6208C21.837 32.6208 21.7057 32.582 21.5939 32.5093C21.4822 32.4367 21.3951 32.3335 21.3437 32.2127C21.2923 32.0919 21.2788 31.959 21.305 31.8308C21.3312 31.7026 21.396 31.5848 21.491 31.4924C21.586 31.4 21.7071 31.337 21.8388 31.3116C21.9706 31.286 22.1072 31.2991 22.2313 31.3491C22.3555 31.3992 22.4616 31.4839 22.5362 31.5926C22.6108 31.7012 22.6507 31.8291 22.6507 31.9598C22.6506 32.1351 22.579 32.3031 22.4516 32.427C22.3242 32.551 22.1515 32.6206 21.9714 32.6208Z" fill="#FFD200"/>
<path d="M18.557 31.2009C18.4898 31.2009 18.424 31.1816 18.368 31.1453C18.3121 31.109 18.2685 31.0574 18.2427 30.9969C18.217 30.9365 18.2102 30.87 18.2233 30.8058C18.2364 30.7416 18.2688 30.6827 18.3163 30.6364C18.3638 30.5901 18.4245 30.5587 18.4904 30.5459C18.5564 30.5331 18.6247 30.5397 18.6868 30.5648C18.749 30.5898 18.8021 30.6323 18.8394 30.6868C18.8767 30.7411 18.8966 30.8051 18.8965 30.8706C18.8965 30.9582 18.8607 31.0422 18.797 31.1042C18.7334 31.1661 18.6471 31.2009 18.557 31.2009Z" fill="#FFD200"/>
<path d="M27.0967 28.2561C27.0295 28.2561 26.9637 28.2366 26.9078 28.2003C26.852 28.164 26.8084 28.1123 26.7826 28.0518C26.757 27.9914 26.7502 27.925 26.7634 27.8607C26.7765 27.7966 26.8089 27.7377 26.8565 27.6914C26.9041 27.6452 26.9647 27.6137 27.0307 27.601C27.0966 27.5883 27.1649 27.595 27.227 27.62C27.2891 27.6451 27.3422 27.6876 27.3795 27.7419C27.4168 27.7964 27.4366 27.8604 27.4366 27.9258C27.4365 28.0134 27.4007 28.0974 27.3369 28.1593C27.2732 28.2213 27.1868 28.2561 27.0967 28.2561Z" fill="#FFD200"/>
<path d="M30.2965 27.0055C30.1622 27.0055 30.0309 26.9667 29.9191 26.8941C29.8074 26.8215 29.7203 26.7183 29.6689 26.5975C29.6175 26.4767 29.604 26.3438 29.6302 26.2156C29.6564 26.0874 29.7212 25.9696 29.8162 25.8771C29.9112 25.7847 30.0323 25.7218 30.164 25.6963C30.2959 25.6708 30.4324 25.6839 30.5566 25.7339C30.6807 25.7839 30.7867 25.8686 30.8614 25.9773C30.9361 26.086 30.9759 26.2138 30.9759 26.3445C30.9759 26.5198 30.9043 26.6879 30.777 26.8119C30.6496 26.9359 30.4767 27.0055 30.2965 27.0055Z" fill="#FFD200"/>
<path d="M32.9522 24.9847C32.7506 24.9847 32.5535 24.9267 32.3858 24.8178C32.2182 24.7088 32.0875 24.554 32.0103 24.3727C31.9331 24.1916 31.9129 23.9921 31.9522 23.7997C31.9915 23.6074 32.0886 23.4306 32.2311 23.2919C32.3737 23.1532 32.5554 23.0588 32.7531 23.0205C32.9509 22.9822 33.1558 23.0019 33.3421 23.077C33.5283 23.1521 33.6875 23.2792 33.7994 23.4424C33.9114 23.6055 33.9711 23.7973 33.9711 23.9935C33.9711 24.2564 33.8637 24.5085 33.6727 24.6944C33.4816 24.8803 33.2225 24.9847 32.9522 24.9847Z" fill="#FFD200"/>
<path d="M34.8792 22.3655C34.6105 22.3655 34.3477 22.288 34.1243 22.1427C33.9009 21.9975 33.7267 21.791 33.6239 21.5494C33.521 21.3078 33.4942 21.042 33.5466 20.7856C33.5991 20.5291 33.7286 20.2936 33.9186 20.1087C34.1086 19.9238 34.3508 19.798 34.6144 19.747C34.878 19.6961 35.1512 19.7223 35.3994 19.8224C35.6477 19.9225 35.8599 20.092 36.0091 20.3094C36.1584 20.5269 36.238 20.7825 36.238 21.044C36.238 21.2176 36.2028 21.3894 36.1345 21.5498C36.0662 21.7102 35.9661 21.8559 35.84 21.9786C35.7138 22.1013 35.564 22.1987 35.3992 22.265C35.2343 22.3314 35.0576 22.3656 34.8792 22.3655Z" fill="#FFD200"/>
<path d="M37.1593 18.884C37.8224 18.2388 37.8224 17.1926 37.1593 16.5474C36.4961 15.9022 35.4208 15.9022 34.7576 16.5474C34.0945 17.1926 34.0945 18.2388 34.7577 18.884C35.4208 19.5292 36.4961 19.5292 37.1593 18.884Z" fill="#FFD200"/>
<path d="M27.9791 12.0068C28.1666 12.0068 28.3186 11.859 28.3186 11.6766C28.3186 11.4941 28.1666 11.3462 27.9791 11.3462C27.7916 11.3462 27.6396 11.4941 27.6396 11.6766C27.6396 11.859 27.7916 12.0068 27.9791 12.0068Z" fill="#FFD200"/>
<path d="M26.3502 9.22622C26.7254 9.22622 27.0296 8.9303 27.0296 8.56526C27.0296 8.20022 26.7254 7.9043 26.3502 7.9043C25.9751 7.9043 25.6709 8.20022 25.6709 8.56526C25.6709 8.9303 25.9751 9.22622 26.3502 9.22622Z" fill="#FFD200"/>
<path d="M23.9333 6.97543C23.7316 6.97543 23.5346 6.91728 23.367 6.80832C23.1994 6.69936 23.0687 6.54449 22.9916 6.36329C22.9145 6.18209 22.8943 5.98272 22.9336 5.79036C22.973 5.598 23.07 5.42131 23.2125 5.28263C23.3551 5.14395 23.5367 5.04951 23.7344 5.01124C23.9321 4.97298 24.1371 4.99262 24.3233 5.06767C24.5096 5.14272 24.6687 5.26983 24.7807 5.4329C24.8927 5.59597 24.9525 5.78769 24.9525 5.98382C24.9525 6.11405 24.9262 6.24302 24.875 6.36335C24.8238 6.48368 24.7487 6.59301 24.654 6.6851C24.5594 6.7772 24.4471 6.85023 24.3234 6.90005C24.1997 6.94987 24.0671 6.97548 23.9333 6.97543Z" fill="#FFD200"/>
<path d="M22.4374 3.69659C22.5574 2.97381 22.0526 2.29317 21.3096 2.17636C20.5668 2.05955 19.8672 2.55079 19.7471 3.27357C19.6271 3.99635 20.132 4.67697 20.8749 4.79378C21.6178 4.9106 22.3173 4.41936 22.4374 3.69659Z" fill="#FFD200"/>
<path d="M17.4746 4.70973C18.4125 4.70973 19.1728 3.97 19.1728 3.05751C19.1728 2.145 18.4125 1.40527 17.4746 1.40527C16.5367 1.40527 15.7764 2.145 15.7764 3.05751C15.7764 3.97 16.5367 4.70973 17.4746 4.70973Z" fill="#FFD200"/>
<path d="M11.269 11.1486C11.2019 11.1486 11.1362 11.1292 11.0803 11.0929C11.0244 11.0566 10.9808 11.0049 10.9551 10.9445C10.9294 10.8841 10.9226 10.8176 10.9357 10.7534C10.9488 10.6893 10.9812 10.6304 11.0288 10.5841C11.0762 10.5379 11.1368 10.5064 11.2028 10.4936C11.2687 10.4809 11.337 10.4874 11.3992 10.5125C11.4612 10.5375 11.5143 10.5799 11.5516 10.6342C11.589 10.6887 11.6089 10.7526 11.6089 10.818C11.6089 10.9057 11.5731 10.9897 11.5094 11.0518C11.4456 11.1138 11.3592 11.1486 11.269 11.1486Z" fill="#FFD200"/>
<path d="M8.06938 13.0632C7.935 13.0632 7.80362 13.0245 7.69184 12.9519C7.58008 12.8794 7.49294 12.7761 7.44146 12.6554C7.38998 12.5346 7.37649 12.4016 7.40266 12.2734C7.42884 12.1452 7.49349 12.0274 7.58849 11.9349C7.68348 11.8424 7.80454 11.7794 7.93633 11.7539C8.06812 11.7284 8.20476 11.7414 8.32892 11.7915C8.45307 11.8415 8.55916 11.9262 8.63385 12.0349C8.70853 12.1436 8.74839 12.2714 8.74839 12.4022C8.74839 12.5774 8.67681 12.7454 8.54955 12.8694C8.42221 12.9934 8.2495 13.063 8.06938 13.0632Z" fill="#FFD200"/>
<path d="M5.41473 15.7425C5.21315 15.7425 5.01609 15.6844 4.84848 15.5754C4.68088 15.4664 4.55025 15.3116 4.4731 15.1304C4.39596 14.9492 4.37576 14.7498 4.41509 14.5575C4.45442 14.3651 4.55149 14.1884 4.69402 14.0497C4.83657 13.9111 5.01817 13.8166 5.21588 13.7783C5.41359 13.7401 5.61853 13.7597 5.80476 13.8348C5.991 13.9098 6.15019 14.0369 6.26218 14.2C6.37418 14.363 6.43394 14.5548 6.43394 14.7509C6.43399 14.8812 6.40768 15.0101 6.35647 15.1304C6.30527 15.2508 6.23019 15.3601 6.13554 15.4523C6.04089 15.5443 5.9285 15.6174 5.80482 15.6671C5.68114 15.717 5.54859 15.7426 5.41473 15.7425Z" fill="#FFD200"/>
<path d="M4.83933 17.8055C4.90121 17.0779 4.34513 16.4393 3.59729 16.3791C2.84945 16.3188 2.19304 16.8599 2.13117 17.5875C2.06929 18.3151 2.62537 18.9537 3.37321 19.0139C4.12105 19.0741 4.77746 18.5331 4.83933 17.8055Z" fill="#FFD200"/>
<path d="M4.05548 21.413C4.27092 20.5249 3.70559 19.635 2.79278 19.4254C1.87997 19.2158 0.965341 19.7658 0.749897 20.6539C0.534454 21.542 1.09978 22.4319 2.01259 22.6415C2.92541 22.8511 3.84003 22.3011 4.05548 21.413Z" fill="#FFD200"/>
<path d="M10.7307 27.1202C10.7536 26.9391 10.6213 26.7743 10.4352 26.752C10.2492 26.7298 10.0797 26.8584 10.0568 27.0395C10.0339 27.2205 10.1662 27.3854 10.3522 27.4076C10.5384 27.43 10.7078 27.3012 10.7307 27.1202Z" fill="#FFD200"/>
<path d="M12.0163 30.8473C11.8819 30.8473 11.7505 30.8085 11.6389 30.7359C11.5271 30.6633 11.44 30.5601 11.3886 30.4393C11.3372 30.3185 11.3238 30.1856 11.35 30.0574C11.3762 29.9292 11.4409 29.8114 11.5359 29.7189C11.6309 29.6265 11.7519 29.5636 11.8837 29.5381C12.0155 29.5126 12.1521 29.5257 12.2762 29.5757C12.4004 29.6257 12.5065 29.7104 12.5811 29.8191C12.6558 29.9279 12.6956 30.0556 12.6956 30.1863C12.6956 30.3616 12.6241 30.5297 12.4966 30.6537C12.3692 30.7777 12.1964 30.8473 12.0163 30.8473Z" fill="#FFD200"/>
<path d="M14.4338 33.7615C14.2321 33.7615 14.0351 33.7034 13.8675 33.5944C13.6998 33.4855 13.5692 33.3306 13.4921 33.1494C13.415 32.9681 13.3948 32.7687 13.4341 32.5763C13.4735 32.384 13.5706 32.2073 13.7132 32.0686C13.8558 31.9299 14.0374 31.8356 14.2352 31.7973C14.4329 31.7591 14.6378 31.7788 14.8241 31.8539C15.0103 31.929 15.1694 32.0562 15.2814 32.2193C15.3934 32.3824 15.453 32.5742 15.4529 32.7703C15.4529 32.9005 15.4267 33.0295 15.3754 33.1497C15.3241 33.27 15.2491 33.3793 15.1545 33.4714C15.0598 33.5634 14.9475 33.6365 14.8238 33.6862C14.7002 33.736 14.5676 33.7616 14.4338 33.7615Z" fill="#FFD200"/>
<path d="M17.5744 35.9627C18.3222 35.9024 18.8783 35.2638 18.8164 34.5362C18.7545 33.8086 18.0981 33.2676 17.3503 33.3278C16.6025 33.388 16.0463 34.0266 16.1082 34.7542C16.1701 35.4819 16.8265 36.0229 17.5744 35.9627Z" fill="#FFD200"/>
<path d="M21.5419 37.2212C22.4084 36.8719 22.8198 35.9054 22.4609 35.0624C22.102 34.2193 21.1086 33.819 20.2421 34.1682C19.3756 34.5174 18.9642 35.4839 19.3231 36.3269C19.682 37.17 20.6754 37.5703 21.5419 37.2212Z" fill="#FFD200"/>
</g>
</g>
<defs>
<clipPath id="clip0_42_4320">
<rect width="38" height="38" fill="white" transform="translate(0.359863 0.629883)"/>
</clipPath>
<clipPath id="clip1_42_4320">
<rect width="38" height="36.449" fill="white" transform="translate(0.359863 1.40527)"/>
</clipPath>
</defs>
</svg>
