<svg width="270" height="97" viewBox="0 0 270 97" fill="none" xmlns="http://www.w3.org/2000/svg">
<rect y="-0.000488281" width="270" height="97" rx="7.7" fill="#1A1A1A"/>
<path d="M32.7017 7.31396L38.1147 13.4897V29.644H15.7847V7.31396H32.7017Z" stroke="white" stroke-width="0.77"/>
<path d="M46.1997 6.9292H63.6767L69.2997 13.3459V30.0292H46.1997V6.9292Z" fill="#FFD200"/>
<path d="M94.3018 7.31396L99.7148 13.4897V29.644H77.3848V7.31396H94.3018Z" stroke="white" stroke-width="0.77"/>
<path d="M125.102 7.31396L130.515 13.4897V29.644H108.185V7.31396H125.102Z" stroke="white" stroke-width="0.77"/>
<path d="M155.902 7.31396L161.315 13.4897V29.644H138.985V7.31396H155.902Z" stroke="white" stroke-width="0.77"/>
<path d="M186.702 7.31396L192.115 13.4897V29.644H169.785V7.31396H186.702Z" stroke="white" stroke-width="0.77"/>
<path d="M217.501 7.31396L222.915 13.4897V29.644H200.584V7.31396H217.501Z" stroke="white" stroke-width="0.77"/>
<path d="M231 6.9292H248.477L254.1 13.3459V30.0292H231V6.9292Z" fill="#FFD200"/>
<path d="M32.7017 67.374L38.1147 73.5498V89.7041H15.7847V67.374H32.7017Z" stroke="white" stroke-width="0.77"/>
<path d="M63.5015 67.374L68.9146 73.5498V89.7041H46.5845V67.374H63.5015Z" stroke="white" stroke-width="0.77"/>
<path d="M94.3018 67.374L99.7148 73.5498V89.7041H77.3848V67.374H94.3018Z" stroke="white" stroke-width="0.77"/>
<path d="M107.8 66.9893H125.277L130.9 73.4059V90.0893H107.8V66.9893Z" fill="#FFD200"/>
<path d="M155.902 67.374L161.315 73.5498V89.7041H138.985V67.374H155.902Z" stroke="white" stroke-width="0.77"/>
<path d="M186.702 67.374L192.115 73.5498V89.7041H169.785V67.374H186.702Z" stroke="white" stroke-width="0.77"/>
<path d="M217.501 67.374L222.915 73.5498V89.7041H200.584V67.374H217.501Z" stroke="white" stroke-width="0.77"/>
<path d="M248.302 67.374L253.715 73.5498V89.7041H231.385V67.374H248.302Z" stroke="white" stroke-width="0.77"/>
<path d="M32.7017 37.3442L38.1147 43.52V59.6743H15.7847V37.3442H32.7017Z" stroke="white" stroke-width="0.77"/>
<path d="M248.302 37.3442L253.715 43.52V59.6743H231.385V37.3442H248.302Z" stroke="white" stroke-width="0.77"/>
<path d="M102.017 42.6308L98.483 44.4557V41.984L102.479 39.7895H104.697V55.9595H102.017V42.6308ZM107.816 53.3954V42.3536L110.38 39.7895H117.356L119.92 42.3536V53.3954L117.356 55.9595H110.38L107.816 53.3954ZM116.109 53.6495L117.241 52.5407V43.2083L116.109 42.0995H111.627L110.496 43.2083V52.5407L111.627 53.6495H116.109ZM123.268 55.9595H122.829L121.951 55.0817V53.7419L122.829 52.8641H124.33L125.185 53.765V55.9595L123.938 58.9856H122.413L123.268 55.9595ZM127.239 53.3954V42.3536L129.803 39.7895H136.779L139.343 42.3536V53.3954L136.779 55.9595H129.803L127.239 53.3954ZM135.532 53.6495L136.664 52.5407V43.2083L135.532 42.0995H131.05L129.919 43.2083V52.5407L131.05 53.6495H135.532ZM142.105 53.3954V42.3536L144.669 39.7895H151.645L154.209 42.3536V53.3954L151.645 55.9595H144.669L142.105 53.3954ZM150.398 53.6495L151.53 52.5407V43.2083L150.398 42.0995H145.917L144.785 43.2083V52.5407L145.917 53.6495H150.398ZM156.971 53.3954V42.3536L159.535 39.7895H166.511L169.076 42.3536V53.3954L166.511 55.9595H159.535L156.971 53.3954ZM165.264 53.6495L166.396 52.5407V43.2083L165.264 42.0995H160.783L159.651 43.2083V52.5407L160.783 53.6495H165.264Z" fill="white"/>
</svg>
