<svg width="1358" height="776" viewBox="0 0 1358 776" fill="none" xmlns="http://www.w3.org/2000/svg">
<g opacity="0.25" clip-path="url(#clip0_176_375)">
<g style="mix-blend-mode:screen">
<path d="M938.118 253.615L419.82 253.586L-114.467 -16.7852H1472.47L1470.93 -16.006L938.118 253.615ZM419.994 252.807H938.002L1469.15 -15.977H-111.157L419.994 252.807Z" fill="url(#paint0_linear_176_375)"/>
<path d="M954.939 244.267H403.057V245.075H954.939V244.267Z" fill="url(#paint1_linear_176_375)"/>
<path d="M974.17 234.534H383.826V235.342H974.17V234.534Z" fill="url(#paint2_linear_176_375)"/>
<path d="M996.281 223.346H361.717V224.154H996.281V223.346Z" fill="url(#paint3_linear_176_375)"/>
<path d="M1021.98 210.344H336.025V211.152H1021.98V210.344Z" fill="url(#paint4_linear_176_375)"/>
<path d="M1052.2 195.051H305.804V195.859H1052.2V195.051Z" fill="url(#paint5_linear_176_375)"/>
<path d="M1088.26 176.803H269.743V177.611H1088.26V176.803Z" fill="url(#paint6_linear_176_375)"/>
<path d="M1132.03 154.648H225.966V155.457H1132.03V154.648Z" fill="url(#paint7_linear_176_375)"/>
<path d="M1186.29 127.19H171.705V127.998H1186.29V127.19Z" fill="url(#paint8_linear_176_375)"/>
<path d="M1255.32 92.2578H102.679V93.066H1255.32V92.2578Z" fill="url(#paint9_linear_176_375)"/>
<path d="M1346.1 46.3228H11.9053V47.1309H1346.1V46.3228Z" fill="url(#paint10_linear_176_375)"/>
<path d="M905.806 253.576L905.55 252.84L1371.71 -16.752L1371.96 -16.0164L905.806 253.576Z" fill="url(#paint11_linear_176_375)"/>
<path d="M873.444 253.566L873.148 252.85L1272.71 -16.7422L1273.01 -16.026L873.444 253.566Z" fill="url(#paint12_linear_176_375)"/>
<path d="M841.082 253.553L840.743 252.871L1173.71 -16.7261L1174.05 -16.0389L841.082 253.553Z" fill="url(#paint13_linear_176_375)"/>
<path d="M808.724 253.528L808.337 252.894L1074.71 -16.6978L1075.1 -16.0638L808.724 253.528Z" fill="url(#paint14_linear_176_375)"/>
<path d="M776.375 253.491L775.92 252.934L975.702 -16.6626L976.156 -16.1013L776.375 253.491Z" fill="url(#paint15_linear_176_375)"/>
<path d="M744.027 253.427L743.5 252.992L876.685 -16.6001L877.217 -16.1646L744.027 253.427Z" fill="url(#paint16_linear_176_375)"/>
<path d="M711.683 253.329L711.083 253.087L777.675 -16.5049L778.275 -16.2629L711.683 253.329Z" fill="url(#paint17_linear_176_375)"/>
<path d="M679.314 -16.3818H678.685V253.21H679.314V-16.3818Z" fill="url(#paint18_linear_176_375)"/>
<path d="M646.314 253.329L579.722 -16.2629L580.322 -16.5049L646.914 253.087L646.314 253.329Z" fill="url(#paint19_linear_176_375)"/>
<path d="M613.969 253.427L480.779 -16.1646L481.312 -16.6001L614.496 252.992L613.969 253.427Z" fill="url(#paint20_linear_176_375)"/>
<path d="M581.624 253.491L381.843 -16.1013L382.298 -16.6626L582.079 252.934L581.624 253.491Z" fill="url(#paint21_linear_176_375)"/>
<path d="M549.273 253.528L282.899 -16.0638L283.287 -16.6978L549.66 252.894L549.273 253.528Z" fill="url(#paint22_linear_176_375)"/>
<path d="M516.918 253.553L183.947 -16.0389L184.286 -16.7261L517.252 252.871L516.918 253.553Z" fill="url(#paint23_linear_176_375)"/>
<path d="M484.555 253.566L84.9961 -16.026L85.2864 -16.7422L484.85 252.85L484.555 253.566Z" fill="url(#paint24_linear_176_375)"/>
<path d="M452.189 253.576L-13.9668 -16.0164L-13.7055 -16.752L452.45 252.84L452.189 253.576Z" fill="url(#paint25_linear_176_375)"/>
</g>
<g style="mix-blend-mode:screen">
<path d="M1456.5 785.81L1456.07 785.592L937.746 523.075V252.931L937.944 252.83L1456.5 -9.79883V785.81ZM938.375 522.528L1455.87 784.624V-8.61322L938.375 253.483V522.528Z" fill="url(#paint26_linear_176_375)"/>
<path d="M1456.09 713.382L937.965 498.677L938.158 497.912L1456.28 712.613L1456.09 713.382Z" fill="url(#paint27_linear_176_375)"/>
<path d="M1456.11 641.167L937.983 474.176L938.138 473.392L1456.26 640.383L1456.11 641.167Z" fill="url(#paint28_linear_176_375)"/>
<path d="M1456.13 568.951L938.008 449.674L938.119 448.881L1456.24 568.158L1456.13 568.951Z" fill="url(#paint29_linear_176_375)"/>
<path d="M1456.15 496.736L938.028 425.169L938.096 424.365L1456.22 495.932L1456.15 496.736Z" fill="url(#paint30_linear_176_375)"/>
<path d="M1456.17 424.521L938.051 400.664L938.07 399.856L1456.2 423.713L1456.17 424.521Z" fill="url(#paint31_linear_176_375)"/>
<path d="M938.07 376.156L938.051 375.348L1456.17 351.491L1456.2 352.299L938.07 376.156Z" fill="url(#paint32_linear_176_375)"/>
<path d="M938.096 351.642L938.028 350.843L1456.15 279.276L1456.22 280.075L938.096 351.642Z" fill="url(#paint33_linear_176_375)"/>
<path d="M938.119 327.132L938.008 326.339L1456.13 207.057L1456.24 207.856L938.119 327.132Z" fill="url(#paint34_linear_176_375)"/>
<path d="M938.138 302.616L937.983 301.832L1456.11 134.841L1456.26 135.625L938.138 302.616Z" fill="url(#paint35_linear_176_375)"/>
<path d="M938.158 278.1L937.965 277.33L1456.09 62.6294L1456.28 63.3988L938.158 278.1Z" fill="url(#paint36_linear_176_375)"/>
<path d="M1303 68.5347H1302.37V707.474H1303V68.5347Z" fill="url(#paint37_linear_176_375)"/>
<path d="M1246.78 97.0117H1246.15V678.998H1246.78V97.0117Z" fill="url(#paint38_linear_176_375)"/>
<path d="M1199.76 120.826H1199.13V655.181H1199.76V120.826Z" fill="url(#paint39_linear_176_375)"/>
<path d="M1159.85 141.04H1159.22V634.972H1159.85V141.04Z" fill="url(#paint40_linear_176_375)"/>
<path d="M1125.56 158.407H1124.93V617.604H1125.56V158.407Z" fill="url(#paint41_linear_176_375)"/>
<path d="M1095.77 173.49H1095.14V602.515H1095.77V173.49Z" fill="url(#paint42_linear_176_375)"/>
<path d="M1069.66 186.723H1069.03V589.291H1069.66V186.723Z" fill="url(#paint43_linear_176_375)"/>
<path d="M1046.58 198.409H1045.95V577.599H1046.58V198.409Z" fill="url(#paint44_linear_176_375)"/>
<path d="M1026.03 208.818H1025.4V567.195H1026.03V208.818Z" fill="url(#paint45_linear_176_375)"/>
<path d="M1007.62 218.138H1006.99V557.87H1007.62V218.138Z" fill="url(#paint46_linear_176_375)"/>
<path d="M991.031 226.543H990.402V549.473H991.031V226.543Z" fill="url(#paint47_linear_176_375)"/>
<path d="M976.005 234.151H975.376V541.861H976.005V234.151Z" fill="url(#paint48_linear_176_375)"/>
<path d="M962.335 241.076H961.706V534.937H962.335V241.076Z" fill="url(#paint49_linear_176_375)"/>
<path d="M949.839 247.405H949.21V528.606H949.839V247.405Z" fill="url(#paint50_linear_176_375)"/>
</g>
<g style="mix-blend-mode:screen">
<path d="M1472.47 792.8H-114.467L-112.928 792.02L419.878 522.399L938.176 522.428L1472.47 792.8ZM-111.152 791.991H1469.15L938.002 523.208H419.994L-111.157 791.991H-111.152Z" fill="url(#paint51_linear_176_375)"/>
<path d="M954.939 530.94H403.057V531.749H954.939V530.94Z" fill="url(#paint52_linear_176_375)"/>
<path d="M974.17 540.673H383.826V541.482H974.17V540.673Z" fill="url(#paint53_linear_176_375)"/>
<path d="M996.281 551.861H361.717V552.669H996.281V551.861Z" fill="url(#paint54_linear_176_375)"/>
<path d="M1021.98 564.862H336.025V565.67H1021.98V564.862Z" fill="url(#paint55_linear_176_375)"/>
<path d="M1052.2 580.155H305.804V580.963H1052.2V580.155Z" fill="url(#paint56_linear_176_375)"/>
<path d="M1088.26 598.403H269.743V599.211H1088.26V598.403Z" fill="url(#paint57_linear_176_375)"/>
<path d="M1132.03 620.557H225.966V621.365H1132.03V620.557Z" fill="url(#paint58_linear_176_375)"/>
<path d="M1186.29 648.015H171.705V648.823H1186.29V648.015Z" fill="url(#paint59_linear_176_375)"/>
<path d="M1255.32 682.945H102.679V683.753H1255.32V682.945Z" fill="url(#paint60_linear_176_375)"/>
<path d="M1346.1 728.883H11.9053V729.691H1346.1V728.883Z" fill="url(#paint61_linear_176_375)"/>
<path d="M-13.7055 792.767L-13.9668 792.027L452.189 522.435L452.45 523.17L-13.7055 792.767Z" fill="url(#paint62_linear_176_375)"/>
<path d="M85.2864 792.752L84.9961 792.041L484.555 522.444L484.85 523.16L85.2864 792.752Z" fill="url(#paint63_linear_176_375)"/>
<path d="M184.286 792.737L183.947 792.055L516.918 522.463L517.252 523.145L184.286 792.737Z" fill="url(#paint64_linear_176_375)"/>
<path d="M283.287 792.713L282.899 792.079L549.273 522.487L549.66 523.121L283.287 792.713Z" fill="url(#paint65_linear_176_375)"/>
<path d="M382.298 792.674L381.843 792.117L581.624 522.525L582.079 523.082L382.298 792.674Z" fill="url(#paint66_linear_176_375)"/>
<path d="M481.312 792.61L480.779 792.179L613.969 522.583L614.496 523.018L481.312 792.61Z" fill="url(#paint67_linear_176_375)"/>
<path d="M580.322 792.518L579.722 792.272L646.314 522.68L646.914 522.926L580.322 792.518Z" fill="url(#paint68_linear_176_375)"/>
<path d="M679.314 522.801H678.685V792.393H679.314V522.801Z" fill="url(#paint69_linear_176_375)"/>
<path d="M777.675 792.518L711.083 522.926L711.683 522.68L778.275 792.272L777.675 792.518Z" fill="url(#paint70_linear_176_375)"/>
<path d="M876.685 792.61L743.5 523.018L744.027 522.583L877.217 792.179L876.685 792.61Z" fill="url(#paint71_linear_176_375)"/>
<path d="M975.702 792.674L775.92 523.082L776.375 522.525L976.156 792.117L975.702 792.674Z" fill="url(#paint72_linear_176_375)"/>
<path d="M1074.71 792.713L808.337 523.121L808.724 522.487L1075.1 792.079L1074.71 792.713Z" fill="url(#paint73_linear_176_375)"/>
<path d="M1173.71 792.737L840.743 523.145L841.082 522.463L1174.05 792.055L1173.71 792.737Z" fill="url(#paint74_linear_176_375)"/>
<path d="M1272.71 792.752L873.148 523.16L873.444 522.444L1273.01 792.041L1272.71 792.752Z" fill="url(#paint75_linear_176_375)"/>
<path d="M1371.71 792.767L905.55 523.17L905.806 522.435L1371.96 792.027L1371.71 792.767Z" fill="url(#paint76_linear_176_375)"/>
</g>
<g style="mix-blend-mode:screen">
<path d="M-98.502 785.81V-9.79883L-98.0713 -9.58106L420.251 252.931V523.075L420.053 523.176L-98.502 785.81ZM-97.8729 -8.60838V784.624L419.622 522.528V253.483L-97.8729 -8.61322V-8.60838Z" fill="url(#paint77_linear_176_375)"/>
<path d="M419.841 278.1L-98.2832 63.3988L-98.0896 62.6294L420.034 277.33L419.841 278.1Z" fill="url(#paint78_linear_176_375)"/>
<path d="M419.861 302.616L-98.2627 135.625L-98.1078 134.841L420.016 301.832L419.861 302.616Z" fill="url(#paint79_linear_176_375)"/>
<path d="M419.885 327.132L-98.2393 207.856L-98.128 207.057L419.996 326.339L419.885 327.132Z" fill="url(#paint80_linear_176_375)"/>
<path d="M419.902 351.642L-98.2217 280.075L-98.1539 279.276L419.97 350.843L419.902 351.642Z" fill="url(#paint81_linear_176_375)"/>
<path d="M419.927 376.156L-98.1963 352.299L-98.1769 351.491L419.952 375.348L419.927 376.156Z" fill="url(#paint82_linear_176_375)"/>
<path d="M-98.1769 424.521L-98.1963 423.713L419.927 399.856L419.952 400.664L-98.1769 424.521Z" fill="url(#paint83_linear_176_375)"/>
<path d="M-98.1539 496.736L-98.2217 495.932L419.902 424.365L419.97 425.169L-98.1539 496.736Z" fill="url(#paint84_linear_176_375)"/>
<path d="M-98.128 568.951L-98.2393 568.158L419.885 448.881L419.996 449.674L-98.128 568.951Z" fill="url(#paint85_linear_176_375)"/>
<path d="M-98.1078 641.167L-98.2627 640.383L419.861 473.392L420.016 474.176L-98.1078 641.167Z" fill="url(#paint86_linear_176_375)"/>
<path d="M-98.0896 713.382L-98.2832 712.613L419.841 497.912L420.034 498.677L-98.0896 713.382Z" fill="url(#paint87_linear_176_375)"/>
<path d="M55.6213 68.5347H54.9922V707.474H55.6213V68.5347Z" fill="url(#paint88_linear_176_375)"/>
<path d="M111.851 97.0117H111.222V678.998H111.851V97.0117Z" fill="url(#paint89_linear_176_375)"/>
<path d="M158.87 120.826H158.241V655.181H158.87V120.826Z" fill="url(#paint90_linear_176_375)"/>
<path d="M198.782 141.04H198.153V634.972H198.782V141.04Z" fill="url(#paint91_linear_176_375)"/>
<path d="M233.072 158.407H232.443V617.604H233.072V158.407Z" fill="url(#paint92_linear_176_375)"/>
<path d="M262.862 173.49H262.233V602.515H262.862V173.49Z" fill="url(#paint93_linear_176_375)"/>
<path d="M288.975 186.723H288.346V589.291H288.975V186.723Z" fill="url(#paint94_linear_176_375)"/>
<path d="M312.058 198.409H311.429V577.599H312.058V198.409Z" fill="url(#paint95_linear_176_375)"/>
<path d="M332.604 208.818H331.975V567.195H332.604V208.818Z" fill="url(#paint96_linear_176_375)"/>
<path d="M351.012 218.138H350.383V557.87H351.012V218.138Z" fill="url(#paint97_linear_176_375)"/>
<path d="M367.602 226.543H366.973V549.473H367.602V226.543Z" fill="url(#paint98_linear_176_375)"/>
<path d="M382.621 234.151H381.992V541.861H382.621V234.151Z" fill="url(#paint99_linear_176_375)"/>
<path d="M396.298 241.076H395.669V534.937H396.298V241.076Z" fill="url(#paint100_linear_176_375)"/>
<path d="M408.792 247.405H408.163V528.606H408.792V247.405Z" fill="url(#paint101_linear_176_375)"/>
</g>
</g>
<defs>
<linearGradient id="paint0_linear_176_375" x1="678.998" y1="-15.8609" x2="678.998" y2="254.539" gradientUnits="userSpaceOnUse">
<stop offset="0.34" stop-color="#787878"/>
<stop offset="1"/>
</linearGradient>
<linearGradient id="paint1_linear_176_375" x1="678.998" y1="-15.847" x2="678.998" y2="254.454" gradientUnits="userSpaceOnUse">
<stop offset="0.34" stop-color="#787878"/>
<stop offset="1"/>
</linearGradient>
<linearGradient id="paint2_linear_176_375" x1="678.998" y1="-15.8581" x2="678.998" y2="254.457" gradientUnits="userSpaceOnUse">
<stop offset="0.34" stop-color="#787878"/>
<stop offset="1"/>
</linearGradient>
<linearGradient id="paint3_linear_176_375" x1="678.999" y1="-15.9495" x2="678.999" y2="254.467" gradientUnits="userSpaceOnUse">
<stop offset="0.34" stop-color="#787878"/>
<stop offset="1"/>
</linearGradient>
<linearGradient id="paint4_linear_176_375" x1="678.999" y1="-15.8472" x2="678.999" y2="254.453" gradientUnits="userSpaceOnUse">
<stop offset="0.34" stop-color="#787878"/>
<stop offset="1"/>
</linearGradient>
<linearGradient id="paint5_linear_176_375" x1="678.998" y1="-15.8622" x2="678.998" y2="254.458" gradientUnits="userSpaceOnUse">
<stop offset="0.34" stop-color="#787878"/>
<stop offset="1"/>
</linearGradient>
<linearGradient id="paint6_linear_176_375" x1="678.999" y1="-15.8523" x2="678.999" y2="254.453" gradientUnits="userSpaceOnUse">
<stop offset="0.34" stop-color="#787878"/>
<stop offset="1"/>
</linearGradient>
<linearGradient id="paint7_linear_176_375" x1="678.997" y1="-15.8622" x2="678.997" y2="254.458" gradientUnits="userSpaceOnUse">
<stop offset="0.34" stop-color="#787878"/>
<stop offset="1"/>
</linearGradient>
<linearGradient id="paint8_linear_176_375" x1="678.999" y1="-15.8603" x2="678.999" y2="254.455" gradientUnits="userSpaceOnUse">
<stop offset="0.34" stop-color="#787878"/>
<stop offset="1"/>
</linearGradient>
<linearGradient id="paint9_linear_176_375" x1="678.999" y1="-15.8547" x2="678.999" y2="254.448" gradientUnits="userSpaceOnUse">
<stop offset="0.34" stop-color="#787878"/>
<stop offset="1"/>
</linearGradient>
<linearGradient id="paint10_linear_176_375" x1="678.999" y1="-15.8609" x2="678.999" y2="254.457" gradientUnits="userSpaceOnUse">
<stop offset="0.34" stop-color="#787878"/>
<stop offset="1"/>
</linearGradient>
<linearGradient id="paint11_linear_176_375" x1="1138.76" y1="-15.8615" x2="1138.76" y2="254.466" gradientUnits="userSpaceOnUse">
<stop offset="0.34" stop-color="#787878"/>
<stop offset="1"/>
</linearGradient>
<linearGradient id="paint12_linear_176_375" x1="1073.08" y1="-15.8615" x2="1073.08" y2="254.447" gradientUnits="userSpaceOnUse">
<stop offset="0.34" stop-color="#787878"/>
<stop offset="1"/>
</linearGradient>
<linearGradient id="paint13_linear_176_375" x1="1007.4" y1="-15.8599" x2="1007.4" y2="254.419" gradientUnits="userSpaceOnUse">
<stop offset="0.34" stop-color="#787878"/>
<stop offset="1"/>
</linearGradient>
<linearGradient id="paint14_linear_176_375" x1="941.72" y1="-15.8606" x2="941.72" y2="254.365" gradientUnits="userSpaceOnUse">
<stop offset="0.34" stop-color="#787878"/>
<stop offset="1"/>
</linearGradient>
<linearGradient id="paint15_linear_176_375" x1="876.038" y1="-15.8593" x2="876.038" y2="254.289" gradientUnits="userSpaceOnUse">
<stop offset="0.34" stop-color="#787878"/>
<stop offset="1"/>
</linearGradient>
<linearGradient id="paint16_linear_176_375" x1="810.358" y1="-15.8597" x2="810.358" y2="254.458" gradientUnits="userSpaceOnUse">
<stop offset="0.34" stop-color="#787878"/>
<stop offset="1"/>
</linearGradient>
<linearGradient id="paint17_linear_176_375" x1="744.682" y1="-15.8613" x2="744.682" y2="254.452" gradientUnits="userSpaceOnUse">
<stop offset="0.34" stop-color="#787878"/>
<stop offset="1"/>
</linearGradient>
<linearGradient id="paint18_linear_176_375" x1="678.999" y1="-15.8592" x2="678.999" y2="254.459" gradientUnits="userSpaceOnUse">
<stop offset="0.34" stop-color="#787878"/>
<stop offset="1"/>
</linearGradient>
<linearGradient id="paint19_linear_176_375" x1="613.32" y1="-15.8613" x2="613.32" y2="254.452" gradientUnits="userSpaceOnUse">
<stop offset="0.34" stop-color="#787878"/>
<stop offset="1"/>
</linearGradient>
<linearGradient id="paint20_linear_176_375" x1="547.638" y1="-15.8597" x2="547.638" y2="254.458" gradientUnits="userSpaceOnUse">
<stop offset="0.34" stop-color="#787878"/>
<stop offset="1"/>
</linearGradient>
<linearGradient id="paint21_linear_176_375" x1="481.961" y1="-15.8593" x2="481.961" y2="254.289" gradientUnits="userSpaceOnUse">
<stop offset="0.34" stop-color="#787878"/>
<stop offset="1"/>
</linearGradient>
<linearGradient id="paint22_linear_176_375" x1="416.282" y1="-15.8606" x2="416.282" y2="254.365" gradientUnits="userSpaceOnUse">
<stop offset="0.34" stop-color="#787878"/>
<stop offset="1"/>
</linearGradient>
<linearGradient id="paint23_linear_176_375" x1="350.6" y1="-15.8599" x2="350.6" y2="254.419" gradientUnits="userSpaceOnUse">
<stop offset="0.34" stop-color="#787878"/>
<stop offset="1"/>
</linearGradient>
<linearGradient id="paint24_linear_176_375" x1="284.923" y1="-15.8615" x2="284.923" y2="254.447" gradientUnits="userSpaceOnUse">
<stop offset="0.34" stop-color="#787878"/>
<stop offset="1"/>
</linearGradient>
<linearGradient id="paint25_linear_176_375" x1="219.244" y1="-15.8615" x2="219.244" y2="254.466" gradientUnits="userSpaceOnUse">
<stop offset="0.34" stop-color="#787878"/>
<stop offset="1"/>
</linearGradient>
<linearGradient id="paint26_linear_176_375" x1="1365.78" y1="388.003" x2="945.165" y2="388.003" gradientUnits="userSpaceOnUse">
<stop offset="0.34" stop-color="#787878"/>
<stop offset="1"/>
</linearGradient>
<linearGradient id="paint27_linear_176_375" x1="1365.78" y1="605.647" x2="945.166" y2="605.647" gradientUnits="userSpaceOnUse">
<stop offset="0.34" stop-color="#787878"/>
<stop offset="1"/>
</linearGradient>
<linearGradient id="paint28_linear_176_375" x1="1365.78" y1="557.279" x2="945.165" y2="557.279" gradientUnits="userSpaceOnUse">
<stop offset="0.34" stop-color="#787878"/>
<stop offset="1"/>
</linearGradient>
<linearGradient id="paint29_linear_176_375" x1="1365.78" y1="508.916" x2="945.165" y2="508.916" gradientUnits="userSpaceOnUse">
<stop offset="0.34" stop-color="#787878"/>
<stop offset="1"/>
</linearGradient>
<linearGradient id="paint30_linear_176_375" x1="1365.78" y1="460.553" x2="945.166" y2="460.553" gradientUnits="userSpaceOnUse">
<stop offset="0.34" stop-color="#787878"/>
<stop offset="1"/>
</linearGradient>
<linearGradient id="paint31_linear_176_375" x1="1365.78" y1="412.186" x2="945.164" y2="412.186" gradientUnits="userSpaceOnUse">
<stop offset="0.34" stop-color="#787878"/>
<stop offset="1"/>
</linearGradient>
<linearGradient id="paint32_linear_176_375" x1="1365.78" y1="363.821" x2="945.164" y2="363.821" gradientUnits="userSpaceOnUse">
<stop offset="0.34" stop-color="#787878"/>
<stop offset="1"/>
</linearGradient>
<linearGradient id="paint33_linear_176_375" x1="1365.78" y1="315.459" x2="945.166" y2="315.459" gradientUnits="userSpaceOnUse">
<stop offset="0.34" stop-color="#787878"/>
<stop offset="1"/>
</linearGradient>
<linearGradient id="paint34_linear_176_375" x1="1365.78" y1="267.097" x2="945.165" y2="267.097" gradientUnits="userSpaceOnUse">
<stop offset="0.34" stop-color="#787878"/>
<stop offset="1"/>
</linearGradient>
<linearGradient id="paint35_linear_176_375" x1="1365.78" y1="218.728" x2="945.165" y2="218.728" gradientUnits="userSpaceOnUse">
<stop offset="0.34" stop-color="#787878"/>
<stop offset="1"/>
</linearGradient>
<linearGradient id="paint36_linear_176_375" x1="1365.78" y1="170.365" x2="945.166" y2="170.365" gradientUnits="userSpaceOnUse">
<stop offset="0.34" stop-color="#787878"/>
<stop offset="1"/>
</linearGradient>
<linearGradient id="paint37_linear_176_375" x1="1365.78" y1="388.004" x2="945.135" y2="388.004" gradientUnits="userSpaceOnUse">
<stop offset="0.34" stop-color="#787878"/>
<stop offset="1"/>
</linearGradient>
<linearGradient id="paint38_linear_176_375" x1="1365.77" y1="388.003" x2="945.2" y2="388.003" gradientUnits="userSpaceOnUse">
<stop offset="0.34" stop-color="#787878"/>
<stop offset="1"/>
</linearGradient>
<linearGradient id="paint39_linear_176_375" x1="1365.8" y1="388.003" x2="945.146" y2="388.003" gradientUnits="userSpaceOnUse">
<stop offset="0.34" stop-color="#787878"/>
<stop offset="1"/>
</linearGradient>
<linearGradient id="paint40_linear_176_375" x1="1365.8" y1="388.003" x2="945.147" y2="388.003" gradientUnits="userSpaceOnUse">
<stop offset="0.34" stop-color="#787878"/>
<stop offset="1"/>
</linearGradient>
<linearGradient id="paint41_linear_176_375" x1="1365.76" y1="388.003" x2="945.189" y2="388.003" gradientUnits="userSpaceOnUse">
<stop offset="0.34" stop-color="#787878"/>
<stop offset="1"/>
</linearGradient>
<linearGradient id="paint42_linear_176_375" x1="1365.83" y1="388.002" x2="945.145" y2="388.002" gradientUnits="userSpaceOnUse">
<stop offset="0.34" stop-color="#787878"/>
<stop offset="1"/>
</linearGradient>
<linearGradient id="paint43_linear_176_375" x1="1365.77" y1="388.004" x2="945.169" y2="388.004" gradientUnits="userSpaceOnUse">
<stop offset="0.34" stop-color="#787878"/>
<stop offset="1"/>
</linearGradient>
<linearGradient id="paint44_linear_176_375" x1="1365.83" y1="388.004" x2="945.152" y2="388.004" gradientUnits="userSpaceOnUse">
<stop offset="0.34" stop-color="#787878"/>
<stop offset="1"/>
</linearGradient>
<linearGradient id="paint45_linear_176_375" x1="1365.83" y1="388.004" x2="945.152" y2="388.004" gradientUnits="userSpaceOnUse">
<stop offset="0.34" stop-color="#787878"/>
<stop offset="1"/>
</linearGradient>
<linearGradient id="paint46_linear_176_375" x1="1365.81" y1="388.004" x2="945.162" y2="388.004" gradientUnits="userSpaceOnUse">
<stop offset="0.34" stop-color="#787878"/>
<stop offset="1"/>
</linearGradient>
<linearGradient id="paint47_linear_176_375" x1="1365.81" y1="388.003" x2="945.164" y2="388.003" gradientUnits="userSpaceOnUse">
<stop offset="0.34" stop-color="#787878"/>
<stop offset="1"/>
</linearGradient>
<linearGradient id="paint48_linear_176_375" x1="1365.66" y1="388.004" x2="945.178" y2="388.004" gradientUnits="userSpaceOnUse">
<stop offset="0.34" stop-color="#787878"/>
<stop offset="1"/>
</linearGradient>
<linearGradient id="paint49_linear_176_375" x1="1365.85" y1="388.004" x2="945.165" y2="388.004" gradientUnits="userSpaceOnUse">
<stop offset="0.34" stop-color="#787878"/>
<stop offset="1"/>
</linearGradient>
<linearGradient id="paint50_linear_176_375" x1="1365.85" y1="388.003" x2="945.164" y2="388.003" gradientUnits="userSpaceOnUse">
<stop offset="0.34" stop-color="#787878"/>
<stop offset="1"/>
</linearGradient>
<linearGradient id="paint51_linear_176_375" x1="-0.000293789" y1="774.507" x2="0.483626" y2="523.745" gradientUnits="userSpaceOnUse">
<stop offset="0.34" stop-color="#787878"/>
<stop offset="1"/>
</linearGradient>
<linearGradient id="paint52_linear_176_375" x1="678.998" y1="774.501" x2="678.998" y2="523.745" gradientUnits="userSpaceOnUse">
<stop offset="0.34" stop-color="#787878"/>
<stop offset="1"/>
</linearGradient>
<linearGradient id="paint53_linear_176_375" x1="678.998" y1="774.519" x2="678.998" y2="523.745" gradientUnits="userSpaceOnUse">
<stop offset="0.34" stop-color="#787878"/>
<stop offset="1"/>
</linearGradient>
<linearGradient id="paint54_linear_176_375" x1="678.999" y1="774.518" x2="678.999" y2="523.744" gradientUnits="userSpaceOnUse">
<stop offset="0.34" stop-color="#787878"/>
<stop offset="1"/>
</linearGradient>
<linearGradient id="paint55_linear_176_375" x1="678.999" y1="774.517" x2="678.999" y2="523.743" gradientUnits="userSpaceOnUse">
<stop offset="0.34" stop-color="#787878"/>
<stop offset="1"/>
</linearGradient>
<linearGradient id="paint56_linear_176_375" x1="678.998" y1="774.502" x2="678.998" y2="523.748" gradientUnits="userSpaceOnUse">
<stop offset="0.34" stop-color="#787878"/>
<stop offset="1"/>
</linearGradient>
<linearGradient id="paint57_linear_176_375" x1="678.999" y1="774.499" x2="678.999" y2="523.748" gradientUnits="userSpaceOnUse">
<stop offset="0.34" stop-color="#787878"/>
<stop offset="1"/>
</linearGradient>
<linearGradient id="paint58_linear_176_375" x1="678.997" y1="774.506" x2="678.997" y2="523.746" gradientUnits="userSpaceOnUse">
<stop offset="0.34" stop-color="#787878"/>
<stop offset="1"/>
</linearGradient>
<linearGradient id="paint59_linear_176_375" x1="678.999" y1="774.51" x2="678.999" y2="523.741" gradientUnits="userSpaceOnUse">
<stop offset="0.34" stop-color="#787878"/>
<stop offset="1"/>
</linearGradient>
<linearGradient id="paint60_linear_176_375" x1="678.999" y1="774.51" x2="678.999" y2="523.741" gradientUnits="userSpaceOnUse">
<stop offset="0.34" stop-color="#787878"/>
<stop offset="1"/>
</linearGradient>
<linearGradient id="paint61_linear_176_375" x1="678.999" y1="774.509" x2="678.999" y2="523.739" gradientUnits="userSpaceOnUse">
<stop offset="0.34" stop-color="#787878"/>
<stop offset="1"/>
</linearGradient>
<linearGradient id="paint62_linear_176_375" x1="219.244" y1="774.509" x2="219.244" y2="523.746" gradientUnits="userSpaceOnUse">
<stop offset="0.34" stop-color="#787878"/>
<stop offset="1"/>
</linearGradient>
<linearGradient id="paint63_linear_176_375" x1="284.923" y1="774.508" x2="284.923" y2="523.746" gradientUnits="userSpaceOnUse">
<stop offset="0.34" stop-color="#787878"/>
<stop offset="1"/>
</linearGradient>
<linearGradient id="paint64_linear_176_375" x1="350.6" y1="774.508" x2="350.6" y2="523.745" gradientUnits="userSpaceOnUse">
<stop offset="0.34" stop-color="#787878"/>
<stop offset="1"/>
</linearGradient>
<linearGradient id="paint65_linear_176_375" x1="416.282" y1="774.508" x2="416.282" y2="523.745" gradientUnits="userSpaceOnUse">
<stop offset="0.34" stop-color="#787878"/>
<stop offset="1"/>
</linearGradient>
<linearGradient id="paint66_linear_176_375" x1="481.961" y1="774.508" x2="481.961" y2="523.745" gradientUnits="userSpaceOnUse">
<stop offset="0.34" stop-color="#787878"/>
<stop offset="1"/>
</linearGradient>
<linearGradient id="paint67_linear_176_375" x1="547.638" y1="774.507" x2="547.638" y2="523.744" gradientUnits="userSpaceOnUse">
<stop offset="0.34" stop-color="#787878"/>
<stop offset="1"/>
</linearGradient>
<linearGradient id="paint68_linear_176_375" x1="613.32" y1="774.507" x2="613.32" y2="523.744" gradientUnits="userSpaceOnUse">
<stop offset="0.34" stop-color="#787878"/>
<stop offset="1"/>
</linearGradient>
<linearGradient id="paint69_linear_176_375" x1="-0.0246045" y1="774.507" x2="0.459298" y2="523.744" gradientUnits="userSpaceOnUse">
<stop offset="0.34" stop-color="#787878"/>
<stop offset="1"/>
</linearGradient>
<linearGradient id="paint70_linear_176_375" x1="744.677" y1="774.507" x2="744.677" y2="523.744" gradientUnits="userSpaceOnUse">
<stop offset="0.34" stop-color="#787878"/>
<stop offset="1"/>
</linearGradient>
<linearGradient id="paint71_linear_176_375" x1="810.358" y1="774.507" x2="810.358" y2="523.744" gradientUnits="userSpaceOnUse">
<stop offset="0.34" stop-color="#787878"/>
<stop offset="1"/>
</linearGradient>
<linearGradient id="paint72_linear_176_375" x1="876.038" y1="774.508" x2="876.038" y2="523.745" gradientUnits="userSpaceOnUse">
<stop offset="0.34" stop-color="#787878"/>
<stop offset="1"/>
</linearGradient>
<linearGradient id="paint73_linear_176_375" x1="941.72" y1="774.508" x2="941.72" y2="523.745" gradientUnits="userSpaceOnUse">
<stop offset="0.34" stop-color="#787878"/>
<stop offset="1"/>
</linearGradient>
<linearGradient id="paint74_linear_176_375" x1="1007.4" y1="774.508" x2="1007.4" y2="523.745" gradientUnits="userSpaceOnUse">
<stop offset="0.34" stop-color="#787878"/>
<stop offset="1"/>
</linearGradient>
<linearGradient id="paint75_linear_176_375" x1="1073.08" y1="774.508" x2="1073.08" y2="523.746" gradientUnits="userSpaceOnUse">
<stop offset="0.34" stop-color="#787878"/>
<stop offset="1"/>
</linearGradient>
<linearGradient id="paint76_linear_176_375" x1="1138.76" y1="774.509" x2="1138.76" y2="523.746" gradientUnits="userSpaceOnUse">
<stop offset="0.34" stop-color="#787878"/>
<stop offset="1"/>
</linearGradient>
<linearGradient id="paint77_linear_176_375" x1="0.600082" y1="388.003" x2="411.148" y2="388.003" gradientUnits="userSpaceOnUse">
<stop offset="0.34" stop-color="#787878"/>
<stop offset="1"/>
</linearGradient>
<linearGradient id="paint78_linear_176_375" x1="0.601064" y1="170.365" x2="411.149" y2="170.365" gradientUnits="userSpaceOnUse">
<stop offset="0.34" stop-color="#787878"/>
<stop offset="1"/>
</linearGradient>
<linearGradient id="paint79_linear_176_375" x1="0.602219" y1="218.728" x2="411.151" y2="218.728" gradientUnits="userSpaceOnUse">
<stop offset="0.34" stop-color="#787878"/>
<stop offset="1"/>
</linearGradient>
<linearGradient id="paint80_linear_176_375" x1="0.601473" y1="267.097" x2="411.155" y2="267.097" gradientUnits="userSpaceOnUse">
<stop offset="0.34" stop-color="#787878"/>
<stop offset="1"/>
</linearGradient>
<linearGradient id="paint81_linear_176_375" x1="0.599663" y1="315.459" x2="411.148" y2="315.459" gradientUnits="userSpaceOnUse">
<stop offset="0.34" stop-color="#787878"/>
<stop offset="1"/>
</linearGradient>
<linearGradient id="paint82_linear_176_375" x1="0.600878" y1="363.821" x2="411.149" y2="363.821" gradientUnits="userSpaceOnUse">
<stop offset="0.34" stop-color="#787878"/>
<stop offset="1"/>
</linearGradient>
<linearGradient id="paint83_linear_176_375" x1="0.600878" y1="412.186" x2="411.149" y2="412.186" gradientUnits="userSpaceOnUse">
<stop offset="0.34" stop-color="#787878"/>
<stop offset="1"/>
</linearGradient>
<linearGradient id="paint84_linear_176_375" x1="0.599663" y1="460.553" x2="411.148" y2="460.553" gradientUnits="userSpaceOnUse">
<stop offset="0.34" stop-color="#787878"/>
<stop offset="1"/>
</linearGradient>
<linearGradient id="paint85_linear_176_375" x1="0.601473" y1="508.916" x2="411.155" y2="508.916" gradientUnits="userSpaceOnUse">
<stop offset="0.34" stop-color="#787878"/>
<stop offset="1"/>
</linearGradient>
<linearGradient id="paint86_linear_176_375" x1="0.602219" y1="557.279" x2="411.151" y2="557.279" gradientUnits="userSpaceOnUse">
<stop offset="0.34" stop-color="#787878"/>
<stop offset="1"/>
</linearGradient>
<linearGradient id="paint87_linear_176_375" x1="0.601064" y1="605.647" x2="411.149" y2="605.647" gradientUnits="userSpaceOnUse">
<stop offset="0.34" stop-color="#787878"/>
<stop offset="1"/>
</linearGradient>
<linearGradient id="paint88_linear_176_375" x1="0.589745" y1="388.004" x2="411.197" y2="388.004" gradientUnits="userSpaceOnUse">
<stop offset="0.34" stop-color="#787878"/>
<stop offset="1"/>
</linearGradient>
<linearGradient id="paint89_linear_176_375" x1="0.58757" y1="388.003" x2="411.19" y2="388.003" gradientUnits="userSpaceOnUse">
<stop offset="0.34" stop-color="#787878"/>
<stop offset="1"/>
</linearGradient>
<linearGradient id="paint90_linear_176_375" x1="0.581467" y1="388.003" x2="411.179" y2="388.003" gradientUnits="userSpaceOnUse">
<stop offset="0.34" stop-color="#787878"/>
<stop offset="1"/>
</linearGradient>
<linearGradient id="paint91_linear_176_375" x1="0.580215" y1="388.003" x2="411.178" y2="388.003" gradientUnits="userSpaceOnUse">
<stop offset="0.34" stop-color="#787878"/>
<stop offset="1"/>
</linearGradient>
<linearGradient id="paint92_linear_176_375" x1="0.676153" y1="388.003" x2="411.095" y2="388.003" gradientUnits="userSpaceOnUse">
<stop offset="0.34" stop-color="#787878"/>
<stop offset="1"/>
</linearGradient>
<linearGradient id="paint93_linear_176_375" x1="0.589867" y1="388.002" x2="411.158" y2="388.002" gradientUnits="userSpaceOnUse">
<stop offset="0.34" stop-color="#787878"/>
<stop offset="1"/>
</linearGradient>
<linearGradient id="paint94_linear_176_375" x1="0.576533" y1="388.004" x2="411.164" y2="388.004" gradientUnits="userSpaceOnUse">
<stop offset="0.34" stop-color="#787878"/>
<stop offset="1"/>
</linearGradient>
<linearGradient id="paint95_linear_176_375" x1="0.585452" y1="388.004" x2="411.159" y2="388.004" gradientUnits="userSpaceOnUse">
<stop offset="0.34" stop-color="#787878"/>
<stop offset="1"/>
</linearGradient>
<linearGradient id="paint96_linear_176_375" x1="0.589139" y1="388.004" x2="411.153" y2="388.004" gradientUnits="userSpaceOnUse">
<stop offset="0.34" stop-color="#787878"/>
<stop offset="1"/>
</linearGradient>
<linearGradient id="paint97_linear_176_375" x1="0.584336" y1="388.004" x2="411.153" y2="388.004" gradientUnits="userSpaceOnUse">
<stop offset="0.34" stop-color="#787878"/>
<stop offset="1"/>
</linearGradient>
<linearGradient id="paint98_linear_176_375" x1="0.556523" y1="388.003" x2="411.159" y2="388.003" gradientUnits="userSpaceOnUse">
<stop offset="0.34" stop-color="#787878"/>
<stop offset="1"/>
</linearGradient>
<linearGradient id="paint99_linear_176_375" x1="0.555313" y1="388.004" x2="411.153" y2="388.004" gradientUnits="userSpaceOnUse">
<stop offset="0.34" stop-color="#787878"/>
<stop offset="1"/>
</linearGradient>
<linearGradient id="paint100_linear_176_375" x1="0.730825" y1="388.004" x2="411.145" y2="388.004" gradientUnits="userSpaceOnUse">
<stop offset="0.34" stop-color="#787878"/>
<stop offset="1"/>
</linearGradient>
<linearGradient id="paint101_linear_176_375" x1="0.585085" y1="388.003" x2="411.154" y2="388.003" gradientUnits="userSpaceOnUse">
<stop offset="0.34" stop-color="#787878"/>
<stop offset="1"/>
</linearGradient>
<clipPath id="clip0_176_375">
<rect width="1358" height="776" fill="white"/>
</clipPath>
</defs>
</svg>
