<svg width="17" height="16" viewBox="0 0 17 16" fill="none" xmlns="http://www.w3.org/2000/svg">
<g clip-path="url(#clip0_42_5028)">
<path d="M8.3721 13.9521C7.5401 13.9521 6.7081 13.7601 5.9401 13.4401C5.1721 13.1201 4.5321 12.6721 3.9561 12.0961C3.3801 11.5201 2.9321 10.8801 2.6121 10.1121C2.2921 9.3441 2.1001 8.5761 2.1001 7.7441C2.1001 6.9121 2.2921 6.0801 2.6121 5.3761C2.9321 4.6081 3.3801 3.9681 3.9561 3.4561C4.5321 2.8801 5.1721 2.4321 5.9401 2.1121C6.7081 1.7921 7.4761 1.6001 8.3721 1.6001C9.2681 1.6001 10.0361 1.7921 10.8041 2.1121C11.5721 2.4321 12.2121 2.8801 12.7881 3.4561C13.3641 4.0321 13.8121 4.6721 14.1321 5.3761C14.4521 6.1441 14.6441 6.9121 14.6441 7.7441C14.6441 8.5761 14.4521 9.4081 14.1321 10.1121C13.8121 10.8801 13.3641 11.5201 12.7881 12.0961C12.2121 12.6721 11.5721 13.1201 10.8041 13.4401C10.0361 13.7601 9.2681 13.9521 8.3721 13.9521ZM8.3721 12.7361C8.6281 12.3521 8.8841 11.9681 9.0761 11.5841C9.2681 11.2001 9.4601 10.7521 9.5881 10.3041H7.2201C7.3481 10.7521 7.4761 11.2001 7.7321 11.5841C7.9241 11.9681 8.1801 12.3521 8.4361 12.7361H8.3721ZM6.7721 12.4801C6.5801 12.1601 6.4521 11.7761 6.2601 11.4561C6.1321 11.0721 6.0041 10.6881 5.9401 10.3041H4.0841C4.4041 10.8161 4.7881 11.2641 5.2361 11.6481C5.6841 12.0321 6.1961 12.2881 6.7721 12.4801ZM9.9721 12.4801C10.5481 12.2881 11.0601 12.0321 11.5081 11.6481C11.9561 11.2641 12.3401 10.8161 12.6601 10.3041H10.8041C10.7401 10.6881 10.6121 11.0721 10.4841 11.4561C10.3561 11.8401 10.1641 12.1601 9.9721 12.4801ZM3.5081 9.0241H5.6201C5.6201 8.8321 5.6201 8.6401 5.5561 8.4481C5.5561 8.2561 5.5561 8.0641 5.5561 7.8081C5.5561 7.5521 5.5561 7.3601 5.5561 7.1681C5.5561 6.9761 5.5561 6.7841 5.6201 6.5921H3.5081C3.5081 6.7841 3.4441 6.9761 3.3801 7.1681C3.3801 7.3601 3.3801 7.5521 3.3801 7.8081C3.3801 8.0641 3.3801 8.2561 3.3801 8.4481C3.3801 8.6401 3.4441 8.8321 3.5081 9.0241ZM6.9001 9.0241H9.8441C9.8441 8.8321 9.8441 8.6401 9.9081 8.4481C9.9081 8.2561 9.9081 8.0641 9.9081 7.8081C9.9081 7.5521 9.9081 7.3601 9.9081 7.1681C9.9081 6.9761 9.9081 6.7841 9.8441 6.5921H6.9001C6.9001 6.7841 6.9001 6.9761 6.8361 7.1681C6.8361 7.3601 6.8361 7.5521 6.8361 7.8081C6.8361 8.0641 6.8361 8.2561 6.8361 8.4481C6.8361 8.6401 6.8361 8.8321 6.9001 9.0241ZM11.0601 9.0241H13.1721C13.1721 8.8321 13.2361 8.6401 13.3001 8.4481C13.3001 8.2561 13.3001 8.0641 13.3001 7.8081C13.3001 7.5521 13.3001 7.3601 13.3001 7.1681C13.3001 6.9761 13.2361 6.7841 13.1721 6.5921H11.0601C11.0601 6.7841 11.0601 6.9761 11.1241 7.1681C11.1241 7.3601 11.1241 7.5521 11.1241 7.8081C11.1241 8.0641 11.1241 8.2561 11.1241 8.4481C11.1241 8.6401 11.1241 8.8321 11.0601 9.0241ZM10.8681 5.3761H12.7241C12.4041 4.8641 12.0201 4.4161 11.5721 4.0321C11.1241 3.6481 10.6121 3.3921 10.0361 3.2001C10.2281 3.5201 10.3561 3.9041 10.5481 4.2241C10.6761 4.6081 10.8041 4.9921 10.8681 5.3761ZM7.1561 5.3761H9.5241C9.3961 4.9281 9.2681 4.4801 9.0121 4.0961C8.8201 3.7121 8.5641 3.3281 8.3081 2.9441C8.0521 3.3281 7.7961 3.7121 7.6041 4.0961C7.4121 4.4801 7.2201 4.9281 7.0921 5.3761H7.1561ZM4.0841 5.3761H5.9401C6.0041 4.9921 6.1321 4.6081 6.2601 4.2241C6.3881 3.8401 6.5801 3.5201 6.7721 3.2001C6.1961 3.3921 5.6841 3.6481 5.2361 4.0321C4.7881 4.4161 4.4041 4.8641 4.0841 5.3761Z" fill="#D9D9D9"/>
</g>
<defs>
<clipPath id="clip0_42_5028">
<rect width="16" height="16" fill="white" transform="translate(0.5)"/>
</clipPath>
</defs>
</svg>
