<svg width="17" height="16" viewBox="0 0 17 16" fill="none" xmlns="http://www.w3.org/2000/svg">
<g clip-path="url(#clip0_42_5043)">
<path d="M12.9496 3.80544C12.0561 3.38737 11.1108 3.09031 10.1388 2.92212C10.0177 3.14102 9.87622 3.43544 9.77866 3.66967C8.73062 3.51208 7.69222 3.51208 6.66345 3.66967C6.56595 3.43549 6.42129 3.14102 6.29909 2.92212C5.3261 3.09039 4.38001 3.3882 3.48607 3.80762C1.7072 6.49578 1.22496 9.1171 1.46605 11.7013C2.64592 12.5824 3.78933 13.1177 4.91347 13.4679C5.19285 13.0837 5.43981 12.677 5.65181 12.2518C5.2482 12.0982 4.8591 11.9088 4.48914 11.686C4.5865 11.6138 4.68156 11.5386 4.77419 11.4605C7.01599 12.5091 9.45183 12.5091 11.6669 11.4605C11.7599 11.5381 11.855 11.6133 11.9519 11.686C11.5814 11.9094 11.1915 12.0992 10.7871 12.253C11.0003 12.6798 11.2468 13.0869 11.5254 13.469C12.6507 13.1188 13.7951 12.5835 14.975 11.7013C15.2579 8.70559 14.4917 6.10834 12.9496 3.80544ZM5.95725 10.1121C5.28427 10.1121 4.73236 9.4838 4.73236 8.71874C4.73236 7.95368 5.27251 7.32433 5.95725 7.32433C6.64205 7.32433 7.19391 7.95256 7.18215 8.71874C7.18321 9.4838 6.64205 10.1121 5.95725 10.1121ZM10.4838 10.1121C9.81081 10.1121 9.25895 9.4838 9.25895 8.71874C9.25895 7.95368 9.79904 7.32433 10.4838 7.32433C11.1686 7.32433 11.7204 7.95256 11.7087 8.71874C11.7087 9.4838 11.1686 10.1121 10.4838 10.1121Z" fill="#D9D9D9"/>
</g>
<defs>
<clipPath id="clip0_42_5043">
<rect width="16" height="16" fill="white" transform="translate(0.5)"/>
</clipPath>
</defs>
</svg>
