<svg width="22" height="22" viewBox="0 0 22 22" fill="none" xmlns="http://www.w3.org/2000/svg">
<path d="M22 1.60417V20.3958C22 20.8213 21.831 21.2293 21.5301 21.5301C21.2293 21.831 20.8213 22 20.3958 22H1.60417C1.17872 22 0.770691 21.831 0.469852 21.5301C0.169012 21.2293 0 20.8213 0 20.3958V1.60417C0 1.17872 0.169012 0.770689 0.469852 0.46985C0.770691 0.16901 1.17872 0 1.60417 0L20.3958 0C20.8213 0 21.2293 0.16901 21.5301 0.46985C21.831 0.770689 22 1.17872 22 1.60417ZM6.41667 8.25H3.20833V18.7917H6.41667V8.25ZM6.69167 4.8125C6.69617 4.44088 6.59038 4.07626 6.38766 3.76476C6.18495 3.45326 5.89442 3.20886 5.55282 3.06247C5.21121 2.91608 4.83387 2.87428 4.4685 2.94234C4.10313 3.0104 3.76615 3.18528 3.50017 3.44485C3.23419 3.70442 3.05115 4.03704 2.97419 4.40064C2.89724 4.76423 2.92983 5.14249 3.06785 5.48756C3.20586 5.83264 3.4431 6.12904 3.74957 6.33929C4.05603 6.54954 4.41796 6.66419 4.78958 6.66875H4.8125C5.05328 6.67484 5.29289 6.63344 5.51766 6.54689C5.74243 6.46035 5.94794 6.33036 6.12245 6.16436C6.29696 5.99836 6.43706 5.7996 6.53473 5.57944C6.63239 5.35928 6.68573 5.12203 6.69167 4.88125V4.8125ZM18.7917 12.4758C18.7917 9.2675 16.6696 8.02083 14.8271 8.02083C12.9846 8.02083 11.6188 9.09333 11.3163 9.73958H11.275V8.25H8.25V18.7917H11.4583V13.2917C11.4583 11.6004 12.6087 10.8488 13.7271 10.8488C14.6437 10.8488 15.5833 11.5546 15.5833 13.2504V18.7917H18.7917V12.4758Z" fill="white"/>
</svg>
