<svg width="1550" height="571" viewBox="0 0 1550 571" fill="none" xmlns="http://www.w3.org/2000/svg">
<path d="M843.056 565.542L925.692 567.986L916.286 657.71L843.056 565.542Z" stroke="#6D6D6D" stroke-linecap="round" stroke-linejoin="round"/>
<path d="M925.692 567.984L843.056 565.54L855.014 526.872L925.692 567.984Z" stroke="#6D6D6D" stroke-linecap="round" stroke-linejoin="round"/>
<path d="M916.288 657.707L925.694 567.982L1001.51 641.974L916.288 657.707Z" stroke="#6D6D6D" stroke-linecap="round" stroke-linejoin="round"/>
<path d="M843.055 565.542L916.285 657.71L831.097 642.149L843.055 565.542Z" stroke="#6D6D6D" stroke-linecap="round" stroke-linejoin="round"/>
<path d="M843.057 565.538L831.1 642.145L760.84 564.81L843.057 565.538Z" stroke="#6D6D6D" stroke-linecap="round" stroke-linejoin="round"/>
<path d="M760.834 564.81L831.093 642.145L745.563 612.951L760.834 564.81Z" stroke="#6D6D6D" stroke-linecap="round" stroke-linejoin="round"/>
<path d="M760.841 564.81L745.57 612.951L679.233 568.239L760.841 564.81Z" stroke="#6D6D6D" stroke-linecap="round" stroke-linejoin="round"/>
<path d="M679.226 568.242L745.563 612.954L660.833 604.509L679.226 568.242Z" stroke="#6D6D6D" stroke-linecap="round" stroke-linejoin="round"/>
<path d="M760.841 564.812L679.233 568.242L696.674 539.134L760.841 564.812Z" stroke="#6D6D6D" stroke-linecap="round" stroke-linejoin="round"/>
<path d="M843.057 565.541L760.84 564.812L775.387 525.587L843.057 565.541Z" stroke="#6D6D6D" stroke-linecap="round" stroke-linejoin="round"/>
<path d="M679.225 568.242L660.832 604.509L653.482 606.953L679.225 568.242Z" stroke="#6D6D6D" stroke-linecap="round" stroke-linejoin="round"/>
<path d="M679.219 568.242L653.477 606.952L638.473 612.011L640.643 599.536L696.661 539.134L679.219 568.242Z" stroke="#6D6D6D" stroke-linecap="round" stroke-linejoin="round"/>
<path d="M578.239 632.2L554.362 646.732L528.353 647.719L514.948 613.038L584.903 568.711L581.705 631.085L578.239 632.2Z" stroke="#6D6D6D" stroke-linecap="round" stroke-linejoin="round"/>
<path d="M1087.92 581.103L1001.51 641.977L1008.67 561.469L1087.92 581.103Z" stroke="#6D6D6D" stroke-linecap="round" stroke-linejoin="round"/>
<path d="M1172.92 643.56L1087.92 581.1L1177.03 463.51L1172.92 643.56Z" stroke="#6D6D6D" stroke-linecap="round" stroke-linejoin="round"/>
<path d="M1177.03 463.513L1087.92 581.102L1093.25 428.232L1177.03 463.513Z" stroke="#6D6D6D" stroke-linecap="round" stroke-linejoin="round"/>
<path d="M1172.9 643.56L1177.02 463.51L1263.57 631.942L1172.9 643.56Z" stroke="#6D6D6D" stroke-linecap="round" stroke-linejoin="round"/>
<path d="M1263.58 631.942L1177.02 463.51L1267.43 403.494L1263.58 631.942Z" stroke="#6D6D6D" stroke-linecap="round" stroke-linejoin="round"/>
<path d="M1263.58 631.942L1267.43 403.494L1354.18 642.359L1263.58 631.942Z" stroke="#6D6D6D" stroke-linecap="round" stroke-linejoin="round"/>
<path d="M1354.17 642.359L1267.42 403.494L1354.89 463.21L1354.17 642.359Z" stroke="#6D6D6D" stroke-linecap="round" stroke-linejoin="round"/>
<path d="M1354.18 642.363L1354.9 463.214L1445.04 653.251L1354.18 642.363Z" stroke="#6D6D6D" stroke-linecap="round" stroke-linejoin="round"/>
<path d="M1354.89 463.211L1267.42 403.495L1273.32 103.756L1354.89 463.211Z" stroke="#6D6D6D" stroke-linecap="round" stroke-linejoin="round"/>
<path d="M1267.43 403.496L1177.02 463.512L1182.47 211.229L1267.43 403.496Z" stroke="#6D6D6D" stroke-linecap="round" stroke-linejoin="round"/>
<path d="M1445.04 653.251L1354.91 463.214L1437.66 602.109L1445.04 653.251Z" stroke="#6D6D6D" stroke-linecap="round" stroke-linejoin="round"/>
<path d="M1437.66 602.107L1354.91 463.212L1358.6 211.958L1437.66 602.107Z" stroke="#6D6D6D" stroke-linecap="round" stroke-linejoin="round"/>
<path d="M81.8491 605.706L118.407 566.953L163.267 605.534L81.8491 605.706Z" stroke="#6D6D6D" stroke-linecap="round" stroke-linejoin="round"/>
<path d="M163.258 605.534L118.398 566.953L197.569 569.782L163.258 605.534Z" stroke="#6D6D6D" stroke-linecap="round" stroke-linejoin="round"/>
<path d="M197.569 569.785L118.398 566.955L152.633 530.602L197.569 569.785Z" stroke="#6D6D6D" stroke-linecap="round" stroke-linejoin="round"/>
<path d="M163.262 605.536L197.573 569.783L247.612 632.629L163.262 605.536Z" stroke="#6D6D6D" stroke-linecap="round" stroke-linejoin="round"/>
<path d="M247.62 632.631L197.581 569.785L230.217 541.62L270.202 640.69L247.62 632.631Z" stroke="#6D6D6D" stroke-linecap="round" stroke-linejoin="round"/>
<path d="M1182.47 211.229L1177.03 463.512L1093.25 428.231L1182.47 211.229Z" stroke="#6D6D6D" stroke-linecap="round" stroke-linejoin="round"/>
<path d="M1267.43 403.495L1182.47 211.228L1273.33 103.756L1267.43 403.495Z" stroke="#6D6D6D" stroke-linecap="round" stroke-linejoin="round"/>
<path d="M1008.67 561.469L1001.51 641.977L925.688 567.985L1008.67 561.469Z" stroke="#6D6D6D" stroke-linecap="round" stroke-linejoin="round"/>
<path d="M1008.67 561.47L925.688 567.986L935.018 527.132L1008.67 561.47Z" stroke="#6D6D6D" stroke-linecap="round" stroke-linejoin="round"/>
<path d="M1182.47 211.229L1093.25 428.231L1097.89 339.021L1182.47 211.229Z" stroke="#6D6D6D" stroke-linecap="round" stroke-linejoin="round"/>
<path d="M1358.59 211.957L1354.9 463.211L1273.33 103.756L1358.59 211.957Z" stroke="#6D6D6D" stroke-linecap="round" stroke-linejoin="round"/>
<path d="M1358.59 211.958L1273.33 103.757L1275.04 1L1358.59 211.958Z" stroke="#6D6D6D" stroke-linecap="round" stroke-linejoin="round"/>
<path d="M1093.24 428.232L1087.91 581.102L1008.67 561.468L1093.24 428.232Z" stroke="#6D6D6D" stroke-linecap="round" stroke-linejoin="round"/>
<path d="M1093.24 428.232L1008.67 561.468L1015.41 513.798L1093.24 428.232Z" stroke="#6D6D6D" stroke-linecap="round" stroke-linejoin="round"/>
<path d="M1437.65 602.107L1358.59 211.958L1434.91 469.042L1437.65 602.107Z" stroke="#6D6D6D" stroke-linecap="round" stroke-linejoin="round"/>
<path d="M1437.65 602.106L1434.91 469.041L1509.05 649.347L1510.34 652.477L1511.49 655.306L1511.56 655.478L1513.89 661.094L1437.65 602.106Z" stroke="#6D6D6D" stroke-linecap="round" stroke-linejoin="round"/>
<path d="M1434.9 469.044L1358.59 211.959L1357.94 79.1516L1434.9 469.044Z" stroke="#6D6D6D" stroke-linecap="round" stroke-linejoin="round"/>
<path d="M1273.33 103.756L1182.47 211.228L1185.63 81.4214L1273.33 103.756Z" stroke="#6D6D6D" stroke-linecap="round" stroke-linejoin="round"/>
<path d="M197.578 569.785L152.643 530.602L230.214 541.62L197.578 569.785Z" stroke="#6D6D6D" stroke-linecap="round" stroke-linejoin="round"/>
<path d="M855.016 526.873L843.059 565.541L775.389 525.587L855.016 526.873Z" stroke="#6D6D6D" stroke-linecap="round" stroke-linejoin="round"/>
<path d="M1008.66 561.468L935.015 527.13L1015.4 513.798L1008.66 561.468Z" stroke="#6D6D6D" stroke-linecap="round" stroke-linejoin="round"/>
<path d="M855.016 526.87L775.389 525.584L788.26 461.924L855.016 526.87Z" stroke="#6D6D6D" stroke-linecap="round" stroke-linejoin="round"/>
<path d="M935.024 527.13L925.694 567.984L855.016 526.872L935.024 527.13Z" stroke="#6D6D6D" stroke-linecap="round" stroke-linejoin="round"/>
<path d="M1015.4 513.797L935.015 527.129L943.811 487.218L1015.4 513.797Z" stroke="#6D6D6D" stroke-linecap="round" stroke-linejoin="round"/>
<path d="M760.834 564.812L696.667 539.134L775.381 525.587L760.834 564.812Z" stroke="#6D6D6D" stroke-linecap="round" stroke-linejoin="round"/>
<path d="M775.381 525.586L696.667 539.133L711.595 474.529L775.381 525.586Z" stroke="#6D6D6D" stroke-linecap="round" stroke-linejoin="round"/>
<path d="M935.024 527.13L855.016 526.873L865.907 470.586L935.024 527.13Z" stroke="#6D6D6D" stroke-linecap="round" stroke-linejoin="round"/>
<path d="M1093.24 428.23L1015.4 513.796L1097.89 339.02L1093.24 428.23Z" stroke="#6D6D6D" stroke-linecap="round" stroke-linejoin="round"/>
<path d="M1097.89 339.02L1015.4 513.796L1021.8 488.46L1055.12 423.043L1062.51 408.467L1067.69 398.307L1097.89 339.02Z" stroke="#6D6D6D" stroke-linecap="round" stroke-linejoin="round"/>
<path d="M1182.46 211.228L1097.89 339.02L1185.63 81.4214L1182.46 211.228Z" stroke="#6D6D6D" stroke-linecap="round" stroke-linejoin="round"/>
<path d="M230.214 541.62L152.643 530.602L184.859 496.479L230.214 541.62Z" stroke="#6D6D6D" stroke-linecap="round" stroke-linejoin="round"/>
<path d="M270.203 640.69L230.217 541.62L296.364 650.036L270.203 640.69Z" stroke="#6D6D6D" stroke-linecap="round" stroke-linejoin="round"/>
<path d="M296.364 650.035L230.217 541.62L259.387 498.965L307.827 651.364L296.783 650.207L296.364 650.035Z" stroke="#6D6D6D" stroke-linecap="round" stroke-linejoin="round"/>
<path d="M1503.04 584.572L1510.35 652.477L1509.06 649.347L1431.14 365.813L1440.89 395.478L1446.41 412.282L1448.13 417.598L1503.04 584.572Z" stroke="#6D6D6D" stroke-linecap="round" stroke-linejoin="round"/>
<path d="M1357.94 79.1499L1358.59 211.958L1275.04 1L1357.94 79.1499Z" stroke="#6D6D6D" stroke-linecap="round" stroke-linejoin="round"/>
<path d="M1434.9 469.044L1357.94 79.1516L1431.13 365.816L1434.9 469.044Z" stroke="#6D6D6D" stroke-linecap="round" stroke-linejoin="round"/>
<path d="M1273.32 103.757L1185.62 81.422L1275.04 1L1273.32 103.757Z" stroke="#6D6D6D" stroke-linecap="round" stroke-linejoin="round"/>
<path d="M1431.14 365.813L1509.06 649.347L1434.91 469.041L1431.14 365.813Z" stroke="#6D6D6D" stroke-linecap="round" stroke-linejoin="round"/>
<path d="M259.386 498.965L230.216 541.62L184.861 496.479L259.386 498.965Z" stroke="#6D6D6D" stroke-linecap="round" stroke-linejoin="round"/>
<path d="M259.386 498.965L184.861 496.479L215.173 464.327L259.386 498.965Z" stroke="#6D6D6D" stroke-linecap="round" stroke-linejoin="round"/>
<path d="M1535.33 677.642L1503.03 584.574L1496.1 514.011L1535.33 677.642Z" stroke="#6D6D6D" stroke-linecap="round" stroke-linejoin="round"/>
<path d="M307.827 651.364L259.388 498.965L342.633 605.023L329 653.593L307.827 651.364Z" stroke="#6D6D6D" stroke-linecap="round" stroke-linejoin="round"/>
<path d="M342.633 605.022L259.388 498.964L287.339 463.854L342.633 605.022Z" stroke="#6D6D6D" stroke-linecap="round" stroke-linejoin="round"/>
<path d="M775.388 525.584L711.603 474.527L788.26 461.924L775.388 525.584Z" stroke="#6D6D6D" stroke-linecap="round" stroke-linejoin="round"/>
<path d="M788.26 461.928L711.603 474.531L725.54 406.584L788.26 461.928Z" stroke="#6D6D6D" stroke-linecap="round" stroke-linejoin="round"/>
<path d="M943.818 487.219L935.022 527.13L865.904 470.586L943.818 487.219Z" stroke="#6D6D6D" stroke-linecap="round" stroke-linejoin="round"/>
<path d="M1015.4 513.797L943.808 487.218L1021.8 488.461L1015.4 513.797Z" stroke="#6D6D6D" stroke-linecap="round" stroke-linejoin="round"/>
<path d="M1021.8 488.461L943.808 487.218L951.958 437.919L1021.8 488.461Z" stroke="#6D6D6D" stroke-linecap="round" stroke-linejoin="round"/>
<path d="M696.664 539.133L640.646 599.535L711.592 474.529L696.664 539.133Z" stroke="#6D6D6D" stroke-linecap="round" stroke-linejoin="round"/>
<path d="M855.011 526.87L788.254 461.924L865.902 470.583L855.011 526.87Z" stroke="#6D6D6D" stroke-linecap="round" stroke-linejoin="round"/>
<path d="M711.592 474.529L640.646 599.535L653.366 464.884L711.592 474.529Z" stroke="#6D6D6D" stroke-linecap="round" stroke-linejoin="round"/>
<path d="M943.818 487.22L865.904 470.587L875.958 405.341L943.818 487.22Z" stroke="#6D6D6D" stroke-linecap="round" stroke-linejoin="round"/>
<path d="M640.644 599.534L635.35 613.038L581.694 631.085L584.893 568.711L640.644 599.534Z" stroke="#6D6D6D" stroke-linecap="round" stroke-linejoin="round"/>
<path d="M370.66 658.006L342.632 605.02L361.749 487.817L402.153 657.235L382.922 659.292L370.66 658.006Z" stroke="#6D6D6D" stroke-linecap="round" stroke-linejoin="round"/>
<path d="M865.902 470.584L788.254 461.924L800.174 390.291L865.902 470.584Z" stroke="#6D6D6D" stroke-linecap="round" stroke-linejoin="round"/>
<path d="M361.749 487.818L342.633 605.022L287.339 463.854L361.749 487.818Z" stroke="#6D6D6D" stroke-linecap="round" stroke-linejoin="round"/>
<path d="M402.151 657.235L361.747 487.817L440.041 569.739L435.091 653.677L402.151 657.235Z" stroke="#6D6D6D" stroke-linecap="round" stroke-linejoin="round"/>
<path d="M514.942 613.039L513.571 648.32L468.14 650.077L459.762 651.021L440.036 569.741L514.942 613.039Z" stroke="#6D6D6D" stroke-linecap="round" stroke-linejoin="round"/>
<path d="M514.942 613.039L440.036 569.741L455.421 435.219L514.942 613.039Z" stroke="#6D6D6D" stroke-linecap="round" stroke-linejoin="round"/>
<path d="M1496.11 514.01L1503.04 584.573L1448.13 417.598L1451.79 424.886L1462.64 446.749L1462.72 446.878L1496.11 514.01Z" stroke="#6D6D6D" stroke-linecap="round" stroke-linejoin="round"/>
<path d="M1549 693.374L1496.11 514.011L1489.02 456.695L1549 693.374Z" stroke="#6D6D6D" stroke-linecap="round" stroke-linejoin="round"/>
<path d="M259.376 498.964L215.164 464.326L287.328 463.854L259.376 498.964Z" stroke="#6D6D6D" stroke-linecap="round" stroke-linejoin="round"/>
<path d="M361.749 487.818L287.339 463.855L313.92 433.461L361.749 487.818Z" stroke="#6D6D6D" stroke-linecap="round" stroke-linejoin="round"/>
<path d="M440.041 569.74L361.747 487.818L384.405 432.945L440.041 569.74Z" stroke="#6D6D6D" stroke-linecap="round" stroke-linejoin="round"/>
<path d="M440.032 569.741L459.758 651.021L435.082 653.678L440.032 569.741Z" stroke="#6D6D6D" stroke-linecap="round" stroke-linejoin="round"/>
<path d="M287.328 463.855L215.164 464.327L243.763 433.975L287.328 463.855Z" stroke="#6D6D6D" stroke-linecap="round" stroke-linejoin="round"/>
<path d="M725.528 406.584L711.59 474.531L653.364 464.886L725.528 406.584Z" stroke="#6D6D6D" stroke-linecap="round" stroke-linejoin="round"/>
<path d="M653.363 464.884L640.643 599.535L584.893 568.712L653.363 464.884Z" stroke="#6D6D6D" stroke-linecap="round" stroke-linejoin="round"/>
<path d="M943.82 487.22L875.959 405.341L951.969 437.921L943.82 487.22Z" stroke="#6D6D6D" stroke-linecap="round" stroke-linejoin="round"/>
<path d="M653.363 464.883L584.893 568.712L597.84 432.046L653.363 464.883Z" stroke="#6D6D6D" stroke-linecap="round" stroke-linejoin="round"/>
<path d="M875.952 405.337L865.899 470.584L800.171 390.291L875.952 405.337Z" stroke="#6D6D6D" stroke-linecap="round" stroke-linejoin="round"/>
<path d="M875.952 405.339L800.171 390.292L812.014 343.394L875.952 405.339Z" stroke="#6D6D6D" stroke-linecap="round" stroke-linejoin="round"/>
<path d="M800.178 390.291L788.258 461.924L725.539 406.581L800.178 390.291Z" stroke="#6D6D6D" stroke-linecap="round" stroke-linejoin="round"/>
<path d="M1021.8 488.461L951.959 437.919L1027.74 458.41L1021.8 488.461Z" stroke="#6D6D6D" stroke-linecap="round" stroke-linejoin="round"/>
<path d="M1021.8 488.463L1027.74 458.412L1051.92 427.117L1052.53 426.346L1055.12 423.045L1021.8 488.463Z" stroke="#6D6D6D" stroke-linecap="round" stroke-linejoin="round"/>
<path d="M1027.74 458.409L951.959 437.918L959.728 398.864L1027.74 458.409Z" stroke="#6D6D6D" stroke-linecap="round" stroke-linejoin="round"/>
<path d="M800.178 390.291L725.539 406.581L739.438 362.041L800.178 390.291Z" stroke="#6D6D6D" stroke-linecap="round" stroke-linejoin="round"/>
<path d="M584.903 568.711L514.948 613.038L526.982 442.42L584.903 568.711Z" stroke="#6D6D6D" stroke-linecap="round" stroke-linejoin="round"/>
<path d="M725.528 406.582L653.364 464.884L668.368 401.309L725.528 406.582Z" stroke="#6D6D6D" stroke-linecap="round" stroke-linejoin="round"/>
<path d="M951.969 437.918L875.959 405.338L885.784 360.626L951.969 437.918Z" stroke="#6D6D6D" stroke-linecap="round" stroke-linejoin="round"/>
<path d="M526.97 442.421L514.936 613.039L455.416 435.219L526.97 442.421Z" stroke="#6D6D6D" stroke-linecap="round" stroke-linejoin="round"/>
<path d="M361.749 487.818L313.919 433.46L384.408 432.945L361.749 487.818Z" stroke="#6D6D6D" stroke-linecap="round" stroke-linejoin="round"/>
<path d="M313.913 433.461L287.332 463.855L243.768 433.975L313.913 433.461Z" stroke="#6D6D6D" stroke-linecap="round" stroke-linejoin="round"/>
<path d="M526.97 442.42L455.416 435.218L476.512 403.624L526.97 442.42Z" stroke="#6D6D6D" stroke-linecap="round" stroke-linejoin="round"/>
<path d="M584.905 568.712L526.983 442.42L597.852 432.046L584.905 568.712Z" stroke="#6D6D6D" stroke-linecap="round" stroke-linejoin="round"/>
<path d="M440.037 569.74L384.4 432.945L455.422 435.217L440.037 569.74Z" stroke="#6D6D6D" stroke-linecap="round" stroke-linejoin="round"/>
<path d="M1489.02 456.695L1496.11 514.011L1462.71 446.878L1489.02 456.695Z" stroke="#6D6D6D" stroke-linecap="round" stroke-linejoin="round"/>
<path d="M1489.02 456.698L1462.71 446.881L1462.63 446.752L1489.02 456.698Z" stroke="#6D6D6D" stroke-linecap="round" stroke-linejoin="round"/>
<path d="M384.408 432.949L313.919 433.463L339.053 404.784L384.408 432.949Z" stroke="#6D6D6D" stroke-linecap="round" stroke-linejoin="round"/>
<path d="M313.913 433.463L243.768 433.977L270.767 405.341L313.913 433.463Z" stroke="#6D6D6D" stroke-linecap="round" stroke-linejoin="round"/>
<path d="M455.422 435.218L384.4 432.946L407.63 404.181L455.422 435.218Z" stroke="#6D6D6D" stroke-linecap="round" stroke-linejoin="round"/>
<path d="M739.433 362.041L725.534 406.581L668.374 401.308L739.433 362.041Z" stroke="#6D6D6D" stroke-linecap="round" stroke-linejoin="round"/>
<path d="M1489.02 456.697L1462.63 446.751L1451.77 424.888L1481.13 424.674L1489.02 456.697Z" stroke="#6D6D6D" stroke-linecap="round" stroke-linejoin="round"/>
<path d="M1481.13 424.675L1451.77 424.889L1448.12 417.601L1446.4 412.286L1481.13 424.675Z" stroke="#6D6D6D" stroke-linecap="round" stroke-linejoin="round"/>
<path d="M812.017 343.394L800.174 390.292L739.435 362.042L812.017 343.394Z" stroke="#6D6D6D" stroke-linecap="round" stroke-linejoin="round"/>
<path d="M812.017 343.394L739.435 362.042L753.525 349.61L812.017 343.394Z" stroke="#6D6D6D" stroke-linecap="round" stroke-linejoin="round"/>
<path d="M875.949 405.339L812.011 343.394L885.774 360.627L875.949 405.339Z" stroke="#6D6D6D" stroke-linecap="round" stroke-linejoin="round"/>
<path d="M885.774 360.629L812.011 343.396L824.007 334.05L885.774 360.629Z" stroke="#6D6D6D" stroke-linecap="round" stroke-linejoin="round"/>
<path d="M959.731 398.865L951.962 437.918L885.777 360.626L959.731 398.865Z" stroke="#6D6D6D" stroke-linecap="round" stroke-linejoin="round"/>
<path d="M739.433 362.041L668.374 401.308L684.216 381.546L739.433 362.041Z" stroke="#6D6D6D" stroke-linecap="round" stroke-linejoin="round"/>
<path d="M959.731 398.867L885.777 360.628L895.526 348.196L959.731 398.867Z" stroke="#6D6D6D" stroke-linecap="round" stroke-linejoin="round"/>
<path d="M597.852 432.048L526.983 442.422L545.719 403.026L597.852 432.048Z" stroke="#6D6D6D" stroke-linecap="round" stroke-linejoin="round"/>
<path d="M653.372 464.884L597.85 432.046L668.376 401.309L653.372 464.884Z" stroke="#6D6D6D" stroke-linecap="round" stroke-linejoin="round"/>
<path d="M668.376 401.309L597.85 432.046L615.177 401.91L668.376 401.309Z" stroke="#6D6D6D" stroke-linecap="round" stroke-linejoin="round"/>
<path d="M1027.75 458.409L959.737 398.864L1033.39 425.957L1027.75 458.409Z" stroke="#6D6D6D" stroke-linecap="round" stroke-linejoin="round"/>
<path d="M1033.39 425.958L959.737 398.865L967.201 378.974L1033.39 425.958Z" stroke="#6D6D6D" stroke-linecap="round" stroke-linejoin="round"/>
<path d="M1027.75 458.411L1033.39 425.959L1051.93 427.116L1027.75 458.411Z" stroke="#6D6D6D" stroke-linecap="round" stroke-linejoin="round"/>
<path d="M1051.93 427.116L1033.39 425.959L1052.54 426.345L1051.93 427.116Z" stroke="#6D6D6D" stroke-linecap="round" stroke-linejoin="round"/>
<path d="M1052.54 426.343L1033.39 425.958L1038.68 398.307L1062.52 408.467L1055.13 423.042L1052.54 426.343Z" stroke="#6D6D6D" stroke-linecap="round" stroke-linejoin="round"/>
<path d="M339.047 404.784L313.913 433.463L270.767 405.341L339.047 404.784Z" stroke="#6D6D6D" stroke-linecap="round" stroke-linejoin="round"/>
<path d="M407.637 404.181L476.526 403.624L455.429 435.218L407.637 404.181Z" stroke="#6D6D6D" stroke-linecap="round" stroke-linejoin="round"/>
<path d="M476.524 403.626L545.717 403.026L526.981 442.422L476.524 403.626Z" stroke="#6D6D6D" stroke-linecap="round" stroke-linejoin="round"/>
<path d="M545.71 403.022L615.17 401.907L597.843 432.044L545.71 403.022Z" stroke="#6D6D6D" stroke-linecap="round" stroke-linejoin="round"/>
<path d="M384.402 432.946L339.047 404.781L407.631 404.181L384.402 432.946Z" stroke="#6D6D6D" stroke-linecap="round" stroke-linejoin="round"/>
<path d="M668.379 401.308L615.179 401.908L684.22 381.545L668.379 401.308Z" stroke="#6D6D6D" stroke-linecap="round" stroke-linejoin="round"/>
<path d="M739.433 362.043L684.215 381.548L753.523 349.611L739.433 362.043Z" stroke="#6D6D6D" stroke-linecap="round" stroke-linejoin="round"/>
<path d="M1481.14 424.673L1446.41 412.284L1440.88 395.48L1473.63 395.222L1481.14 424.673Z" stroke="#6D6D6D" stroke-linecap="round" stroke-linejoin="round"/>
<path d="M967.191 378.976L959.727 398.867L895.522 348.196L967.191 378.976Z" stroke="#6D6D6D" stroke-linecap="round" stroke-linejoin="round"/>
<path d="M885.784 360.629L824.017 334.05L895.533 348.197L885.784 360.629Z" stroke="#6D6D6D" stroke-linecap="round" stroke-linejoin="round"/>
<path d="M1038.67 398.307H1067.69L1062.51 408.467L1038.67 398.307Z" stroke="#6D6D6D" stroke-linecap="round" stroke-linejoin="round"/>
<path d="M1038.67 398.308L1033.38 425.958L967.192 378.974L1038.67 398.308Z" stroke="#6D6D6D" stroke-linecap="round" stroke-linejoin="round"/>
<path d="M824.008 334.05L812.012 343.396L753.52 349.612L824.008 334.05Z" stroke="#6D6D6D" stroke-linecap="round" stroke-linejoin="round"/>
</svg>
