<svg width="14" height="12" viewBox="0 0 14 12" fill="none" xmlns="http://www.w3.org/2000/svg">
<path d="M13.3687 0.000291499C13.1036 0.283749 12.8355 0.527838 12.5876 0.78505C12.4147 0.963523 12.2273 1.1315 12.0544 1.30997C11.8872 1.4832 11.7114 1.65642 11.5298 1.82177C11.2156 2.10785 10.9245 2.41231 10.6218 2.70889C10.2471 3.07633 9.87525 3.45165 9.49189 3.81385C9.24688 4.04481 9.01052 4.28628 8.77417 4.52512C8.64157 4.6616 8.49745 4.7902 8.36198 4.92406C8.30145 4.9818 8.28415 5.03167 8.35045 5.09203C8.60987 5.32562 8.80011 5.6117 9.01341 5.87416C9.16617 6.06314 9.32759 6.25473 9.47748 6.44895C9.67348 6.70092 9.88678 6.94763 10.0914 7.19697C10.2586 7.40169 10.4373 7.60116 10.5959 7.81113C10.7457 8.01322 10.9187 8.20219 11.0801 8.39904C11.2675 8.62738 11.4663 8.85047 11.6537 9.07881C11.9131 9.39901 12.1697 9.71659 12.4377 10.0289C12.7 10.3386 12.9566 10.651 13.2102 10.9685C13.4495 11.2704 13.7031 11.5643 13.9452 11.8661C13.9769 11.9055 13.9914 11.9475 14 11.9974C12.6453 11.9974 11.2992 11.9974 9.95308 11.9974C9.90696 11.9974 9.86084 12.0079 9.82625 11.9659C9.71096 11.832 9.58413 11.706 9.48324 11.5643C9.44289 11.5066 9.4083 11.441 9.3593 11.3885C9.06241 11.0578 8.80299 10.6982 8.50898 10.3649C8.34757 10.1811 8.20633 9.98693 8.04491 9.8032C7.7682 9.48825 7.5059 9.16017 7.2436 8.83472C6.94095 8.45678 6.61523 8.09458 6.32987 7.70352C6.23763 7.57753 6.09351 7.49355 6.03586 7.34132C6.00992 7.27571 5.9638 7.29408 5.92057 7.34132C5.81103 7.45418 5.70439 7.56966 5.58621 7.67465C5.37291 7.86362 5.17402 8.06834 4.97513 8.26781C4.8166 8.43053 4.64654 8.58801 4.48512 8.75074C4.31217 8.92658 4.1277 9.09981 3.95475 9.27566C3.7674 9.46463 3.5541 9.63523 3.38692 9.84782C3.2745 9.98955 3.12462 10.1129 2.98914 10.2389C2.54237 10.6536 2.12442 11.0893 1.68917 11.5092C1.55081 11.6431 1.41822 11.7795 1.28275 11.9134C1.23086 11.9633 1.1761 12 1.09539 12C0.732205 11.9974 0.369018 12 0.00583306 12C-0.00857906 11.9633 0.00583341 11.937 0.0260104 11.9186C0.253722 11.7087 0.472786 11.4908 0.688968 11.2756C0.841736 11.1208 1.00892 10.9738 1.15304 10.8111C1.32598 10.6142 1.54505 10.4515 1.72376 10.2599C1.89094 10.0788 2.08983 9.92656 2.24259 9.74021C2.31177 9.6536 2.40401 9.59586 2.47895 9.52237C3.07562 8.92921 3.66939 8.33605 4.2747 7.75076C4.47071 7.55916 4.67536 7.37282 4.86272 7.17597C5.02701 7.00275 5.22878 6.86102 5.36714 6.6668C5.40173 6.61693 5.40461 6.59331 5.36714 6.54869C5.23167 6.38334 5.09619 6.22061 4.95495 6.06051C4.72148 5.7928 4.51394 5.50672 4.28912 5.23638C4.14211 5.06054 3.99511 4.88731 3.85387 4.71146C3.63769 4.44375 3.41574 4.17867 3.19956 3.91096C3.04391 3.71936 2.88537 3.53039 2.72972 3.34142C2.50778 3.07108 2.28295 2.80075 2.06388 2.52779C1.69205 2.06061 1.30869 1.6013 0.928209 1.13937C0.648614 0.798173 0.363254 0.459598 0.0836588 0.118399C0.0605995 0.0895282 0.0375411 0.0580329 0.0144817 0.0265376C0.0663654 -0.00758232 0.112483 0.00554103 0.155719 0.00554103C1.44416 0.00554103 2.73549 0.00554087 4.02393 0.00291627C4.14788 0.00291627 4.2257 0.0422852 4.29488 0.131522C4.51395 0.40973 4.72148 0.693189 4.96072 0.955649C5.20284 1.21811 5.41902 1.49894 5.64097 1.7719C5.79086 1.95562 5.94939 2.1446 6.0964 2.33357C6.29817 2.59341 6.52011 2.84537 6.72476 3.1052C6.87753 3.30205 7.05336 3.48315 7.20325 3.68262C7.3589 3.89259 7.53761 4.08943 7.70767 4.29153C7.77108 4.36501 7.79702 4.29153 7.82297 4.26528C8.04203 4.05006 8.25533 3.8296 8.47728 3.617C8.78858 3.32042 9.09123 3.01597 9.39965 2.71676C9.55819 2.56191 9.72248 2.40443 9.87813 2.24433C10.0511 2.06848 10.2327 1.89526 10.4085 1.72203C10.6016 1.53044 10.8092 1.34934 10.985 1.13937C11.0974 1.00289 11.2386 0.88216 11.3712 0.761428C11.6162 0.538336 11.8382 0.294248 12.0861 0.0711562C12.1149 0.0449102 12.138 0.0081658 12.187 0.0081658C12.5703 -0.00233263 12.9566 0.000291499 13.3687 0.000291499ZM1.81888 0.806046C1.865 0.887409 1.88517 0.958274 1.93129 1.00289C2.14459 1.20499 2.29448 1.4517 2.49048 1.66692C2.54237 1.72466 2.61731 1.7719 2.64902 1.83752C2.75278 2.05798 2.94879 2.21809 3.09868 2.40443C3.31197 2.66952 3.53392 2.93198 3.7501 3.19444C3.90287 3.37816 4.05276 3.57238 4.20552 3.75611C4.52259 4.13667 4.82236 4.53037 5.15672 4.90306C5.37867 5.1524 5.57468 5.42011 5.78221 5.67732C6.00416 5.95553 6.23763 6.22849 6.45958 6.5067C6.71323 6.8269 6.97265 7.14448 7.24072 7.4568C7.43384 7.68252 7.60967 7.91873 7.80567 8.14183C7.84603 8.18907 7.90367 8.22056 7.93538 8.27831C8.06797 8.5119 8.26974 8.70087 8.44269 8.90821C8.6531 9.15755 8.86352 9.41214 9.06529 9.66672C9.21806 9.85832 9.37948 10.0447 9.52936 10.2389C9.75419 10.5328 10.0078 10.8137 10.2356 11.1103C10.2846 11.1732 10.3422 11.1864 10.42 11.1864C10.9821 11.1837 11.5442 11.1864 12.1034 11.1837C12.1351 11.1837 12.1754 11.2074 12.2014 11.1627C12.1639 11.1024 12.138 11.0341 12.089 10.9817C11.7142 10.5827 11.3943 10.1444 11.0369 9.73234C10.8207 9.483 10.6247 9.21791 10.4171 8.96333C10.2384 8.74549 10.0511 8.53552 9.87525 8.31767C9.68789 8.08933 9.51783 7.84787 9.31894 7.6274C9.14312 7.43318 8.99323 7.22059 8.8174 7.02374C8.61563 6.7954 8.44845 6.53819 8.23804 6.3151C8.06221 6.1235 7.90656 5.92141 7.74514 5.72194C7.42519 5.32037 7.09083 4.92931 6.77088 4.52512C6.50858 4.19442 6.24052 3.86634 5.96092 3.54614C5.80239 3.36241 5.65827 3.16819 5.49973 2.98447C5.19708 2.6354 4.90884 2.27583 4.61483 1.91888C4.32947 1.56981 4.04987 1.21811 3.7674 0.866412C3.73857 0.829668 3.70398 0.808671 3.6521 0.808671C3.04967 0.806047 2.44725 0.806046 1.81888 0.806046Z" fill="white"/>
</svg>
