<svg width="16" height="12" viewBox="0 0 16 12" fill="none" xmlns="http://www.w3.org/2000/svg">
<path d="M12.8303 1.30109C11.8803 0.871094 10.8503 0.551094 9.78032 0.371094C9.77032 0.371094 9.76032 0.371094 9.75032 0.371094C9.74032 0.381094 9.73032 0.391094 9.73032 0.391094C9.60032 0.621094 9.45032 0.921094 9.35032 1.16109C8.21032 1.00109 7.06032 1.00109 5.92032 1.16109C5.81032 0.901094 5.68032 0.641094 5.54032 0.391094C5.53032 0.391094 5.52032 0.381094 5.51032 0.371094C5.51032 0.371094 5.50032 0.371094 5.49032 0.371094C4.41032 0.551094 3.39032 0.871094 2.43032 1.30109C2.43032 1.31109 2.42032 1.31109 2.41032 1.32109C0.470324 4.18109 -0.0596761 6.97109 0.200324 9.72109C0.200324 9.73109 0.200324 9.73109 0.200324 9.74109C0.210324 9.75109 0.210324 9.75109 0.220324 9.76109C1.35032 10.5811 2.62032 11.2111 3.96032 11.6211C3.97032 11.6211 3.98032 11.6211 3.99032 11.6211C4.00032 11.6211 4.01032 11.6111 4.01032 11.6011C4.30032 11.2111 4.56032 10.8011 4.78032 10.3711C4.78032 10.3711 4.79032 10.3611 4.79032 10.3511C4.79032 10.3511 4.79032 10.3411 4.78032 10.3311C4.78032 10.3311 4.78032 10.3211 4.77032 10.3211L4.76032 10.3111C4.35032 10.1611 3.96032 9.98109 3.59032 9.76109C3.58032 9.76109 3.57032 9.75109 3.57032 9.75109C3.56032 9.74109 3.56032 9.73109 3.56032 9.72109C3.56032 9.71109 3.56032 9.71109 3.57032 9.70109C3.57032 9.69109 3.57032 9.69109 3.58032 9.68109C3.66032 9.62109 3.74032 9.57109 3.81032 9.50109C3.82032 9.50109 3.83032 9.50109 3.84032 9.50109C3.84032 9.49109 3.85032 9.50109 3.86032 9.50109C6.32032 10.6011 8.97032 10.6011 11.4003 9.50109C11.4103 9.50109 11.4203 9.49109 11.4203 9.49109C11.4303 9.50109 11.4403 9.50109 11.4503 9.50109C11.5203 9.57109 11.6003 9.62109 11.6803 9.68109C11.6903 9.69109 11.6903 9.69109 11.7003 9.70109C11.7003 9.71109 11.7003 9.71109 11.7003 9.72109C11.7003 9.73109 11.7003 9.74109 11.6903 9.75109L11.6803 9.76109C11.3003 9.98109 10.9103 10.1611 10.5103 10.3111C10.5003 10.3111 10.4903 10.3211 10.4903 10.3211C10.4803 10.3211 10.4803 10.3311 10.4803 10.3311C10.4803 10.3411 10.4703 10.3511 10.4803 10.3511C10.4803 10.3611 10.4803 10.3711 10.4803 10.3711C10.7103 10.8011 10.9603 11.2111 11.2503 11.6011C11.2503 11.6111 11.2603 11.6211 11.2703 11.6211C11.2803 11.6211 11.2903 11.6211 11.3003 11.6211C12.6503 11.2111 13.9103 10.5811 15.0503 9.76109C15.0603 9.75109 15.0603 9.75109 15.0603 9.74109C15.0703 9.73109 15.0703 9.73109 15.0703 9.72109C15.3803 6.54109 14.5503 3.77109 12.8503 1.32109C12.8503 1.31109 12.8403 1.31109 12.8303 1.30109ZM5.15032 8.05109C4.41032 8.05109 3.80032 7.38109 3.80032 6.56109C3.80032 5.74109 4.40032 5.07109 5.15032 5.07109C5.90032 5.07109 6.51032 5.74109 6.50032 6.56109C6.50032 7.38109 5.90032 8.05109 5.15032 8.05109ZM10.1303 8.05109C9.39032 8.05109 8.78032 7.38109 8.78032 6.56109C8.78032 5.74109 9.38032 5.07109 10.1303 5.07109C10.8903 5.07109 11.4903 5.74109 11.4803 6.56109C11.4803 7.38109 10.8903 8.05109 10.1303 8.05109Z" fill="white"/>
</svg>
