<svg width="163" height="45" viewBox="0 0 163 45" fill="none" xmlns="http://www.w3.org/2000/svg">
<path d="M61.8106 27.1047C60.6291 28.2341 59.239 28.7988 57.6405 28.7988C55.9899 28.7988 54.5738 28.2081 53.3922 27.0265C52.2281 25.845 51.646 24.4289 51.646 22.7783V12.1707H55.347V22.7783C55.347 23.4212 55.5642 23.9685 55.9985 24.4203C56.4503 24.872 56.9976 25.0979 57.6405 25.0979C58.2834 25.0979 58.8307 24.872 59.2825 24.4203C59.7342 23.9685 59.9601 23.4212 59.9601 22.7783V12.1707H63.661V22.7783C63.661 23.4212 63.8782 23.9685 64.3126 24.4203C64.7644 24.872 65.3117 25.0979 65.9546 25.0979C66.5975 25.0979 67.1448 24.872 67.5965 24.4203C68.0483 23.9685 68.2742 23.4212 68.2742 22.7783V12.1707H71.9751V22.8044C71.9751 24.455 71.3844 25.8711 70.2028 27.0526C69.0213 28.2168 67.6052 28.7988 65.9546 28.7988C64.3561 28.7988 62.9747 28.2341 61.8106 27.1047ZM76.0041 14.6206C77.6374 12.9873 79.6008 12.1707 81.8943 12.1707C84.1878 12.1707 86.1426 12.9873 87.7585 14.6206C89.3917 16.2365 90.2084 18.1912 90.2084 20.4848C90.2084 20.867 90.1823 21.2406 90.1302 21.6055H77.4115C77.6547 22.6132 78.1934 23.4472 79.0274 24.1075C79.8614 24.7678 80.817 25.0979 81.8943 25.0979C83.0063 25.0979 83.9967 24.733 84.8655 24.0032H89.4004C88.7228 25.4454 87.7063 26.6095 86.3511 27.4957C85.0132 28.3644 83.5276 28.7988 81.8943 28.7988C79.6008 28.7988 77.6374 27.9909 76.0041 26.375C74.3882 24.7417 73.5802 22.7783 73.5802 20.4848C73.5802 18.1912 74.3882 16.2365 76.0041 14.6206ZM77.5679 18.8428H86.1947C85.8646 17.9566 85.3085 17.2356 84.5267 16.6796C83.7448 16.1236 82.8673 15.8456 81.8943 15.8456C80.9213 15.8456 80.0351 16.1236 79.2359 16.6796C78.454 17.2356 77.898 17.9566 77.5679 18.8428ZM106.508 19.5465V28.7988H102.807V19.5465C102.807 18.5213 102.442 17.6526 101.712 16.9402C101 16.2104 100.131 15.8456 99.1058 15.8456C98.098 15.8456 97.2293 16.2104 96.4995 16.9402C95.7871 17.6526 95.4309 18.5213 95.4309 19.5465V28.7988H91.73V19.5465C91.73 17.5136 92.4511 15.7761 93.8932 14.3339C95.3354 12.8918 97.0729 12.1707 99.1058 12.1707C101.156 12.1707 102.902 12.8918 104.344 14.3339C105.787 15.7761 106.508 17.5136 106.508 19.5465ZM122.477 26.375C120.861 27.9909 118.906 28.7988 116.613 28.7988C114.319 28.7988 112.356 27.9909 110.723 26.375C109.107 24.7417 108.299 22.7783 108.299 20.4848C108.299 18.1912 109.107 16.2365 110.723 14.6206C112.356 12.9873 114.319 12.1707 116.613 12.1707C118.906 12.1707 120.861 12.9873 122.477 14.6206C124.11 16.2365 124.927 18.1912 124.927 20.4848C124.927 22.7783 124.11 24.7417 122.477 26.375ZM113.355 23.7426C114.258 24.6461 115.344 25.0979 116.613 25.0979C117.881 25.0979 118.967 24.6461 119.871 23.7426C120.774 22.8391 121.226 21.7531 121.226 20.4848C121.226 19.199 120.774 18.1043 119.871 17.2008C118.967 16.2973 117.881 15.8456 116.613 15.8456C115.344 15.8456 114.258 16.2973 113.355 17.2008C112.451 18.1043 112 19.199 112 20.4848C112 21.7531 112.451 22.8391 113.355 23.7426ZM142.743 20.4848C142.743 22.7783 141.927 24.7417 140.293 26.375C138.677 27.9909 136.723 28.7988 134.429 28.7988C132.136 28.7988 130.172 27.9909 128.539 26.375C126.923 24.7417 126.115 22.7783 126.115 20.4848C126.115 18.1912 126.923 16.2365 128.539 14.6206C130.172 12.9873 132.136 12.1707 134.429 12.1707C136.097 12.1707 137.635 12.6398 139.042 13.5781V7.55754H142.743V20.4848ZM131.171 23.7426C132.075 24.6461 133.161 25.0979 134.429 25.0979C135.698 25.0979 136.784 24.6461 137.687 23.7426C138.591 22.8391 139.042 21.7531 139.042 20.4848C139.042 19.2164 138.591 18.1304 137.687 17.2269C136.784 16.3234 135.698 15.8716 134.429 15.8716C133.161 15.8716 132.075 16.3234 131.171 17.2269C130.268 18.1304 129.816 19.2164 129.816 20.4848C129.816 21.7531 130.268 22.8391 131.171 23.7426ZM146.659 14.6206C148.292 12.9873 150.256 12.1707 152.549 12.1707C154.843 12.1707 156.798 12.9873 158.413 14.6206C160.047 16.2365 160.863 18.1912 160.863 20.4848C160.863 20.867 160.837 21.2406 160.785 21.6055H148.066C148.31 22.6132 148.848 23.4472 149.682 24.1075C150.516 24.7678 151.472 25.0979 152.549 25.0979C153.661 25.0979 154.652 24.733 155.52 24.0032H160.055C159.378 25.4454 158.361 26.6095 157.006 27.4957C155.668 28.3644 154.183 28.7988 152.549 28.7988C150.256 28.7988 148.292 27.9909 146.659 26.375C145.043 24.7417 144.235 22.7783 144.235 20.4848C144.235 18.1912 145.043 16.2365 146.659 14.6206ZM148.223 18.8428H156.85C156.52 17.9566 155.964 17.2356 155.182 16.6796C154.4 16.1236 153.522 15.8456 152.549 15.8456C151.576 15.8456 150.69 16.1236 149.891 16.6796C149.109 17.2356 148.553 17.9566 148.223 18.8428Z" fill="white"/>
<path d="M32.5346 13.045C32.5346 13.045 33.0572 13.3404 33.3164 13.4842C34.1662 13.9554 34.984 14.4817 35.827 14.9659C37.4478 15.8799 39.0621 16.805 40.6702 17.7412C41.374 18.1471 42.0972 18.5301 42.7859 18.9607L21.6051 31.0506L3.68711 20.9199C2.58134 20.279 0.357422 19.0068 0.357422 19.0068C0.357422 19.0068 2.80455 17.6151 4.02514 16.9165L10.5996 13.0901C10.6367 14.2246 10.6039 15.3719 10.6034 16.5078C10.6034 16.5078 9.00044 17.4461 8.22231 17.9489C8.77808 18.2881 9.36246 18.5928 9.93078 18.9115L13.9583 21.1514L18.004 23.4176C19.1979 24.0958 20.3796 24.7901 21.5934 25.4329C22.5171 24.9387 23.4248 24.4075 24.3356 23.8897C25.9126 23.0068 27.4808 22.1084 29.04 21.1946C29.6897 20.8187 30.3619 20.4821 31.0128 20.1074C32.3013 19.3506 34.9055 17.8844 34.9055 17.8844L32.5346 16.464V13.045Z" fill="#FFD200"/>
<path d="M31.8076 6.56641V8.89889L31.8184 13.4794C31.8185 14.602 31.8366 16.8474 31.8366 16.8474C28.839 18.445 22.875 21.8396 22.875 21.8396L22.9049 11.5786L24.0819 10.9072L26.6391 9.45898C28.3421 8.48326 30.0919 7.51951 31.8076 6.56641Z" fill="#FFD200"/>
<path d="M11.3565 6.64258C11.3565 6.64258 11.947 6.97378 12.232 7.13231L13.8849 8.03123L17.4669 10.016C18.3917 10.5314 20.2583 11.5428 20.2583 11.5428L20.2644 21.7938L11.3538 16.829C11.3538 16.829 11.342 14.3985 11.344 13.1851L11.3565 6.64258Z" fill="#FFD200"/>
<path d="M0 21.7129C0 21.7129 0.676195 22.0792 1.00356 22.2635L2.99154 23.3942C4.99744 24.5332 7.00989 25.6604 9.02891 26.7759C8.99498 28.0514 9.01726 29.3348 9.02113 30.6109L9.01636 36.3608C8.1622 35.8631 7.28978 35.3944 6.42513 34.9151L2.39829 32.6673C1.60114 32.2186 0.00603697 31.3105 0.00603697 31.3105L0 21.7129Z" fill="#FFD200"/>
<path d="M43.102 21.7012C43.102 21.7012 43.1215 30.4177 43.1252 31.3466C41.5071 32.2949 39.8583 33.1964 38.231 34.1298C36.9067 34.8896 35.5647 35.7102 34.2206 36.4363L34.2188 33.7903L34.2207 26.6972C35.4507 26.0302 36.655 25.3247 37.8701 24.6317L40.6486 23.0704C41.4556 22.6121 42.2834 22.1389 43.102 21.7012Z" fill="#FFD200"/>
<path d="M31.4927 28.4082L31.5144 37.9516C30.7083 38.3789 29.9325 38.8803 29.1402 39.3344L22.8798 42.8763C22.896 39.6561 22.8931 36.4358 22.8711 33.2156C22.8711 33.2156 23.9732 32.61 24.5176 32.3055C25.3477 31.8412 26.1644 31.35 26.9916 30.8799C27.9835 30.304 28.9809 29.7378 29.9839 29.1814C30.4691 28.9088 30.995 28.6575 31.4927 28.4082Z" fill="#FFD200"/>
<path d="M11.6094 28.3672C11.6094 28.3672 12.4248 28.8372 12.8255 29.0646L15.3249 30.4743L18.7832 32.4179C19.2773 32.6987 19.7827 32.9667 20.2657 33.2658L20.27 42.8606C19.9711 42.7126 19.6843 42.5273 19.3937 42.3621C18.5716 41.8948 17.7627 41.4066 16.9439 40.934L11.6095 37.9083L11.6094 28.3672Z" fill="#FFD200"/>
<path d="M21.5143 0.0390785C22.0434 0.333314 22.7925 0.735176 23.3156 1.0404L26.4554 2.85701L28.497 4.04563C28.9241 4.29218 29.782 4.81122 29.782 4.81122C29.782 4.81122 28.8766 5.32258 28.429 5.57826C27.3949 6.17473 26.3546 6.76022 25.3081 7.33475C24.5101 7.78478 23.7092 8.22972 22.9055 8.66955C22.4711 8.91234 22.0408 9.17675 21.5932 9.39409C20.61 8.81192 19.596 8.27968 18.5985 7.72251L13.2598 4.73424L14.4463 4.04317L16.6203 2.80677L19.5123 1.16274C20.1757 0.784204 20.8362 0.390251 21.5143 0.0390785Z" fill="#FFD200"/>
</svg>
