<svg width="104" height="28" viewBox="0 0 104 28" fill="none" xmlns="http://www.w3.org/2000/svg">
<path d="M39.6515 20.0397C38.8936 20.7642 38.0018 21.1265 36.9764 21.1265C35.9175 21.1265 35.009 20.7475 34.2511 19.9895C33.5043 19.2316 33.1309 18.3232 33.1309 17.2643V10.4594H35.505V17.2643C35.505 17.6767 35.6444 18.0278 35.923 18.3176C36.2128 18.6074 36.564 18.7523 36.9764 18.7523C37.3888 18.7523 37.7399 18.6074 38.0297 18.3176C38.3195 18.0278 38.4644 17.6767 38.4644 17.2643V10.4594H40.8386V17.2643C40.8386 17.6767 40.9779 18.0278 41.2566 18.3176C41.5464 18.6074 41.8975 18.7523 42.3099 18.7523C42.7223 18.7523 43.0735 18.6074 43.3633 18.3176C43.6531 18.0278 43.798 17.6767 43.798 17.2643V10.4594H46.1722V17.281C46.1722 18.3399 45.7932 19.2483 45.0352 20.0063C44.2773 20.7531 43.3688 21.1265 42.3099 21.1265C41.2845 21.1265 40.3983 20.7642 39.6515 20.0397Z" fill="white"/>
<path d="M48.7568 12.031C49.8045 10.9833 51.0641 10.4594 52.5354 10.4594C54.0067 10.4594 55.2607 10.9833 56.2973 12.031C57.3451 13.0676 57.869 14.3216 57.869 15.7929C57.869 16.0381 57.8522 16.2778 57.8188 16.5119H49.6596C49.8157 17.1584 50.1612 17.6934 50.6962 18.117C51.2313 18.5405 51.8443 18.7523 52.5354 18.7523C53.2488 18.7523 53.8841 18.5182 54.4414 18.0501H57.3507C56.9159 18.9752 56.2639 19.722 55.3945 20.2905C54.5362 20.8478 53.5832 21.1265 52.5354 21.1265C51.0641 21.1265 49.8045 20.6082 48.7568 19.5716C47.7202 18.5238 47.2018 17.2643 47.2018 15.7929C47.2018 14.3216 47.7202 13.0676 48.7568 12.031ZM49.7599 14.7396H55.2941C55.0824 14.1711 54.7257 13.7085 54.2241 13.3519C53.7225 12.9952 53.1596 12.8168 52.5354 12.8168C51.9112 12.8168 51.3427 12.9952 50.83 13.3519C50.3284 13.7085 49.9717 14.1711 49.7599 14.7396Z" fill="white"/>
<path d="M68.3251 15.191V21.1265H65.9509V15.191C65.9509 14.5334 65.7169 13.9761 65.2487 13.5191C64.7917 13.0509 64.2344 12.8168 63.5767 12.8168C62.9303 12.8168 62.3729 13.0509 61.9048 13.5191C61.4478 13.9761 61.2193 14.5334 61.2193 15.191V21.1265H58.8451V15.191C58.8451 13.8869 59.3077 12.7723 60.2328 11.8471C61.158 10.9219 62.2726 10.4594 63.5767 10.4594C64.892 10.4594 66.0122 10.9219 66.9374 11.8471C67.8625 12.7723 68.3251 13.8869 68.3251 15.191Z" fill="white"/>
<path d="M78.5695 19.5716C77.5329 20.6082 76.2789 21.1265 74.8076 21.1265C73.3363 21.1265 72.0768 20.6082 71.029 19.5716C69.9924 18.5238 69.4741 17.2643 69.4741 15.7929C69.4741 14.3216 69.9924 13.0676 71.029 12.031C72.0768 10.9833 73.3363 10.4594 74.8076 10.4594C76.2789 10.4594 77.5329 10.9833 78.5695 12.031C79.6173 13.0676 80.1412 14.3216 80.1412 15.7929C80.1412 17.2643 79.6173 18.5238 78.5695 19.5716ZM72.7177 17.8829C73.2973 18.4625 73.9939 18.7523 74.8076 18.7523C75.6213 18.7523 76.318 18.4625 76.8976 17.8829C77.4772 17.3033 77.767 16.6066 77.767 15.7929C77.767 14.9681 77.4772 14.2659 76.8976 13.6863C76.318 13.1066 75.6213 12.8168 74.8076 12.8168C73.9939 12.8168 73.2973 13.1066 72.7177 13.6863C72.1381 14.2659 71.8483 14.9681 71.8483 15.7929C71.8483 16.6066 72.1381 17.3033 72.7177 17.8829Z" fill="white"/>
<path d="M91.5706 15.7929C91.5706 17.2643 91.0467 18.5238 89.999 19.5716C88.9623 20.6082 87.7084 21.1265 86.237 21.1265C84.7657 21.1265 83.5062 20.6082 82.4584 19.5716C81.4218 18.5238 80.9035 17.2643 80.9035 15.7929C80.9035 14.3216 81.4218 13.0676 82.4584 12.031C83.5062 10.9833 84.7657 10.4594 86.237 10.4594C87.3071 10.4594 88.2936 10.7603 89.1964 11.3622V7.5H91.5706V15.7929ZM84.1471 17.8829C84.7267 18.4625 85.4234 18.7523 86.237 18.7523C87.0507 18.7523 87.7474 18.4625 88.327 17.8829C88.9066 17.3033 89.1964 16.6066 89.1964 15.7929C89.1964 14.9792 88.9066 14.2826 88.327 13.703C87.7474 13.1234 87.0507 12.8336 86.237 12.8336C85.4234 12.8336 84.7267 13.1234 84.1471 13.703C83.5675 14.2826 83.2777 14.9792 83.2777 15.7929C83.2777 16.6066 83.5675 17.3033 84.1471 17.8829Z" fill="white"/>
<path d="M94.0826 12.031C95.1304 10.9833 96.3899 10.4594 97.8612 10.4594C99.3326 10.4594 100.587 10.9833 101.623 12.031C102.671 13.0676 103.195 14.3216 103.195 15.7929C103.195 16.0381 103.178 16.2778 103.145 16.5119H94.9854C95.1415 17.1584 95.487 17.6934 96.0221 18.117C96.5571 18.5405 97.1701 18.7523 97.8612 18.7523C98.5746 18.7523 99.2099 18.5182 99.7673 18.0501H102.676C102.242 18.9752 101.59 19.722 100.72 20.2905C99.862 20.8478 98.909 21.1265 97.8612 21.1265C96.3899 21.1265 95.1304 20.6082 94.0826 19.5716C93.046 18.5238 92.5277 17.2643 92.5277 15.7929C92.5277 14.3216 93.046 13.0676 94.0826 12.031ZM95.0858 14.7396H100.62C100.408 14.1711 100.051 13.7085 99.5499 13.3519C99.0483 12.9952 98.4854 12.8168 97.8612 12.8168C97.237 12.8168 96.6686 12.9952 96.1558 13.3519C95.6542 13.7085 95.2975 14.1711 95.0858 14.7396Z" fill="white"/>
<path d="M20.8705 8.84381C20.8705 8.84381 21.2057 9.0333 21.372 9.12553C21.9172 9.42782 22.4418 9.76546 22.9826 10.0761C24.0223 10.6624 25.058 11.2559 26.0895 11.8565C26.541 12.1168 27.005 12.3625 27.4468 12.6388L13.8591 20.3945L2.36454 13.8956C1.65518 13.4845 0.228516 12.6683 0.228516 12.6683C0.228516 12.6683 1.79837 11.7756 2.58139 11.3274L6.79894 8.87276C6.8228 9.60054 6.80174 10.3366 6.80139 11.0652C6.80139 11.0652 5.77309 11.6671 5.27392 11.9897C5.63045 12.2073 6.00533 12.4028 6.36991 12.6072L8.95362 14.0441L11.549 15.4979C12.3149 15.933 13.073 16.3784 13.8516 16.7908C14.4441 16.4737 15.0265 16.1329 15.6108 15.8008C16.6224 15.2344 17.6284 14.6581 18.6287 14.0718C19.0455 13.8307 19.4766 13.6148 19.8942 13.3744C20.7208 12.8889 22.3914 11.9483 22.3914 11.9483L20.8705 11.0371V8.84381Z" fill="white"/>
<path d="M20.4042 4.6875V6.18381L20.4111 9.12225C20.4112 9.84243 20.4228 11.2828 20.4228 11.2828C18.4998 12.3077 14.6738 14.4854 14.6738 14.4854L14.693 7.90289L15.4481 7.47219L17.0886 6.54311C18.181 5.91718 19.3036 5.29892 20.4042 4.6875Z" fill="white"/>
<path d="M7.28355 4.73633C7.28355 4.73633 7.66236 4.9488 7.84518 5.0505L8.90554 5.62716L11.2034 6.90038C11.7967 7.23103 12.9942 7.87984 12.9942 7.87984L12.9981 14.456L7.28185 11.271C7.28185 11.271 7.27425 9.71185 7.27554 8.93341L7.28355 4.73633Z" fill="white"/>
<path d="M0 14.4043C0 14.4043 0.433785 14.6393 0.643794 14.7575L1.9191 15.4829C3.20591 16.2135 4.49691 16.9366 5.79213 17.6522C5.77037 18.4705 5.78466 19.2938 5.78714 20.1125L5.78408 23.8011C5.23613 23.4818 4.67646 23.1811 4.12178 22.8737L1.53852 21.4317C1.02714 21.1438 0.00387277 20.5612 0.00387277 20.5612L0 14.4043Z" fill="white"/>
<path d="M27.6479 14.3965C27.6479 14.3965 27.6604 19.9882 27.6628 20.5841C26.6247 21.1925 25.567 21.7708 24.5231 22.3696C23.6735 22.857 22.8127 23.3834 21.9504 23.8492L21.9492 22.1518L21.9505 17.6015C22.7395 17.1736 23.5121 16.721 24.2916 16.2764L26.0741 15.2749C26.5917 14.9808 27.1228 14.6773 27.6479 14.3965Z" fill="white"/>
<path d="M20.2007 18.6973L20.2147 24.8195C19.6975 25.0935 19.1999 25.4152 18.6916 25.7065L14.6755 27.9787C14.6859 25.9129 14.684 23.8471 14.6699 21.7813C14.6699 21.7813 15.3769 21.3927 15.7262 21.1974C16.2587 20.8996 16.7826 20.5845 17.3133 20.2829C17.9496 19.9134 18.5894 19.5502 19.2328 19.1933C19.5441 19.0184 19.8815 18.8572 20.2007 18.6973Z" fill="white"/>
<path d="M7.44727 18.6719C7.44727 18.6719 7.97036 18.9734 8.22742 19.1193L9.83084 20.0236L12.0494 21.2704C12.3663 21.4506 12.6905 21.6225 13.0004 21.8144L13.0031 27.9695C12.8114 27.8746 12.6274 27.7557 12.441 27.6497C11.9136 27.3499 11.3947 27.0368 10.8694 26.7336L7.44736 24.7926L7.44727 18.6719Z" fill="white"/>
<path d="M13.8012 0.50001C14.1407 0.688765 14.6212 0.946563 14.9568 1.14237L16.971 2.30774L18.2807 3.07025C18.5547 3.22841 19.105 3.56138 19.105 3.56138C19.105 3.56138 18.5242 3.88942 18.2371 4.05344C17.5737 4.43609 16.9063 4.81169 16.235 5.18025C15.7231 5.46895 15.2093 5.75438 14.6937 6.03654C14.415 6.19229 14.139 6.36191 13.8519 6.50134C13.2211 6.12787 12.5706 5.78644 11.9307 5.429L8.50586 3.512L9.26705 3.06867L10.6617 2.27551L12.5169 1.22085C12.9425 0.978015 13.3662 0.725291 13.8012 0.50001Z" fill="white"/>
</svg>
