<svg width="108" height="30" viewBox="0 0 108 30" fill="none" xmlns="http://www.w3.org/2000/svg">
<path d="M40.8239 18.3765C40.0362 19.1294 39.1096 19.5059 38.0439 19.5059C36.9434 19.5059 35.9994 19.112 35.2117 18.3243C34.4356 17.5367 34.0476 16.5926 34.0476 15.4922V8.42043H36.5148V15.4922C36.5148 15.9208 36.6596 16.2856 36.9492 16.5868C37.2504 16.888 37.6153 17.0386 38.0439 17.0386C38.4725 17.0386 38.8373 16.888 39.1385 16.5868C39.4397 16.2856 39.5903 15.9208 39.5903 15.4922V8.42043H42.0576V15.4922C42.0576 15.9208 42.2024 16.2856 42.4919 16.5868C42.7931 16.888 43.158 17.0386 43.5866 17.0386C44.0152 17.0386 44.3801 16.888 44.6812 16.5868C44.9824 16.2856 45.133 15.9208 45.133 15.4922V8.42043H47.6003V15.5095C47.6003 16.61 47.2064 17.554 46.4188 18.3417C45.6311 19.1178 44.687 19.5059 43.5866 19.5059C42.5209 19.5059 41.6 19.1294 40.8239 18.3765ZM50.2862 10.0537C51.3751 8.96485 52.684 8.42043 54.2131 8.42043C55.7421 8.42043 57.0452 8.96485 58.1225 10.0537C59.2114 11.131 59.7558 12.4341 59.7558 13.9631C59.7558 14.218 59.7384 14.467 59.7037 14.7103H51.2245C51.3867 15.3821 51.7458 15.9381 52.3018 16.3783C52.8578 16.8185 53.4949 17.0386 54.2131 17.0386C54.9544 17.0386 55.6147 16.7953 56.1938 16.3088H59.2171C58.7654 17.2702 58.0877 18.0463 57.1842 18.6371C56.2923 19.2163 55.3019 19.5059 54.2131 19.5059C52.684 19.5059 51.3751 18.9672 50.2862 17.89C49.209 16.8011 48.6703 15.4922 48.6703 13.9631C48.6703 12.4341 49.209 11.131 50.2862 10.0537ZM51.3288 12.8685H57.08C56.8599 12.2777 56.4892 11.797 55.968 11.4264C55.4467 11.0557 54.8617 10.8703 54.2131 10.8703C53.5644 10.8703 52.9736 11.0557 52.4408 11.4264C51.9195 11.797 51.5489 12.2777 51.3288 12.8685ZM70.622 13.3376V19.5059H68.1547V13.3376C68.1547 12.6542 67.9114 12.075 67.4249 11.6001C66.95 11.1136 66.3708 10.8703 65.6874 10.8703C65.0156 10.8703 64.4364 11.1136 63.9499 11.6001C63.4749 12.075 63.2375 12.6542 63.2375 13.3376V19.5059H60.7702V13.3376C60.7702 11.9824 61.2509 10.824 62.2123 9.86258C63.1738 8.90114 64.3321 8.42043 65.6874 8.42043C67.0543 8.42043 68.2184 8.90114 69.1798 9.86258C70.1413 10.824 70.622 11.9824 70.622 13.3376ZM81.2681 17.89C80.1909 18.9672 78.8877 19.5059 77.3587 19.5059C75.8297 19.5059 74.5207 18.9672 73.4319 17.89C72.3546 16.8011 71.816 15.4922 71.816 13.9631C71.816 12.4341 72.3546 11.131 73.4319 10.0537C74.5207 8.96485 75.8297 8.42043 77.3587 8.42043C78.8877 8.42043 80.1909 8.96485 81.2681 10.0537C82.357 11.131 82.9014 12.4341 82.9014 13.9631C82.9014 15.4922 82.357 16.8011 81.2681 17.89ZM75.1868 16.1351C75.7891 16.7374 76.5131 17.0386 77.3587 17.0386C78.2043 17.0386 78.9283 16.7374 79.5306 16.1351C80.133 15.5327 80.4341 14.8087 80.4341 13.9631C80.4341 13.106 80.133 12.3762 79.5306 11.7739C78.9283 11.1715 78.2043 10.8703 77.3587 10.8703C76.5131 10.8703 75.7891 11.1715 75.1868 11.7739C74.5844 12.3762 74.2833 13.106 74.2833 13.9631C74.2833 14.8087 74.5844 15.5327 75.1868 16.1351ZM94.7791 13.9631C94.7791 15.4922 94.2346 16.8011 93.1458 17.89C92.0685 18.9672 90.7654 19.5059 89.2363 19.5059C87.7073 19.5059 86.3984 18.9672 85.3095 17.89C84.2323 16.8011 83.6936 15.4922 83.6936 13.9631C83.6936 12.4341 84.2323 11.131 85.3095 10.0537C86.3984 8.96485 87.7073 8.42043 89.2363 8.42043C90.3484 8.42043 91.3735 8.73318 92.3118 9.35869V5.345H94.7791V13.9631ZM87.0644 16.1351C87.6668 16.7374 88.3907 17.0386 89.2363 17.0386C90.0819 17.0386 90.8059 16.7374 91.4082 16.1351C92.0106 15.5327 92.3118 14.8087 92.3118 13.9631C92.3118 13.1175 92.0106 12.3936 91.4082 11.7912C90.8059 11.1889 90.0819 10.8877 89.2363 10.8877C88.3907 10.8877 87.6668 11.1889 87.0644 11.7912C86.4621 12.3936 86.1609 13.1175 86.1609 13.9631C86.1609 14.8087 86.4621 15.5327 87.0644 16.1351ZM97.3896 10.0537C98.4784 8.96485 99.7873 8.42043 101.316 8.42043C102.845 8.42043 104.149 8.96485 105.226 10.0537C106.315 11.131 106.859 12.4341 106.859 13.9631C106.859 14.218 106.842 14.467 106.807 14.7103H98.3278C98.49 15.3821 98.8491 15.9381 99.4051 16.3783C99.9611 16.8185 100.598 17.0386 101.316 17.0386C102.058 17.0386 102.718 16.7953 103.297 16.3088H106.32C105.869 17.2702 105.191 18.0463 104.288 18.6371C103.396 19.2163 102.405 19.5059 101.316 19.5059C99.7873 19.5059 98.4784 18.9672 97.3896 17.89C96.3123 16.8011 95.7737 15.4922 95.7737 13.9631C95.7737 12.4341 96.3123 11.131 97.3896 10.0537ZM98.4321 12.8685H104.183C103.963 12.2777 103.593 11.797 103.071 11.4264C102.55 11.0557 101.965 10.8703 101.316 10.8703C100.668 10.8703 100.077 11.0557 99.5441 11.4264C99.0228 11.797 98.6522 12.2777 98.4321 12.8685Z" fill="white"/>
<path d="M21.3064 8.67096C21.3064 8.67096 21.6548 8.86788 21.8276 8.96373C22.3942 9.27788 22.9394 9.62875 23.5014 9.95156C24.5819 10.5609 25.6581 11.1776 26.7301 11.8018C27.1994 12.0723 27.6815 12.3277 28.1406 12.6147L14.0201 20.6747L2.07477 13.9209C1.33759 13.4936 -0.14502 12.6455 -0.14502 12.6455C-0.14502 12.6455 1.4864 11.7177 2.30013 11.2519L6.68307 8.70104C6.70786 9.45736 6.68598 10.2222 6.68561 10.9795C6.68561 10.9795 5.61699 11.605 5.09824 11.9402C5.46875 12.1664 5.85834 12.3695 6.23722 12.582L8.92225 14.0752L11.6194 15.586C12.4153 16.0381 13.2031 16.501 14.0123 16.9296C14.6281 16.6001 15.2332 16.2459 15.8405 15.9007C16.8918 15.3122 17.9372 14.7132 18.9767 14.104C19.4098 13.8534 19.8579 13.629 20.2919 13.3792C21.1509 12.8747 22.887 11.8972 22.887 11.8972L21.3064 10.9503V8.67096Z" fill="#FFD200"/>
<path d="M20.8213 4.35107V5.90606L20.8285 8.95974C20.8286 9.70816 20.8406 11.205 20.8406 11.205C18.8422 12.2701 14.8662 14.5332 14.8662 14.5332L14.8862 7.69256L15.6708 7.24497L17.3756 6.27945C18.5109 5.62898 19.6775 4.98647 20.8213 4.35107Z" fill="#FFD200"/>
<path d="M7.18866 4.40283C7.18866 4.40283 7.58232 4.62364 7.77231 4.72932L8.87426 5.3286L11.2622 6.65175C11.8788 6.99536 13.1232 7.66962 13.1232 7.66962L13.1273 14.5036L7.18689 11.1938C7.18689 11.1938 7.17899 9.57348 7.18033 8.7645L7.18866 4.40283Z" fill="#FFD200"/>
<path d="M-0.382812 14.4492C-0.382812 14.4492 0.067984 14.6934 0.286228 14.8163L1.61155 15.5701C2.94881 16.3294 4.29045 17.0809 5.63646 17.8245C5.61384 18.6749 5.6287 19.5305 5.63127 20.3812L5.62809 24.2145C5.05866 23.8827 4.47704 23.5702 3.90061 23.2507L1.21604 21.7522C0.684611 21.453 -0.378788 20.8476 -0.378788 20.8476L-0.382812 14.4492Z" fill="#FFD200"/>
<path d="M28.3514 14.4409C28.3514 14.4409 28.3644 20.2519 28.3668 20.8712C27.2881 21.5034 26.1889 22.1044 25.1041 22.7267C24.2212 23.2332 23.3265 23.7803 22.4304 24.2643L22.4292 22.5003L22.4305 17.7716C23.2505 17.3269 24.0534 16.8566 24.8635 16.3946L26.7158 15.3537C27.2538 15.0482 27.8057 14.7327 28.3514 14.4409Z" fill="#FFD200"/>
<path d="M20.6125 18.9116L20.6269 25.2739C20.0895 25.5587 19.5723 25.893 19.0442 26.1957L14.8706 28.557C14.8814 26.4102 14.8794 24.2634 14.8647 22.1166C14.8647 22.1166 15.5995 21.7128 15.9624 21.5098C16.5158 21.2003 17.0603 20.8728 17.6118 20.5594C18.273 20.1755 18.938 19.798 19.6066 19.4271C19.9301 19.2454 20.2807 19.0778 20.6125 18.9116Z" fill="#FFD200"/>
<path d="M7.35693 18.8843C7.35693 18.8843 7.90054 19.1976 8.16768 19.3492L9.83398 20.289L12.1395 21.5847C12.4689 21.772 12.8058 21.9506 13.1278 22.15L13.1307 28.5466C12.9314 28.4479 12.7402 28.3243 12.5465 28.2142C11.9984 27.9027 11.4591 27.5772 10.9133 27.2622L7.35703 25.245L7.35693 18.8843Z" fill="#FFD200"/>
<path d="M13.9601 1.06666e-05C14.3128 0.196168 14.8122 0.464076 15.1609 0.667556L17.2541 1.87863L18.6152 2.67104C18.8999 2.83541 19.4718 3.18144 19.4718 3.18144C19.4718 3.18144 18.8683 3.52234 18.5699 3.6928C17.8805 4.09044 17.1869 4.48077 16.4893 4.86379C15.9573 5.16381 15.4233 5.46044 14.8875 5.75366C14.5979 5.91552 14.3111 6.09179 14.0127 6.23668C13.3572 5.84857 12.6812 5.49375 12.0162 5.1223L8.45703 3.13012L9.24808 2.66941L10.6974 1.84514L12.6254 0.749119C13.0677 0.496761 13.508 0.234126 13.9601 1.06666e-05Z" fill="#FFD200"/>
</svg>
