<svg width="16" height="14" viewBox="0 0 16 14" fill="none" xmlns="http://www.w3.org/2000/svg">
<path d="M8.54533 11.4555C7.94771 11.9985 7.37034 12.5263 6.79297 13.0591C6.30676 13.5107 5.59771 13.4042 5.34955 12.7952C5.09125 12.166 4.90892 11.5012 4.70127 10.8517C4.48856 10.1767 4.28091 9.49674 4.08339 8.81675C4.04287 8.66958 3.9669 8.59854 3.82003 8.5478C2.8932 8.24332 1.9613 7.94392 1.03954 7.60392C0.766049 7.50243 0.487494 7.33497 0.284908 7.12691C-0.115199 6.72094 -0.0898753 6.15767 0.335554 5.78215C0.517881 5.61976 0.74579 5.48782 0.978763 5.39648C5.37994 3.64575 9.78111 1.91531 14.1873 0.189953C14.4355 0.0935358 14.7039 0.0174172 14.9673 0.00219344C15.6713 -0.0384032 16.1119 0.489354 15.9752 1.18457C15.6865 2.65113 15.3978 4.11768 15.104 5.58424C14.6229 8.02004 14.1367 10.4558 13.6556 12.8916C13.458 13.8812 12.3084 14.3328 11.5031 13.7239C10.5205 12.983 9.54813 12.2269 8.54533 11.4555ZM1.11044 6.44184C1.11551 6.46722 1.11551 6.49259 1.12057 6.51796C1.2168 6.55856 1.31809 6.6093 1.41939 6.64483C2.31583 6.9493 3.21227 7.24363 4.10365 7.55318C4.2961 7.61915 4.44298 7.60392 4.62024 7.49228C7.10698 5.89886 9.59878 4.31559 12.0906 2.73232C12.2375 2.6359 12.3995 2.55471 12.5667 2.49889C12.8807 2.39232 13.1643 2.49381 13.3264 2.73739C13.4986 2.9962 13.4884 3.31082 13.2808 3.56455C13.1795 3.68634 13.063 3.79798 12.9414 3.90962C11.493 5.21887 10.0445 6.52304 8.60105 7.8272C8.14016 8.24332 7.67928 8.65944 7.2032 9.09077C7.29437 9.16689 7.36527 9.22779 7.43618 9.28361C8.94544 10.4508 10.4547 11.6179 11.964 12.7851C12.3691 13.0997 12.5869 13.0185 12.6882 12.511C13.3669 9.09077 14.0405 5.6705 14.7191 2.24516C14.7951 1.85949 14.866 1.47382 14.9572 1.00696C10.2926 2.82874 5.70407 4.63529 1.11044 6.44184ZM6.63597 11.8006C7.02088 11.4454 7.36021 11.1409 7.71473 10.8161C7.41086 10.5827 7.13736 10.3696 6.82842 10.1311C6.75752 10.6994 6.70181 11.212 6.63597 11.8006Z" fill="white"/>
</svg>
