<svg width="28" height="28" viewBox="0 0 28 28" fill="none" xmlns="http://www.w3.org/2000/svg">
<path d="M20.8705 8.84381C20.8705 8.84381 21.2057 9.0333 21.372 9.12553C21.9172 9.42782 22.4418 9.76546 22.9826 10.0761C24.0223 10.6624 25.058 11.2559 26.0895 11.8565C26.541 12.1168 27.005 12.3625 27.4468 12.6388L13.8591 20.3945L2.36454 13.8956C1.65518 13.4845 0.228516 12.6683 0.228516 12.6683C0.228516 12.6683 1.79837 11.7756 2.58139 11.3274L6.79894 8.87276C6.8228 9.60054 6.80174 10.3366 6.80139 11.0652C6.80139 11.0652 5.77309 11.6671 5.27392 11.9897C5.63045 12.2073 6.00533 12.4028 6.36991 12.6072L8.95362 14.0441L11.549 15.4979C12.3149 15.933 13.073 16.3784 13.8516 16.7908C14.4441 16.4737 15.0265 16.1329 15.6108 15.8008C16.6224 15.2344 17.6284 14.6581 18.6287 14.0718C19.0455 13.8307 19.4766 13.6148 19.8942 13.3744C20.7208 12.8889 22.3914 11.9483 22.3914 11.9483L20.8705 11.0371V8.84381Z" fill="white"/>
<path d="M20.4042 4.6875V6.18381L20.4111 9.12225C20.4112 9.84243 20.4228 11.2828 20.4228 11.2828C18.4998 12.3077 14.6738 14.4854 14.6738 14.4854L14.693 7.90289L15.4481 7.47219L17.0886 6.54311C18.181 5.91718 19.3036 5.29892 20.4042 4.6875Z" fill="white"/>
<path d="M7.28355 4.73633C7.28355 4.73633 7.66236 4.9488 7.84518 5.0505L8.90554 5.62716L11.2034 6.90038C11.7967 7.23103 12.9942 7.87984 12.9942 7.87984L12.9981 14.456L7.28185 11.271C7.28185 11.271 7.27425 9.71185 7.27554 8.93341L7.28355 4.73633Z" fill="white"/>
<path d="M0 14.4043C0 14.4043 0.433785 14.6393 0.643794 14.7575L1.9191 15.4829C3.20591 16.2135 4.49691 16.9366 5.79213 17.6522C5.77037 18.4705 5.78466 19.2938 5.78714 20.1125L5.78408 23.8011C5.23613 23.4818 4.67646 23.1811 4.12178 22.8737L1.53852 21.4317C1.02714 21.1438 0.00387277 20.5612 0.00387277 20.5612L0 14.4043Z" fill="white"/>
<path d="M27.6479 14.3965C27.6479 14.3965 27.6604 19.9882 27.6628 20.5841C26.6247 21.1925 25.567 21.7708 24.5231 22.3696C23.6735 22.857 22.8127 23.3834 21.9504 23.8492L21.9492 22.1518L21.9505 17.6015C22.7395 17.1736 23.5121 16.721 24.2916 16.2764L26.0741 15.2749C26.5917 14.9808 27.1228 14.6773 27.6479 14.3965Z" fill="white"/>
<path d="M20.2007 18.6973L20.2147 24.8195C19.6975 25.0935 19.1999 25.4152 18.6916 25.7065L14.6755 27.9787C14.6859 25.9129 14.684 23.8471 14.6699 21.7813C14.6699 21.7813 15.3769 21.3927 15.7262 21.1974C16.2587 20.8996 16.7826 20.5845 17.3133 20.2829C17.9496 19.9134 18.5894 19.5502 19.2328 19.1933C19.5441 19.0184 19.8815 18.8572 20.2007 18.6973Z" fill="white"/>
<path d="M7.44727 18.6719C7.44727 18.6719 7.97036 18.9734 8.22742 19.1193L9.83084 20.0236L12.0494 21.2704C12.3663 21.4506 12.6905 21.6225 13.0004 21.8144L13.0031 27.9695C12.8114 27.8746 12.6274 27.7557 12.441 27.6497C11.9136 27.3499 11.3947 27.0368 10.8694 26.7336L7.44736 24.7926L7.44727 18.6719Z" fill="white"/>
<path d="M13.8012 0.50001C14.1407 0.688765 14.6212 0.946563 14.9568 1.14237L16.971 2.30774L18.2807 3.07025C18.5547 3.22841 19.105 3.56138 19.105 3.56138C19.105 3.56138 18.5242 3.88942 18.2371 4.05344C17.5737 4.43609 16.9063 4.81169 16.235 5.18025C15.7231 5.46895 15.2093 5.75438 14.6937 6.03654C14.415 6.19229 14.139 6.36191 13.8519 6.50134C13.2211 6.12787 12.5706 5.78644 11.9307 5.429L8.50586 3.512L9.26705 3.06867L10.6617 2.27551L12.5169 1.22085C12.9425 0.978015 13.3662 0.725291 13.8012 0.50001Z" fill="white"/>
</svg>
