<svg width="351" height="221" viewBox="0 0 351 221" fill="none" xmlns="http://www.w3.org/2000/svg">
<rect x="0.319824" y="0.399902" width="350" height="220" rx="10" fill="#1A1A1A"/>
<path d="M171.575 32.0287C171.575 32.0287 171.04 31.8503 170.861 31.5828L163.102 17.2239C163.102 17.2239 163.102 16.3321 163.459 16.1537C163.816 15.9753 164.351 16.1537 164.529 16.5105L172.288 30.8693C172.288 30.8693 172.288 31.7612 171.931 31.9395C171.842 31.9395 171.664 32.0287 171.575 32.0287Z" fill="#FFD200"/>
<path d="M161.765 33.1846C161.765 33.1846 161.319 33.0954 161.141 32.8279L151.598 19.5393C151.598 19.5393 151.419 18.7366 151.776 18.469C152.133 18.2015 152.579 18.2907 152.846 18.6474L162.389 31.936C162.389 31.936 162.568 32.7387 162.211 33.0062C162.032 33.0954 161.943 33.1846 161.765 33.1846Z" fill="#FFD200"/>
<path d="M152.129 35.5042C152.129 35.5042 151.683 35.5042 151.594 35.2366L140.446 23.2858C140.446 23.2858 140.178 22.4831 140.446 22.2156C140.802 21.948 141.248 21.948 141.516 22.2156L152.664 34.1664C152.664 34.1664 152.932 34.9691 152.664 35.2366C152.486 35.415 152.307 35.415 152.129 35.415V35.5042Z" fill="#FFD200"/>
<path d="M142.852 39.0753C142.852 39.0753 142.495 39.0753 142.317 38.8969L129.742 28.3731C129.742 28.3731 129.385 27.5704 129.653 27.3028C129.92 26.9461 130.455 26.9461 130.723 27.2137L143.298 37.7376C143.298 37.7376 143.655 38.5402 143.387 38.8078C143.209 38.9861 143.031 39.0753 142.763 39.0753H142.852Z" fill="#FFD200"/>
<path d="M134.027 43.709C134.027 43.709 133.76 43.709 133.581 43.6198L119.847 34.7905C119.847 34.7905 119.401 34.077 119.579 33.7203C119.847 33.3635 120.293 33.2743 120.649 33.4527L134.384 42.282C134.384 42.282 134.83 42.9955 134.652 43.3523C134.473 43.6198 134.295 43.709 134.027 43.709Z" fill="#FFD200"/>
<path d="M125.997 49.5094C125.997 49.5094 125.729 49.5094 125.64 49.5094L110.924 42.4637C110.924 42.4637 110.389 41.8394 110.568 41.3935C110.746 41.0368 111.192 40.8584 111.638 41.0368L126.353 48.0824C126.353 48.0824 126.889 48.7067 126.71 49.1526C126.621 49.4202 126.264 49.5986 125.997 49.5986V49.5094Z" fill="#FFD200"/>
<path d="M118.683 56.1961C118.683 56.1961 118.504 56.1961 118.415 56.1961L102.897 51.0233C102.897 51.0233 102.273 50.4882 102.362 50.0423C102.54 49.5963 102.897 49.418 103.343 49.5072L118.861 54.6799C118.861 54.6799 119.485 55.215 119.396 55.6609C119.307 56.0177 118.95 56.1961 118.683 56.1961Z" fill="#FFD200"/>
<path d="M112.267 63.7722C112.267 63.7722 112.177 63.7722 112.088 63.7722L96.0349 60.6507C96.0349 60.6507 95.3214 60.1156 95.4105 59.7588C95.4105 59.3129 95.9457 59.0453 96.3024 59.1345L112.356 62.256C112.356 62.256 113.069 62.7911 112.98 63.1479C112.98 63.5046 112.623 63.7722 112.177 63.7722H112.267Z" fill="#FFD200"/>
<path d="M106.828 72.0703L90.5074 70.9109C90.5074 70.9109 89.7939 70.5542 89.7939 70.1082C89.7939 69.6623 90.1507 69.3948 90.5966 69.3948L106.918 70.5542C106.918 70.5542 107.631 71.0001 107.631 71.3569C107.631 71.8028 107.274 72.0703 106.828 72.0703Z" fill="#FFD200"/>
<path d="M86.1376 81.8797C86.1376 81.8797 85.4241 81.5229 85.335 81.1662C85.335 80.7203 85.6025 80.3635 86.0484 80.3635L102.369 79.4717C102.369 79.4717 103.172 79.7392 103.172 80.1851C103.172 80.6311 102.904 80.9878 102.459 80.9878L86.1376 81.8797Z" fill="#FFD200"/>
<path d="M83.1938 93.3894C83.1938 93.3894 82.4803 93.1219 82.3911 92.7652C82.3911 92.3192 82.5695 91.9625 83.0154 91.8733L99.0688 88.9302C99.0688 88.9302 99.8715 89.1085 99.9606 89.5545C99.9606 90.0004 99.7823 90.3572 99.3364 90.4463L83.283 93.3894C83.283 93.3894 83.1938 93.3894 83.1046 93.3894H83.1938Z" fill="#FFD200"/>
<path d="M81.7592 105.074C81.7592 105.074 81.1349 104.895 81.0457 104.538C80.9566 104.092 81.1349 103.736 81.5808 103.557L97.1883 98.563C97.1883 98.563 97.9909 98.6522 98.1693 99.0981C98.3477 99.544 98.0801 99.9899 97.6342 100.079L82.0267 105.074C82.0267 105.074 81.8484 105.074 81.7592 105.074Z" fill="#FFD200"/>
<path d="M81.7634 116.84C81.7634 116.84 81.2283 116.662 81.05 116.394C80.8716 116.038 81.0499 115.502 81.4067 115.324L96.2115 108.457C96.2115 108.457 97.1033 108.457 97.2817 108.814C97.4601 109.17 97.2817 109.705 96.925 109.884L82.1202 116.751C82.1202 116.751 81.9418 116.751 81.7634 116.751V116.84Z" fill="#FFD200"/>
<path d="M83.1877 128.613C83.1877 128.613 82.6526 128.524 82.5634 128.256C82.2958 127.9 82.4742 127.454 82.8309 127.186L96.6547 118.535C96.6547 118.535 97.4574 118.446 97.7249 118.803C97.9925 119.159 97.8141 119.605 97.4574 119.873L83.6336 128.524C83.6336 128.524 83.3661 128.613 83.1877 128.613Z" fill="#FFD200"/>
<path d="M86.1296 140.03C86.1296 140.03 85.6837 139.941 85.5053 139.763C85.2377 139.406 85.3269 138.96 85.5945 138.692L98.2588 128.347C98.2588 128.347 99.0615 128.168 99.329 128.436C99.5966 128.793 99.5074 129.239 99.2398 129.506L86.5755 139.852C86.5755 139.852 86.2188 140.03 86.0404 140.03H86.1296Z" fill="#FFD200"/>
<path d="M90.5033 150.998C90.5033 150.998 90.1466 150.998 89.9682 150.82C89.7006 150.552 89.6115 150.017 89.9682 149.75L101.206 137.888C101.206 137.888 102.008 137.531 102.276 137.888C102.543 138.156 102.633 138.691 102.276 138.958L91.0384 150.82C91.0384 150.82 90.6817 151.087 90.5033 151.087V150.998Z" fill="#FFD200"/>
<path d="M96.2091 161.343C96.2091 161.343 95.8523 161.343 95.7631 161.164C95.4064 160.897 95.3172 160.451 95.5848 160.094L105.306 146.894C105.306 146.894 106.019 146.449 106.376 146.716C106.733 146.984 106.822 147.43 106.555 147.786L96.8334 160.986C96.8334 160.986 96.4766 161.343 96.2091 161.343Z" fill="#FFD200"/>
<path d="M103.08 170.885C103.08 170.885 102.813 170.885 102.724 170.796C102.367 170.618 102.188 170.083 102.456 169.726L110.393 155.456C110.393 155.456 111.107 154.921 111.464 155.189C111.82 155.367 111.999 155.902 111.731 156.259L103.794 170.529C103.794 170.529 103.348 170.885 103.08 170.885Z" fill="#FFD200"/>
<path d="M111.197 179.538C111.197 179.538 111.019 179.538 110.929 179.538C110.573 179.36 110.305 178.914 110.484 178.557L116.637 163.395C116.637 163.395 117.262 162.771 117.618 162.95C117.975 163.128 118.243 163.574 118.064 163.931L111.91 179.092C111.91 179.092 111.465 179.538 111.197 179.538Z" fill="#FFD200"/>
<path d="M120.29 187.03C120.29 187.03 120.201 187.03 120.112 187.03C119.666 186.941 119.488 186.495 119.577 186.049L123.769 170.264C123.769 170.264 124.304 169.639 124.75 169.728C125.196 169.818 125.374 170.264 125.285 170.709L121.093 186.495C121.093 186.495 120.647 187.12 120.38 187.12L120.29 187.03Z" fill="#FFD200"/>
<path d="M130.277 193.366C130.277 193.366 130.277 193.366 130.188 193.366C129.742 193.366 129.475 192.92 129.475 192.474L131.615 176.242C131.615 176.242 132.061 175.529 132.507 175.529C132.953 175.529 133.22 175.975 133.22 176.421L131.08 192.652C131.08 192.652 130.723 193.366 130.277 193.366Z" fill="#FFD200"/>
<path d="M140.981 198.446C140.981 198.446 140.179 198.089 140.179 197.643V181.322C140.179 181.322 140.625 180.519 141.071 180.519C141.071 180.519 141.873 180.876 141.873 181.322V197.643C141.873 197.643 141.427 198.446 140.981 198.446Z" fill="#FFD200"/>
<path d="M152.219 202.015C152.219 202.015 151.505 201.747 151.416 201.301L149.454 185.069C149.454 185.069 149.722 184.267 150.168 184.177C150.614 184.177 150.97 184.445 151.059 184.891L153.022 201.123C153.022 201.123 152.754 201.925 152.308 202.015C152.308 202.015 152.308 202.015 152.219 202.015Z" fill="#FFD200"/>
<path d="M163.814 204.244C163.814 204.244 163.189 203.977 163.1 203.62L159.087 187.745C159.087 187.745 159.265 186.942 159.622 186.764C160.068 186.675 160.425 186.942 160.603 187.299L164.616 203.174C164.616 203.174 164.438 203.977 164.081 204.155C164.081 204.155 163.992 204.155 163.903 204.155L163.814 204.244Z" fill="#FFD200"/>
<path d="M175.589 205.045C175.589 205.045 174.965 204.867 174.876 204.51L168.99 189.259C168.99 189.259 168.99 188.367 169.436 188.278C169.882 188.1 170.328 188.278 170.417 188.724L176.303 203.975C176.303 203.975 176.303 204.867 175.857 204.956C175.768 204.956 175.679 204.956 175.589 204.956V205.045Z" fill="#FFD200"/>
<path d="M187.356 204.242C187.356 204.242 186.821 204.063 186.643 203.796L178.884 189.437C178.884 189.437 178.884 188.545 179.241 188.367C179.597 188.188 180.132 188.367 180.311 188.724L188.07 203.082C188.07 203.082 188.07 203.974 187.713 204.153C187.624 204.153 187.446 204.242 187.356 204.242Z" fill="#FFD200"/>
<path d="M198.954 202.01C198.954 202.01 198.508 201.921 198.33 201.653L188.787 188.364C188.787 188.364 188.609 187.562 188.966 187.294C189.322 187.027 189.768 187.116 190.036 187.473L199.579 200.761C199.579 200.761 199.757 201.564 199.4 201.831C199.222 201.921 199.133 202.01 198.954 202.01Z" fill="#FFD200"/>
<path d="M210.186 198.45C210.186 198.45 209.741 198.45 209.651 198.183L198.503 186.232C198.503 186.232 198.236 185.429 198.503 185.162C198.86 184.894 199.306 184.894 199.573 185.162L210.722 197.113C210.722 197.113 210.989 197.915 210.722 198.183C210.543 198.361 210.365 198.361 210.186 198.361V198.45Z" fill="#FFD200"/>
<path d="M220.889 193.364C220.889 193.364 220.533 193.364 220.354 193.186L207.779 182.662C207.779 182.662 207.422 181.859 207.69 181.592C207.957 181.235 208.493 181.235 208.76 181.503L221.335 192.027C221.335 192.027 221.692 192.829 221.424 193.097C221.246 193.275 221.068 193.364 220.8 193.364H220.889Z" fill="#FFD200"/>
<path d="M230.886 187.033C230.886 187.033 230.618 187.033 230.44 186.944L216.705 178.114C216.705 178.114 216.259 177.401 216.438 177.044C216.705 176.687 217.151 176.598 217.508 176.776L231.242 185.606C231.242 185.606 231.688 186.319 231.51 186.676C231.332 186.944 231.153 187.033 230.886 187.033Z" fill="#FFD200"/>
<path d="M239.978 179.543C239.978 179.543 239.711 179.543 239.621 179.543L224.906 172.497C224.906 172.497 224.371 171.873 224.549 171.427C224.727 171.07 225.173 170.892 225.619 171.07L240.335 178.116C240.335 178.116 240.87 178.74 240.692 179.186C240.602 179.453 240.246 179.632 239.978 179.632V179.543Z" fill="#FFD200"/>
<path d="M248.002 170.892C248.002 170.892 247.823 170.892 247.734 170.892L232.216 165.719C232.216 165.719 231.591 165.184 231.681 164.738C231.859 164.292 232.216 164.114 232.662 164.203L248.18 169.375C248.18 169.375 248.804 169.911 248.715 170.356C248.626 170.713 248.269 170.892 248.002 170.892Z" fill="#FFD200"/>
<path d="M254.963 161.345C254.963 161.345 254.874 161.345 254.785 161.345L238.732 158.223C238.732 158.223 238.018 157.688 238.107 157.332C238.107 156.886 238.642 156.618 238.999 156.707L255.053 159.829C255.053 159.829 255.766 160.364 255.677 160.721C255.677 161.077 255.32 161.345 254.874 161.345H254.963Z" fill="#FFD200"/>
<path d="M260.673 150.996L244.352 149.836C244.352 149.836 243.639 149.391 243.639 149.034C243.639 148.588 244.085 148.32 244.441 148.32L260.762 149.48C260.762 149.48 261.476 149.926 261.476 150.282C261.476 150.728 261.119 150.996 260.673 150.996Z" fill="#FFD200"/>
<path d="M248.718 140.921C248.718 140.921 248.004 140.565 247.915 140.208C247.915 139.762 248.183 139.405 248.629 139.405L264.949 138.513C264.949 138.513 265.752 138.781 265.752 139.227C265.752 139.673 265.485 140.03 265.039 140.03L248.718 140.921Z" fill="#FFD200"/>
<path d="M251.836 131.554C251.836 131.554 251.122 131.287 251.033 130.93C251.033 130.484 251.212 130.128 251.657 130.038L267.711 127.095C267.711 127.095 268.514 127.274 268.603 127.72C268.692 128.165 268.424 128.522 267.978 128.611L251.925 131.554C251.925 131.554 251.836 131.554 251.747 131.554H251.836Z" fill="#3F3F3F"/>
<path d="M253.894 121.839C253.894 121.839 253.27 121.661 253.181 121.304C253.091 120.858 253.27 120.501 253.716 120.323L269.323 115.329C269.323 115.329 270.215 115.418 270.304 115.864C270.393 116.31 270.215 116.756 269.769 116.845L254.162 121.839C254.162 121.839 253.983 121.839 253.894 121.839Z" fill="#3F3F3F"/>
<path d="M254.604 111.937C254.604 111.937 254.069 111.759 253.89 111.491C253.712 111.134 253.89 110.599 254.247 110.421L269.052 103.553C269.052 103.553 269.944 103.553 270.122 103.91C270.3 104.267 270.122 104.802 269.765 104.98L254.961 111.848C254.961 111.848 254.782 111.848 254.604 111.848V111.937Z" fill="#3F3F3F"/>
<path d="M254.068 102.04C254.068 102.04 253.533 101.951 253.444 101.684C253.176 101.327 253.355 100.881 253.711 100.613L267.535 91.9623C267.535 91.9623 268.338 91.8731 268.605 92.2299C268.873 92.5866 268.694 93.0325 268.338 93.3001L254.514 101.951C254.514 101.951 254.246 102.04 254.068 102.04Z" fill="#3F3F3F"/>
<path d="M252.377 92.2267C252.377 92.2267 251.931 92.1374 251.752 91.9591C251.485 91.6023 251.574 91.1564 251.842 90.8889L264.506 80.5434C264.506 80.5434 265.309 80.2758 265.576 80.6325C265.844 80.9893 265.754 81.4352 265.487 81.7028L252.823 92.0483C252.823 92.0483 252.466 92.2267 252.287 92.2267H252.377Z" fill="#3F3F3F"/>
<path d="M249.434 82.7769C249.434 82.7769 249.078 82.7769 248.899 82.5985C248.632 82.3309 248.543 81.7958 248.899 81.5283L260.137 69.6666C260.137 69.6666 260.939 69.3099 261.207 69.6666C261.474 69.9342 261.564 70.4693 261.207 70.7368L249.97 82.5985C249.97 82.5985 249.613 82.866 249.434 82.866V82.7769Z" fill="#3F3F3F"/>
<path d="M245.333 73.7685C245.333 73.7685 244.976 73.7686 244.887 73.5902C244.53 73.3226 244.441 72.8767 244.709 72.5199L254.43 59.3205C254.43 59.3205 255.143 58.8746 255.5 59.1421C255.857 59.4097 255.946 59.8556 255.679 60.2124L245.957 73.4118C245.957 73.4118 245.601 73.7685 245.333 73.7685Z" fill="#FFD200"/>
<path d="M240.063 65.2911C240.063 65.2911 239.796 65.2911 239.706 65.2019C239.35 65.0235 239.171 64.4884 239.439 64.1317L247.376 49.862C247.376 49.862 248.09 49.3269 248.447 49.5944C248.803 49.7728 248.982 50.3079 248.714 50.6647L240.777 64.9343C240.777 64.9343 240.331 65.2911 240.063 65.2911Z" fill="#FFD200"/>
<path d="M233.827 57.6223C233.827 57.6223 233.649 57.6223 233.559 57.6223C233.203 57.4439 232.935 56.9979 233.113 56.6412L239.267 41.4797C239.267 41.4797 239.892 40.8554 240.248 41.0338C240.605 41.2121 240.873 41.6581 240.694 42.0148L234.54 57.1763C234.54 57.1763 234.094 57.6223 233.827 57.6223Z" fill="#FFD200"/>
<path d="M226.685 50.6654C226.685 50.6654 226.596 50.6654 226.507 50.6654C226.061 50.5762 225.883 50.1303 225.972 49.6844L230.164 33.8986C230.164 33.8986 230.699 33.2743 231.145 33.3635C231.591 33.4526 231.769 33.8986 231.68 34.3445L227.488 50.1303C227.488 50.1303 227.042 50.7546 226.775 50.7546L226.685 50.6654Z" fill="#FFD200"/>
<path d="M218.748 44.7817C218.748 44.7817 218.748 44.7817 218.659 44.7817C218.213 44.7817 217.946 44.3357 217.946 43.8898L220.086 27.6581C220.086 27.6581 220.532 26.9446 220.978 26.9446C221.424 26.9446 221.692 27.3905 221.692 27.8365L219.551 44.0682C219.551 44.0682 219.194 44.7817 218.748 44.7817Z" fill="#FFD200"/>
<path d="M210.1 39.8716C210.1 39.8716 209.297 39.5148 209.297 39.0689V22.748C209.297 22.748 209.743 21.9453 210.189 21.9453C210.189 21.9453 210.992 22.3021 210.992 22.748V39.0689C210.992 39.0689 210.546 39.8716 210.1 39.8716Z" fill="#FFD200"/>
<path d="M200.914 36.1332C200.914 36.1332 200.2 35.8657 200.111 35.4197L198.149 19.188C198.149 19.188 198.416 18.3853 198.862 18.2961C199.308 18.2961 199.665 18.5637 199.754 19.0096L201.716 35.2413C201.716 35.2413 201.449 36.044 201.003 36.1332C201.003 36.1332 201.003 36.1332 200.914 36.1332Z" fill="#FFD200"/>
<path d="M191.371 33.5467C191.371 33.5467 190.747 33.2791 190.657 32.9224L186.644 17.0474C186.644 17.0474 186.822 16.2447 187.179 16.0664C187.625 15.9772 187.982 16.2447 188.16 16.6014L192.174 32.4765C192.174 32.4765 191.995 33.2791 191.638 33.4575C191.638 33.4575 191.549 33.4575 191.46 33.4575L191.371 33.5467Z" fill="#FFD200"/>
<path d="M181.564 32.2048C181.564 32.2048 180.94 32.0265 180.851 31.6697L174.964 16.419C174.964 16.419 174.964 15.5272 175.41 15.438C175.767 15.2596 176.302 15.438 176.391 15.8839L182.278 31.1346C182.278 31.1346 182.278 32.0265 181.832 32.1156C181.742 32.1156 181.653 32.1156 181.564 32.1156V32.2048Z" fill="#FFD200"/>
<path d="M191.124 98.0363C191.124 98.0363 191.874 98.4602 192.246 98.6666C193.466 99.3429 194.639 100.098 195.849 100.793C198.175 102.105 200.493 103.433 202.8 104.777C203.811 105.359 204.849 105.909 205.837 106.527L175.437 123.879L149.719 109.339C148.132 108.419 144.94 106.593 144.94 106.593C144.94 106.593 148.453 104.596 150.205 103.593L159.641 98.101C159.694 99.7293 159.647 101.376 159.646 103.006C159.646 103.006 157.346 104.353 156.229 105.075C157.026 105.562 157.865 105.999 158.681 106.456L164.462 109.671L170.268 112.924C171.982 113.897 173.678 114.894 175.42 115.816C176.746 115.107 178.049 114.345 179.356 113.601C181.619 112.334 183.87 111.045 186.108 109.733C187.04 109.194 188.005 108.711 188.94 108.173C190.789 107.087 194.527 104.982 194.527 104.982L191.124 102.943V98.0363Z" fill="#FFD200"/>
<path d="M190.089 88.7375V92.0853L190.104 98.6596C190.105 100.271 190.13 103.494 190.13 103.494C185.828 105.787 177.268 110.659 177.268 110.659L177.311 95.9315L179 94.9679L182.671 92.8892C185.115 91.4888 187.626 90.1055 190.089 88.7375Z" fill="#FFD200"/>
<path d="M160.734 88.8477C160.734 88.8477 161.581 89.323 161.99 89.5506L164.363 90.8408L169.504 93.6894C170.831 94.4292 173.51 95.8808 173.51 95.8808L173.519 110.594L160.73 103.468C160.73 103.468 160.713 99.9796 160.716 98.238L160.734 88.8477Z" fill="#FFD200"/>
<path d="M144.433 110.479C144.433 110.479 145.403 111.004 145.873 111.269L148.726 112.892C151.605 114.527 154.494 116.144 157.392 117.746C157.343 119.576 157.375 121.418 157.38 123.25L157.374 131.503C156.148 130.788 154.895 130.116 153.654 129.428L147.875 126.201C146.731 125.557 144.441 124.254 144.441 124.254L144.433 110.479Z" fill="#FFD200"/>
<path d="M206.291 110.46C206.291 110.46 206.319 122.971 206.324 124.304C204.002 125.665 201.635 126.959 199.3 128.299C197.399 129.389 195.473 130.567 193.544 131.609L193.541 127.811L193.544 117.631C195.309 116.673 197.038 115.661 198.782 114.666L202.77 112.425C203.928 111.767 205.116 111.088 206.291 110.46Z" fill="#FFD200"/>
<path d="M189.625 120.085L189.656 133.783C188.499 134.396 187.386 135.116 186.248 135.768L177.263 140.851C177.286 136.229 177.282 131.607 177.25 126.985C177.25 126.985 178.832 126.116 179.614 125.679C180.805 125.013 181.977 124.308 183.165 123.633C184.588 122.806 186.02 121.994 187.459 121.195C188.156 120.804 188.911 120.443 189.625 120.085Z" fill="#FFD200"/>
<path d="M161.091 120.026C161.091 120.026 162.262 120.701 162.837 121.027L166.424 123.05L171.388 125.84C172.097 126.243 172.822 126.628 173.516 127.057L173.522 140.828C173.093 140.616 172.681 140.35 172.264 140.113C171.084 139.442 169.923 138.741 168.748 138.063L161.092 133.72L161.091 120.026Z" fill="#FFD200"/>
<path d="M175.307 79.3697C176.066 79.792 177.141 80.3687 177.892 80.8068L182.398 83.4142L185.329 85.1202C185.942 85.474 187.173 86.219 187.173 86.219C187.173 86.219 185.874 86.9529 185.231 87.3199C183.747 88.176 182.254 89.0164 180.752 89.841C179.606 90.4869 178.457 91.1255 177.303 91.7568C176.68 92.1053 176.062 92.4848 175.42 92.7967C174.009 91.9611 172.553 91.1972 171.122 90.3975L163.459 86.1085L165.162 85.1166L168.282 83.3421L172.433 80.9824C173.385 80.4391 174.333 79.8737 175.307 79.3697Z" fill="#FFD200"/>
</svg>
