<svg width="101" height="100" viewBox="0 0 101 100" fill="none" xmlns="http://www.w3.org/2000/svg">
<rect x="10.5" y="10" width="80" height="80" rx="10" fill="#404040" fill-opacity="0.6"/>
<g clip-path="url(#clip0_2508_7456)" filter="url(#filter0_f_2508_7456)">
<g clip-path="url(#clip1_2508_7456)">
<mask id="mask0_2508_7456" style="mask-type:luminance" maskUnits="userSpaceOnUse" x="34" y="34" width="33" height="32">
<path d="M66.75 34.1416H34.25V65.8585H66.75V34.1416Z" fill="white"/>
</mask>
<g mask="url(#mask0_2508_7456)">
<path d="M63.9568 58.6393C63.9363 58.6548 63.9157 58.6714 63.894 58.6862C63.8735 58.7019 63.852 58.7166 63.8305 58.7323C63.7904 58.7605 63.7491 58.7881 63.7071 58.8144C63.7023 58.8173 63.6972 58.8204 63.6924 58.8243C63.6581 58.8458 63.6238 58.8673 63.5888 58.8878C63.5369 58.9192 63.4859 58.9486 63.433 58.9779C63.0747 59.1775 62.6978 59.3381 62.3131 59.4801C61.9499 59.6132 61.5819 59.7298 61.2108 59.8334C60.6793 59.9824 60.1409 60.1055 59.5975 60.2132C59.0699 60.319 58.5404 60.4081 58.0088 60.4853C57.4773 60.5629 56.9438 60.6273 56.4093 60.6831C56.2341 60.7017 56.0588 60.7184 55.8836 60.735C55.5322 60.7674 55.1807 60.7947 54.8293 60.8183C54.6531 60.8299 54.4769 60.8408 54.3017 60.8507C53.9072 60.8731 53.5127 60.8898 53.1182 60.9024C53.0467 60.9045 52.9752 60.9074 52.9028 60.9094C52.8372 60.9113 52.7716 60.9132 52.7051 60.9152C52.8666 60.7155 53.0281 60.5167 53.1759 60.3064C53.1975 60.2799 53.219 60.2535 53.2396 60.226C53.5734 59.7776 53.8925 59.3195 54.1979 58.8525C54.2292 58.8506 54.2606 58.8496 54.2909 58.8477C54.4847 58.8368 54.6786 58.8243 54.8724 58.8115C55.0192 58.8016 55.1661 58.791 55.3129 58.7791C56.3398 58.6999 57.3628 58.5864 58.3808 58.4268C58.6776 58.3807 58.9721 58.3297 59.2658 58.2759C59.953 58.1486 60.6342 57.996 61.3059 57.8042C61.4537 57.7621 61.6005 57.718 61.7473 57.672C61.8208 57.6485 61.8942 57.625 61.9676 57.6006C62.0782 57.6201 62.1791 57.6661 62.2827 57.7043C62.3737 57.7376 62.4647 57.7728 62.556 57.8091C62.8134 57.9109 63.066 58.0234 63.3106 58.1537C63.4074 58.2047 63.5026 58.2585 63.5965 58.3153C63.7209 58.3906 63.8421 58.4698 63.9558 58.5608C63.9891 58.5874 63.9988 58.598 63.986 58.6137C63.9802 58.6217 63.9705 58.6294 63.9549 58.6412L63.9568 58.6393Z" fill="#F1ECE2"/>
<path d="M54.4396 63.3681C54.4191 63.3809 54.3965 63.3809 54.375 63.3732C54.3808 63.3691 54.3858 63.3672 54.3907 63.3652C54.3995 63.3623 54.4073 63.3623 54.4162 63.3623C54.424 63.3623 54.4328 63.3643 54.4406 63.3681H54.4396Z" fill="#5E93FF"/>
<path d="M54.3522 63.373C54.3258 63.3846 54.2994 63.3856 54.271 63.3779C54.2974 63.3622 54.3248 63.3641 54.3522 63.373Z" fill="#5E93FF"/>
<path d="M54.2487 63.3777C54.2223 63.3896 54.1959 63.3905 54.1675 63.3825C54.1939 63.3659 54.2203 63.3678 54.2487 63.3777Z" fill="#5E93FF"/>
<path d="M54.1447 63.3829C54.1183 63.3957 54.0919 63.3957 54.0645 63.3867C54.0645 63.3867 54.0664 63.3867 54.0674 63.3858C54.0929 63.3732 54.1193 63.3732 54.1447 63.3829Z" fill="#5E93FF"/>
<path d="M53.9864 63.3818C54.0041 63.378 54.0227 63.3799 54.0412 63.3869C54.0148 63.3994 53.9874 63.3994 53.96 63.3917C53.9688 63.3869 53.9776 63.3837 53.9864 63.3818Z" fill="#5E93FF"/>
<path d="M53.8956 63.3838C53.9093 63.3838 53.923 63.3867 53.9377 63.3908C53.9113 63.4024 53.8848 63.4034 53.8574 63.3947C53.8701 63.3867 53.8829 63.3838 53.8956 63.3828V63.3838Z" fill="#5E93FF"/>
<path d="M53.8141 63.3905C53.8209 63.3914 53.8268 63.3934 53.8327 63.3953C53.8072 63.4072 53.7798 63.4081 53.7524 63.4002C53.771 63.3886 53.7906 63.3866 53.8102 63.3905C53.8102 63.3905 53.8111 63.3905 53.8121 63.3905H53.8131H53.8141Z" fill="#5E93FF"/>
<path d="M53.7288 63.4007C53.6975 63.4145 53.6651 63.4135 53.6328 63.4045C53.6642 63.3901 53.6965 63.3911 53.7288 63.4007Z" fill="#5E93FF"/>
<path d="M53.6096 63.4042C53.5831 63.4177 53.5567 63.4158 53.5293 63.408C53.5547 63.3933 53.5822 63.3933 53.6096 63.4042Z" fill="#5E93FF"/>
<path d="M60.4776 57.1563C60.4902 57.1582 60.5049 57.1582 60.5187 57.1602C60.5363 57.1622 60.5539 57.1671 60.5677 57.1817C60.5315 57.1788 60.4962 57.171 60.4648 57.1533C60.4668 57.1533 60.4697 57.1533 60.4716 57.1543C60.4738 57.1543 60.4757 57.1543 60.4786 57.1553L60.4776 57.1563Z" fill="#5E93FF"/>
<path d="M45.5687 65.79C45.5716 65.7958 45.5745 65.8018 45.5765 65.8067L45.0303 65.8086C45.0332 65.8028 45.0361 65.7968 45.0391 65.791C45.0831 65.791 45.1272 65.791 45.1712 65.791C45.3034 65.791 45.4355 65.791 45.5677 65.791L45.5687 65.79Z" fill="#3180F4"/>
<path d="M61.9708 57.5995C61.8973 57.624 61.8249 57.6475 61.7505 57.671C61.6037 57.717 61.4569 57.761 61.3091 57.8031C60.6366 57.995 59.9562 58.1476 59.269 58.2749C58.9753 58.3297 58.6798 58.3797 58.384 58.4258C57.366 58.5852 56.343 58.6989 55.3161 58.7781C55.1693 58.7899 55.0225 58.8006 54.8756 58.8105C54.6818 58.8232 54.488 58.8358 54.2941 58.8467C54.2628 58.8486 54.2325 58.8496 54.2012 58.8515C54.4116 58.5294 54.6162 58.2034 54.814 57.8726C55.0998 57.3949 55.3729 56.9103 55.6323 56.4189C56.1277 56.462 56.622 56.5119 57.1164 56.5726C57.1526 56.5765 57.1888 56.5843 57.226 56.5902C57.4472 56.6059 57.6665 56.6392 57.8848 56.6715C58.1658 56.7126 58.4468 56.7576 58.7266 56.8046C59.1045 56.8682 59.4824 56.9387 59.8574 57.02C60.06 57.064 60.2616 57.1091 60.4642 57.1531C60.4966 57.1707 60.5309 57.1776 60.5671 57.1815C60.9998 57.2921 61.4313 57.4086 61.8553 57.5486C61.8944 57.5613 61.9396 57.5652 61.9698 57.5985L61.9708 57.5995Z" fill="#FDBF41"/>
<path d="M47.5762 60.7861C47.7504 60.7999 47.9257 60.8136 48.0999 60.8252C47.9247 60.8136 47.7504 60.7999 47.5762 60.7861Z" fill="#F1ECE2"/>
<path d="M41.9874 64.6876C41.9737 64.6876 41.962 64.6837 41.9531 64.6729H41.9561C41.9581 64.6729 41.96 64.6729 41.962 64.6729C41.9639 64.6729 41.9649 64.674 41.9669 64.674C41.9669 64.674 41.9698 64.674 41.9708 64.675C41.9727 64.675 41.9747 64.6769 41.9766 64.6779C41.9766 64.6779 41.9786 64.6779 41.9796 64.6789C41.9815 64.6808 41.9835 64.6828 41.9855 64.6847H41.9864L41.9874 64.6876Z" fill="#404A5A"/>
<path d="M41.9532 64.6727C41.9395 64.6727 41.9268 64.6698 41.9189 64.6572C41.9189 64.6572 41.9258 64.6572 41.9287 64.6572H41.9297C41.9385 64.6591 41.9464 64.663 41.9522 64.6717C41.9522 64.6717 41.9522 64.6717 41.9522 64.6727H41.9532Z" fill="#404A5A"/>
<path d="M41.9191 64.6573C41.9044 64.6573 41.8907 64.656 41.8848 64.6406V64.6396H41.8858C41.8995 64.6396 41.9122 64.6426 41.9191 64.6561V64.6573Z" fill="#404A5A"/>
<path d="M41.8849 64.6393V64.6413C41.8712 64.6413 41.8565 64.6432 41.8516 64.6246V64.6227C41.8663 64.6205 41.879 64.6236 41.8859 64.6393H41.8849Z" fill="#404A5A"/>
<path d="M41.7506 64.5537C41.7603 64.5605 41.7721 64.5656 41.7829 64.5704C41.7907 64.5743 41.7985 64.5772 41.8063 64.581C41.8201 64.588 41.8328 64.5967 41.8416 64.6095C41.8445 64.6134 41.8475 64.6192 41.8504 64.6252C41.8044 64.6213 41.7643 64.6028 41.729 64.5733L41.7506 64.5537Z" fill="#404A5A"/>
<path d="M44.8901 63.0786C44.852 63.0844 44.8138 63.0902 44.7766 63.096C44.6298 63.1158 44.4829 63.1274 44.3351 63.1312C44.2861 63.1322 44.2362 63.1334 44.1873 63.1322C44.1374 63.1322 44.0884 63.1303 44.0385 63.1283C44.0169 63.1274 43.9964 63.1245 43.9748 63.1225C43.9543 63.1206 43.9327 63.1177 43.9112 63.1158C43.8838 63.1136 43.8632 63.102 43.8427 63.0844C43.7839 63.0315 43.7281 62.9767 43.6733 62.9199C44.0786 62.9786 44.4839 63.0315 44.8901 63.0796V63.0786Z" fill="#F1ECE2"/>
<path d="M51.2669 56.2344C50.9752 56.2344 50.6835 56.2383 50.3918 56.2432C49.9062 56.996 49.3825 57.7223 48.8108 58.4124C48.6904 58.5573 48.569 58.7003 48.4447 58.8413C48.1315 59.1984 47.8044 59.5432 47.4618 59.8721C47.1613 60.1599 46.851 60.435 46.5269 60.6933C46.2744 60.8959 46.013 61.0889 45.7419 61.268C45.2426 61.5988 44.7189 61.8838 44.1551 62.0912C43.8693 62.196 43.5775 62.2812 43.276 62.331C43.2593 62.3339 43.2437 62.3409 43.2271 62.3457C43.2281 62.3505 43.23 62.3566 43.2309 62.3614C43.2319 62.3643 43.2329 62.3672 43.2349 62.3701C43.2564 62.4034 43.2779 62.4358 43.3005 62.4672C43.3455 62.5316 43.3925 62.5944 43.4405 62.655C43.5129 62.7461 43.5902 62.8342 43.6715 62.9185C44.0767 62.9771 44.482 63.03 44.8883 63.0781C44.997 63.0614 45.1046 63.0397 45.2113 63.0143C45.459 62.9557 45.6998 62.8784 45.9357 62.7874C46.0532 62.7412 46.1697 62.6922 46.2842 62.6393C46.3987 62.5865 46.5123 62.5307 46.6248 62.471C46.6738 62.4457 46.7218 62.4191 46.7708 62.3928C47.1075 62.2078 47.4305 62.0002 47.7398 61.777C48.0502 61.5527 48.3477 61.312 48.6365 61.0594C48.6776 61.0232 48.7188 60.987 48.7599 60.9498C48.7902 60.9225 48.8196 60.895 48.8509 60.8667C49.036 60.6972 49.218 60.5231 49.3952 60.3449C49.4638 60.2754 49.5313 60.2058 49.5988 60.1343C49.8211 59.9013 50.0374 59.6635 50.2479 59.4198C50.3741 59.274 50.4975 59.125 50.6189 58.9753C50.6336 58.9577 50.6482 58.9391 50.6629 58.9205C50.7461 58.8166 50.8283 58.7121 50.9105 58.6063C51.168 58.2733 51.4157 57.9338 51.6546 57.5872C51.7838 57.3993 51.91 57.2103 52.0343 57.0195C52.1038 56.9118 52.1724 56.8041 52.24 56.6964C52.333 56.5486 52.424 56.3988 52.5141 56.249C52.098 56.2393 51.6829 56.2344 51.2669 56.2344Z" fill="#F1ECE2"/>
<path d="M40.1617 63.8731C40.148 63.876 40.1373 63.8721 40.1323 63.8574C40.147 63.8545 40.1578 63.8574 40.1617 63.8731Z" fill="#C18B00"/>
<path d="M48.794 56.296C48.5855 56.3058 48.377 56.3176 48.1694 56.3303C47.9413 56.6533 47.7054 56.9715 47.4587 57.2818C47.2169 57.5872 46.9693 57.8868 46.7089 58.1775C46.5611 58.3419 46.4123 58.5054 46.2596 58.666C46.1519 58.7795 46.0422 58.8922 45.9297 59.0019C45.4823 59.4394 45.0134 59.8526 44.5092 60.2254C44.4251 60.287 44.3409 60.3478 44.2547 60.4075C43.9718 60.6043 43.6792 60.7863 43.3747 60.9498C43.1544 61.0693 42.9273 61.1748 42.6973 61.2719C42.6992 61.2825 42.6973 61.2944 42.7022 61.3052C42.7345 61.3943 42.7687 61.4813 42.806 61.5684C42.8422 61.6556 42.8813 61.7409 42.9224 61.8249C43.0047 61.9934 43.0967 62.1579 43.1965 62.3184L43.1985 62.3204C43.2053 62.33 43.2171 62.339 43.2259 62.3477C43.2426 62.3428 43.2582 62.3361 43.2748 62.3329C43.5754 62.2832 43.8671 62.198 44.1539 62.0932C44.7178 61.8867 45.2415 61.6008 45.7407 61.27C46.0119 61.0908 46.2733 60.8979 46.5258 60.6953C46.8499 60.436 47.1602 60.1609 47.4607 59.8741C47.8043 59.5452 48.1303 59.2006 48.4435 58.8432C48.5679 58.7022 48.6892 58.5593 48.8096 58.4144C49.3813 57.7243 49.9051 56.9979 50.3906 56.2451C49.8581 56.2549 49.3245 56.2706 48.793 56.297L48.794 56.296Z" fill="#FDBF41"/>
<path d="M59.3224 48.2598C59.3224 48.2598 59.3157 48.2588 59.3125 48.2588C59.3157 48.2588 59.3186 48.2588 59.3224 48.2598Z" fill="#E7AA24"/>
<path d="M59.2645 48.2823C59.2812 48.2823 59.2998 48.2823 59.2889 48.2559C59.2969 48.2559 59.3046 48.2578 59.3135 48.2588C59.3085 48.2588 59.3046 48.2598 59.3017 48.2618C59.2949 48.2667 59.2949 48.2774 59.2969 48.2901C59.286 48.2901 59.2754 48.2892 59.2645 48.2882C59.2587 48.2882 59.2517 48.2872 59.2459 48.2862C59.2331 48.2852 59.2194 48.2833 59.2068 48.2823C59.1774 48.2784 59.1469 48.2725 59.1187 48.2657C59.1687 48.2627 59.2165 48.2804 59.2655 48.2833L59.2645 48.2823Z" fill="#E7AA24"/>
<path d="M44.0768 58.373C44.0984 58.3769 44.1189 58.3798 44.1395 58.3837C43.7312 58.7782 43.3025 59.1484 42.8453 59.4869C42.6789 59.6103 42.5125 59.7337 42.3324 59.8385C42.2991 59.6946 42.2844 59.5478 42.2678 59.401C42.211 58.933 42.1894 58.4631 42.1885 57.9932C42.302 58.0206 42.4156 58.047 42.5301 58.0735C42.8639 58.1499 43.1987 58.2173 43.5345 58.2791C43.7156 58.3124 43.8967 58.3436 44.0778 58.374L44.0768 58.373Z" fill="#F1ECE2"/>
<path d="M45.9457 56.519C45.8977 56.5249 45.8488 56.5288 45.7998 56.5337C45.3182 57.1465 44.8042 57.7309 44.2463 58.2783C44.211 58.3133 44.1748 58.3476 44.1396 58.3818C44.1562 58.3847 44.1729 58.3879 44.1885 58.3908C44.1719 58.3879 44.1562 58.3847 44.1396 58.3828C43.7314 58.7774 43.3026 59.1473 42.8455 59.4861C42.679 59.6095 42.5126 59.7329 42.3325 59.8377C42.3345 59.8572 42.3354 59.8777 42.3374 59.8973C42.3374 59.9031 42.3374 59.9079 42.3394 59.914C42.3433 59.9364 42.3482 59.9589 42.3521 59.9813C42.355 60.0002 42.358 60.0176 42.3619 60.0364C42.3707 60.0813 42.3795 60.1274 42.3883 60.1733C42.4402 60.4317 42.5018 60.6872 42.5792 60.9388C42.6144 61.0515 42.6428 61.1669 42.6996 61.2727C42.9296 61.1756 43.1568 61.0701 43.377 60.9506C43.6814 60.7862 43.9741 60.6041 44.257 60.4083C44.3432 60.3496 44.4274 60.2887 44.5116 60.2262C45.0157 59.8541 45.4846 59.4402 45.932 59.0024C46.0446 58.8928 46.1532 58.7803 46.2619 58.6668C46.4146 58.5062 46.5634 58.3427 46.7112 58.1783C46.9706 57.8875 47.2192 57.588 47.461 57.2826C47.7067 56.9713 47.9437 56.6541 48.1717 56.3311C47.4297 56.3761 46.6887 56.4388 45.9486 56.521L45.9457 56.519Z" fill="#FF1100"/>
<path d="M44.1881 58.3917C44.1715 58.3888 44.1558 58.3857 44.1392 58.3838C44.1558 58.3869 44.1725 58.3898 44.1881 58.3917Z" fill="#F1ECE2"/>
<path d="M44.1393 58.3827C44.1188 58.3798 44.0973 58.376 44.0767 58.3721L44.1393 58.3818V58.3827Z" fill="#FF1100"/>
<path d="M43.5332 58.2783C43.7143 58.3114 43.8954 58.3428 44.0765 58.3732C43.8954 58.3428 43.7134 58.3114 43.5332 58.2783Z" fill="#FF1100"/>
<path d="M45.4816 56.5802C45.5863 56.5577 45.693 56.546 45.7997 56.5352C45.3181 57.148 44.8041 57.7324 44.2461 58.2797C44.2109 58.315 44.1747 58.349 44.1395 58.3833L44.0768 58.3737C43.8957 58.3432 43.7147 58.3118 43.5336 58.2788C43.1978 58.2169 42.862 58.1493 42.5292 58.0731C42.4156 58.0466 42.301 58.0202 42.1875 57.9928C42.1875 57.8156 42.1894 57.6374 42.1943 57.4593C42.1973 57.3536 42.2022 57.2488 42.208 57.1441C42.5947 57.052 42.9844 56.9708 43.375 56.8964C44.0426 56.7701 44.7141 56.6673 45.3876 56.5841C45.3984 56.5832 45.4091 56.5812 45.4199 56.5802C45.4326 56.5783 45.4453 56.5773 45.458 56.5783C45.4659 56.5783 45.4738 56.5802 45.4816 56.5822V56.5802Z" fill="#FDBF41"/>
<path d="M57.3896 48.0244C57.7792 48.0724 58.1698 48.1194 58.5594 48.1674C58.5575 48.1713 58.5546 48.1752 58.5508 48.1791C58.3088 48.1497 58.066 48.1214 57.8242 48.09C57.7538 48.0812 57.6833 48.0753 57.6129 48.0675C57.5424 48.0597 57.4719 48.0518 57.4024 48.0382C57.3985 48.0333 57.3945 48.0293 57.3896 48.0254V48.0244Z" fill="#007FFF"/>
<path d="M55.481 49.2357C55.4957 49.1809 55.5094 49.1241 55.5241 49.0693C55.5103 49.1251 55.4957 49.1809 55.481 49.2357Z" fill="#F1ECE2"/>
<path d="M66.6801 57.0653C66.6801 56.5289 66.6801 55.9934 66.6801 55.457C66.6458 55.3072 66.5989 55.1613 66.5156 55.0302C66.3816 54.8187 66.222 54.6298 66.0223 54.4751C65.8137 54.3136 65.6005 54.1619 65.3703 54.0327C65.054 53.8555 64.7251 53.7057 64.3953 53.5579C64.3366 53.5314 64.2758 53.5187 64.2171 53.4952C63.4712 53.2035 62.7038 52.9842 61.9265 52.7953C61.4291 52.6739 60.928 52.5702 60.4248 52.4762C59.86 52.3704 59.2921 52.2794 58.7234 52.2011C58.3308 52.1472 57.9384 52.0983 57.5448 52.0543C57.3696 52.0347 57.1944 52.0161 57.0191 51.9985C56.5238 51.9505 56.0275 51.9055 55.5312 51.8702C55.2385 51.8487 54.9448 51.8301 54.6521 51.8134C54.4035 51.7997 54.1539 51.787 53.9042 51.7753C53.5117 51.7576 53.1201 51.7439 52.7276 51.7351C52.6992 51.7351 52.6708 51.7332 52.6424 51.7332C52.0228 51.7195 51.4021 51.7155 50.7825 51.7214C50.7727 51.7214 50.7629 51.7214 50.7521 51.7214C50.1139 51.7273 49.4756 51.742 48.8383 51.7684C48.8002 51.7694 48.762 51.7723 48.7238 51.7733C47.9691 51.8056 47.2163 51.8526 46.4635 51.9162C45.3583 52.0092 44.257 52.1355 43.1616 52.3078C43.1352 52.3117 43.1097 52.3166 43.0833 52.3205C43.0412 52.4693 43.003 52.6201 42.9502 52.7659C42.913 52.9147 42.8758 53.0635 42.8376 53.2113C42.7368 53.6058 42.6457 54.0023 42.5664 54.4017C42.6222 54.3919 42.678 54.3831 42.7338 54.3733C42.8073 54.3606 42.8807 54.3488 42.9531 54.3361C43.0618 54.3185 43.1704 54.3009 43.2791 54.2833C43.6716 54.2225 44.0661 54.1677 44.4596 54.1178C44.8541 54.0679 45.2486 54.0238 45.6441 53.9847C45.9074 53.9583 46.1718 53.9338 46.4361 53.9113C46.8355 53.878 47.2358 53.8496 47.6362 53.8241C48.0131 53.8007 48.39 53.782 48.7669 53.7664C48.8638 53.7625 48.9607 53.7576 49.0576 53.7537C49.2015 53.7478 49.3464 53.7439 49.4903 53.739C49.5833 53.736 49.6763 53.7341 49.7703 53.7321C50.1099 53.7233 50.4496 53.7184 50.7893 53.7155C50.9176 53.7155 51.0448 53.7135 51.1731 53.7135C51.3923 53.7135 51.6116 53.7135 51.8299 53.7155C51.9092 53.7155 51.9885 53.7165 52.0678 53.7184C52.1529 53.7194 52.2381 53.7204 52.3233 53.7214C52.5553 53.7253 52.7863 53.7311 53.0183 53.738C53.2503 53.7449 53.4813 53.7537 53.7133 53.7625C53.7515 53.7634 53.7897 53.7664 53.8279 53.7674C54.0765 53.7781 54.3252 53.7909 54.5728 53.8036C54.7637 53.8143 54.9546 53.8261 55.1455 53.8378C55.4313 53.8564 55.7182 53.877 56.004 53.9005C56.2673 53.922 56.5307 53.9465 56.795 53.9729C56.8038 53.9729 56.8136 53.9749 56.8224 53.9759C57.0113 53.9945 57.2002 54.0131 57.3892 54.0327C57.6917 54.063 57.9941 54.0992 58.2967 54.1393C58.5981 54.1795 58.8997 54.2225 59.201 54.2676C59.3264 54.2862 59.4517 54.3058 59.5761 54.3253C59.9511 54.386 60.3248 54.4526 60.6969 54.526C60.9162 54.5691 61.1345 54.6141 61.3528 54.6611C61.5711 54.7081 61.7884 54.759 62.0057 54.8119C62.3356 54.8931 62.6635 54.9802 62.9875 55.0752C63.4202 55.2025 63.8491 55.3454 64.269 55.5128C64.3748 55.5539 64.4786 55.5979 64.5831 55.642C64.7418 55.7105 64.8975 55.7859 65.0521 55.8622C65.0902 55.8808 65.1284 55.8995 65.1668 55.919C65.196 55.9337 65.2264 55.9484 65.2559 55.9631C65.295 55.9827 65.3341 56.0022 65.3723 56.0238C65.4213 56.0502 65.4691 56.0786 65.5142 56.1099C65.6883 56.2303 65.8675 56.3439 66.0291 56.4809C66.0662 56.5132 66.1025 56.5455 66.1377 56.5798C66.18 56.615 66.2201 56.6532 66.2582 56.6914C66.3217 56.755 66.3806 56.8235 66.4323 56.895C66.4579 56.9302 66.4813 56.9665 66.5038 57.0037C66.5233 57.036 66.541 57.0683 66.5576 57.1016C66.5743 57.1348 66.59 57.1691 66.6038 57.2053C66.6185 57.2406 66.631 57.2768 66.6429 57.313C66.6506 57.3385 66.6595 57.3649 66.6673 57.3903C66.6673 57.3903 66.6673 57.3923 66.6682 57.3933V57.3903C66.689 57.2817 66.6762 57.172 66.6772 57.0624L66.6801 57.0653Z" fill="#F1ECE2"/>
<path d="M66.6866 55.2448C66.6878 54.8385 66.6878 54.4333 66.6866 54.027C66.6866 53.84 66.6846 53.6521 66.6837 53.4651C66.6516 53.3594 66.6289 53.2507 66.5811 53.1499C66.4586 52.8964 66.2756 52.6927 66.0641 52.5107C65.833 52.311 65.5775 52.1455 65.3092 51.9997C64.9207 51.7862 64.5175 51.6042 64.1014 51.4505C63.6197 51.2723 63.1312 51.1147 62.6359 50.9796C62.2571 50.8768 61.8763 50.7819 61.4945 50.6948C61.0589 50.5959 60.6214 50.5088 60.1819 50.4314C59.7255 50.3521 59.2675 50.2758 58.8084 50.2122C58.5911 50.1818 58.3728 50.1534 58.1545 50.126C57.667 50.0634 57.1785 50.0085 56.689 49.9655C56.598 49.9567 56.5079 49.9439 56.4169 49.9371C56.0468 49.9087 55.6768 49.8813 55.3078 49.8549C55.2549 49.8509 55.202 49.847 55.1492 49.8431C54.9025 49.8255 54.6558 49.8079 54.4091 49.7951C54.088 49.7795 53.7669 49.7677 53.4459 49.756C53.4429 49.756 53.44 49.756 53.437 49.756C53.1013 49.7442 52.7665 49.7315 52.4307 49.7256C52.1351 49.7207 51.8395 49.7178 51.5428 49.7168C51.4126 49.7168 51.2824 49.7158 51.1513 49.7158C50.6325 49.7158 50.1146 49.7237 49.5968 49.7384C49.5889 49.7384 49.5821 49.7384 49.5742 49.7384C48.9663 49.756 48.3574 49.7805 47.7505 49.8196C47.2836 49.849 46.8166 49.8754 46.3507 49.9146C46.1617 49.9302 45.9738 49.9537 45.7858 49.9723C45.129 50.0379 44.4741 50.1143 43.8211 50.2063C43.8133 50.2073 43.8065 50.2082 43.7986 50.2092C43.5372 50.8856 43.3023 51.5709 43.0958 52.2669C43.0909 52.2845 43.086 52.3012 43.0811 52.3188C43.1065 52.3149 43.1329 52.31 43.1594 52.3061C44.2548 52.1338 45.3561 52.0065 46.4613 51.9145C47.2141 51.8518 47.9669 51.8039 48.7216 51.7716C48.7598 51.7696 48.7979 51.7677 48.8361 51.7667C49.4734 51.7402 50.1117 51.7256 50.7499 51.7197C50.7597 51.7197 50.7705 51.7197 50.7803 51.7197C51.4009 51.7148 52.0206 51.7187 52.6402 51.7314C52.6686 51.7314 52.697 51.7334 52.7254 51.7334C53.1179 51.7422 53.5095 51.7559 53.902 51.7735C54.1516 51.7853 54.4003 51.798 54.6499 51.8117C54.9426 51.8283 55.2363 51.847 55.529 51.8685C56.0253 51.9047 56.5216 51.9488 57.0169 51.9967C57.1922 52.0143 57.3674 52.0329 57.5426 52.0525C57.9362 52.0966 58.3286 52.1455 58.7212 52.1994C59.2899 52.2777 59.8578 52.3687 60.4226 52.4744C60.9259 52.5684 61.4269 52.6722 61.9243 52.7936C62.7016 52.9825 63.469 53.2018 64.2149 53.4935C64.2736 53.517 64.3344 53.5297 64.3931 53.5561C64.723 53.7049 65.0518 53.8537 65.3682 54.0309C65.598 54.1601 65.8115 54.3119 66.0201 54.4734C66.2198 54.628 66.3794 54.817 66.5134 55.0284C66.5965 55.1596 66.6426 55.3055 66.6779 55.4552C66.6917 55.3848 66.6837 55.3133 66.6837 55.2428L66.6866 55.2448Z" fill="#FDBF41"/>
<path d="M55.1773 39.8992C55.4475 40.3211 55.6433 40.7773 55.7911 41.255C55.8371 41.4028 55.8782 41.5516 55.9154 41.7014C55.9771 41.951 56.0251 42.2045 56.0633 42.4591C56.074 42.5335 56.0848 42.6079 56.0946 42.6832C56.1132 42.833 56.1298 42.9828 56.1435 43.1326C56.1494 43.2079 56.1553 43.2823 56.1612 43.3577C56.1886 43.7669 56.2003 44.1761 56.1895 44.5862C56.1778 45.015 56.1523 45.4438 56.1093 45.8716C56.0662 46.2964 56.0075 46.7193 55.937 47.1393C55.8949 47.3918 55.8479 47.6434 55.797 47.893C55.3917 47.8607 54.9864 47.8333 54.5802 47.8137C54.3854 47.8049 54.1896 47.7942 53.9938 47.7844C54.126 47.2166 54.2376 46.6449 54.3247 46.0673C54.4206 45.4281 54.4892 44.7869 54.5146 44.1418C54.5351 43.5936 54.5322 43.0445 54.4882 42.4963C54.451 42.0391 54.3893 41.5868 54.2914 41.1385C54.1808 40.6344 54.0251 40.1449 53.802 39.678C53.7138 39.493 53.6101 39.3158 53.5063 39.1396C53.5915 39.1122 53.6806 39.1092 53.7677 39.1004C53.8137 39.0955 53.8597 39.0916 53.9047 39.0887C53.9439 39.0867 53.9831 39.0847 54.0222 39.0838C54.0858 39.0828 54.1495 39.0828 54.2131 39.0838C54.2571 39.0847 54.3022 39.0867 54.3462 39.0887C54.3805 39.0906 54.4148 39.0926 54.449 39.0955C54.4549 39.0955 54.4608 39.0965 54.4657 39.0975C54.4764 39.0994 54.4862 39.1024 54.496 39.1063C54.5058 39.1102 54.5146 39.1151 54.5234 39.121C54.5361 39.1288 54.5489 39.1396 54.5606 39.1503C54.591 39.1777 54.6203 39.2061 54.6487 39.2345C54.7065 39.2913 54.7623 39.351 54.8151 39.4117C54.9492 39.5634 55.0696 39.725 55.1803 39.8972L55.1773 39.8992Z" fill="#F1ECE2"/>
<path d="M54.2889 41.1377C54.3868 41.585 54.4484 42.0383 54.4856 42.4954C54.5307 43.0436 54.5336 43.5928 54.512 44.141C54.4876 44.7861 54.4191 45.4273 54.3221 46.0665C54.235 46.6441 54.1234 47.2167 53.9913 47.7835C53.8434 47.7767 53.6947 47.7689 53.5468 47.763C53.2081 47.7503 52.8704 47.7424 52.5317 47.7356C52.4054 47.7326 52.2791 47.7307 52.1538 47.7287C52.2772 47.2637 52.3858 46.7948 52.4788 46.323C52.5493 45.9696 52.61 45.6143 52.6639 45.2579C52.6991 45.0191 52.7304 44.7802 52.7578 44.5404C52.7862 44.2898 52.8088 44.0382 52.8244 43.7856C52.841 43.5164 52.8518 43.2463 52.8577 42.977C52.8645 42.6158 52.8528 42.2556 52.8264 41.8953C52.8087 41.6575 52.7862 41.4206 52.7559 41.1837C52.7148 40.8596 52.656 40.5395 52.5787 40.2224C52.517 39.9688 52.4465 39.7163 52.3526 39.4715C52.4172 39.4304 52.4916 39.4099 52.563 39.3834C52.7079 39.3296 52.8538 39.2826 53.0026 39.2415C53.1514 39.2014 53.3011 39.1671 53.4538 39.1416C53.4646 39.1397 53.4744 39.1367 53.4852 39.1367C53.492 39.1367 53.4979 39.1367 53.5038 39.1387C53.6075 39.3149 53.7113 39.4911 53.7994 39.6771C54.0226 40.1441 54.1782 40.6335 54.2889 41.1377Z" fill="#FDBF41"/>
<path d="M58.5444 40.3076C58.5444 40.3076 58.5405 40.3047 58.5405 40.3027C58.5405 40.3017 58.5405 40.3008 58.5405 40.2988L58.5453 40.3017L58.5434 40.3066L58.5444 40.3076Z" fill="#3180F4"/>
<path d="M66.6782 59.3233C66.6792 59.298 66.6811 59.2724 66.6811 59.247C66.6811 58.8281 66.682 58.4082 66.682 57.9891C66.682 57.808 66.6792 57.6269 66.6782 57.4458C66.6782 57.4351 66.683 57.4233 66.682 57.4125C66.6791 57.4057 66.6753 57.4008 66.6724 57.3949C66.6724 57.3949 66.6724 57.3959 66.6724 57.3969C66.6724 57.3959 66.6724 57.3949 66.6714 57.3939C66.6635 57.3675 66.6548 57.342 66.6468 57.3156C66.6352 57.2784 66.6214 57.2422 66.6077 57.2079C66.5939 57.1727 66.5782 57.1384 66.5618 57.1042C66.5451 57.0709 66.5265 57.0376 66.5079 57.0063C66.4853 56.9691 66.4618 56.9329 66.4365 56.8976C66.3846 56.8252 66.3268 56.7576 66.2621 56.694C66.224 56.6558 66.1839 56.6186 66.1416 56.5824C66.1064 56.5472 66.0702 56.5149 66.033 56.4836C65.8714 56.3465 65.6925 56.2329 65.5182 56.1125C65.472 56.0812 65.4242 56.0528 65.3762 56.0264C65.338 56.0058 65.2989 55.9853 65.2598 55.9657C65.2303 55.951 65.1999 55.9363 65.1707 55.9217C65.1325 55.9021 65.0944 55.8835 65.056 55.8649C64.9015 55.7885 64.7457 55.7131 64.5873 55.6446C64.4825 55.6006 64.3787 55.5565 64.2729 55.5154C63.852 55.349 63.4242 55.2051 62.9917 55.0778C62.6667 54.9819 62.3387 54.8948 62.0096 54.8145C61.7923 54.7616 61.575 54.7107 61.3567 54.6637C61.1384 54.6168 60.9201 54.5717 60.7009 54.5286C60.328 54.4552 59.954 54.3877 59.58 54.328C59.4546 54.3084 59.3305 54.2888 59.2052 54.2702C58.9036 54.2252 58.603 54.1821 58.3007 54.142C57.9991 54.1018 57.6966 54.0656 57.3931 54.0353C57.2042 54.0167 57.0153 53.9971 56.8264 53.9785C56.8175 53.9785 56.8077 53.9765 56.799 53.9756C56.5356 53.9491 56.2723 53.9247 56.008 53.9031C55.7221 53.8796 55.4353 53.86 55.1495 53.8405C54.9586 53.8277 54.7677 53.816 54.5768 53.8062C54.3281 53.7925 54.0795 53.7798 53.8318 53.77C53.7937 53.768 53.7555 53.7661 53.7173 53.7651C53.4853 53.7553 53.2543 53.7475 53.0223 53.7406C52.7903 53.7338 52.5592 53.7279 52.3272 53.724C52.2421 53.723 52.1569 53.722 52.0717 53.721C51.9925 53.7201 51.9132 53.7191 51.8339 53.7181C51.6146 53.7162 51.3953 53.7152 51.177 53.7162C51.0488 53.7162 50.9205 53.7171 50.7933 53.7181C50.4536 53.721 50.1139 53.7259 49.7742 53.7347C49.6812 53.7367 49.5882 53.7396 49.4943 53.7416C49.3504 53.7455 49.2055 53.7504 49.0616 53.7563C48.9647 53.7602 48.8677 53.7651 48.7708 53.769C48.394 53.7847 48.0171 53.8042 47.6402 53.8268C47.2398 53.8522 46.8394 53.8796 46.44 53.9139C46.1757 53.9364 45.9114 53.9609 45.6481 53.9873C45.2526 54.0265 44.8581 54.0705 44.4636 54.1204C44.0691 54.1704 43.6756 54.2252 43.283 54.2859C43.1744 54.3025 43.0657 54.3201 42.9571 54.3387C42.8836 54.3505 42.8112 54.3632 42.7378 54.3759C42.682 54.3857 42.6262 54.3945 42.5704 54.4043C42.6497 54.0049 42.7407 53.6085 42.8416 53.214C42.8797 53.0652 42.9169 52.9173 42.9541 52.7686C43.007 52.6227 43.0452 52.4719 43.0872 52.3231C43.0921 52.3055 43.097 52.2889 43.1019 52.2713C43.3085 51.5753 43.5434 50.889 43.8048 50.2136C43.9702 49.7848 44.1464 49.36 44.3334 48.939C44.4587 48.6571 44.5889 48.3761 44.723 48.0991C45.1665 47.1819 45.6589 46.2901 46.2051 45.4277C46.7151 44.6191 47.2702 43.8438 47.8781 43.1057C47.8908 43.091 47.9006 43.0734 47.9123 43.0577C48.0954 42.8482 48.2755 42.6368 48.4625 42.4302C49.0714 41.7557 49.7272 41.1312 50.4536 40.584C50.6327 40.4489 50.8177 40.3216 51.0008 40.1914C51.0175 40.1797 51.038 40.1777 51.0576 40.1767C51.0664 40.1503 51.0909 40.1386 51.1114 40.1258C51.4863 39.886 51.876 39.6726 52.2861 39.5003C52.3008 39.4944 52.3145 39.4866 52.3302 39.4817C52.3341 39.4807 52.339 39.4798 52.3439 39.4788C52.3488 39.4788 52.3537 39.4768 52.3586 39.4768C52.4232 39.4357 52.4976 39.4151 52.569 39.3887C52.7139 39.3349 52.8598 39.2879 53.0086 39.2468C53.1574 39.2066 53.3071 39.1724 53.4598 39.1469C53.4706 39.145 53.4804 39.142 53.4912 39.142C53.498 39.142 53.5039 39.142 53.5098 39.144C53.5949 39.1166 53.684 39.1136 53.7712 39.1048C53.8172 39.0999 53.8632 39.096 53.9082 39.0931C53.9473 39.0911 53.9865 39.0892 54.0257 39.0882C54.0893 39.0872 54.1529 39.0872 54.2166 39.0882C54.2606 39.0892 54.3056 39.0911 54.3497 39.0931C54.3839 39.095 54.4182 39.097 54.4525 39.0999C54.4583 39.0999 54.4642 39.1009 54.4691 39.1019C54.4799 39.1038 54.4897 39.1068 54.4995 39.1107C54.5092 39.1146 54.5181 39.1195 54.5269 39.1254C54.5396 39.1332 54.5523 39.144 54.5641 39.1547C54.5944 39.1822 54.6238 39.2105 54.6522 39.2389C54.7099 39.2957 54.7657 39.3554 54.8186 39.4161C54.9527 39.5678 55.0731 39.7294 55.1837 39.9017C55.4539 40.3236 55.6497 40.7798 55.7975 41.2575C55.8435 41.4053 55.8846 41.5541 55.9218 41.7039C55.9835 41.9535 56.0315 42.207 56.0696 42.4615C56.0804 42.5359 56.0912 42.6103 56.101 42.6857C56.1196 42.8355 56.1362 42.9853 56.1499 43.135C56.1558 43.2104 56.1617 43.2848 56.1675 43.3602C56.1949 43.7694 56.2067 44.1785 56.1959 44.5887C56.1842 45.0175 56.1587 45.4463 56.1157 45.874C56.0726 46.2989 56.0138 46.7218 55.9434 47.1417C55.9013 47.3943 55.8543 47.6459 55.8034 47.8955C55.869 47.9004 55.9346 47.9053 56.0001 47.9112C56.471 47.9503 56.9409 47.9973 57.4108 48.0404C57.4068 48.0355 57.4029 48.0316 57.398 48.0277C57.7876 48.0756 58.1782 48.1226 58.5677 48.1706C58.5658 48.1745 58.5629 48.1784 58.559 48.1823C58.5825 48.1853 58.6061 48.1892 58.6296 48.1921C58.7078 47.8064 58.7783 47.4207 58.8379 47.0321C58.8908 46.6836 58.9379 46.3341 58.9741 45.9837C59.0084 45.6557 59.0386 45.3278 59.0543 44.9979C59.0623 44.8393 59.071 44.6798 59.0809 44.5212C59.0818 44.5006 59.071 44.4732 59.1033 44.4644C59.1033 44.1688 59.1014 43.8721 59.1004 43.5765C59.0847 43.5697 59.0838 43.556 59.0818 43.5413C59.078 43.4816 59.071 43.4228 59.069 43.3631C59.0572 42.9334 59.0181 42.5066 58.9604 42.0817C58.8969 41.6109 58.8027 41.1469 58.6725 40.6897C58.6402 40.5752 58.6129 40.4596 58.5619 40.351L58.5513 40.3118C58.5513 40.3118 58.5472 40.3089 58.5472 40.3069C58.5472 40.3069 58.5472 40.305 58.5472 40.303C58.5443 40.2893 58.5424 40.2756 58.5376 40.2619C58.3485 39.7166 58.1019 39.1998 57.7622 38.7299C57.4352 38.2767 57.0407 37.8978 56.5542 37.6159C56.3721 37.5102 56.1744 37.4358 55.9874 37.3408C55.9708 37.332 55.9492 37.334 55.9297 37.3301C55.913 37.3085 55.8866 37.3026 55.8641 37.2919C55.4226 37.0961 54.9821 36.9003 54.5396 36.7065C54.4828 36.681 54.4309 36.6438 54.3673 36.636C54.3565 36.6321 54.3458 36.6291 54.335 36.6252C54.2596 36.6008 54.1823 36.5831 54.1099 36.5489C54.103 36.5469 54.0971 36.5449 54.0903 36.542C54.0873 36.541 54.0834 36.5401 54.0805 36.5391C54.0805 36.5391 54.0795 36.5391 54.0785 36.5391C54.0707 36.544 54.0658 36.5401 54.0609 36.5332C53.919 36.497 53.777 36.4696 53.6331 36.45C53.5294 36.4353 53.4256 36.4246 53.3208 36.4187C53.2856 36.4167 53.2513 36.4157 53.2161 36.4148C53.1114 36.4118 53.0076 36.4128 52.9038 36.4177C52.7658 36.4236 52.6288 36.4363 52.4917 36.4549C52.2528 36.4882 52.0159 36.5381 51.781 36.6027C51.7477 36.6125 51.7135 36.6213 51.6802 36.6321C51.2387 36.7633 50.8177 36.9405 50.4115 37.1499C50.2764 37.2194 50.1423 37.2929 50.0092 37.3702C49.8878 37.4397 49.7683 37.5112 49.6499 37.5865C49.6107 37.611 49.5716 37.6365 49.5324 37.6619C49.4933 37.6874 49.4541 37.7128 49.4159 37.7392C49.3386 37.7911 49.2623 37.844 49.1869 37.8988C49.1497 37.9262 49.1115 37.9536 49.0743 37.981C49.0743 37.984 49.0743 37.9859 49.0743 37.9889C49.0743 37.9908 49.0723 37.9928 49.0714 37.9947C49.0684 37.9977 49.0645 37.9987 49.0586 37.9987H49.0577V38.0035C49.0577 38.0075 49.0557 38.0094 49.0537 38.0104C49.0518 38.0114 49.0498 38.0114 49.0459 38.0104C49.0449 38.0104 49.043 38.0104 49.042 38.0084C48.8756 38.1249 48.7141 38.2463 48.5565 38.3726C48.486 38.4284 48.4165 38.4861 48.348 38.5439C48.3372 38.5527 48.3264 38.5625 48.3156 38.5713C48.2452 38.631 48.1747 38.6917 48.1052 38.7534C48.1052 38.7554 48.1052 38.7563 48.1052 38.7583C48.1052 38.7632 48.1032 38.7661 48.1003 38.7691C48.1003 38.7691 48.0983 38.77 48.0973 38.771C48.0954 38.772 48.0925 38.773 48.0895 38.773C48.0876 38.7769 48.0846 38.7808 48.0817 38.7838C48.0778 38.7877 48.0748 38.7916 48.0699 38.7945C48.0641 38.7984 48.0572 38.8023 48.0494 38.8033C48.0494 38.8121 48.0474 38.817 48.0435 38.819C48.0376 38.8229 48.0269 38.82 48.019 38.8209C47.9926 38.8483 47.9652 38.8758 47.9388 38.9022C47.9368 38.9041 47.9358 38.9061 47.9339 38.9071C47.9339 38.9081 47.9339 38.91 47.9339 38.911C47.9339 38.9149 47.9319 38.9169 47.9299 38.9198H47.929C47.929 38.9198 47.9231 38.9227 47.9172 38.9227C47.8937 38.9423 47.8683 38.96 47.8458 38.9805C47.8438 38.9825 47.8418 38.9834 47.8399 38.9854C47.7537 39.0667 47.6666 39.1479 47.5815 39.2311C47.5756 39.237 47.5697 39.2419 47.5648 39.2468C47.5384 39.2732 47.511 39.2977 47.4836 39.3231C47.415 39.3867 47.3446 39.4484 47.279 39.515C47.2437 39.5512 47.2075 39.5874 47.1723 39.6227C46.9687 39.8292 46.767 40.0377 46.5722 40.2531C46.3236 40.5282 46.0817 40.8082 45.8468 41.094C45.8135 41.1351 45.7793 41.1752 45.746 41.2164C45.7411 41.2222 45.7352 41.2291 45.7313 41.2359C45.7244 41.2457 45.7176 41.2555 45.7107 41.2663C45.7019 41.28 45.6931 41.2937 45.6843 41.3064C45.6775 41.3162 45.6706 41.325 45.6628 41.3348C45.6598 41.3377 45.6579 41.3407 45.6559 41.3426C45.6451 41.3544 45.6344 41.3651 45.6217 41.374C45.6217 41.3769 45.6207 41.3779 45.6197 41.3798C45.6197 41.3818 45.6197 41.3837 45.6177 41.3857C45.6177 41.3867 45.6158 41.3877 45.6148 41.3886C45.6128 41.3896 45.6099 41.3906 45.608 41.3916C45.6021 41.419 45.5796 41.4327 45.561 41.4503C45.56 41.4503 45.559 41.4523 45.558 41.4533C45.5522 41.4581 45.5482 41.464 45.5443 41.4699C45.5424 41.4728 45.5404 41.4758 45.5394 41.4797C45.5384 41.4836 45.5365 41.4865 45.5355 41.4904C45.5355 41.4924 45.5355 41.4934 45.5355 41.4953C45.5355 41.5002 45.5336 41.5032 45.5297 41.5061L45.5277 41.5071C45.5277 41.5071 45.5248 41.5071 45.5238 41.5071C45.5228 41.5071 45.5218 41.5071 45.5198 41.5071C45.4768 41.5609 45.4327 41.6148 45.3896 41.6686C45.3877 41.6715 45.3848 41.6745 45.3828 41.6774C45.3838 41.6843 45.3838 41.6901 45.3828 41.696C45.3828 41.7009 45.3799 41.7039 45.3779 41.7078C45.3779 41.7088 45.376 41.7117 45.376 41.7117C45.373 41.7146 45.3691 41.7185 45.3652 41.7205C45.3603 41.7234 45.3544 41.7254 45.3486 41.7274C45.3417 41.7352 45.3348 41.742 45.328 41.7499C45.3251 41.7528 45.3231 41.7557 45.3211 41.7577C45.3153 41.7636 45.3104 41.7704 45.3055 41.7763C45.1949 41.9251 45.0842 42.0749 44.9736 42.2237C44.9736 42.2285 44.9717 42.2315 44.9687 42.2344C44.9687 42.2344 44.9678 42.2354 44.9668 42.2364C44.9648 42.2383 44.9619 42.2393 44.9589 42.2393C44.8826 42.347 44.8043 42.4537 44.7289 42.5624C44.7142 42.5839 44.6995 42.6054 44.6848 42.627C44.5723 42.7924 44.4665 42.9628 44.353 43.1272C44.2962 43.2094 44.2424 43.2936 44.1885 43.3768C44.1337 43.46 44.0789 43.5432 44.0192 43.6245C43.9242 43.7547 43.843 43.8966 43.7598 44.0347C43.7235 44.0944 43.6873 44.1541 43.6521 44.2138C43.2498 44.8814 42.8592 45.5559 42.5263 46.2617C42.5068 46.3028 42.4843 46.341 42.4617 46.3801C42.4392 46.4183 42.4157 46.4575 42.3961 46.4966C42.2826 46.7247 42.172 46.9538 42.0643 47.1848C42.0242 47.271 41.985 47.3571 41.9449 47.4442C41.893 47.5568 41.8421 47.6704 41.7922 47.7839C41.7285 47.9278 41.6649 48.0727 41.6022 48.2185C41.5758 48.2792 41.5503 48.3409 41.5249 48.4026C41.4926 48.4789 41.4603 48.5553 41.429 48.6326C41.3174 48.9038 41.2097 49.1779 41.105 49.452C41.0746 49.5322 41.0443 49.6125 41.0149 49.6938C40.9434 49.8895 40.8739 50.0853 40.8044 50.2821C40.7878 50.3291 40.7711 50.3761 40.7545 50.4231C40.7418 50.4593 40.729 50.4965 40.7173 50.5337C40.685 50.6267 40.6546 50.7207 40.6253 50.8146C40.5891 50.9292 40.5538 51.0437 40.5186 51.1582C40.4931 51.2405 40.4677 51.3217 40.4413 51.4039C40.3815 51.587 40.312 51.7681 40.2885 51.9609C40.2876 51.9707 40.2758 51.9796 40.2699 51.9883C40.2406 52.0686 40.2229 52.1509 40.2034 52.2331C40.1936 52.2722 40.1818 52.3114 40.1701 52.3505C40.1583 52.3897 40.1466 52.4289 40.1358 52.468C40.0908 52.6364 40.0467 52.8057 40.0056 52.9751C39.9674 53.1278 39.9312 53.2825 39.896 53.4362C39.8568 53.6094 39.8196 53.7827 39.7834 53.956C39.7521 54.1077 39.7218 54.2604 39.6934 54.4131C39.6708 54.5345 39.6483 54.6549 39.6278 54.7763C39.6092 54.883 39.5925 54.9897 39.5749 55.0964C39.5534 55.2325 39.5328 55.3676 39.5142 55.5036C39.4976 55.626 39.4819 55.7474 39.4662 55.8698C39.4251 56.2055 39.3918 56.5413 39.3654 56.879C39.3586 56.9759 39.3517 57.0719 39.3468 57.1688C39.3409 57.2657 39.3361 57.3616 39.3321 57.4586C39.3243 57.6514 39.3184 57.8452 39.3126 58.0381C39.3116 58.0821 39.3116 58.1262 39.3106 58.1703C39.3106 58.1839 39.3106 58.1967 39.3106 58.2104C39.3096 58.4579 39.3194 58.7047 39.3272 58.9505C39.3272 58.9611 39.3292 58.973 39.3292 58.9836C39.3312 59.0278 39.3331 59.0717 39.3361 59.1159C39.3448 59.2941 39.3595 59.4721 39.3781 59.6503C39.3909 59.7708 39.4046 59.8922 39.4202 60.0125C39.4222 60.0301 39.4251 60.0468 39.4271 60.0644C39.4604 60.3093 39.4986 60.5529 39.5465 60.7946C39.6356 61.2469 39.7541 61.6914 39.9165 62.1232C39.9195 62.1299 39.9224 62.1377 39.9254 62.1456C40.0467 62.4646 40.1877 62.7751 40.361 63.0707C40.6458 63.5573 40.9934 63.988 41.4368 64.3314C41.4897 64.3727 41.5435 64.4118 41.5983 64.4509C41.6512 64.4872 41.708 64.5205 41.7628 64.5538C41.7726 64.5606 41.7843 64.5654 41.7951 64.5705C41.8029 64.5743 41.8107 64.5772 41.8186 64.5811C41.8323 64.5881 41.845 64.5968 41.8538 64.6096C41.8567 64.6134 41.8597 64.6192 41.8626 64.6253V64.6233C41.8773 64.6212 41.89 64.6243 41.8969 64.64H41.8979C41.9116 64.64 41.9243 64.6439 41.9312 64.6564C41.9351 64.6564 41.938 64.6564 41.9409 64.6574H41.9419C41.9507 64.6596 41.9586 64.6634 41.9644 64.6721V64.6731C41.9644 64.6731 41.9664 64.6731 41.9674 64.6731C41.9693 64.6731 41.9713 64.6731 41.9733 64.6731C41.9752 64.6731 41.9762 64.674 41.9791 64.674C41.9791 64.674 41.9821 64.6741 41.983 64.675C41.985 64.675 41.9869 64.6772 41.9889 64.6782C41.9889 64.6782 41.9909 64.6782 41.9918 64.6791C41.9938 64.6811 41.9958 64.683 41.9977 64.6849C41.9977 64.6849 41.9977 64.6849 41.9987 64.6849C42.0173 64.7045 42.0427 64.7093 42.0662 64.7202C42.5547 64.9365 43.0442 65.1529 43.5327 65.3692C43.7745 65.476 44.0143 65.5885 44.2698 65.659C44.5253 65.7295 44.7847 65.7773 45.05 65.7882C45.094 65.7882 45.1381 65.7882 45.1821 65.7882C45.3143 65.7882 45.4464 65.7882 45.5786 65.7882C45.7068 65.7843 45.8341 65.7677 45.9604 65.7481C46.4743 65.6706 46.9677 65.5189 47.4444 65.3144C48.3176 64.9394 49.1056 64.4275 49.8447 63.8352C50.0072 63.705 50.1658 63.571 50.3234 63.4348C50.8726 63.4447 51.4208 63.4476 51.9699 63.4416C52.4927 63.4358 53.0164 63.4271 53.5391 63.4063C53.5646 63.3918 53.592 63.3918 53.6194 63.4025C53.6273 63.4025 53.6351 63.4025 53.6429 63.4025C53.6742 63.3877 53.7065 63.3887 53.7388 63.3986H53.7623C53.7809 63.3868 53.8005 63.3848 53.8201 63.3887C53.8201 63.3887 53.8211 63.3887 53.8221 63.3887H53.823C53.8299 63.3909 53.8358 63.3928 53.8416 63.3947H53.8651C53.8779 63.3868 53.8906 63.3839 53.9033 63.3829C53.917 63.3829 53.9307 63.3858 53.9454 63.3899C53.9532 63.3899 53.9611 63.3899 53.9689 63.3899C53.9777 63.3848 53.9865 63.382 53.9953 63.38C54.0129 63.3762 54.0315 63.3781 54.0501 63.3848C54.058 63.3848 54.0648 63.3848 54.0726 63.3848C54.0726 63.3848 54.0746 63.3848 54.0756 63.3839C54.101 63.3713 54.1275 63.3713 54.1529 63.381C54.1608 63.381 54.1686 63.381 54.1754 63.381C54.2019 63.3643 54.2283 63.3663 54.2567 63.3762C54.2645 63.3762 54.2724 63.3762 54.2792 63.3762C54.3056 63.3605 54.333 63.3624 54.3605 63.3713C54.3683 63.3713 54.3761 63.3713 54.383 63.3713C54.3889 63.3672 54.3937 63.3653 54.3986 63.3634C54.4074 63.3605 54.4153 63.3605 54.4241 63.3605C54.4319 63.3605 54.4407 63.3624 54.4486 63.3663C54.568 63.3605 54.6864 63.3566 54.8059 63.3496C55.7202 63.2957 56.6315 63.2233 57.5419 63.1226C58.9241 62.9688 60.2976 62.7623 61.6544 62.453C62.5785 62.2425 63.4898 61.9899 64.371 61.6347C64.8437 61.4437 65.3028 61.2254 65.7278 60.9395C65.9832 60.7673 66.2201 60.5734 66.4099 60.3257C66.5294 60.1682 66.6263 59.9987 66.6635 59.8012C66.6782 59.7855 66.684 59.7669 66.6849 59.7474C66.6939 59.6054 66.6987 59.4644 66.6859 59.3224L66.6782 59.3233ZM54.4074 56.3289C54.1529 56.3132 53.8994 56.2995 53.6449 56.2887C53.8994 56.3005 54.1529 56.3142 54.4074 56.3289ZM48.762 60.9504C48.7209 60.9866 48.6798 61.0238 48.6387 61.06C48.3499 61.3135 48.0523 61.5533 47.742 61.7776C47.4317 62.0007 47.1096 62.2082 46.7729 62.3934C46.7249 62.4197 46.676 62.446 46.627 62.4716C46.5144 62.5303 46.4009 62.5861 46.2863 62.6399C46.1718 62.6928 46.0553 62.7418 45.9379 62.7877C45.7029 62.8797 45.4621 62.9562 45.2135 63.0149C45.1058 63.0403 44.9981 63.0618 44.8904 63.0784C44.8522 63.0845 44.8141 63.0903 44.7769 63.0961C44.63 63.1156 44.4832 63.1274 44.3354 63.1313C44.2864 63.1323 44.2365 63.1332 44.1875 63.1323C44.1376 63.1323 44.0887 63.1303 44.0388 63.1284C44.0172 63.1274 43.9967 63.1245 43.9751 63.1226C43.9546 63.1207 43.933 63.1178 43.9115 63.1156C43.8841 63.1137 43.8635 63.1021 43.843 63.0845C43.7842 63.0316 43.7284 62.9768 43.6736 62.92C43.5924 62.8357 43.515 62.7476 43.4426 62.6566C43.3946 62.596 43.3476 62.5332 43.3026 62.4687C43.2801 62.4364 43.2586 62.404 43.237 62.3716C43.2351 62.3687 43.2341 62.3659 43.2331 62.363C43.2321 62.3581 43.2302 62.3521 43.2292 62.3473C43.2204 62.3386 43.2086 62.3296 43.2018 62.32L43.1998 62.3178C43.099 62.1584 43.008 61.994 42.9257 61.8245C42.8846 61.7392 42.8455 61.6552 42.8092 61.568C42.772 61.4818 42.7378 61.3937 42.7055 61.3046C42.7016 61.294 42.7025 61.2831 42.7006 61.2715C42.6438 61.1658 42.6154 61.0501 42.5802 60.9376C42.5019 60.686 42.4402 60.4305 42.3893 60.1721C42.3805 60.126 42.3717 60.0811 42.3629 60.035C42.3589 60.0164 42.357 59.9987 42.3531 59.9801C42.3491 59.9577 42.3442 59.9352 42.3403 59.9128C42.3403 59.9067 42.3403 59.9019 42.3384 59.8961C42.3364 59.8766 42.3355 59.856 42.3335 59.8362C42.3002 59.6926 42.2855 59.5455 42.2689 59.3987C42.2121 58.931 42.1906 58.4611 42.1896 57.9911C42.1896 57.8139 42.1915 57.6357 42.1964 57.4576C42.1994 57.3518 42.2043 57.2471 42.2101 57.1423C42.5968 57.0504 42.9864 56.9691 43.377 56.8947C44.0446 56.7684 44.7162 56.6656 45.3896 56.5824C45.4004 56.5814 45.4112 56.5795 45.422 56.5785C45.4347 56.5765 45.4474 56.5756 45.4601 56.5765C45.468 56.5765 45.4758 56.5785 45.4836 56.5805C45.5884 56.5579 45.6951 56.5462 45.8018 56.5354C45.8507 56.5305 45.8997 56.5256 45.9476 56.5207C46.6877 56.4385 47.4287 56.3759 48.1708 56.3308C48.3793 56.3181 48.5878 56.3064 48.7953 56.2966C49.3278 56.2711 49.8604 56.2545 50.3929 56.2447C50.6846 56.2388 50.9763 56.2359 51.2681 56.2359C51.6841 56.2359 52.1001 56.2408 52.5152 56.2506C52.4251 56.4003 52.3341 56.5501 52.2411 56.6979C52.1735 56.8066 52.105 56.9143 52.0355 57.021C51.9112 57.2119 51.7849 57.4008 51.6557 57.5888C51.4169 57.9353 51.1692 58.2749 50.9117 58.6079C50.8305 58.7136 50.7483 58.8182 50.6641 58.922C50.6494 58.9406 50.6347 58.9592 50.62 58.9768C50.4986 59.1275 50.3753 59.2755 50.249 59.4214C50.0385 59.665 49.8222 59.9029 49.6 60.1359C49.5324 60.2064 49.4649 60.2769 49.3964 60.3464C49.2202 60.5244 49.0381 60.6987 48.8521 60.868C48.8217 60.8955 48.7914 60.9238 48.7611 60.9513L48.762 60.9504ZM49.7527 60.9033C49.9681 60.9103 50.1844 60.9161 50.3998 60.9199C50.1834 60.9161 49.9681 60.9103 49.7527 60.9033ZM63.9882 58.6108C63.9822 58.6185 63.9725 58.6265 63.9568 58.6381C63.9363 58.6538 63.9158 58.6704 63.8941 58.6851C63.8735 58.7008 63.852 58.7156 63.8305 58.731C63.7905 58.7595 63.7492 58.787 63.7072 58.8134C63.7023 58.8163 63.6973 58.8192 63.6924 58.8233C63.6581 58.8448 63.6238 58.8662 63.5886 58.8868C63.5369 58.9182 63.486 58.9474 63.4331 58.9768C63.0747 59.1765 62.6978 59.3371 62.3132 59.4791C61.95 59.6121 61.582 59.7288 61.2108 59.8324C60.6794 59.9811 60.1409 60.1045 59.5976 60.2122C59.07 60.318 58.5404 60.4071 58.0089 60.4843C57.4773 60.5616 56.9438 60.6263 56.4093 60.6821C56.2341 60.7007 56.0589 60.7173 55.8837 60.734C55.5322 60.7664 55.1808 60.7936 54.8294 60.8173C54.6532 60.8289 54.4769 60.8398 54.3017 60.8494C53.9072 60.8721 53.5127 60.8888 53.1182 60.9013C53.0467 60.9033 52.9753 60.9064 52.9029 60.9083C52.8373 60.9103 52.7717 60.9122 52.7051 60.9141C52.8666 60.7144 53.0281 60.5157 53.176 60.3052C53.1975 60.2788 53.219 60.2523 53.2396 60.225C53.5558 59.799 53.8593 59.3654 54.151 58.924C54.1666 58.8996 54.2479 58.7762 54.2723 58.738C54.4574 58.4531 54.6365 58.1653 54.8117 57.8736C55.0976 57.3959 55.3707 56.9113 55.6301 56.4199C56.1254 56.463 56.6198 56.5129 57.1141 56.5736C57.1504 56.5775 57.1866 56.5854 57.2238 56.5912C57.445 56.6069 57.6643 56.6402 57.8826 56.6725C58.1636 56.7136 58.4446 56.7586 58.7244 56.8056C59.1023 56.8692 59.4802 56.9397 59.855 57.021C60.0578 57.065 60.2595 57.11 60.4621 57.1541C60.464 57.1541 60.4669 57.1541 60.4688 57.1551C60.4707 57.1551 60.4729 57.1551 60.4758 57.1561C60.4884 57.158 60.5031 57.158 60.5169 57.16C60.5345 57.1619 60.5521 57.1668 60.5659 57.1815C60.9986 57.2921 61.4301 57.4086 61.8541 57.5486C61.8932 57.5613 61.9382 57.5653 61.9686 57.5985C62.0792 57.6181 62.1801 57.6641 62.2837 57.7023C62.375 57.7356 62.466 57.7708 62.5561 57.807C62.8135 57.9088 63.0661 58.0214 63.3107 58.1517C63.4075 58.2024 63.5026 58.2563 63.5966 58.313C63.7209 58.3886 63.8421 58.4678 63.9559 58.5589C63.9892 58.5852 63.9988 58.596 63.986 58.6117L63.9882 58.6108Z" fill="#007FFF"/>
<path d="M66.6868 51.5554C66.6752 51.3214 66.5861 51.1149 66.4499 50.9269C66.2581 50.6597 66.0104 50.4512 65.7421 50.2671C65.285 49.9539 64.7847 49.7238 64.2728 49.5182C63.9879 49.4037 63.6993 49.3019 63.4074 49.2079C62.9631 49.065 62.5118 48.9427 62.0585 48.8311C61.4918 48.6921 60.9219 48.5716 60.3484 48.4669C59.9988 48.4033 59.6484 48.3416 59.2971 48.2907C59.2862 48.2907 59.2754 48.2897 59.2647 48.2887C59.2589 48.2887 59.2519 48.2877 59.2461 48.2868C59.2333 48.2858 59.2196 48.2838 59.207 48.2829C59.1776 48.279 59.1471 48.2731 59.1189 48.2662C59.0141 48.2496 58.9103 48.2329 58.8057 48.2153C58.7448 48.2065 58.6842 48.1977 58.6236 48.1899C58.6 48.1859 58.5765 48.183 58.5531 48.1801C58.3112 48.1507 58.0685 48.1223 57.8267 48.091C57.7562 48.0822 57.6857 48.0763 57.6152 48.0685C57.5447 48.0616 57.4743 48.0528 57.4048 48.0391C56.9349 47.9951 56.465 47.9481 55.9941 47.9099C55.9285 47.905 55.863 47.8991 55.7974 47.8942C55.3921 47.8619 54.9868 47.8345 54.5806 47.815C54.3858 47.8061 54.19 47.7954 53.9942 47.7856C53.8464 47.7787 53.6976 47.7709 53.5498 47.765C53.2111 47.7523 52.8733 47.7445 52.5346 47.7376C52.4084 47.7347 52.2821 47.7327 52.1568 47.7308C52.1568 47.7308 52.3888 46.7969 52.4818 46.325C52.5523 45.9717 52.613 45.6163 52.6668 45.26C52.702 45.0211 52.7334 44.7822 52.7608 44.5424C52.7892 44.2918 52.8117 44.0402 52.8273 43.7877C52.844 43.5185 52.8547 43.2483 52.8606 42.9791C52.8675 42.6179 52.8557 42.2576 52.8293 41.8974C52.8117 41.6595 52.7892 41.4226 52.7588 41.1857C52.7177 40.8617 52.659 40.5416 52.5816 40.2244C52.52 39.9709 52.4495 39.7183 52.3555 39.4736C52.3506 39.4736 52.3457 39.4736 52.3408 39.4756C52.3359 39.4756 52.331 39.4775 52.3271 39.4785C52.3114 39.4834 52.2978 39.4912 52.2831 39.4971C51.8719 39.6694 51.4833 39.8838 51.1084 40.1226C51.0868 40.1363 51.0633 40.1471 51.0545 40.1735C51.1446 40.7423 51.1867 41.314 51.1916 41.8896C51.1994 42.7128 51.1387 43.5312 51.0261 44.3466C50.941 44.9604 50.8284 45.5693 50.6913 46.1743C50.5729 46.699 50.4358 47.2188 50.2831 47.7337C49.9141 47.7376 49.544 47.7493 49.175 47.7611C48.6836 47.7777 48.1922 47.8003 47.7017 47.8316C47.269 47.859 46.8354 47.8874 46.4027 47.9246C45.8408 47.9735 45.2799 48.0283 44.7209 48.0969C44.5868 48.3749 44.4566 48.6549 44.3313 48.9368C44.1443 49.3577 43.9681 49.7826 43.8027 50.2113C43.8105 50.2103 43.8174 50.2094 43.8252 50.2084C44.4782 50.1164 45.134 50.04 45.7899 49.9744C45.9779 49.9558 46.1658 49.9333 46.3547 49.9167C46.8207 49.8775 47.2876 49.8511 47.7546 49.8217C48.3615 49.7826 48.9694 49.7581 49.5783 49.7405C49.5862 49.7405 49.593 49.7405 49.6008 49.7405C50.1187 49.7258 50.6365 49.7189 51.1553 49.718C51.2855 49.718 51.4157 49.718 51.5469 49.7189C51.8426 49.7199 52.1392 49.7228 52.4348 49.7277C52.7706 49.7336 53.1053 49.7463 53.4411 49.7581C53.4441 49.7581 53.447 49.7581 53.4499 49.7581C53.771 49.7698 54.0921 49.7816 54.4132 49.7972C54.6599 49.809 54.9066 49.8266 55.1532 49.8452C55.2061 49.8491 55.259 49.853 55.3118 49.857C55.6819 49.8834 56.0509 49.9108 56.421 49.9392C56.512 49.946 56.6021 49.9588 56.6931 49.9676C57.1825 50.0107 57.671 50.0655 58.1585 50.1281C58.3768 50.1555 58.5942 50.1849 58.8125 50.2143C59.2715 50.2779 59.7298 50.3543 60.1859 50.4335C60.6254 50.5109 61.0639 50.598 61.4986 50.6969C61.8813 50.784 62.2621 50.8789 62.64 50.9817C63.1364 51.1168 63.6237 51.2744 64.1055 51.4526C64.5215 51.6073 64.9238 51.7894 65.3135 52.0018C65.5816 52.1486 65.8361 52.3131 66.0681 52.5128C66.2787 52.6939 66.4627 52.8975 66.5851 53.152C66.6339 53.2528 66.6566 53.3615 66.6877 53.4672C66.6889 53.2567 66.6909 53.0463 66.6918 52.8358C66.6918 52.5235 66.6918 52.2103 66.6918 51.898C66.6918 51.7845 66.6957 51.6699 66.6899 51.5574L66.6868 51.5554Z" fill="#FF1100"/>
<path d="M54.3296 36.6223C54.2542 36.5979 54.1769 36.5803 54.1045 36.546C54.1045 36.5362 54.1055 36.5264 54.1064 36.5166C54.1965 36.544 54.2817 36.5822 54.361 36.6331C54.3502 36.6292 54.3394 36.6263 54.3286 36.6223H54.3296Z" fill="#404A5A"/>
<path d="M54.0665 36.5304C54.0665 36.5304 54.0733 36.5334 54.0752 36.5363C54.0752 36.5363 54.0743 36.5363 54.0733 36.5363C54.0655 36.5412 54.0606 36.5373 54.0557 36.5304C54.0596 36.5295 54.0625 36.5285 54.0665 36.5304Z" fill="#404A5A"/>
<path d="M44.9658 42.2246C44.9658 42.2246 44.9639 42.2325 44.9609 42.2354C44.9609 42.2354 44.96 42.2364 44.959 42.2374C44.957 42.2393 44.9541 42.2403 44.9512 42.2403C44.9512 42.2393 44.9512 42.2374 44.9512 42.2374V42.2344C44.9512 42.2344 44.957 42.2286 44.96 42.2266C44.9619 42.2266 44.9639 42.2246 44.9658 42.2246Z" fill="#404A5A"/>
<path d="M45.3687 41.7101C45.3687 41.7101 45.3619 41.7169 45.358 41.7189C45.3531 41.7218 45.3482 41.7238 45.3413 41.7257C45.3413 41.7218 45.3413 41.7189 45.3413 41.716C45.3413 41.713 45.3413 41.7101 45.3423 41.7081C45.3443 41.7032 45.3462 41.6983 45.3492 41.6944C45.3521 41.6905 45.357 41.6876 45.3609 41.6836C45.3658 41.6807 45.3707 41.6778 45.3756 41.6748C45.3766 41.6817 45.3766 41.6876 45.3756 41.6934C45.3756 41.6983 45.3727 41.7013 45.3707 41.7052C45.3707 41.7062 45.3687 41.7091 45.3687 41.7091V41.7101Z" fill="#404A5A"/>
<path d="M45.5224 41.5039L45.5205 41.5049H45.5166C45.5156 41.5049 45.5146 41.5049 45.5127 41.5049C45.5175 41.499 45.5225 41.4922 45.5274 41.4863C45.5274 41.4883 45.5274 41.4892 45.5274 41.4912C45.5274 41.4961 45.5254 41.499 45.5215 41.502L45.5224 41.5039Z" fill="#215CB5"/>
<path d="M45.6016 41.3838C45.6016 41.3789 45.6055 41.375 45.6094 41.373C45.6114 41.373 45.6133 41.372 45.6153 41.3711C45.6153 41.374 45.6143 41.375 45.6133 41.3769C45.6133 41.3789 45.6133 41.3808 45.6114 41.3828C45.6114 41.3828 45.6094 41.3848 45.6084 41.3857C45.6065 41.3867 45.6035 41.3877 45.6016 41.3887C45.6016 41.3867 45.6016 41.3858 45.6016 41.3838Z" fill="#215CB5"/>
<path d="M52.5513 35.8381C52.5698 35.8302 52.5816 35.8381 52.5924 35.8528C52.5757 35.8567 52.5581 35.8606 52.5513 35.8391V35.8381Z" fill="#FEC35E"/>
<path d="M52.5503 35.8379H52.5522L52.5503 35.8398V35.8379Z" fill="#FDBF41"/>
<path d="M47.9121 38.919C47.918 38.9141 47.9229 38.9092 47.9288 38.9033C47.9288 38.9043 47.9288 38.9063 47.9288 38.9073C47.9288 38.9112 47.9268 38.9131 47.9249 38.9161H47.9239C47.9239 38.9161 47.918 38.919 47.9121 38.919Z" fill="#404A5A"/>
<path d="M48.0264 38.8028C48.0313 38.7998 48.0372 38.7979 48.044 38.7979C48.044 38.8067 48.0421 38.8116 48.0382 38.8135C48.0323 38.8175 48.0215 38.8145 48.0137 38.8155C48.0176 38.8096 48.0215 38.8057 48.0264 38.8028Z" fill="#404A5A"/>
<path d="M48.1001 38.754C48.1001 38.754 48.0981 38.7617 48.0952 38.7647C48.0952 38.7647 48.0933 38.7656 48.0923 38.7666C48.0903 38.7676 48.0874 38.7686 48.0845 38.7686C48.0893 38.7628 48.0952 38.7559 48.1001 38.75C48.1001 38.752 48.1001 38.7529 48.1001 38.7549V38.754Z" fill="#404A5A"/>
<path d="M49.0703 37.9854C49.0703 37.9854 49.0684 37.9893 49.0674 37.9913C49.0644 37.9942 49.0605 37.9952 49.0547 37.9952C49.0595 37.9893 49.0654 37.9844 49.0713 37.9785C49.0713 37.9815 49.0713 37.9834 49.0713 37.9864L49.0703 37.9854Z" fill="#404A5A"/>
<path d="M49.0523 37.9951C49.0523 37.9951 49.0523 37.9981 49.0523 37.9991C49.0523 38.003 49.0503 38.0049 49.0484 38.0059C49.0464 38.0069 49.0445 38.0069 49.0406 38.0059C49.0396 38.0059 49.0376 38.0059 49.0366 38.004C49.0425 38.001 49.0474 37.9981 49.0533 37.9951H49.0523Z" fill="#404A5A"/>
<path d="M54.0997 36.5119C53.6161 36.2965 53.1315 36.0821 52.648 35.8658C52.6284 35.857 52.6088 35.8638 52.5912 35.8531C52.5745 35.857 52.5569 35.8609 52.5501 35.8394C52.5305 35.8482 52.5119 35.8394 52.4933 35.8325C52.0694 35.7052 51.6357 35.6661 51.1943 35.6886C50.6098 35.719 50.0499 35.8619 49.5056 36.0723C49.3343 36.1379 49.166 36.2104 49.0015 36.2877C48.9604 36.3073 48.9192 36.3269 48.8781 36.3474C48.8302 36.3709 48.7822 36.3944 48.7352 36.4199C48.6716 36.4522 48.6089 36.4854 48.5453 36.5197C48.2154 36.6998 47.8953 36.9005 47.585 37.1159C47.5204 37.1609 47.4558 37.2059 47.3921 37.2519L47.354 37.2793C47.2013 37.3909 47.0515 37.5045 46.9046 37.622C46.5366 37.9147 46.1832 38.2259 45.8415 38.5519C44.893 39.4574 44.0501 40.4569 43.2788 41.5161C43.2592 41.5435 43.2396 41.5719 43.22 41.5993C43.22 41.5993 43.2181 41.6061 43.2161 41.6081C43.2141 41.6101 43.2112 41.6111 43.2073 41.612C43.1378 41.7109 43.0693 41.8088 42.9998 41.9077C42.8842 42.0721 42.7707 42.2366 42.6591 42.404C42.5534 42.5626 42.4486 42.7231 42.3458 42.8836C42.2636 43.0109 42.1834 43.1391 42.1041 43.2684C42.0336 43.3839 41.9631 43.4984 41.8936 43.6139C41.7957 43.7774 41.6988 43.9418 41.6028 44.1082C41.5549 44.1915 41.5079 44.2737 41.4609 44.3579C41.456 44.3677 41.4492 44.3765 41.4433 44.3863C41.4433 44.397 41.4394 44.4058 41.4355 44.4146C41.4315 44.4205 41.4276 44.4274 41.4247 44.4333C41.3806 44.5116 41.3376 44.5909 41.2945 44.6701C41.132 44.9668 40.9734 45.2663 40.8207 45.5678C40.7561 45.6951 40.6925 45.8233 40.6298 45.9515C40.2911 46.6446 39.9769 47.3485 39.6881 48.0621C39.5344 48.4409 39.3885 48.8227 39.2495 49.2064C39.1761 49.4101 39.1037 49.6147 39.0342 49.8202C38.9059 50.2 38.7884 50.5828 38.6739 50.9665C38.6269 51.1241 38.5809 51.2827 38.5369 51.4413C38.5359 51.4453 38.5349 51.4492 38.5339 51.4531C38.4644 51.7017 38.3998 51.9513 38.3391 52.2019C38.2833 52.4271 38.2295 52.6532 38.1796 52.8803C38.1365 53.0741 38.0973 53.269 38.0582 53.4638C38.0494 53.5098 38.0406 53.5558 38.0318 53.6028C38.0278 53.6214 38.0249 53.64 38.021 53.6586C38.02 53.6654 38.018 53.6723 38.0171 53.6801C38.0102 53.7173 38.0024 53.7535 37.9955 53.7907C37.9397 54.0952 37.8898 54.4006 37.8467 54.708C37.8047 55.0046 37.7674 55.3002 37.7361 55.5978C37.7293 55.6644 37.7234 55.7309 37.7165 55.7975C37.7165 55.8024 37.7156 55.8073 37.7156 55.8122C37.7107 55.8631 37.7077 55.8993 37.7038 55.9355C37.6901 56.101 37.6784 56.2674 37.6686 56.4328C37.6588 56.5992 37.651 56.7657 37.6461 56.9321C37.6461 56.9536 37.6461 56.9751 37.6441 56.9967C37.6343 57.3168 37.6324 57.6359 37.6421 57.955C37.6519 58.2564 37.6686 58.5571 37.697 58.8577C37.7244 59.1571 37.7625 59.4558 37.8144 59.7543C37.8399 59.9001 37.8673 60.045 37.8986 60.1889C38.0024 60.6745 38.1424 61.1502 38.3342 61.6104C38.3479 61.6425 38.3607 61.6739 38.3754 61.7063C38.3891 61.7377 38.4037 61.7698 38.4175 61.8012C38.4507 61.8756 38.486 61.949 38.5222 62.0214C38.5829 62.1429 38.6475 62.2612 38.716 62.3769C38.904 62.6939 39.1252 62.9887 39.3876 63.2548C39.4561 63.3253 39.5275 63.392 39.601 63.4555C39.739 63.576 39.8858 63.6866 40.0424 63.7856C40.0718 63.8042 40.1061 63.8148 40.1276 63.8433C40.1306 63.8472 40.1335 63.852 40.1355 63.8568C40.1501 63.8539 40.1609 63.8568 40.1648 63.8725C40.2255 63.8872 40.2744 63.9283 40.3302 63.9529C40.6278 64.085 40.9245 64.2171 41.222 64.3494C41.3914 64.4247 41.5617 64.4982 41.7321 64.5725L41.7536 64.553C41.6988 64.5187 41.642 64.4863 41.5891 64.4501C41.5333 64.412 41.4805 64.3719 41.4276 64.3308C40.9842 63.9862 40.6366 63.5564 40.3518 63.0699C40.1785 62.7743 40.0376 62.464 39.9162 62.1448C39.9132 62.1371 39.9103 62.1301 39.9074 62.1223C39.7449 61.6906 39.6264 61.2461 39.5373 60.7938C39.4894 60.5521 39.4512 60.3084 39.4179 60.0636C39.416 60.046 39.413 60.0293 39.411 60.0117C39.3954 59.8914 39.3817 59.77 39.369 59.6495C39.3503 59.4715 39.3367 59.2943 39.3269 59.1151C39.3249 59.0709 39.322 59.027 39.32 58.983C39.32 58.9721 39.319 58.9603 39.3181 58.9497C39.3092 58.7029 39.3004 58.4561 39.3014 58.2096C39.3014 58.1958 39.3014 58.1821 39.3014 58.1695C39.3014 58.1254 39.3014 58.0813 39.3034 58.0373C39.3092 57.8434 39.3151 57.6506 39.3229 57.4577C39.3269 57.3608 39.3318 57.2649 39.3376 57.168C39.3435 57.0711 39.3494 56.9751 39.3562 56.8782C39.3817 56.5405 39.416 56.2047 39.457 55.869C39.4717 55.7466 39.4874 55.6252 39.505 55.5028C39.5236 55.3668 39.5442 55.2307 39.5657 55.0956C39.5824 54.9889 39.6 54.8822 39.6186 54.7755C39.6391 54.6541 39.6616 54.5337 39.6842 54.4123C39.7125 54.2596 39.7429 54.1079 39.7742 53.9552C39.8104 53.7819 39.8476 53.6077 39.8868 53.4354C39.922 53.2817 39.9583 53.128 39.9964 52.9743C40.0385 52.805 40.0816 52.6356 40.1266 52.4672C40.1374 52.4281 40.1491 52.3889 40.1609 52.3498C40.1726 52.3106 40.1844 52.2714 40.1942 52.2323C40.2147 52.15 40.2314 52.0678 40.2608 51.9876C40.2676 51.9788 40.2784 51.9699 40.2793 51.9602C40.3028 51.7663 40.3723 51.5852 40.4321 51.4031C40.4585 51.3219 40.4839 51.2397 40.5094 51.1574C40.5446 51.0429 40.5799 50.9284 40.6161 50.8138C40.6455 50.7199 40.6758 50.6259 40.7081 50.5329C40.7208 50.4967 40.7326 50.4595 40.7453 50.4223C40.7619 50.3753 40.7786 50.3283 40.7952 50.2813C40.8657 50.0855 40.9342 49.8888 41.0057 49.693C41.0351 49.6127 41.0654 49.5315 41.0958 49.4512C41.2005 49.1761 41.3082 48.903 41.4198 48.6318C41.4511 48.5545 41.4834 48.4781 41.5157 48.4018C41.5422 48.3401 41.5676 48.2794 41.5931 48.2178C41.6557 48.0729 41.7193 47.928 41.783 47.7831C41.8329 47.6695 41.8838 47.557 41.9357 47.4434C41.9748 47.3563 42.015 47.2711 42.0551 47.184C42.1628 46.953 42.2724 46.7239 42.387 46.4958C42.4065 46.4557 42.43 46.4175 42.4525 46.3793C42.4751 46.3412 42.4976 46.302 42.5172 46.2609C42.85 45.5551 43.2406 44.8806 43.6429 44.213C43.6791 44.1533 43.7144 44.0936 43.7506 44.0339C43.8348 43.8949 43.915 43.7539 44.01 43.6237C44.0697 43.5425 44.1245 43.4602 44.1793 43.376C44.2341 43.2928 44.288 43.2087 44.3438 43.1264C44.4574 42.962 44.5631 42.7916 44.6756 42.6262C44.6903 42.6046 44.705 42.5831 44.7197 42.5616C44.7951 42.4529 44.8734 42.3462 44.9497 42.2385V42.2356V42.2327C44.9497 42.2327 44.9556 42.2268 44.9586 42.2248C44.9605 42.2248 44.9625 42.2229 44.9644 42.2229C45.075 42.0741 45.1857 41.9243 45.2963 41.7755C45.3012 41.7687 45.307 41.7628 45.3119 41.7569C45.3149 41.754 45.3168 41.751 45.3188 41.7491C45.3257 41.7413 45.3325 41.7344 45.3393 41.7266C45.3393 41.7227 45.3393 41.7197 45.3393 41.7168C45.3393 41.7138 45.3393 41.7109 45.3403 41.7089C45.3423 41.7031 45.3443 41.6992 45.3472 41.6953C45.3501 41.6913 45.355 41.6884 45.3589 41.6845C45.3638 41.6815 45.3687 41.6786 45.3736 41.6757C45.3766 41.6727 45.3785 41.6698 45.3805 41.6669C45.4235 41.613 45.4676 41.5592 45.5107 41.5053C45.5155 41.4995 45.5204 41.4926 45.5254 41.4867C45.5254 41.4828 45.5273 41.4799 45.5293 41.476C45.5303 41.473 45.5322 41.4691 45.5342 41.4662C45.5381 41.4603 45.543 41.4544 45.5479 41.4495C45.5479 41.4495 45.5498 41.4476 45.5508 41.4466C45.5694 41.429 45.5929 41.4143 45.5978 41.3879C45.5978 41.3859 45.5978 41.3849 45.5978 41.383C45.5978 41.3781 45.6017 41.3741 45.6056 41.3722C45.6076 41.3722 45.6095 41.3712 45.6115 41.3702C45.6242 41.3605 45.636 41.3507 45.6457 41.3389C45.6487 41.336 45.6506 41.333 45.6526 41.3311C45.6604 41.3223 45.6673 41.3125 45.6741 41.3027C45.683 41.29 45.6918 41.2763 45.7006 41.2626C45.7074 41.2528 45.7143 41.242 45.7211 41.2322C45.726 41.2254 45.7309 41.2185 45.7358 41.2126C45.7691 41.1715 45.8034 41.1304 45.8367 41.0903C46.0716 40.8035 46.3134 40.5235 46.562 40.2494C46.7568 40.034 46.9585 39.8255 47.1621 39.619C47.1973 39.5827 47.2335 39.5465 47.2688 39.5113C47.3354 39.4447 47.4049 39.383 47.4734 39.3194C47.5008 39.294 47.5282 39.2695 47.5547 39.2431C47.5605 39.2382 47.5654 39.2323 47.5713 39.2274C47.6565 39.1452 47.7436 39.0629 47.8297 38.9817C47.8317 38.9797 47.8336 38.9788 47.8356 38.9768C47.8581 38.9562 47.8836 38.9376 47.9071 38.919C47.9129 38.9141 47.9178 38.9092 47.9237 38.9034C47.9256 38.9014 47.9266 38.9004 47.9286 38.8985C47.955 38.8711 47.9824 38.8446 48.0089 38.8172C48.0128 38.8113 48.0167 38.8074 48.0216 38.8045C48.0265 38.8016 48.0324 38.7996 48.0392 38.7996C48.047 38.7986 48.0539 38.7947 48.0598 38.7908C48.0637 38.7878 48.0676 38.7839 48.0715 38.78C48.0744 38.7771 48.0764 38.7732 48.0793 38.7693C48.0842 38.7634 48.0901 38.7565 48.095 38.7507C48.1645 38.689 48.234 38.6283 48.3055 38.5686C48.3162 38.5598 48.327 38.551 48.3378 38.5412C48.4063 38.4834 48.4758 38.4266 48.5463 38.3699C48.7039 38.2436 48.8664 38.1212 49.0318 38.0057C49.0377 38.0028 49.0426 37.9998 49.0485 37.9969H49.0494C49.0543 37.99 49.0602 37.9842 49.0661 37.9793C49.1033 37.9519 49.1415 37.9235 49.1787 37.897C49.254 37.8422 49.3314 37.7894 49.4077 37.7375C49.4459 37.712 49.4851 37.6856 49.5242 37.6611C49.5634 37.6357 49.6025 37.6102 49.6417 37.5857C49.7601 37.5113 49.8796 37.4389 50.001 37.3694C50.1331 37.2931 50.2682 37.2196 50.4033 37.1491C50.8105 36.9397 51.2314 36.7625 51.672 36.6313C51.7053 36.6215 51.7395 36.6117 51.7728 36.6019C52.0077 36.5363 52.2437 36.4864 52.4835 36.4541C52.6196 36.4355 52.7576 36.4228 52.8956 36.4169C52.9994 36.412 53.1031 36.411 53.2079 36.414C53.2431 36.415 53.2774 36.4159 53.3126 36.4179C53.4174 36.4238 53.5212 36.4345 53.6249 36.4492C53.7688 36.4688 53.9108 36.4962 54.0527 36.5324C54.0566 36.5314 54.0596 36.5305 54.0635 36.5324C54.0674 36.5324 54.0703 36.5354 54.0723 36.5383C54.0752 36.5393 54.0791 36.5403 54.0821 36.5412C54.0889 36.5432 54.0948 36.5452 54.1016 36.5481C54.1016 36.5383 54.1026 36.5285 54.1036 36.5187C54.1016 36.5168 54.0997 36.5148 54.0967 36.5138L54.0997 36.5119Z" fill="#F1ECE2"/>
<path d="M52.5512 35.8378C52.5443 35.8074 52.515 35.8045 52.4934 35.7947C52.0764 35.6097 51.6594 35.4237 51.2404 35.2406C51.1288 35.1917 51.0211 35.1349 50.9056 35.0957C50.8929 35.1036 50.8792 35.1026 50.8655 35.0977C50.5787 35.0037 50.2811 34.9567 49.9815 34.9381C49.7064 34.9215 49.4304 34.9381 49.1573 34.9744C48.9321 35.0047 48.7109 35.0517 48.4916 35.1104C48.0658 35.225 47.6566 35.3806 47.2621 35.5754C47.1104 35.6508 46.9635 35.736 46.8137 35.8153C46.7638 35.8417 46.7119 35.8652 46.664 35.8936C46.2352 36.1491 45.8192 36.4241 45.4247 36.7305C45.3258 36.8069 45.225 36.8813 45.1329 36.9645C45.0732 37.0183 45.0155 37.0732 44.9508 37.1201C44.9391 37.129 44.9264 37.1378 44.9117 37.1466C44.9009 37.1564 44.8902 37.1652 44.8794 37.174V37.1759C44.8745 37.1887 44.8696 37.2004 44.8618 37.2073C44.8569 37.2112 44.852 37.2132 44.8461 37.2141C44.8432 37.2141 44.8393 37.2141 44.8363 37.2141H44.8344C44.8344 37.2141 44.8285 37.2122 44.8246 37.2112C44.8216 37.2132 44.8187 37.2151 44.8167 37.2171C44.7825 37.2415 44.7639 37.2836 44.7326 37.3081C44.7277 37.312 44.7228 37.315 44.7179 37.3179C44.6357 37.361 44.5857 37.4383 44.5123 37.4912C44.4418 37.5421 44.3831 37.6096 44.3185 37.6693C43.9984 37.964 43.6959 38.2762 43.3963 38.5915C43.3043 38.6884 43.2221 38.7921 43.134 38.893C43.0831 38.9507 43.0263 39.0016 42.9764 39.0584C42.8403 39.2141 42.7081 39.3736 42.574 39.5302C42.4742 39.6467 42.3802 39.7671 42.2911 39.8915C42.2206 39.9903 42.1365 40.0784 42.0611 40.1734C41.833 40.4661 41.6166 40.7676 41.4003 41.0681C41.1869 41.3647 40.9911 41.6731 40.7885 41.9775C40.6064 42.2507 40.439 42.5336 40.2658 42.8135C40.2021 42.9173 40.1453 43.025 40.0807 43.1288C39.9701 43.3069 39.8673 43.49 39.7704 43.6759C39.7097 43.7484 39.6735 43.8365 39.6275 43.9178C39.5315 44.0881 39.4395 44.2604 39.3563 44.4376C39.3299 44.4944 39.2917 44.5423 39.2643 44.5991C39.187 44.7567 39.1087 44.9143 39.0274 45.0709C38.8248 45.4645 38.6466 45.8687 38.4616 46.2711C38.2609 46.7057 38.0828 47.1511 37.9066 47.5965C37.7871 47.899 37.6667 48.2015 37.5718 48.5128C37.5561 48.5637 37.5267 48.6097 37.5091 48.6596C37.4171 48.9279 37.3251 49.1951 37.238 49.4643C37.1567 49.712 37.0803 49.9616 37.0069 50.2112C36.9365 50.452 36.8689 50.6929 36.8043 50.9346C36.678 51.4035 36.5625 51.8754 36.4636 52.3502C36.4382 52.4764 36.4127 52.6027 36.3882 52.729C36.3041 53.1587 36.2297 53.5914 36.169 54.0261C36.1122 54.4392 36.0652 54.8532 36.028 55.2683C36.0251 55.3065 36.0221 55.3447 36.0192 55.3828C36.0016 55.61 35.9879 55.838 35.9791 56.0671C35.9683 56.3285 35.9663 56.5898 35.9644 56.8512C35.9644 56.9755 35.9771 57.1008 35.9761 57.2262C35.9742 57.417 35.9908 57.607 36.0016 57.7968C36.0055 57.8664 36.0084 57.9368 36.0153 58.0073C36.0163 58.0191 36.0182 58.0318 36.0192 58.0435C36.0417 58.2266 36.0564 58.4106 36.0819 58.5927C36.1063 58.7699 36.1308 58.9472 36.1631 59.1222C36.2101 59.3671 36.2541 59.6117 36.3295 59.8495C36.353 59.9242 36.3657 60.0024 36.3873 60.0787C36.4323 60.2451 36.4861 60.4095 36.5449 60.5711C36.6301 60.8031 36.7279 61.0303 36.8337 61.2534C36.9971 61.5961 37.1998 61.9151 37.4376 62.2109C37.6628 62.4917 37.9202 62.7394 38.2149 62.9469C38.2267 62.9558 38.2394 62.9635 38.2521 62.9715C38.2736 62.985 38.2952 62.9988 38.3167 63.0125C38.3285 63.0203 38.3412 63.0282 38.3539 63.036C38.395 63.0616 38.4352 63.0879 38.4743 63.1164C38.4743 63.1164 38.4753 63.1164 38.4763 63.1173C38.488 63.126 38.4998 63.135 38.5115 63.1446C38.5115 63.1466 38.5135 63.1485 38.5145 63.1507C38.5213 63.1603 38.535 63.1613 38.5458 63.1661C39.0548 63.3914 39.5629 63.6165 40.0719 63.8417C40.0925 63.8504 40.1121 63.8642 40.1365 63.8584C40.1336 63.8533 40.1316 63.8495 40.1287 63.8446C40.1072 63.8161 40.0729 63.8055 40.0435 63.7869C39.8879 63.6879 39.7401 63.5773 39.602 63.4568C39.5286 63.3933 39.4571 63.3257 39.3886 63.2562C39.1263 62.9901 38.9051 62.6943 38.7171 62.3782C38.6486 62.2628 38.584 62.1442 38.5233 62.0228C38.487 61.9503 38.4518 61.8769 38.4185 61.8025C38.4038 61.7702 38.3901 61.739 38.3764 61.7067C38.3627 61.6743 38.349 61.6429 38.3353 61.6108C38.1435 61.1506 38.0044 60.6749 37.8997 60.1893C37.8684 60.0454 37.841 59.9005 37.8155 59.7546C37.7646 59.4572 37.7264 59.1585 37.698 58.8581C37.6696 58.5584 37.653 58.2571 37.6432 57.9554C37.6334 57.6363 37.6354 57.3162 37.6452 56.9971C37.6462 56.9755 37.6462 56.954 37.6471 56.9325C37.653 56.7661 37.6608 56.5996 37.6696 56.4332C37.6795 56.2678 37.6912 56.1014 37.7049 55.9359C37.7078 55.8997 37.7117 55.8635 37.7166 55.8126C37.7166 55.8077 37.7176 55.8028 37.7176 55.7979C37.7235 55.7313 37.7294 55.6648 37.7372 55.5982C37.7675 55.3006 37.8057 55.004 37.8478 54.7084C37.8919 54.401 37.9418 54.0956 37.9966 53.7911C38.0035 53.7539 38.0113 53.7177 38.0181 53.6805C38.0191 53.6736 38.0211 53.6668 38.0221 53.659C38.026 53.6404 38.0289 53.6218 38.0328 53.6032C38.0416 53.5562 38.0504 53.5102 38.0593 53.4642C38.0974 53.2694 38.1376 53.0746 38.1806 52.8807C38.2306 52.6536 38.2844 52.4275 38.3402 52.2023C38.4019 51.9517 38.4665 51.7021 38.535 51.4535C38.535 51.4495 38.537 51.4456 38.5379 51.4417C38.582 51.2831 38.628 51.1246 38.675 50.9669C38.7895 50.5832 38.908 50.2005 39.0353 49.8206C39.1047 49.6151 39.1772 49.4105 39.2506 49.2069C39.3896 48.8221 39.5355 48.4404 39.6891 48.0625C39.9779 47.3489 40.2912 46.645 40.6309 45.952C40.6935 45.8237 40.7572 45.6955 40.8218 45.5682C40.9745 45.2667 41.1331 44.9671 41.2956 44.6706C41.3386 44.5913 41.3827 44.512 41.4258 44.4336C41.4297 44.4278 41.4336 44.4209 41.4365 44.4151C41.4414 44.4062 41.4453 44.3974 41.4444 44.3867C41.4502 44.3769 41.4571 44.3671 41.462 44.3583C41.509 44.2751 41.5559 44.1919 41.6039 44.1087C41.6999 43.9432 41.7958 43.7787 41.8947 43.6143C41.9642 43.4988 42.0347 43.3833 42.1051 43.2687C42.1844 43.1395 42.2647 43.0113 42.3469 42.884C42.4497 42.7235 42.5544 42.5629 42.6602 42.4043C42.7718 42.237 42.8853 42.0725 43.0008 41.908C43.0694 41.8092 43.1389 41.7113 43.2084 41.6124C43.2084 41.6104 43.2084 41.6085 43.2084 41.6065C43.2084 41.6055 43.2094 41.6036 43.2103 41.6026C43.2123 41.5997 43.2162 41.5987 43.2201 41.5987C43.2397 41.5713 43.2583 41.5429 43.2788 41.5155C44.0503 40.4563 44.8931 39.4578 45.8417 38.5513C46.1833 38.2253 46.5357 37.914 46.9048 37.6214C47.0516 37.5039 47.2014 37.3903 47.3541 37.2787L47.3923 37.2513C47.4559 37.2053 47.5205 37.1603 47.5851 37.1153C47.8964 36.8999 48.2156 36.6992 48.5454 36.5191C48.6081 36.4848 48.6717 36.4515 48.7354 36.4193C48.7833 36.3948 48.8303 36.3703 48.8783 36.3468C48.9194 36.3262 48.9605 36.3067 49.0016 36.2871C49.1671 36.2098 49.3344 36.1373 49.5058 36.0717C50.05 35.8622 50.61 35.7193 51.1944 35.688C51.6349 35.6645 52.0686 35.7037 52.4934 35.8319C52.512 35.8378 52.5306 35.8466 52.5502 35.8387L52.5512 35.8378Z" fill="#FDBF41"/>
<path d="M43.2104 41.6016C43.2104 41.6016 43.2163 41.5977 43.2202 41.5977C43.2202 41.6016 43.2182 41.6045 43.2163 41.6065C43.2143 41.6085 43.2114 41.6094 43.2075 41.6104C43.2075 41.6085 43.2075 41.6065 43.2075 41.6045C43.2075 41.6035 43.2085 41.6016 43.2095 41.6006L43.2104 41.6016Z" fill="#C18B00"/>
<path d="M44.8336 37.1846C44.8394 37.1778 44.8463 37.1738 44.8561 37.1729C44.862 37.1729 44.8698 37.1729 44.8776 37.1748V37.1768C44.8727 37.1895 44.8678 37.2013 44.86 37.2081C44.8551 37.212 44.8502 37.214 44.8443 37.215C44.8414 37.215 44.8375 37.215 44.8345 37.215H44.8326C44.8326 37.215 44.8267 37.213 44.8228 37.212C44.8247 37.2003 44.8287 37.1905 44.8345 37.1846H44.8336Z" fill="#C18B00"/>
<path d="M50.8137 35.0558C50.4348 34.8864 50.055 34.722 49.6781 34.5507C49.2464 34.3539 48.7981 34.2325 48.3233 34.21C48.2039 34.21 48.0835 34.21 47.964 34.211C47.917 34.211 47.8701 34.211 47.8241 34.211C47.5852 34.2237 47.3493 34.2589 47.1153 34.3089C46.4252 34.4557 45.783 34.7259 45.1673 35.0646C44.5476 35.4052 43.972 35.8125 43.4248 36.2589C43.3553 36.3156 43.2799 36.3675 43.2192 36.436C43.2143 36.438 43.2094 36.4419 43.2065 36.4468V36.4527C43.2065 36.4527 43.2046 36.4527 43.2036 36.4527C43.2016 36.4527 43.2007 36.4527 43.2007 36.4527C43.185 36.4654 43.1693 36.4772 43.1537 36.4899C42.5477 37.0087 41.9848 37.5716 41.4523 38.1658C40.8199 38.8726 40.2365 39.6185 39.6912 40.3938C38.8787 41.5489 38.1592 42.7608 37.518 44.0187C37.0853 44.8665 36.6918 45.7328 36.3375 46.6168C35.9684 47.5389 35.6297 48.4728 35.3576 49.4292C35.3272 49.5349 35.29 49.6397 35.2597 49.7454C35.0365 50.5334 34.8436 51.3283 34.6919 52.133C34.5627 52.8153 34.4599 53.5005 34.3923 54.1916C34.3424 54.6928 34.3082 55.195 34.3101 55.6992C34.3101 55.9282 34.3111 56.1573 34.3121 56.3864C34.315 56.4177 34.316 56.449 34.317 56.4803C34.318 56.5293 34.317 56.5772 34.315 56.6262C34.317 56.9052 34.3405 57.1822 34.3669 57.4602C34.4109 57.9135 34.4795 58.3617 34.5803 58.8053C34.7056 59.3612 34.8769 59.9006 35.1207 60.4166C35.382 60.9686 35.7139 61.4709 36.1622 61.8908C36.4236 62.1357 36.7114 62.3421 37.0354 62.4938C37.3232 62.629 37.615 62.7553 37.9067 62.8835C38.1064 62.9716 38.3041 63.0665 38.5077 63.1448C38.496 63.1361 38.4842 63.1262 38.4725 63.1175C38.4725 63.1175 38.4715 63.1175 38.4705 63.1165C38.4314 63.088 38.3912 63.0617 38.3501 63.0361C38.3374 63.0284 38.3256 63.0204 38.3129 63.0127C38.2914 62.9989 38.2698 62.9861 38.2483 62.9716C38.2356 62.9637 38.2238 62.955 38.2111 62.947C37.9165 62.7386 37.66 62.4918 37.4339 62.211C37.196 61.9152 36.9933 61.5962 36.8298 61.2536C36.7232 61.0305 36.6253 60.8032 36.5411 60.5712C36.4823 60.4096 36.4285 60.2452 36.3835 60.0788C36.3629 60.0035 36.3492 59.9253 36.3257 59.8497C36.2503 59.6118 36.2053 59.3672 36.1593 59.1224C36.126 58.9473 36.1025 58.7701 36.078 58.5928C36.0526 58.4108 36.0369 58.2268 36.0154 58.0437C36.0144 58.0319 36.0125 58.0192 36.0115 58.0074C36.0046 57.9379 36.0017 57.8675 35.9978 57.797C35.988 57.6071 35.9713 57.4172 35.9723 57.2263C35.9723 57.102 35.9596 56.9767 35.9606 56.8513C35.9625 56.59 35.9655 56.3286 35.9753 56.0672C35.9841 55.8391 35.9978 55.6111 36.0154 55.383C36.0183 55.3448 36.0213 55.3066 36.0242 55.2684C36.0614 54.8534 36.1084 54.4393 36.1652 54.0262C36.2259 53.5916 36.3003 53.1589 36.3844 52.7291C36.4089 52.6028 36.4344 52.4766 36.4598 52.3503C36.5577 51.8745 36.6742 51.4037 36.8005 50.9348C36.8651 50.693 36.9326 50.4512 37.0031 50.2114C37.0766 49.9607 37.1529 49.7121 37.2342 49.4644C37.3222 49.1952 37.4143 48.927 37.5053 48.6598C37.5219 48.6089 37.5523 48.5628 37.568 48.5129C37.6639 48.2016 37.7833 47.8991 37.9027 47.5967C38.079 47.1512 38.2571 46.7068 38.4578 46.2712C38.6428 45.8698 38.821 45.4646 39.0236 45.0711C39.1039 44.9144 39.1832 44.7568 39.2605 44.5992C39.2879 44.5434 39.3271 44.4945 39.3525 44.4377C39.4357 44.2605 39.5277 44.0882 39.6237 43.9179C39.6697 43.8367 39.7059 43.7486 39.7666 43.6761C39.8635 43.4901 39.9663 43.3071 40.0769 43.1289C40.1415 43.0261 40.1983 42.9175 40.2619 42.8137C40.4342 42.5337 40.6016 42.2518 40.7847 41.9777C40.9873 41.6733 41.1831 41.3649 41.3965 41.0683C41.6129 40.7678 41.8292 40.4663 42.0573 40.1735C42.1317 40.0776 42.2158 39.9905 42.2873 39.8916C42.3764 39.7673 42.4704 39.6469 42.5702 39.5304C42.7043 39.3728 42.8365 39.2132 42.9726 39.0586C43.0225 39.0018 43.0793 38.9509 43.1302 38.8931C43.2183 38.7933 43.3005 38.6885 43.3925 38.5916C43.6921 38.2764 43.9946 37.9641 44.3146 37.6695C44.3792 37.6098 44.438 37.5422 44.5085 37.4913C44.5819 37.4385 44.6308 37.3611 44.714 37.3181C44.7189 37.3151 44.7248 37.3122 44.7287 37.3083C44.76 37.2838 44.7787 37.2417 44.8129 37.2172C44.8158 37.2153 44.8188 37.2133 44.8207 37.2114C44.8227 37.1996 44.8266 37.1898 44.8325 37.1839C44.8383 37.1771 44.8452 37.1732 44.855 37.1722C44.8609 37.1722 44.8687 37.1722 44.8765 37.1741C44.8873 37.1653 44.8981 37.1556 44.9088 37.1467C44.9235 37.137 44.9353 37.1291 44.948 37.1203C45.0126 37.0733 45.0703 37.0195 45.1301 36.9647C45.2221 36.8805 45.3239 36.8071 45.4218 36.7307C45.8163 36.4243 46.2323 36.1492 46.6611 35.8937C46.71 35.8653 46.7609 35.8418 46.8109 35.8154C46.9606 35.7351 47.1075 35.65 47.2592 35.5756C47.6537 35.3808 48.0639 35.2251 48.4887 35.1106C48.708 35.0519 48.9293 35.0058 49.1544 34.9745C49.4275 34.9373 49.7036 34.9217 49.9787 34.9383C50.2792 34.9569 50.5758 35.0039 50.8626 35.0979C50.8773 35.1028 50.89 35.1037 50.9028 35.0959C50.8783 35.0695 50.8411 35.0695 50.8107 35.0558H50.8137Z" fill="#FF1100"/>
<path d="M44.8443 37.0742C44.8443 37.0742 44.8394 37.0703 44.8374 37.0693C44.8404 37.0713 44.8423 37.0722 44.8443 37.0742Z" fill="#FF1100"/>
<path d="M48.323 34.2091H47.9637C47.9167 34.211 47.8697 34.211 47.8237 34.211C47.8218 34.2051 47.8188 34.1993 47.8169 34.1934C47.9872 34.1934 48.1585 34.1934 48.3288 34.1914C48.3269 34.1973 48.3249 34.2032 48.323 34.2091Z" fill="#FEC35E"/>
<path d="M43.2036 36.4541H43.2007V36.4482H43.2075V36.4551C43.2075 36.4551 43.2056 36.4551 43.2046 36.4551L43.2036 36.4541Z" fill="#C18B00"/>
<path opacity="0.48" d="M63.9735 58.625C64.0223 58.5869 64.0223 58.5827 63.9735 58.5446C63.8598 58.4536 63.7386 58.3744 63.6142 58.299C63.1992 58.0474 62.7558 57.8555 62.3014 57.6891C62.1978 57.6509 62.0968 57.6049 61.9863 57.5853C61.9558 57.5511 61.9109 57.5482 61.8718 57.5354C61.4478 57.3945 61.0163 57.2789 60.5836 57.1683C60.5473 57.1654 60.5121 57.1576 60.4807 57.14C60.2781 57.0959 60.0755 57.0509 59.8739 57.0068C59.4989 56.9255 59.122 56.8551 58.7441 56.7914C58.4642 56.7444 58.1832 56.7004 57.9022 56.6583C57.6829 56.626 57.4637 56.5927 57.2424 56.5771C57.2062 56.5712 57.17 56.5643 57.1328 56.5594C56.3585 56.4645 55.5832 56.393 54.8049 56.3392C54.2969 56.3049 53.7888 56.2775 53.2798 56.2579C52.6151 56.2325 51.9494 56.2207 51.2838 56.2207C50.4585 56.2207 49.6343 56.2413 48.811 56.2814C47.8595 56.3274 46.91 56.3999 45.9634 56.5056C45.8087 56.5232 45.6521 56.533 45.4994 56.5663C45.468 56.5575 45.4377 56.5663 45.4064 56.5692C44.7319 56.6524 44.0603 56.7552 43.3927 56.8815C42.9982 56.9559 42.6057 57.0381 42.2161 57.1311L42.2083 57.1439C42.2083 57.1439 42.1074 58.5946 42.3306 60.011C42.7153 60.1021 43.102 60.1834 43.4897 60.2559C43.8362 60.3204 44.1837 60.3822 44.5332 60.4322C45.0226 60.5024 45.513 60.5739 46.0054 60.6249C46.4841 60.6748 46.9619 60.7268 47.4415 60.762C47.7254 60.7825 48.0083 60.8069 48.2922 60.8236C48.7122 60.848 49.1331 60.8687 49.5531 60.8832C49.9368 60.897 50.3205 60.9079 50.7043 60.9127C51.318 60.9204 51.9328 60.9175 52.5466 60.905C53.1378 60.8922 53.7291 60.8697 54.3194 60.8364C55.0232 60.7973 55.7261 60.7415 56.428 60.669C57.4979 60.5582 58.562 60.4095 59.6162 60.1991C60.5374 60.0151 61.4478 59.7899 62.3308 59.4648C62.7155 59.3238 63.0924 59.1623 63.4508 58.9626C63.6328 58.8619 63.8091 58.7523 63.9735 58.624V58.625Z" fill="url(#paint0_linear_2508_7456)"/>
</g>
</g>
</g>
<defs>
<filter id="filter0_f_2508_7456" x="0.5" y="0" width="100" height="100" filterUnits="userSpaceOnUse" color-interpolation-filters="sRGB">
<feFlood flood-opacity="0" result="BackgroundImageFix"/>
<feBlend mode="normal" in="SourceGraphic" in2="BackgroundImageFix" result="shape"/>
<feGaussianBlur stdDeviation="10" result="effect1_foregroundBlur_2508_7456"/>
</filter>
<linearGradient id="paint0_linear_2508_7456" x1="53.146" y1="56.76" x2="53.01" y2="60.2716" gradientUnits="userSpaceOnUse">
<stop offset="0.16" stop-color="#191919"/>
<stop offset="0.97" stop-color="#191919" stop-opacity="0"/>
</linearGradient>
<clipPath id="clip0_2508_7456">
<rect width="60" height="60" fill="white" transform="translate(20.5 20)"/>
</clipPath>
<clipPath id="clip1_2508_7456">
<rect width="60" height="60" fill="white" transform="translate(20.5 20)"/>
</clipPath>
</defs>
</svg>
