<svg width="352" height="352" viewBox="0 0 352 352" fill="none" xmlns="http://www.w3.org/2000/svg">
<g opacity="0.5">
<path d="M138.793 346.708L121.976 341.523L107.231 336.482L128.628 343.079L138.793 346.708Z" stroke="white" stroke-width="0.789575" stroke-linecap="round" stroke-linejoin="round"/>
<path d="M157.024 349.905L138.795 346.707L128.63 343.078L151.869 347.168L157.024 349.905Z" stroke="white" stroke-width="0.789575" stroke-linecap="round" stroke-linejoin="round"/>
<path d="M175.999 350.999L157.022 349.905L151.867 347.168L175.999 348.522V350.999Z" stroke="white" stroke-width="0.789575" stroke-linecap="round" stroke-linejoin="round"/>
<path d="M194.975 349.905L175.998 350.999V348.522L200.13 347.168L194.975 349.905Z" stroke="white" stroke-width="0.789575" stroke-linecap="round" stroke-linejoin="round"/>
<path d="M213.206 346.707L194.978 349.905L200.132 347.168L223.343 343.078L213.206 346.707Z" stroke="white" stroke-width="0.789575" stroke-linecap="round" stroke-linejoin="round"/>
<path d="M230.025 341.523L213.207 346.708L223.344 343.079L244.74 336.482L230.025 341.523Z" stroke="white" stroke-width="0.789575" stroke-linecap="round" stroke-linejoin="round"/>
<path d="M88.5135 327.579L73.107 316.777L55.0225 302.085L73.107 314.818L88.5135 327.579Z" stroke="white" stroke-width="0.789575" stroke-linecap="round" stroke-linejoin="round"/>
<path d="M107.233 336.482L88.5148 327.581L73.1084 314.82L95.167 325.277L107.233 336.482Z" stroke="white" stroke-width="0.789575" stroke-linecap="round" stroke-linejoin="round"/>
<path d="M128.628 343.079L107.232 336.483L95.166 325.277L120.306 333.055L128.628 343.079Z" stroke="white" stroke-width="0.789575" stroke-linecap="round" stroke-linejoin="round"/>
<path d="M151.867 347.167L128.628 343.076L120.306 333.052L147.605 337.834L151.867 347.167Z" stroke="white" stroke-width="0.789575" stroke-linecap="round" stroke-linejoin="round"/>
<path d="M176.001 348.522L151.869 347.168L147.607 337.834L176.001 339.448V348.522Z" stroke="white" stroke-width="0.789575" stroke-linecap="round" stroke-linejoin="round"/>
<path d="M200.13 347.168L175.998 348.522V339.448L204.392 337.834L200.13 347.168Z" stroke="white" stroke-width="0.789575" stroke-linecap="round" stroke-linejoin="round"/>
<path d="M223.343 343.076L200.133 347.167L204.395 337.834L231.694 333.052L223.343 343.076Z" stroke="white" stroke-width="0.789575" stroke-linecap="round" stroke-linejoin="round"/>
<path d="M244.739 336.483L223.343 343.079L231.694 333.055L256.834 325.277L244.739 336.483Z" stroke="white" stroke-width="0.789575" stroke-linecap="round" stroke-linejoin="round"/>
<path d="M263.485 327.581L244.738 336.482L256.833 325.277L278.892 314.82L263.485 327.581Z" stroke="white" stroke-width="0.789575" stroke-linecap="round" stroke-linejoin="round"/>
<path d="M278.894 316.777L263.487 327.579L278.894 314.818L296.978 302.085L278.894 316.777Z" stroke="white" stroke-width="0.789575" stroke-linecap="round" stroke-linejoin="round"/>
<path d="M55.0248 302.085L41.5766 287.566L26.6309 266.422L41.5766 282.583L55.0248 302.085Z" stroke="white" stroke-width="0.789575" stroke-linecap="round" stroke-linejoin="round"/>
<path d="M73.108 314.82L55.0234 302.087L41.5752 282.585L61.6756 296.729L73.108 314.82Z" stroke="white" stroke-width="0.789575" stroke-linecap="round" stroke-linejoin="round"/>
<path d="M95.1668 325.276L73.1082 314.82L61.6758 296.729L86.1821 308.338L95.1668 325.276Z" stroke="white" stroke-width="0.789575" stroke-linecap="round" stroke-linejoin="round"/>
<path d="M120.307 333.054L95.1673 325.276L86.1826 308.338L114.145 316.951L120.307 333.054Z" stroke="white" stroke-width="0.789575" stroke-linecap="round" stroke-linejoin="round"/>
<path d="M147.607 337.834L120.307 333.053L114.145 316.95L144.468 322.279L147.607 337.834Z" stroke="white" stroke-width="0.789575" stroke-linecap="round" stroke-linejoin="round"/>
<path d="M176.002 339.449L147.608 337.836L144.469 322.281L176.002 324.067V339.449Z" stroke="white" stroke-width="0.789575" stroke-linecap="round" stroke-linejoin="round"/>
<path d="M204.392 337.836L175.998 339.449V324.067L207.531 322.281L204.392 337.836Z" stroke="white" stroke-width="0.789575" stroke-linecap="round" stroke-linejoin="round"/>
<path d="M231.693 333.053L204.394 337.834L207.532 322.279L237.885 316.95L231.693 333.053Z" stroke="white" stroke-width="0.789575" stroke-linecap="round" stroke-linejoin="round"/>
<path d="M256.835 325.276L231.695 333.054L237.887 316.951L265.82 308.338L256.835 325.276Z" stroke="white" stroke-width="0.789575" stroke-linecap="round" stroke-linejoin="round"/>
<path d="M278.893 314.82L256.834 325.276L265.819 308.338L290.325 296.729L278.893 314.82Z" stroke="white" stroke-width="0.789575" stroke-linecap="round" stroke-linejoin="round"/>
<path d="M296.977 302.087L278.893 314.82L290.325 296.729L310.425 282.585L296.977 302.087Z" stroke="white" stroke-width="0.789575" stroke-linecap="round" stroke-linejoin="round"/>
<path d="M310.427 287.566L296.979 302.085L310.427 282.583L325.372 266.422L310.427 287.566Z" stroke="white" stroke-width="0.789575" stroke-linecap="round" stroke-linejoin="round"/>
<path d="M26.6287 266.423L17.4136 248.909L7.65137 223.213L17.4136 241.822L26.6287 266.423Z" stroke="white" stroke-width="0.789575" stroke-linecap="round" stroke-linejoin="round"/>
<path d="M41.5758 282.584L26.6301 266.423L17.415 241.822L33.2822 258.962L41.5758 282.584Z" stroke="white" stroke-width="0.789575" stroke-linecap="round" stroke-linejoin="round"/>
<path d="M61.6762 296.728L41.5758 282.584L33.2822 258.963L54.6209 273.971L61.6762 296.728Z" stroke="white" stroke-width="0.789575" stroke-linecap="round" stroke-linejoin="round"/>
<path d="M86.1827 308.337L61.6764 296.728L54.6211 273.971L80.6537 286.3L86.1827 308.337Z" stroke="white" stroke-width="0.789575" stroke-linecap="round" stroke-linejoin="round"/>
<path d="M114.145 316.95L86.1833 308.337L80.6543 286.3L110.315 295.461L114.145 316.95Z" stroke="white" stroke-width="0.789575" stroke-linecap="round" stroke-linejoin="round"/>
<path d="M144.468 322.279L114.144 316.95L110.314 295.46L142.51 301.106L144.468 322.279Z" stroke="white" stroke-width="0.789575" stroke-linecap="round" stroke-linejoin="round"/>
<path d="M175.999 324.065L144.466 322.279L142.508 301.106L175.999 303.007V324.065Z" stroke="white" stroke-width="0.789575" stroke-linecap="round" stroke-linejoin="round"/>
<path d="M207.531 322.279L175.998 324.065V303.007L209.489 301.106L207.531 322.279Z" stroke="white" stroke-width="0.789575" stroke-linecap="round" stroke-linejoin="round"/>
<path d="M237.884 316.95L207.532 322.279L209.49 301.106L241.686 295.46L237.884 316.95Z" stroke="white" stroke-width="0.789575" stroke-linecap="round" stroke-linejoin="round"/>
<path d="M265.818 308.337L237.885 316.95L241.686 295.461L271.347 286.3L265.818 308.337Z" stroke="white" stroke-width="0.789575" stroke-linecap="round" stroke-linejoin="round"/>
<path d="M290.325 296.728L265.818 308.337L271.347 286.3L297.351 273.971L290.325 296.728Z" stroke="white" stroke-width="0.789575" stroke-linecap="round" stroke-linejoin="round"/>
<path d="M310.424 282.584L290.323 296.728L297.35 273.971L318.717 258.963L310.424 282.584Z" stroke="white" stroke-width="0.789575" stroke-linecap="round" stroke-linejoin="round"/>
<path d="M325.371 266.423L310.426 282.584L318.719 258.962L334.587 241.822L325.371 266.423Z" stroke="white" stroke-width="0.789575" stroke-linecap="round" stroke-linejoin="round"/>
<path d="M334.585 248.909L325.37 266.423L334.585 241.822L344.319 223.213L334.585 248.909Z" stroke="white" stroke-width="0.789575" stroke-linecap="round" stroke-linejoin="round"/>
<path d="M7.65213 223.214L4.36926 203.885L1 176L4.36926 195.704L7.65213 223.214Z" stroke="white" stroke-width="0.789575" stroke-linecap="round" stroke-linejoin="round"/>
<path d="M17.4142 241.822L7.65201 223.213L4.36914 195.703L14.3329 214.687L17.4142 241.822Z" stroke="white" stroke-width="0.789575" stroke-linecap="round" stroke-linejoin="round"/>
<path d="M33.2815 258.963L17.4143 241.823L14.333 214.687L30.4882 232.144L33.2815 258.963Z" stroke="white" stroke-width="0.789575" stroke-linecap="round" stroke-linejoin="round"/>
<path d="M54.6203 273.972L33.2816 258.964L30.4883 232.145L52.2589 247.47L54.6203 273.972Z" stroke="white" stroke-width="0.789575" stroke-linecap="round" stroke-linejoin="round"/>
<path d="M80.6537 286.301L54.6211 273.971L52.2598 247.469L78.7819 260.029L80.6537 286.301Z" stroke="white" stroke-width="0.789575" stroke-linecap="round" stroke-linejoin="round"/>
<path d="M110.313 295.461L80.6521 286.3L78.7803 260.029L109.017 269.362L110.313 295.461Z" stroke="white" stroke-width="0.789575" stroke-linecap="round" stroke-linejoin="round"/>
<path d="M142.509 301.107L110.313 295.461L109.018 269.362L141.846 275.123L142.509 301.107Z" stroke="white" stroke-width="0.789575" stroke-linecap="round" stroke-linejoin="round"/>
<path d="M176.001 303.008L142.51 301.107L141.848 275.124L176.001 277.054V303.008Z" stroke="white" stroke-width="0.789575" stroke-linecap="round" stroke-linejoin="round"/>
<path d="M209.489 301.107L175.998 303.008V277.054L210.123 275.124L209.489 301.107Z" stroke="white" stroke-width="0.789575" stroke-linecap="round" stroke-linejoin="round"/>
<path d="M241.687 295.461L209.492 301.107L210.126 275.123L242.954 269.362L241.687 295.461Z" stroke="white" stroke-width="0.789575" stroke-linecap="round" stroke-linejoin="round"/>
<path d="M271.348 286.3L241.687 295.461L242.954 269.362L273.219 260.029L271.348 286.3Z" stroke="white" stroke-width="0.789575" stroke-linecap="round" stroke-linejoin="round"/>
<path d="M297.35 273.971L271.347 286.301L273.218 260.029L299.741 247.469L297.35 273.971Z" stroke="white" stroke-width="0.789575" stroke-linecap="round" stroke-linejoin="round"/>
<path d="M318.718 258.964L297.351 273.972L299.741 247.47L321.511 232.145L318.718 258.964Z" stroke="white" stroke-width="0.789575" stroke-linecap="round" stroke-linejoin="round"/>
<path d="M334.587 241.823L318.72 258.963L321.513 232.144L337.668 214.687L334.587 241.823Z" stroke="white" stroke-width="0.789575" stroke-linecap="round" stroke-linejoin="round"/>
<path d="M344.319 223.213L334.586 241.822L337.667 214.687L347.631 195.703L344.319 223.213Z" stroke="white" stroke-width="0.789575" stroke-linecap="round" stroke-linejoin="round"/>
<path d="M347.629 203.885L344.317 223.214L347.629 195.704L350.998 176L347.629 203.885Z" stroke="white" stroke-width="0.789575" stroke-linecap="round" stroke-linejoin="round"/>
<path d="M4.36926 195.705L1 176.001L4.36926 148.116L7.65213 167.445L4.36926 195.705Z" stroke="white" stroke-width="0.789575" stroke-linecap="round" stroke-linejoin="round"/>
<path d="M14.3329 214.688L4.36914 195.705L7.65201 167.445L17.4142 186.054L14.3329 214.688Z" stroke="white" stroke-width="0.789575" stroke-linecap="round" stroke-linejoin="round"/>
<path d="M30.4882 232.144L14.333 214.687L17.4143 186.054L33.2815 203.194L30.4882 232.144Z" stroke="white" stroke-width="0.789575" stroke-linecap="round" stroke-linejoin="round"/>
<path d="M52.2589 247.471L30.4883 232.146L33.2816 203.195L54.6203 218.204L52.2589 247.471Z" stroke="white" stroke-width="0.789575" stroke-linecap="round" stroke-linejoin="round"/>
<path d="M78.7819 260.029L52.2598 247.47L54.6211 218.202L80.6537 230.531L78.7819 260.029Z" stroke="white" stroke-width="0.789575" stroke-linecap="round" stroke-linejoin="round"/>
<path d="M109.017 269.362L78.7803 260.028L80.6521 230.53L110.313 239.691L109.017 269.362Z" stroke="white" stroke-width="0.789575" stroke-linecap="round" stroke-linejoin="round"/>
<path d="M141.846 275.124L109.018 269.363L110.313 239.692L142.509 245.338L141.846 275.124Z" stroke="white" stroke-width="0.789575" stroke-linecap="round" stroke-linejoin="round"/>
<path d="M176.001 277.054L141.848 275.124L142.51 245.338L176.001 247.24V277.054Z" stroke="white" stroke-width="0.789575" stroke-linecap="round" stroke-linejoin="round"/>
<path d="M210.123 275.124L175.998 277.054V247.24L209.489 245.338L210.123 275.124Z" stroke="white" stroke-width="0.789575" stroke-linecap="round" stroke-linejoin="round"/>
<path d="M242.954 269.363L210.126 275.124L209.492 245.338L241.687 239.692L242.954 269.363Z" stroke="white" stroke-width="0.789575" stroke-linecap="round" stroke-linejoin="round"/>
<path d="M273.219 260.028L242.954 269.362L241.687 239.691L271.348 230.53L273.219 260.028Z" stroke="white" stroke-width="0.789575" stroke-linecap="round" stroke-linejoin="round"/>
<path d="M299.741 247.47L273.218 260.029L271.347 230.531L297.35 218.202L299.741 247.47Z" stroke="white" stroke-width="0.789575" stroke-linecap="round" stroke-linejoin="round"/>
<path d="M321.511 232.146L299.741 247.471L297.351 218.204L318.718 203.195L321.511 232.146Z" stroke="white" stroke-width="0.789575" stroke-linecap="round" stroke-linejoin="round"/>
<path d="M337.668 214.687L321.513 232.144L318.72 203.194L334.587 186.054L337.668 214.687Z" stroke="white" stroke-width="0.789575" stroke-linecap="round" stroke-linejoin="round"/>
<path d="M347.631 195.705L337.667 214.688L334.586 186.054L344.319 167.445L347.631 195.705Z" stroke="white" stroke-width="0.789575" stroke-linecap="round" stroke-linejoin="round"/>
<path d="M350.998 176.001L347.629 195.705L344.317 167.445L347.629 148.116L350.998 176.001Z" stroke="white" stroke-width="0.789575" stroke-linecap="round" stroke-linejoin="round"/>
<path d="M4.36914 148.117L7.65201 128.759L17.4142 103.092L14.3329 121.298L4.36914 148.117Z" stroke="white" stroke-width="0.789575" stroke-linecap="round" stroke-linejoin="round"/>
<path d="M7.65201 167.444L4.36914 148.115L14.3329 121.296L17.4142 139.53L7.65201 167.444Z" stroke="white" stroke-width="0.789575" stroke-linecap="round" stroke-linejoin="round"/>
<path d="M17.4136 186.053L7.65137 167.444L17.4136 139.53L26.6287 157.016L17.4136 186.053Z" stroke="white" stroke-width="0.789575" stroke-linecap="round" stroke-linejoin="round"/>
<path d="M33.2822 203.195L17.415 186.055L26.6301 157.018L41.5758 173.179L33.2822 203.195Z" stroke="white" stroke-width="0.789575" stroke-linecap="round" stroke-linejoin="round"/>
<path d="M54.6209 218.2L33.2822 203.192L41.5758 173.176L61.6762 187.32L54.6209 218.2Z" stroke="white" stroke-width="0.789575" stroke-linecap="round" stroke-linejoin="round"/>
<path d="M80.6537 230.53L54.6211 218.201L61.6764 187.32L86.1827 198.929L80.6537 230.53Z" stroke="white" stroke-width="0.789575" stroke-linecap="round" stroke-linejoin="round"/>
<path d="M110.315 239.692L80.6543 230.531L86.1833 198.931L114.145 207.573L110.315 239.692Z" stroke="white" stroke-width="0.789575" stroke-linecap="round" stroke-linejoin="round"/>
<path d="M142.51 245.338L110.314 239.692L114.144 207.572L144.468 212.873L142.51 245.338Z" stroke="white" stroke-width="0.789575" stroke-linecap="round" stroke-linejoin="round"/>
<path d="M175.999 247.238L142.508 245.337L144.466 212.872L175.999 214.686V247.238Z" stroke="white" stroke-width="0.789575" stroke-linecap="round" stroke-linejoin="round"/>
<path d="M209.489 245.337L175.998 247.238V214.686L207.531 212.872L209.489 245.337Z" stroke="white" stroke-width="0.789575" stroke-linecap="round" stroke-linejoin="round"/>
<path d="M241.686 239.692L209.49 245.338L207.532 212.873L237.884 207.572L241.686 239.692Z" stroke="white" stroke-width="0.789575" stroke-linecap="round" stroke-linejoin="round"/>
<path d="M271.347 230.531L241.686 239.692L237.885 207.573L265.818 198.931L271.347 230.531Z" stroke="white" stroke-width="0.789575" stroke-linecap="round" stroke-linejoin="round"/>
<path d="M297.351 218.201L271.347 230.53L265.818 198.929L290.325 187.32L297.351 218.201Z" stroke="white" stroke-width="0.789575" stroke-linecap="round" stroke-linejoin="round"/>
<path d="M318.717 203.192L297.35 218.2L290.323 187.32L310.424 173.176L318.717 203.192Z" stroke="white" stroke-width="0.789575" stroke-linecap="round" stroke-linejoin="round"/>
<path d="M334.587 186.055L318.719 203.195L310.426 173.179L325.371 157.018L334.587 186.055Z" stroke="white" stroke-width="0.789575" stroke-linecap="round" stroke-linejoin="round"/>
<path d="M344.319 167.444L334.585 186.053L325.37 157.016L334.585 139.53L344.319 167.444Z" stroke="white" stroke-width="0.789575" stroke-linecap="round" stroke-linejoin="round"/>
<path d="M347.631 148.115L344.319 167.444L334.586 139.53L337.667 121.296L347.631 148.115Z" stroke="white" stroke-width="0.789575" stroke-linecap="round" stroke-linejoin="round"/>
<path d="M344.319 128.759L347.631 148.117L337.667 121.298L334.586 103.092L344.319 128.759Z" stroke="white" stroke-width="0.789575" stroke-linecap="round" stroke-linejoin="round"/>
<path d="M17.415 103.09L26.6301 85.5752L41.5758 64.4312L33.2822 80.1883L17.415 103.09Z" stroke="white" stroke-width="0.789575" stroke-linecap="round" stroke-linejoin="round"/>
<path d="M14.333 121.298L17.4143 103.092L33.2815 80.1909L30.4882 96.5819L14.333 121.298Z" stroke="white" stroke-width="0.789575" stroke-linecap="round" stroke-linejoin="round"/>
<path d="M17.4143 139.531L14.333 121.296L30.4882 96.5801L33.2815 113L17.4143 139.531Z" stroke="white" stroke-width="0.789575" stroke-linecap="round" stroke-linejoin="round"/>
<path d="M26.6301 157.015L17.415 139.53L33.2822 112.999L41.5758 128.756L26.6301 157.015Z" stroke="white" stroke-width="0.789575" stroke-linecap="round" stroke-linejoin="round"/>
<path d="M41.5766 173.176L26.6309 157.016L41.5766 128.756L55.0248 143.275L41.5766 173.176Z" stroke="white" stroke-width="0.789575" stroke-linecap="round" stroke-linejoin="round"/>
<path d="M61.6756 187.321L41.5752 173.177L55.0234 143.275L73.108 156.008L61.6756 187.321Z" stroke="white" stroke-width="0.789575" stroke-linecap="round" stroke-linejoin="round"/>
<path d="M86.1821 198.929L61.6758 187.32L73.1082 156.007L95.1668 166.464L86.1821 198.929Z" stroke="white" stroke-width="0.789575" stroke-linecap="round" stroke-linejoin="round"/>
<path d="M114.145 207.572L86.1826 198.93L95.1673 166.465L120.307 174.214L114.145 207.572Z" stroke="white" stroke-width="0.789575" stroke-linecap="round" stroke-linejoin="round"/>
<path d="M144.468 212.872L114.145 207.571L120.307 174.213L147.607 179.024L144.468 212.872Z" stroke="white" stroke-width="0.789575" stroke-linecap="round" stroke-linejoin="round"/>
<path d="M176.002 214.686L144.469 212.872L147.608 179.024L176.002 180.608V214.686Z" stroke="white" stroke-width="0.789575" stroke-linecap="round" stroke-linejoin="round"/>
<path d="M207.531 212.872L175.998 214.686V180.608L204.392 179.024L207.531 212.872Z" stroke="white" stroke-width="0.789575" stroke-linecap="round" stroke-linejoin="round"/>
<path d="M237.885 207.571L207.532 212.872L204.394 179.024L231.693 174.213L237.885 207.571Z" stroke="white" stroke-width="0.789575" stroke-linecap="round" stroke-linejoin="round"/>
<path d="M265.82 198.93L237.887 207.572L231.695 174.214L256.835 166.465L265.82 198.93Z" stroke="white" stroke-width="0.789575" stroke-linecap="round" stroke-linejoin="round"/>
<path d="M290.325 187.32L265.819 198.929L256.834 166.464L278.893 156.007L290.325 187.32Z" stroke="white" stroke-width="0.789575" stroke-linecap="round" stroke-linejoin="round"/>
<path d="M310.425 173.177L290.325 187.321L278.893 156.008L296.977 143.275L310.425 173.177Z" stroke="white" stroke-width="0.789575" stroke-linecap="round" stroke-linejoin="round"/>
<path d="M325.372 157.016L310.427 173.176L296.979 143.275L310.427 128.756L325.372 157.016Z" stroke="white" stroke-width="0.789575" stroke-linecap="round" stroke-linejoin="round"/>
<path d="M334.587 139.53L325.371 157.015L310.426 128.756L318.719 112.999L334.587 139.53Z" stroke="white" stroke-width="0.789575" stroke-linecap="round" stroke-linejoin="round"/>
<path d="M337.668 121.296L334.587 139.531L318.72 113L321.513 96.5801L337.668 121.296Z" stroke="white" stroke-width="0.789575" stroke-linecap="round" stroke-linejoin="round"/>
<path d="M334.587 103.092L337.668 121.298L321.513 96.5819L318.72 80.1909L334.587 103.092Z" stroke="white" stroke-width="0.789575" stroke-linecap="round" stroke-linejoin="round"/>
<path d="M325.371 85.5752L334.587 103.09L318.719 80.1883L310.426 64.4312L325.371 85.5752Z" stroke="white" stroke-width="0.789575" stroke-linecap="round" stroke-linejoin="round"/>
<path d="M41.5752 64.432L55.0234 49.9135L73.108 35.2222L61.6756 47.5802L41.5752 64.432Z" stroke="white" stroke-width="0.789575" stroke-linecap="round" stroke-linejoin="round"/>
<path d="M33.2822 80.1891L41.5758 64.4319L61.6762 47.5801L54.6209 60.9751L33.2822 80.1891Z" stroke="white" stroke-width="0.789575" stroke-linecap="round" stroke-linejoin="round"/>
<path d="M30.4883 96.5815L33.2816 80.1905L54.6203 60.9766L52.2589 74.9189L30.4883 96.5815Z" stroke="white" stroke-width="0.789575" stroke-linecap="round" stroke-linejoin="round"/>
<path d="M33.2816 113.001L30.4883 96.581L52.2589 74.9185L54.6203 88.8608L33.2816 113.001Z" stroke="white" stroke-width="0.789575" stroke-linecap="round" stroke-linejoin="round"/>
<path d="M41.5758 128.758L33.2822 113.001L54.6209 88.8608L61.6762 102.285L41.5758 128.758Z" stroke="white" stroke-width="0.789575" stroke-linecap="round" stroke-linejoin="round"/>
<path d="M55.0234 143.276L41.5752 128.757L61.6756 102.284L73.108 114.642L55.0234 143.276Z" stroke="white" stroke-width="0.789575" stroke-linecap="round" stroke-linejoin="round"/>
<path d="M73.107 156.009L55.0225 143.277L73.107 114.643L88.5135 125.446L73.107 156.009Z" stroke="white" stroke-width="0.789575" stroke-linecap="round" stroke-linejoin="round"/>
<path d="M95.167 166.466L73.1084 156.009L88.5148 125.445L107.233 134.347L95.167 166.466Z" stroke="white" stroke-width="0.789575" stroke-linecap="round" stroke-linejoin="round"/>
<path d="M120.306 174.214L95.166 166.465L107.232 134.346L128.628 140.942L120.306 174.214Z" stroke="white" stroke-width="0.789575" stroke-linecap="round" stroke-linejoin="round"/>
<path d="M147.605 179.025L120.306 174.214L128.628 140.943L151.867 145.033L147.605 179.025Z" stroke="white" stroke-width="0.789575" stroke-linecap="round" stroke-linejoin="round"/>
<path d="M176.001 180.608L147.607 179.024L151.869 145.032L176.001 146.386V180.608Z" stroke="white" stroke-width="0.789575" stroke-linecap="round" stroke-linejoin="round"/>
<path d="M204.392 179.024L175.998 180.608V146.386L200.13 145.032L204.392 179.024Z" stroke="white" stroke-width="0.789575" stroke-linecap="round" stroke-linejoin="round"/>
<path d="M231.694 174.214L204.395 179.025L200.133 145.033L223.343 140.943L231.694 174.214Z" stroke="white" stroke-width="0.789575" stroke-linecap="round" stroke-linejoin="round"/>
<path d="M256.834 166.465L231.694 174.214L223.343 140.942L244.739 134.346L256.834 166.465Z" stroke="white" stroke-width="0.789575" stroke-linecap="round" stroke-linejoin="round"/>
<path d="M278.892 156.009L256.833 166.466L244.738 134.347L263.485 125.445L278.892 156.009Z" stroke="white" stroke-width="0.789575" stroke-linecap="round" stroke-linejoin="round"/>
<path d="M296.978 143.277L278.894 156.009L263.487 125.446L278.894 114.643L296.978 143.277Z" stroke="white" stroke-width="0.789575" stroke-linecap="round" stroke-linejoin="round"/>
<path d="M310.425 128.757L296.977 143.276L278.893 114.642L290.325 102.284L310.425 128.757Z" stroke="white" stroke-width="0.789575" stroke-linecap="round" stroke-linejoin="round"/>
<path d="M318.717 113.001L310.424 128.758L290.323 102.285L297.35 88.8608L318.717 113.001Z" stroke="white" stroke-width="0.789575" stroke-linecap="round" stroke-linejoin="round"/>
<path d="M321.511 96.581L318.718 113.001L297.351 88.8608L299.741 74.9185L321.511 96.581Z" stroke="white" stroke-width="0.789575" stroke-linecap="round" stroke-linejoin="round"/>
<path d="M318.718 80.1905L321.511 96.5815L299.741 74.9189L297.351 60.9766L318.718 80.1905Z" stroke="white" stroke-width="0.789575" stroke-linecap="round" stroke-linejoin="round"/>
<path d="M310.424 64.4319L318.717 80.1891L297.35 60.9751L290.323 47.5801L310.424 64.4319Z" stroke="white" stroke-width="0.789575" stroke-linecap="round" stroke-linejoin="round"/>
<path d="M296.977 49.9135L310.425 64.432L290.325 47.5802L278.893 35.2222L296.977 49.9135Z" stroke="white" stroke-width="0.789575" stroke-linecap="round" stroke-linejoin="round"/>
<path d="M73.1084 35.2219L88.5148 24.3906L107.233 17.4482L95.167 25.9462L73.1084 35.2219Z" stroke="white" stroke-width="0.789575" stroke-linecap="round" stroke-linejoin="round"/>
<path d="M61.6758 47.5815L73.1082 35.2235L95.1668 25.9478L86.1821 35.6556L61.6758 47.5815Z" stroke="white" stroke-width="0.789575" stroke-linecap="round" stroke-linejoin="round"/>
<path d="M54.6211 60.9763L61.6764 47.5812L86.1827 35.6553L80.6537 46.1985L54.6211 60.9763Z" stroke="white" stroke-width="0.789575" stroke-linecap="round" stroke-linejoin="round"/>
<path d="M52.2598 74.9194L54.6211 60.977L80.6537 46.1992L78.7819 57.1457L52.2598 74.9194Z" stroke="white" stroke-width="0.789575" stroke-linecap="round" stroke-linejoin="round"/>
<path d="M54.6211 88.8611L52.2598 74.9187L78.7819 57.145L80.6537 68.1203L54.6211 88.8611Z" stroke="white" stroke-width="0.789575" stroke-linecap="round" stroke-linejoin="round"/>
<path d="M61.6764 102.284L54.6211 88.8604L80.6537 68.1196L86.1827 78.634L61.6764 102.284Z" stroke="white" stroke-width="0.789575" stroke-linecap="round" stroke-linejoin="round"/>
<path d="M73.1082 114.642L61.6758 102.284L86.1821 78.6343L95.1668 88.3421L73.1082 114.642Z" stroke="white" stroke-width="0.789575" stroke-linecap="round" stroke-linejoin="round"/>
<path d="M88.5148 125.446L73.1084 114.644L95.167 88.3433L107.233 96.87L88.5148 125.446Z" stroke="white" stroke-width="0.789575" stroke-linecap="round" stroke-linejoin="round"/>
<path d="M107.232 134.347L88.5137 125.445L107.232 96.8691L121.976 103.84L107.232 134.347Z" stroke="white" stroke-width="0.789575" stroke-linecap="round" stroke-linejoin="round"/>
<path d="M128.628 140.943L107.231 134.346L121.976 103.84L138.793 109.026L128.628 140.943Z" stroke="white" stroke-width="0.789575" stroke-linecap="round" stroke-linejoin="round"/>
<path d="M151.869 145.034L128.63 140.943L138.795 109.025L157.024 112.223L151.869 145.034Z" stroke="white" stroke-width="0.789575" stroke-linecap="round" stroke-linejoin="round"/>
<path d="M175.999 146.388L151.867 145.034L157.022 112.223L175.999 113.318V146.388Z" stroke="white" stroke-width="0.789575" stroke-linecap="round" stroke-linejoin="round"/>
<path d="M200.13 145.034L175.998 146.388V113.318L194.975 112.223L200.13 145.034Z" stroke="white" stroke-width="0.789575" stroke-linecap="round" stroke-linejoin="round"/>
<path d="M223.343 140.943L200.132 145.034L194.978 112.223L213.206 109.025L223.343 140.943Z" stroke="white" stroke-width="0.789575" stroke-linecap="round" stroke-linejoin="round"/>
<path d="M244.74 134.346L223.344 140.943L213.207 109.026L230.025 103.84L244.74 134.346Z" stroke="white" stroke-width="0.789575" stroke-linecap="round" stroke-linejoin="round"/>
<path d="M263.487 125.445L244.74 134.347L230.024 103.84L244.74 96.8691L263.487 125.445Z" stroke="white" stroke-width="0.789575" stroke-linecap="round" stroke-linejoin="round"/>
<path d="M278.892 114.644L263.485 125.446L244.738 96.87L256.833 88.3433L278.892 114.644Z" stroke="white" stroke-width="0.789575" stroke-linecap="round" stroke-linejoin="round"/>
<path d="M290.325 102.284L278.893 114.642L256.834 88.3421L265.819 78.6343L290.325 102.284Z" stroke="white" stroke-width="0.789575" stroke-linecap="round" stroke-linejoin="round"/>
<path d="M297.351 88.8604L290.325 102.284L265.818 78.634L271.347 68.1196L297.351 88.8604Z" stroke="white" stroke-width="0.789575" stroke-linecap="round" stroke-linejoin="round"/>
<path d="M299.741 74.9187L297.35 88.8611L271.347 68.1203L273.218 57.145L299.741 74.9187Z" stroke="white" stroke-width="0.789575" stroke-linecap="round" stroke-linejoin="round"/>
<path d="M297.35 60.977L299.741 74.9194L273.218 57.1457L271.347 46.1992L297.35 60.977Z" stroke="white" stroke-width="0.789575" stroke-linecap="round" stroke-linejoin="round"/>
<path d="M290.325 47.5812L297.351 60.9763L271.347 46.1985L265.818 35.6553L290.325 47.5812Z" stroke="white" stroke-width="0.789575" stroke-linecap="round" stroke-linejoin="round"/>
<path d="M278.893 35.2235L290.325 47.5815L265.819 35.6556L256.834 25.9478L278.893 35.2235Z" stroke="white" stroke-width="0.789575" stroke-linecap="round" stroke-linejoin="round"/>
<path d="M263.485 24.3906L278.892 35.2219L256.833 25.9462L244.738 17.4482L263.485 24.3906Z" stroke="white" stroke-width="0.789575" stroke-linecap="round" stroke-linejoin="round"/>
<path d="M244.74 15.5187L263.487 24.3911L244.74 17.4487L230.024 10.4775L244.74 15.5187Z" stroke="white" stroke-width="0.789575" stroke-linecap="round" stroke-linejoin="round"/>
<path d="M88.5137 24.3911L107.232 15.5187L121.976 10.4775L107.232 17.4487L88.5137 24.3911Z" stroke="white" stroke-width="0.789575" stroke-linecap="round" stroke-linejoin="round"/>
<path d="M95.166 25.9461L107.232 17.4482L128.628 16.6128L120.306 22.4605L95.166 25.9461Z" stroke="white" stroke-width="0.789575" stroke-linecap="round" stroke-linejoin="round"/>
<path d="M86.1826 35.6548L95.1673 25.947L120.307 22.4614L114.145 29.1446L86.1826 35.6548Z" stroke="white" stroke-width="0.789575" stroke-linecap="round" stroke-linejoin="round"/>
<path d="M80.6543 46.1961L86.1833 35.6529L114.145 29.1426L110.315 36.4018L80.6543 46.1961Z" stroke="white" stroke-width="0.789575" stroke-linecap="round" stroke-linejoin="round"/>
<path d="M78.7803 57.1445L80.6521 46.198L110.313 36.4038L109.017 43.9511L78.7803 57.1445Z" stroke="white" stroke-width="0.789575" stroke-linecap="round" stroke-linejoin="round"/>
<path d="M80.6521 68.1204L78.7803 57.1451L109.017 43.9517L110.313 51.499L80.6521 68.1204Z" stroke="white" stroke-width="0.789575" stroke-linecap="round" stroke-linejoin="round"/>
<path d="M86.1833 78.6343L80.6543 68.1199L110.315 51.4985L114.145 58.7578L86.1833 78.6343Z" stroke="white" stroke-width="0.789575" stroke-linecap="round" stroke-linejoin="round"/>
<path d="M95.1673 88.3412L86.1826 78.6334L114.145 58.7568L120.307 65.44L95.1673 88.3412Z" stroke="white" stroke-width="0.789575" stroke-linecap="round" stroke-linejoin="round"/>
<path d="M107.232 96.8689L95.166 88.3421L120.306 65.4409L128.628 71.2887L107.232 96.8689Z" stroke="white" stroke-width="0.789575" stroke-linecap="round" stroke-linejoin="round"/>
<path d="M121.976 103.84L107.231 96.8688L128.628 71.2886L138.793 76.0993L121.976 103.84Z" stroke="white" stroke-width="0.789575" stroke-linecap="round" stroke-linejoin="round"/>
<path d="M138.793 109.027L121.976 103.841L138.793 76.1006L150.37 79.6726L138.793 109.027Z" stroke="white" stroke-width="0.789575" stroke-linecap="round" stroke-linejoin="round"/>
<path d="M157.023 112.221L138.794 109.023L150.37 79.6694L162.926 81.8875L157.023 112.221Z" stroke="white" stroke-width="0.789575" stroke-linecap="round" stroke-linejoin="round"/>
<path d="M176 113.317L157.022 112.222L162.926 81.8892L176 82.6381V113.317Z" stroke="white" stroke-width="0.789575" stroke-linecap="round" stroke-linejoin="round"/>
<path d="M194.975 112.222L175.998 113.317V82.6381L189.072 81.8892L194.975 112.222Z" stroke="white" stroke-width="0.789575" stroke-linecap="round" stroke-linejoin="round"/>
<path d="M213.204 109.023L194.976 112.221L189.072 81.8875L201.628 79.6694L213.204 109.023Z" stroke="white" stroke-width="0.789575" stroke-linecap="round" stroke-linejoin="round"/>
<path d="M230.023 103.841L213.205 109.027L201.629 79.6726L213.205 76.1006L230.023 103.841Z" stroke="white" stroke-width="0.789575" stroke-linecap="round" stroke-linejoin="round"/>
<path d="M244.74 96.8688L230.025 103.84L213.207 76.0993L223.344 71.2886L244.74 96.8688Z" stroke="white" stroke-width="0.789575" stroke-linecap="round" stroke-linejoin="round"/>
<path d="M256.834 88.3421L244.739 96.8689L223.343 71.2887L231.694 65.4409L256.834 88.3421Z" stroke="white" stroke-width="0.789575" stroke-linecap="round" stroke-linejoin="round"/>
<path d="M265.82 78.6334L256.835 88.3412L231.695 65.44L237.887 58.7568L265.82 78.6334Z" stroke="white" stroke-width="0.789575" stroke-linecap="round" stroke-linejoin="round"/>
<path d="M271.347 68.1199L265.818 78.6343L237.885 58.7578L241.686 51.4985L271.347 68.1199Z" stroke="white" stroke-width="0.789575" stroke-linecap="round" stroke-linejoin="round"/>
<path d="M273.219 57.1451L271.348 68.1204L241.687 51.499L242.954 43.9517L273.219 57.1451Z" stroke="white" stroke-width="0.789575" stroke-linecap="round" stroke-linejoin="round"/>
<path d="M271.348 46.198L273.219 57.1445L242.954 43.9511L241.687 36.4038L271.348 46.198Z" stroke="white" stroke-width="0.789575" stroke-linecap="round" stroke-linejoin="round"/>
<path d="M265.818 35.6529L271.347 46.1961L241.686 36.4018L237.885 29.1426L265.818 35.6529Z" stroke="white" stroke-width="0.789575" stroke-linecap="round" stroke-linejoin="round"/>
<path d="M256.835 25.947L265.82 35.6548L237.887 29.1446L231.695 22.4614L256.835 25.947Z" stroke="white" stroke-width="0.789575" stroke-linecap="round" stroke-linejoin="round"/>
<path d="M244.739 17.4482L256.834 25.9461L231.694 22.4605L223.343 16.6128L244.739 17.4482Z" stroke="white" stroke-width="0.789575" stroke-linecap="round" stroke-linejoin="round"/>
<path d="M230.025 10.4775L244.74 17.4487L223.344 16.6133L213.207 11.7738L230.025 10.4775Z" stroke="white" stroke-width="0.789575" stroke-linecap="round" stroke-linejoin="round"/>
<path d="M213.205 5.29297L230.023 10.4782L213.205 11.7744L201.629 8.20243L213.205 5.29297Z" stroke="white" stroke-width="0.789575" stroke-linecap="round" stroke-linejoin="round"/>
<path d="M194.976 2.09521L213.204 5.29274L201.628 8.20221L189.072 6.01291L194.976 2.09521Z" stroke="white" stroke-width="0.789575" stroke-linecap="round" stroke-linejoin="round"/>
<path d="M175.998 1L194.975 2.09465L189.072 6.01234L175.998 5.26337V1Z" stroke="white" stroke-width="0.789575" stroke-linecap="round" stroke-linejoin="round"/>
<path d="M157.022 2.09465L176 1V5.26337L162.926 6.01234L157.022 2.09465Z" stroke="white" stroke-width="0.789575" stroke-linecap="round" stroke-linejoin="round"/>
<path d="M138.794 5.29274L157.023 2.09521L162.926 6.01291L150.37 8.20221L138.794 5.29274Z" stroke="white" stroke-width="0.789575" stroke-linecap="round" stroke-linejoin="round"/>
<path d="M121.976 10.4782L138.793 5.29297L150.37 8.20243L138.793 11.7744L121.976 10.4782Z" stroke="white" stroke-width="0.789575" stroke-linecap="round" stroke-linejoin="round"/>
<path d="M107.231 17.4487L121.976 10.4775L138.793 11.7738L128.628 16.6133L107.231 17.4487Z" stroke="white" stroke-width="0.789575" stroke-linecap="round" stroke-linejoin="round"/>
<path d="M120.306 22.4605L128.628 16.6128L151.867 21.8556L147.605 24.8515L120.306 22.4605Z" stroke="white" stroke-width="0.789575" stroke-linecap="round" stroke-linejoin="round"/>
<path d="M114.145 29.1446L120.307 22.4614L147.607 24.8524L144.468 28.2804L114.145 29.1446Z" stroke="white" stroke-width="0.789575" stroke-linecap="round" stroke-linejoin="round"/>
<path d="M110.314 36.4028L114.144 29.1435L144.468 28.2793L142.51 31.9665L110.314 36.4028Z" stroke="white" stroke-width="0.789575" stroke-linecap="round" stroke-linejoin="round"/>
<path d="M109.018 43.9513L110.313 36.404L142.509 31.9678L141.846 35.8279L109.018 43.9513Z" stroke="white" stroke-width="0.789575" stroke-linecap="round" stroke-linejoin="round"/>
<path d="M110.313 51.4974L109.018 43.9501L141.846 35.8267L142.509 39.6579L110.313 51.4974Z" stroke="white" stroke-width="0.789575" stroke-linecap="round" stroke-linejoin="round"/>
<path d="M114.144 58.7579L110.314 51.4987L142.51 39.6592L144.468 43.3464L114.144 58.7579Z" stroke="white" stroke-width="0.789575" stroke-linecap="round" stroke-linejoin="round"/>
<path d="M120.307 65.4408L114.145 58.7577L144.468 43.3462L147.607 46.7742L120.307 65.4408Z" stroke="white" stroke-width="0.789575" stroke-linecap="round" stroke-linejoin="round"/>
<path d="M128.628 71.2873L120.306 65.4396L147.605 46.7729L151.867 49.74L128.628 71.2873Z" stroke="white" stroke-width="0.789575" stroke-linecap="round" stroke-linejoin="round"/>
<path d="M138.795 76.0992L128.63 71.2885L151.869 49.7412L157.024 52.2186L138.795 76.0992Z" stroke="white" stroke-width="0.789575" stroke-linecap="round" stroke-linejoin="round"/>
<path d="M150.37 79.6709L138.794 76.0989L157.023 52.2183L162.926 54.0331L150.37 79.6709Z" stroke="white" stroke-width="0.789575" stroke-linecap="round" stroke-linejoin="round"/>
<path d="M162.928 81.8901L150.372 79.672L162.928 54.0342L169.349 55.1576L162.928 81.8901Z" stroke="white" stroke-width="0.789575" stroke-linecap="round" stroke-linejoin="round"/>
<path d="M176.003 82.6377L162.929 81.8888L169.35 55.1562L176.003 55.5307V82.6377Z" stroke="white" stroke-width="0.789575" stroke-linecap="round" stroke-linejoin="round"/>
<path d="M189.072 81.8888L175.998 82.6377V55.5307L182.65 55.1562L189.072 81.8888Z" stroke="white" stroke-width="0.789575" stroke-linecap="round" stroke-linejoin="round"/>
<path d="M201.631 79.672L189.075 81.8901L182.653 55.1576L189.075 54.0342L201.631 79.672Z" stroke="white" stroke-width="0.789575" stroke-linecap="round" stroke-linejoin="round"/>
<path d="M213.204 76.0989L201.628 79.6709L189.072 54.0331L194.976 52.2183L213.204 76.0989Z" stroke="white" stroke-width="0.789575" stroke-linecap="round" stroke-linejoin="round"/>
<path d="M223.343 71.2885L213.206 76.0992L194.978 52.2186L200.132 49.7412L223.343 71.2885Z" stroke="white" stroke-width="0.789575" stroke-linecap="round" stroke-linejoin="round"/>
<path d="M231.694 65.4396L223.343 71.2873L200.133 49.74L204.395 46.7729L231.694 65.4396Z" stroke="white" stroke-width="0.789575" stroke-linecap="round" stroke-linejoin="round"/>
<path d="M237.885 58.7577L231.693 65.4408L204.394 46.7742L207.532 43.3462L237.885 58.7577Z" stroke="white" stroke-width="0.789575" stroke-linecap="round" stroke-linejoin="round"/>
<path d="M241.686 51.4987L237.884 58.7579L207.532 43.3464L209.49 39.6592L241.686 51.4987Z" stroke="white" stroke-width="0.789575" stroke-linecap="round" stroke-linejoin="round"/>
<path d="M242.954 43.9501L241.687 51.4974L209.492 39.6579L210.126 35.8267L242.954 43.9501Z" stroke="white" stroke-width="0.789575" stroke-linecap="round" stroke-linejoin="round"/>
<path d="M241.687 36.404L242.954 43.9513L210.126 35.8279L209.492 31.9678L241.687 36.404Z" stroke="white" stroke-width="0.789575" stroke-linecap="round" stroke-linejoin="round"/>
<path d="M237.884 29.1435L241.686 36.4028L209.49 31.9665L207.532 28.2793L237.884 29.1435Z" stroke="white" stroke-width="0.789575" stroke-linecap="round" stroke-linejoin="round"/>
<path d="M231.693 22.4614L237.885 29.1446L207.532 28.2804L204.394 24.8524L231.693 22.4614Z" stroke="white" stroke-width="0.789575" stroke-linecap="round" stroke-linejoin="round"/>
<path d="M223.343 16.6128L231.694 22.4605L204.395 24.8515L200.133 21.8556L223.343 16.6128Z" stroke="white" stroke-width="0.789575" stroke-linecap="round" stroke-linejoin="round"/>
<path d="M213.206 11.7744L223.343 16.6139L200.132 21.8567L194.978 19.4082L213.206 11.7744Z" stroke="white" stroke-width="0.789575" stroke-linecap="round" stroke-linejoin="round"/>
<path d="M201.628 8.20215L213.204 11.7742L194.976 19.4079L189.072 17.5931L201.628 8.20215Z" stroke="white" stroke-width="0.789575" stroke-linecap="round" stroke-linejoin="round"/>
<path d="M189.075 6.01318L201.631 8.20248L189.075 17.5934L182.653 16.47L189.075 6.01318Z" stroke="white" stroke-width="0.789575" stroke-linecap="round" stroke-linejoin="round"/>
<path d="M175.998 5.26514L189.072 6.01411L182.65 16.4709L175.998 16.0964V5.26514Z" stroke="white" stroke-width="0.789575" stroke-linecap="round" stroke-linejoin="round"/>
<path d="M162.929 6.01411L176.003 5.26514V16.0964L169.35 16.4709L162.929 6.01411Z" stroke="white" stroke-width="0.789575" stroke-linecap="round" stroke-linejoin="round"/>
<path d="M150.372 8.20248L162.928 6.01318L169.349 16.47L162.928 17.5934L150.372 8.20248Z" stroke="white" stroke-width="0.789575" stroke-linecap="round" stroke-linejoin="round"/>
<path d="M138.794 11.7742L150.37 8.20215L162.926 17.5931L157.023 19.4079L138.794 11.7742Z" stroke="white" stroke-width="0.789575" stroke-linecap="round" stroke-linejoin="round"/>
<path d="M128.63 16.6139L138.795 11.7744L157.024 19.4082L151.869 21.8567L128.63 16.6139Z" stroke="white" stroke-width="0.789575" stroke-linecap="round" stroke-linejoin="round"/>
<path d="M147.607 24.8528L151.869 21.8569L176.001 33.0627L147.607 24.8528Z" stroke="white" stroke-width="0.789575" stroke-linecap="round" stroke-linejoin="round"/>
<path d="M144.469 28.2805L147.608 24.8525L176.002 33.0624L144.469 28.2805Z" stroke="white" stroke-width="0.789575" stroke-linecap="round" stroke-linejoin="round"/>
<path d="M142.508 31.9665L144.466 28.2793L175.999 33.0612L142.508 31.9665Z" stroke="white" stroke-width="0.789575" stroke-linecap="round" stroke-linejoin="round"/>
<path d="M141.848 35.8279L142.51 31.9678L176.001 33.0624L141.848 35.8279Z" stroke="white" stroke-width="0.789575" stroke-linecap="round" stroke-linejoin="round"/>
<path d="M142.51 39.6592L141.848 35.8279L176.001 33.0625L142.51 39.6592Z" stroke="white" stroke-width="0.789575" stroke-linecap="round" stroke-linejoin="round"/>
<path d="M144.466 43.3464L142.508 39.6592L175.999 33.0625L144.466 43.3464Z" stroke="white" stroke-width="0.789575" stroke-linecap="round" stroke-linejoin="round"/>
<path d="M147.608 46.7744L144.469 43.3464L176.002 33.0625L147.608 46.7744Z" stroke="white" stroke-width="0.789575" stroke-linecap="round" stroke-linejoin="round"/>
<path d="M151.869 49.7415L147.607 46.7744L176.001 33.0625L151.869 49.7415Z" stroke="white" stroke-width="0.789575" stroke-linecap="round" stroke-linejoin="round"/>
<path d="M157.022 52.2189L151.867 49.7415L175.999 33.0625L157.022 52.2189Z" stroke="white" stroke-width="0.789575" stroke-linecap="round" stroke-linejoin="round"/>
<path d="M162.926 54.0337L157.022 52.2189L176 33.0625L162.926 54.0337Z" stroke="white" stroke-width="0.789575" stroke-linecap="round" stroke-linejoin="round"/>
<path d="M169.35 55.1571L162.929 54.0337L176.003 33.0625L169.35 55.1571Z" stroke="white" stroke-width="0.789575" stroke-linecap="round" stroke-linejoin="round"/>
<path d="M176.001 55.5316L169.349 55.1571L176.001 33.0625V55.5316Z" stroke="white" stroke-width="0.789575" stroke-linecap="round" stroke-linejoin="round"/>
<path d="M182.65 55.1571L175.998 55.5316V33.0625L182.65 55.1571Z" stroke="white" stroke-width="0.789575" stroke-linecap="round" stroke-linejoin="round"/>
<path d="M189.072 54.0337L182.65 55.1571L175.998 33.0625L189.072 54.0337Z" stroke="white" stroke-width="0.789575" stroke-linecap="round" stroke-linejoin="round"/>
<path d="M194.975 52.2189L189.072 54.0337L175.998 33.0625L194.975 52.2189Z" stroke="white" stroke-width="0.789575" stroke-linecap="round" stroke-linejoin="round"/>
<path d="M200.13 49.7415L194.975 52.2189L175.998 33.0625L200.13 49.7415Z" stroke="white" stroke-width="0.789575" stroke-linecap="round" stroke-linejoin="round"/>
<path d="M204.392 46.7744L200.13 49.7415L175.998 33.0625L204.392 46.7744Z" stroke="white" stroke-width="0.789575" stroke-linecap="round" stroke-linejoin="round"/>
<path d="M207.531 43.3464L204.392 46.7744L175.998 33.0625L207.531 43.3464Z" stroke="white" stroke-width="0.789575" stroke-linecap="round" stroke-linejoin="round"/>
<path d="M209.489 39.6592L207.531 43.3464L175.998 33.0625L209.489 39.6592Z" stroke="white" stroke-width="0.789575" stroke-linecap="round" stroke-linejoin="round"/>
<path d="M210.123 35.8279L209.489 39.6592L175.998 33.0625L210.123 35.8279Z" stroke="white" stroke-width="0.789575" stroke-linecap="round" stroke-linejoin="round"/>
<path d="M209.489 31.9678L210.123 35.8279L175.998 33.0624L209.489 31.9678Z" stroke="white" stroke-width="0.789575" stroke-linecap="round" stroke-linejoin="round"/>
<path d="M207.531 28.2793L209.489 31.9665L175.998 33.0612L207.531 28.2793Z" stroke="white" stroke-width="0.789575" stroke-linecap="round" stroke-linejoin="round"/>
<path d="M204.392 24.8525L207.531 28.2805L175.998 33.0624L204.392 24.8525Z" stroke="white" stroke-width="0.789575" stroke-linecap="round" stroke-linejoin="round"/>
<path d="M200.13 21.8569L204.392 24.8528L175.998 33.0627L200.13 21.8569Z" stroke="white" stroke-width="0.789575" stroke-linecap="round" stroke-linejoin="round"/>
<path d="M194.975 19.4062L200.13 21.8548L175.998 33.0606L194.975 19.4062Z" stroke="white" stroke-width="0.789575" stroke-linecap="round" stroke-linejoin="round"/>
<path d="M189.072 17.5918L194.975 19.4066L175.998 33.0609L189.072 17.5918Z" stroke="white" stroke-width="0.789575" stroke-linecap="round" stroke-linejoin="round"/>
<path d="M182.65 16.4692L189.072 17.5927L175.998 33.0618L182.65 16.4692Z" stroke="white" stroke-width="0.789575" stroke-linecap="round" stroke-linejoin="round"/>
<path d="M175.998 16.0962L182.65 16.4707L175.998 33.0633V16.0962Z" stroke="white" stroke-width="0.789575" stroke-linecap="round" stroke-linejoin="round"/>
<path d="M169.349 16.4707L176.001 16.0962V33.0633L169.349 16.4707Z" stroke="white" stroke-width="0.789575" stroke-linecap="round" stroke-linejoin="round"/>
<path d="M162.929 17.5927L169.35 16.4692L176.003 33.0618L162.929 17.5927Z" stroke="white" stroke-width="0.789575" stroke-linecap="round" stroke-linejoin="round"/>
<path d="M157.022 19.4066L162.926 17.5918L176 33.0609L157.022 19.4066Z" stroke="white" stroke-width="0.789575" stroke-linecap="round" stroke-linejoin="round"/>
<path d="M151.867 21.8548L157.022 19.4062L175.999 33.0606L151.867 21.8548Z" stroke="white" stroke-width="0.789575" stroke-linecap="round" stroke-linejoin="round"/>
<path d="M107.233 15.5185L88.5144 24.3909L73.108 35.2222L55.0234 49.9136L41.5751 64.4321L26.6294 85.5761L17.4143 103.09L7.65213 128.757L4.36926 148.115L1 176L4.36926 203.885L7.65213 223.214L17.4143 248.909L26.6294 266.424L41.5751 287.568L55.0234 302.086L73.108 316.778L88.5144 327.58L107.233 336.481L121.977 341.523L138.794 346.708L157.023 349.905L176 351L194.977 349.905L213.206 346.708L230.023 341.523L244.739 336.481L263.486 327.58L278.892 316.778L296.977 302.086L310.425 287.568L325.371 266.424L334.586 248.909L344.319 223.214L347.631 203.885L351 176L347.631 148.115L344.319 128.757L334.586 103.09L325.371 85.5761L310.425 64.4321L296.977 49.9136L278.892 35.2222L263.486 24.3909L244.739 15.5185L230.023 10.4774L213.206 5.29218L194.977 2.09465L176 1L157.023 2.09465L138.794 5.29218L121.977 10.4774L107.233 15.5185Z" stroke="white" stroke-width="1.44268" stroke-linecap="round" stroke-linejoin="round"/>
</g>
<ellipse cx="175" cy="176.5" rx="133" ry="71.5" fill="black"/>
<path d="M85.2841 138.5H89.6491L94.2841 163.655H94.4191L101.529 138.5H105.264L112.194 163.655H112.284L116.829 138.5H121.194L114.804 170H110.439L103.464 144.845H103.329L96.0391 170H91.6741L85.2841 138.5ZM126.152 138.5H147.302V142.28H130.472V152.315H145.997V156.05H130.472V166.22H147.302V170H126.152V138.5ZM152.694 138.5H156.744L172.359 162.89H172.449V138.5H176.589V170H172.539L156.924 145.61H156.834V170H152.694V138.5ZM182.874 164.96V143.54L187.914 138.5H202.764L207.804 143.54V164.96L202.764 170H187.914L182.874 164.96ZM200.694 166.22L203.484 163.43V145.07L200.694 142.28H189.984L187.194 145.07V163.43L189.984 166.22H200.694ZM214.086 138.5H232.941L238.026 143.585V164.915L232.941 170H214.086V138.5ZM230.916 166.22L233.706 163.43V145.07L230.916 142.28H218.406V166.22H230.916ZM244.32 138.5H265.47V142.28H248.64V152.315H264.165V156.05H248.64V166.22H265.47V170H244.32V138.5Z" fill="#FFD200"/>
<path d="M70.7365 178.5H91.4365V182.28H75.0565V192.72H89.2765V196.5H75.0565V210H70.7365V178.5ZM95.9171 178.5H117.067V182.28H100.237V192.315H115.762V196.05H100.237V206.22H117.067V210H95.9171V178.5ZM131.055 178.5H135.375L146.715 210H142.26L139.47 201.99H127.005L124.215 210H119.76L131.055 178.5ZM138.345 198.345L133.26 183.63H133.17L128.175 198.345H138.345ZM153.963 182.235H144.468V178.5H167.778V182.235H158.283V210H153.963V182.235ZM172.294 204.915V178.5H176.614V203.43L179.404 206.22H189.214L192.004 203.43V178.5H196.324V204.915L191.239 210H177.379L172.294 204.915ZM226.186 200.1V210H221.866V201.18L218.131 197.175H207.376V210H203.056V178.5H221.641L226.006 182.865V192.675L222.541 196.14L226.186 200.1ZM207.376 193.485H219.706L221.731 191.505V184.17L219.706 182.19H207.376V193.485ZM232.719 178.5H253.869V182.28H237.039V192.315H252.564V196.05H237.039V206.22H253.869V210H232.719V178.5ZM258.587 205.635V202.215H262.862V204.24L264.797 206.22H275.102L277.082 204.195V197.715L275.102 195.78H263.042L258.677 191.37V182.865L263.042 178.5H276.632L280.997 182.865V186.33H276.767V184.26L274.787 182.28H264.932L262.952 184.26V190.02L264.932 192H276.992L281.357 196.365V205.545L276.902 210H262.952L258.587 205.635Z" fill="white"/>
</svg>
