<svg width="627" height="270" viewBox="0 0 627 270" fill="none" xmlns="http://www.w3.org/2000/svg">
<path opacity="0.5" d="M207.334 269L207.334 21C207.334 9.9543 216.289 1 227.334 1L416.667 1M416.667 1L606 1C617.046 1 626 9.95432 626 21L626 61.5848M416.667 1L416.667 269M626 61.5848L102.044 61.5848C97.4391 61.5848 92.975 59.9955 89.4059 57.0854L70.9661 42.0505C67.3969 39.1404 62.9328 37.5511 58.3276 37.5511L1.19326e-05 37.5511M626 61.5848L626 113.658M626 113.658L101.603 113.658C97.2679 113.658 93.0507 112.249 89.5857 109.645L68.2882 93.6367C64.8233 91.0322 60.606 89.624 56.2713 89.624L9.65637e-06 89.624M626 113.658L626 165.73M626 165.73L101.603 165.731C97.2679 165.731 93.0507 164.322 89.5857 161.718L68.2882 145.71C64.8233 143.105 60.606 141.697 56.2713 141.697L7.3802e-06 141.697M626 165.73L626 217.553M626 217.553L101.547 217.553C97.2465 217.553 93.0608 216.167 89.6104 213.6L68.2635 197.722C64.8131 195.156 60.6274 193.77 56.3271 193.77L5.10402e-06 193.77M626 217.553L626 249C626 260.046 617.046 269 606 269L101.85 269C97.3633 269 93.0073 267.492 89.4817 264.717L68.3922 248.122C64.8666 245.348 60.5106 243.84 56.0244 243.84L2.91539e-06 243.84" stroke="url(#paint0_linear_93_4758)"/>
<defs>
<linearGradient id="paint0_linear_93_4758" x1="626" y1="160.724" x2="-6.98174e-06" y2="160.724" gradientUnits="userSpaceOnUse">
<stop stop-color="white"/>
<stop offset="0.759615" stop-color="white" stop-opacity="0.25"/>
<stop offset="1" stop-color="white" stop-opacity="0.1"/>
</linearGradient>
</defs>
</svg>
