<svg width="23" height="23" viewBox="0 0 23 23" fill="none" xmlns="http://www.w3.org/2000/svg">
<path d="M21.9999 11.396C21.9846 17.2469 17.1923 21.9398 11.3873 21.8825C5.6931 21.8213 0.935202 17.1513 1.00017 11.247C1.06514 5.51073 5.76189 0.802518 11.6204 0.867486C17.3452 0.928631 22.0075 5.59863 21.9999 11.396ZM2.01672 11.3616C1.97468 16.4596 6.09819 20.7551 11.2726 20.8736C16.6152 20.9959 20.8725 16.7157 20.991 11.61C21.1133 6.29798 16.8636 1.98722 11.7159 1.87639C6.32748 1.75792 1.9785 6.1604 2.01672 11.3616Z" fill="white"/>
<path d="M11.1238 15.0189C10.6728 15.4278 10.2372 15.8252 9.80152 16.2265C9.43465 16.5666 8.89962 16.4863 8.71237 16.0278C8.51746 15.5539 8.37989 15.0532 8.2232 14.5641C8.06269 14.0558 7.90601 13.5437 7.75696 13.0316C7.72639 12.9208 7.66907 12.8673 7.55824 12.8291C6.85889 12.5998 6.15571 12.3743 5.46018 12.1183C5.25382 12.0418 5.04363 11.9157 4.89076 11.759C4.58886 11.4533 4.60796 11.0291 4.92898 10.7463C5.06656 10.624 5.23853 10.5246 5.41432 10.4559C8.73529 9.13741 12.0563 7.83424 15.3811 6.5349C15.5683 6.46229 15.7709 6.40496 15.9696 6.3935C16.5008 6.36292 16.8333 6.76037 16.7301 7.28393C16.5123 8.38837 16.2944 9.49282 16.0728 10.5973C15.7097 12.4316 15.3428 14.266 14.9798 16.1004C14.8308 16.8456 13.9632 17.1857 13.3556 16.7271C12.6142 16.1692 11.8805 15.5997 11.1238 15.0189ZM5.51368 11.2431C5.51751 11.2622 5.51751 11.2813 5.52133 11.3004C5.59394 11.331 5.67037 11.3692 5.7468 11.396C6.42323 11.6253 7.09965 11.8469 7.77225 12.08C7.91747 12.1297 8.0283 12.1183 8.16206 12.0342C10.0385 10.8342 11.9187 9.64186 13.7989 8.44952C13.9097 8.37691 14.032 8.31576 14.1581 8.27373C14.3951 8.19347 14.6091 8.2699 14.7314 8.45334C14.8613 8.64824 14.8537 8.88518 14.697 9.07626C14.6206 9.16798 14.5327 9.25206 14.4409 9.33613C13.348 10.3221 12.255 11.3043 11.1658 12.2864C10.8181 12.5998 10.4703 12.9132 10.1111 13.238C10.1799 13.2953 10.2334 13.3412 10.2869 13.3832C11.4257 14.2622 12.5645 15.1411 13.7034 16.0201C14.0091 16.2571 14.1734 16.1959 14.2499 15.8137C14.762 13.238 15.2702 10.6622 15.7823 8.08265C15.8397 7.7922 15.8932 7.50176 15.9619 7.15017C12.4422 8.52213 8.97988 9.88262 5.51368 11.2431ZM9.68305 15.2787C9.97349 15.0112 10.2295 14.7819 10.4971 14.5373C10.2678 14.3615 10.0614 14.201 9.82827 14.0214C9.77477 14.4494 9.73273 14.8354 9.68305 15.2787Z" fill="white"/>
</svg>
