<svg width="351" height="221" viewBox="0 0 351 221" fill="none" xmlns="http://www.w3.org/2000/svg">
<rect x="0.488281" y="0.03125" width="350" height="220" rx="10" fill="#1A1A1A"/>
<rect x="22" y="144" width="8" height="50" rx="4" fill="#FFD200"/>
<rect x="38" y="144" width="8" height="50" rx="4" fill="#FFD200"/>
<rect x="54" y="144" width="8" height="50" rx="4" fill="#FFD200"/>
<rect x="70" y="144" width="8" height="50" rx="4" fill="#FFD200"/>
<rect x="86" y="144" width="8" height="50" rx="4" fill="#FFD200"/>
<rect x="102" y="144" width="8" height="50" rx="4" fill="#FFD200"/>
<rect x="118" y="144" width="8" height="50" rx="4" fill="#FFD200"/>
<rect x="134" y="144" width="8" height="50" rx="4" fill="#FFD200"/>
<rect x="150" y="144" width="8" height="50" rx="4" fill="#FFD200"/>
<rect x="166" y="144" width="8" height="50" rx="4" fill="#FFD200"/>
<rect x="182" y="144" width="8" height="50" rx="4" fill="#FFD200"/>
<rect x="198" y="144" width="8" height="50" rx="4" fill="#FFD200"/>
<rect x="214" y="144" width="8" height="50" rx="4" fill="#FFD200"/>
<rect x="230" y="144" width="8" height="50" rx="4" fill="#FFD200"/>
<rect x="246" y="144" width="8" height="50" rx="4" fill="#FFD200"/>
<rect x="262" y="144" width="8" height="50" rx="4" fill="#FFD200"/>
<rect x="278" y="144" width="8" height="50" rx="4" fill="#FFD200"/>
<rect x="294" y="144" width="8" height="50" rx="4" fill="#FFD200"/>
<rect opacity="0.25" x="310" y="144" width="8" height="50" rx="4" fill="white"/>
<g clip-path="url(#clip0_1038_7896)">
<path d="M26.8852 35.0843H33.8021L41.1469 74.9456H41.3608L52.6275 35.0843H58.546L69.5275 74.9456H69.6701L76.8722 35.0843H83.7891L73.6633 85H66.7465L55.6937 45.1388H55.4798L43.9279 85H37.011L26.8852 35.0843ZM91.6447 35.0843H125.159V41.0742H98.4903V56.9759H123.092V62.8945H98.4903V79.0101H125.159V85H91.6447V35.0843Z" fill="#808080"/>
<path d="M133.705 35.0843H140.123L164.867 73.7333H165.01V35.0843H171.57V85H165.152L140.408 46.351H140.266V85H133.705V35.0843ZM181.529 77.0135V43.0709L189.516 35.0843H213.047L221.034 43.0709V77.0135L213.047 85H189.516L181.529 77.0135ZM209.767 79.0101L214.188 74.589V45.4953L209.767 41.0742H192.796L188.375 45.4953V74.589L192.796 79.0101H209.767ZM230.988 35.0843H260.866L268.924 43.1422V76.9422L260.866 85H230.988V35.0843ZM257.657 79.0101L262.078 74.589V45.4953L257.657 41.0742H237.833V79.0101H257.657ZM278.898 35.0843H312.413V41.0742H285.744V56.9759H310.345V62.8945H285.744V79.0101H312.413V85H278.898V35.0843Z" fill="#FFD200"/>
</g>
<path d="M298.864 129.184V132.496L297.36 134H295.616V135.76H294.496V134H292.528L291.056 132.528V131.504H292.256V132.128L293.024 132.912H294.496V128.8H292.56L291.088 127.328V124.272L292.56 122.8H294.496V121.04H295.616V122.8H297.264L298.736 124.272V125.312H297.552V124.672L296.752 123.888H295.616V127.712H297.392L298.864 129.184ZM294.496 127.712V123.888H293.088L292.288 124.672V126.928L293.088 127.712H294.496ZM297.664 129.584L296.864 128.8H295.616V132.912H296.864L297.664 132.096V129.584ZM302.98 124.048L300.468 125.344V124.224L303.076 122.8H304.196V134H302.98V124.048ZM306.843 122.8H308.155L311.755 131.472H311.787L315.387 122.8H316.715V134H315.562V125.152H315.531L312.251 132.88H311.291L308.027 125.152H307.995V134H306.843V122.8Z" fill="#808080"/>
<path d="M160.043 129.184V132.496L158.539 134H156.795V135.76H155.675V134H153.707L152.235 132.528V131.504H153.435V132.128L154.203 132.912H155.675V128.8H153.739L152.267 127.328V124.272L153.739 122.8H155.675V121.04H156.795V122.8H158.443L159.915 124.272V125.312H158.731V124.672L157.931 123.888H156.795V127.712H158.571L160.043 129.184ZM155.675 127.712V123.888H154.267L153.467 124.672V126.928L154.267 127.712H155.675ZM158.843 129.584L158.043 128.8H156.795V132.912H158.043L158.843 132.096V129.584ZM161.968 132.528V131.28H163.184V132.128L163.984 132.912H167.344L168.144 132.128V128.928L167.344 128.144H162.128V122.8H169.136V123.872H163.312V127.056H167.872L169.36 128.544V132.528L167.888 134H163.44L161.968 132.528ZM171.44 132.4V124.4L173.04 122.8H177.648L179.248 124.4V132.4L177.648 134H173.04L171.44 132.4ZM177.104 132.912L178.032 132V124.8L177.104 123.888H173.584L172.656 124.8V132L173.584 132.912H177.104ZM181.487 132.4V124.4L183.087 122.8H187.695L189.295 124.4V132.4L187.695 134H183.087L181.487 132.4ZM187.151 132.912L188.079 132V124.8L187.151 123.888H183.631L182.703 124.8V132L183.631 132.912H187.151ZM191.614 122.576H192.798V129.328H194.67L197.006 126.032H198.318L195.63 129.872L198.478 134H197.166L194.67 130.384H192.798V134H191.614V122.576Z" fill="#808080"/>
<path d="M30.848 129.184V132.496L29.344 134H27.6V135.76H26.48V134H24.512L23.04 132.528V131.504H24.24V132.128L25.008 132.912H26.48V128.8H24.544L23.072 127.328V124.272L24.544 122.8H26.48V121.04H27.6V122.8H29.248L30.72 124.272V125.312H29.536V124.672L28.736 123.888H27.6V127.712H29.376L30.848 129.184ZM26.48 127.712V123.888H25.072L24.272 124.672V126.928L25.072 127.712H26.48ZM29.648 129.584L28.848 128.8H27.6V132.912H28.848L29.648 132.096V129.584ZM32.9325 132.4V124.4L34.5325 122.8H39.1405L40.7405 124.4V132.4L39.1405 134H34.5325L32.9325 132.4ZM38.5965 132.912L39.5245 132V124.8L38.5965 123.888H35.0765L34.1485 124.8V132L35.0765 132.912H38.5965Z" fill="#808080"/>
<defs>
<clipPath id="clip0_1038_7896">
<rect width="296" height="79" fill="white" transform="translate(22 22)"/>
</clipPath>
</defs>
</svg>
